<?xml version="1.0" encoding="utf-8" standalone="no"?>
<!DOCTYPE svg PUBLIC "-//W3C//DTD SVG 1.1//EN"
  "http://www.w3.org/Graphics/SVG/1.1/DTD/svg11.dtd">
<svg xmlns:xlink="http://www.w3.org/1999/xlink" width="853.625pt" height="563.575625pt" viewBox="0 0 853.625 563.575625" xmlns="http://www.w3.org/2000/svg" version="1.1">
 <metadata>
  <rdf:RDF xmlns:dc="http://purl.org/dc/elements/1.1/" xmlns:cc="http://creativecommons.org/ns#" xmlns:rdf="http://www.w3.org/1999/02/22-rdf-syntax-ns#">
   <cc:Work>
    <dc:type rdf:resource="http://purl.org/dc/dcmitype/StillImage"/>
    <dc:date>2025-03-16T03:43:59.581080</dc:date>
    <dc:format>image/svg+xml</dc:format>
    <dc:creator>
     <cc:Agent>
      <dc:title>Matplotlib v3.10.1, https://matplotlib.org/</dc:title>
     </cc:Agent>
    </dc:creator>
   </cc:Work>
  </rdf:RDF>
 </metadata>
 <defs>
  <style type="text/css">*{stroke-linejoin: round; stroke-linecap: butt}</style>
 </defs>
 <g id="figure_1">
  <g id="patch_1">
   <path d="M 0 563.575625 
L 853.625 563.575625 
L 853.625 0 
L 0 0 
z
" style="fill: #ffffff"/>
  </g>
  <g id="axes_1">
   <g id="patch_2">
    <path d="M 48.955 518.276875 
L 846.425 518.276875 
L 846.425 28.396875 
L 48.955 28.396875 
z
" style="fill: #ffffff"/>
   </g>
   <g id="FillBetweenPolyCollection_1">
    <defs>
     <path id="m2e86d06381" d="M 85.203636 -77.68751 
L 85.203636 -512.911477 
L 92.526593 -492.464028 
L 99.84955 -472.016578 
L 107.172507 -451.569128 
L 114.495464 -431.121678 
L 121.818421 -410.674229 
L 129.141377 -390.226779 
L 136.464334 -369.779329 
L 143.787291 -349.33188 
L 151.110248 -328.88443 
L 158.433205 -308.43698 
L 165.756162 -287.989531 
L 173.079118 -267.542081 
L 180.402075 -247.094631 
L 187.725032 -226.647181 
L 195.047989 -206.199732 
L 202.370946 -185.752282 
L 209.693903 -165.304832 
L 217.01686 -144.857383 
L 224.339816 -124.409933 
L 231.662773 -103.962483 
L 238.98573 -268.720856 
L 246.308687 -205.218254 
L 253.631644 -177.028853 
L 260.954601 -160.557475 
L 268.277557 -149.55974 
L 275.600514 -141.607332 
L 282.923471 -135.542615 
L 290.246428 -130.737762 
L 297.569385 -126.820304 
L 297.569385 -77.68751 
L 297.569385 -77.68751 
L 290.246428 -77.68751 
L 282.923471 -77.68751 
L 275.600514 -77.68751 
L 268.277557 -77.68751 
L 260.954601 -77.68751 
L 253.631644 -77.68751 
L 246.308687 -77.68751 
L 238.98573 -77.68751 
L 231.662773 -77.68751 
L 224.339816 -77.68751 
L 217.01686 -77.68751 
L 209.693903 -77.68751 
L 202.370946 -77.68751 
L 195.047989 -77.68751 
L 187.725032 -77.68751 
L 180.402075 -77.68751 
L 173.079118 -77.68751 
L 165.756162 -77.68751 
L 158.433205 -77.68751 
L 151.110248 -77.68751 
L 143.787291 -77.68751 
L 136.464334 -77.68751 
L 129.141377 -77.68751 
L 121.818421 -77.68751 
L 114.495464 -77.68751 
L 107.172507 -77.68751 
L 99.84955 -77.68751 
L 92.526593 -77.68751 
L 85.203636 -77.68751 
z
" style="stroke: #ff0000; stroke-opacity: 0.3"/>
    </defs>
    <g clip-path="url(#p62d5020c19)">
     <use xlink:href="#m2e86d06381" x="0" y="563.575625" style="fill: #ff0000; fill-opacity: 0.3; stroke: #ff0000; stroke-opacity: 0.3"/>
    </g>
   </g>
   <g id="FillBetweenPolyCollection_2">
    <defs>
     <path id="m8206cd4d7c" d="M 304.892342 -77.68751 
L 304.892342 -123.554112 
L 312.215298 -120.781628 
L 319.538255 -118.393357 
L 326.861212 -116.310634 
L 334.184169 -114.475364 
L 341.507126 -112.843632 
L 348.830083 -111.38157 
L 356.153039 -110.062605 
L 363.475996 -108.86557 
L 370.798953 -107.773377 
L 378.12191 -106.772066 
L 385.444867 -105.850112 
L 392.767824 -104.997908 
L 400.090781 -104.207378 
L 407.413737 -103.471677 
L 414.736694 -102.784964 
L 422.059651 -102.142219 
L 429.382608 -101.539104 
L 436.705565 -100.971851 
L 444.028522 -100.437163 
L 451.351478 -99.93215 
L 458.674435 -99.454262 
L 465.997392 -99.001239 
L 473.320349 -98.571075 
L 480.643306 -98.161978 
L 487.966263 -97.772344 
L 495.289219 -97.400733 
L 502.612176 -97.045848 
L 509.935133 -96.706514 
L 517.25809 -96.381671 
L 524.581047 -96.070352 
L 531.904004 -95.771678 
L 539.226961 -95.484848 
L 546.549917 -95.209127 
L 553.872874 -94.943843 
L 561.195831 -94.688377 
L 568.518788 -94.44216 
L 575.841745 -94.204669 
L 583.164702 -93.975419 
L 590.487658 -93.753961 
L 597.810615 -93.53988 
L 605.133572 -93.332792 
L 612.456529 -93.132336 
L 619.779486 -92.93818 
L 627.102443 -92.750014 
L 634.425399 -92.567546 
L 641.748356 -92.390505 
L 649.071313 -92.218638 
L 656.39427 -92.051707 
L 663.717227 -77.789748 
L 663.717227 -77.68751 
L 663.717227 -77.68751 
L 656.39427 -77.68751 
L 649.071313 -77.68751 
L 641.748356 -77.68751 
L 634.425399 -77.68751 
L 627.102443 -77.68751 
L 619.779486 -77.68751 
L 612.456529 -77.68751 
L 605.133572 -77.68751 
L 597.810615 -77.68751 
L 590.487658 -77.68751 
L 583.164702 -77.68751 
L 575.841745 -77.68751 
L 568.518788 -77.68751 
L 561.195831 -77.68751 
L 553.872874 -77.68751 
L 546.549917 -77.68751 
L 539.226961 -77.68751 
L 531.904004 -77.68751 
L 524.581047 -77.68751 
L 517.25809 -77.68751 
L 509.935133 -77.68751 
L 502.612176 -77.68751 
L 495.289219 -77.68751 
L 487.966263 -77.68751 
L 480.643306 -77.68751 
L 473.320349 -77.68751 
L 465.997392 -77.68751 
L 458.674435 -77.68751 
L 451.351478 -77.68751 
L 444.028522 -77.68751 
L 436.705565 -77.68751 
L 429.382608 -77.68751 
L 422.059651 -77.68751 
L 414.736694 -77.68751 
L 407.413737 -77.68751 
L 400.090781 -77.68751 
L 392.767824 -77.68751 
L 385.444867 -77.68751 
L 378.12191 -77.68751 
L 370.798953 -77.68751 
L 363.475996 -77.68751 
L 356.153039 -77.68751 
L 348.830083 -77.68751 
L 341.507126 -77.68751 
L 334.184169 -77.68751 
L 326.861212 -77.68751 
L 319.538255 -77.68751 
L 312.215298 -77.68751 
L 304.892342 -77.68751 
z
" style="stroke: #800080; stroke-opacity: 0.3"/>
    </defs>
    <g clip-path="url(#p62d5020c19)">
     <use xlink:href="#m8206cd4d7c" x="0" y="563.575625" style="fill: #800080; fill-opacity: 0.3; stroke: #800080; stroke-opacity: 0.3"/>
    </g>
   </g>
   <g id="FillBetweenPolyCollection_3">
    <defs>
     <path id="ma7d3410ce5" d="M 671.040184 -77.68751 
L 671.040184 -77.278561 
L 678.36314 -76.767375 
L 685.686097 -76.256189 
L 693.009054 -75.745003 
L 700.332011 -75.233816 
L 707.654968 -74.72263 
L 714.977925 -74.211444 
L 722.300882 -73.700258 
L 729.623838 -73.189071 
L 736.946795 -72.677885 
L 744.269752 -72.166699 
L 751.592709 -71.655513 
L 758.915666 -71.144326 
L 766.238623 -70.63314 
L 773.561579 -70.121954 
L 780.884536 -69.610768 
L 788.207493 -69.099581 
L 795.53045 -68.588395 
L 802.853407 -68.077209 
L 810.176364 -67.566023 
L 810.176364 -77.68751 
L 810.176364 -77.68751 
L 802.853407 -77.68751 
L 795.53045 -77.68751 
L 788.207493 -77.68751 
L 780.884536 -77.68751 
L 773.561579 -77.68751 
L 766.238623 -77.68751 
L 758.915666 -77.68751 
L 751.592709 -77.68751 
L 744.269752 -77.68751 
L 736.946795 -77.68751 
L 729.623838 -77.68751 
L 722.300882 -77.68751 
L 714.977925 -77.68751 
L 707.654968 -77.68751 
L 700.332011 -77.68751 
L 693.009054 -77.68751 
L 685.686097 -77.68751 
L 678.36314 -77.68751 
L 671.040184 -77.68751 
z
" style="stroke: #008000; stroke-opacity: 0.3"/>
    </defs>
    <g clip-path="url(#p62d5020c19)">
     <use xlink:href="#ma7d3410ce5" x="0" y="563.575625" style="fill: #008000; fill-opacity: 0.3; stroke: #008000; stroke-opacity: 0.3"/>
    </g>
   </g>
   <g id="matplotlib.axis_1">
    <g id="xtick_1">
     <g id="line2d_1">
      <path d="M 85.203636 518.276875 
L 85.203636 28.396875 
" clip-path="url(#p62d5020c19)" style="fill: none; stroke-dasharray: 2.96,1.28; stroke-dashoffset: 0; stroke: #b0b0b0; stroke-opacity: 0.7; stroke-width: 0.8"/>
     </g>
     <g id="line2d_2">
      <defs>
       <path id="m161c42420f" d="M 0 0 
L 0 3.5 
" style="stroke: #000000; stroke-width: 0.8"/>
      </defs>
      <g>
       <use xlink:href="#m161c42420f" x="85.203636" y="518.276875" style="stroke: #000000; stroke-width: 0.8"/>
      </g>
     </g>
     <g id="text_1">
      <!-- 0.0 -->
      <g transform="translate(75.661761 534.395) scale(0.12 -0.12)">
       <defs>
        <path id="DejaVuSans-30" d="M 2034 4250 
Q 1547 4250 1301 3770 
Q 1056 3291 1056 2328 
Q 1056 1369 1301 889 
Q 1547 409 2034 409 
Q 2525 409 2770 889 
Q 3016 1369 3016 2328 
Q 3016 3291 2770 3770 
Q 2525 4250 2034 4250 
z
M 2034 4750 
Q 2819 4750 3233 4129 
Q 3647 3509 3647 2328 
Q 3647 1150 3233 529 
Q 2819 -91 2034 -91 
Q 1250 -91 836 529 
Q 422 1150 422 2328 
Q 422 3509 836 4129 
Q 1250 4750 2034 4750 
z
" transform="scale(0.015625)"/>
        <path id="DejaVuSans-2e" d="M 684 794 
L 1344 794 
L 1344 0 
L 684 0 
L 684 794 
z
" transform="scale(0.015625)"/>
       </defs>
       <use xlink:href="#DejaVuSans-30"/>
       <use xlink:href="#DejaVuSans-2e" transform="translate(63.623047 0)"/>
       <use xlink:href="#DejaVuSans-30" transform="translate(95.410156 0)"/>
      </g>
     </g>
    </g>
    <g id="xtick_2">
     <g id="line2d_3">
      <path d="M 230.198182 518.276875 
L 230.198182 28.396875 
" clip-path="url(#p62d5020c19)" style="fill: none; stroke-dasharray: 2.96,1.28; stroke-dashoffset: 0; stroke: #b0b0b0; stroke-opacity: 0.7; stroke-width: 0.8"/>
     </g>
     <g id="line2d_4">
      <g>
       <use xlink:href="#m161c42420f" x="230.198182" y="518.276875" style="stroke: #000000; stroke-width: 0.8"/>
      </g>
     </g>
     <g id="text_2">
      <!-- 0.2 -->
      <g transform="translate(220.656307 534.395) scale(0.12 -0.12)">
       <defs>
        <path id="DejaVuSans-32" d="M 1228 531 
L 3431 531 
L 3431 0 
L 469 0 
L 469 531 
Q 828 903 1448 1529 
Q 2069 2156 2228 2338 
Q 2531 2678 2651 2914 
Q 2772 3150 2772 3378 
Q 2772 3750 2511 3984 
Q 2250 4219 1831 4219 
Q 1534 4219 1204 4116 
Q 875 4013 500 3803 
L 500 4441 
Q 881 4594 1212 4672 
Q 1544 4750 1819 4750 
Q 2544 4750 2975 4387 
Q 3406 4025 3406 3419 
Q 3406 3131 3298 2873 
Q 3191 2616 2906 2266 
Q 2828 2175 2409 1742 
Q 1991 1309 1228 531 
z
" transform="scale(0.015625)"/>
       </defs>
       <use xlink:href="#DejaVuSans-30"/>
       <use xlink:href="#DejaVuSans-2e" transform="translate(63.623047 0)"/>
       <use xlink:href="#DejaVuSans-32" transform="translate(95.410156 0)"/>
      </g>
     </g>
    </g>
    <g id="xtick_3">
     <g id="line2d_5">
      <path d="M 375.192727 518.276875 
L 375.192727 28.396875 
" clip-path="url(#p62d5020c19)" style="fill: none; stroke-dasharray: 2.96,1.28; stroke-dashoffset: 0; stroke: #b0b0b0; stroke-opacity: 0.7; stroke-width: 0.8"/>
     </g>
     <g id="line2d_6">
      <g>
       <use xlink:href="#m161c42420f" x="375.192727" y="518.276875" style="stroke: #000000; stroke-width: 0.8"/>
      </g>
     </g>
     <g id="text_3">
      <!-- 0.4 -->
      <g transform="translate(365.650852 534.395) scale(0.12 -0.12)">
       <defs>
        <path id="DejaVuSans-34" d="M 2419 4116 
L 825 1625 
L 2419 1625 
L 2419 4116 
z
M 2253 4666 
L 3047 4666 
L 3047 1625 
L 3713 1625 
L 3713 1100 
L 3047 1100 
L 3047 0 
L 2419 0 
L 2419 1100 
L 313 1100 
L 313 1709 
L 2253 4666 
z
" transform="scale(0.015625)"/>
       </defs>
       <use xlink:href="#DejaVuSans-30"/>
       <use xlink:href="#DejaVuSans-2e" transform="translate(63.623047 0)"/>
       <use xlink:href="#DejaVuSans-34" transform="translate(95.410156 0)"/>
      </g>
     </g>
    </g>
    <g id="xtick_4">
     <g id="line2d_7">
      <path d="M 520.187273 518.276875 
L 520.187273 28.396875 
" clip-path="url(#p62d5020c19)" style="fill: none; stroke-dasharray: 2.96,1.28; stroke-dashoffset: 0; stroke: #b0b0b0; stroke-opacity: 0.7; stroke-width: 0.8"/>
     </g>
     <g id="line2d_8">
      <g>
       <use xlink:href="#m161c42420f" x="520.187273" y="518.276875" style="stroke: #000000; stroke-width: 0.8"/>
      </g>
     </g>
     <g id="text_4">
      <!-- 0.6 -->
      <g transform="translate(510.645398 534.395) scale(0.12 -0.12)">
       <defs>
        <path id="DejaVuSans-36" d="M 2113 2584 
Q 1688 2584 1439 2293 
Q 1191 2003 1191 1497 
Q 1191 994 1439 701 
Q 1688 409 2113 409 
Q 2538 409 2786 701 
Q 3034 994 3034 1497 
Q 3034 2003 2786 2293 
Q 2538 2584 2113 2584 
z
M 3366 4563 
L 3366 3988 
Q 3128 4100 2886 4159 
Q 2644 4219 2406 4219 
Q 1781 4219 1451 3797 
Q 1122 3375 1075 2522 
Q 1259 2794 1537 2939 
Q 1816 3084 2150 3084 
Q 2853 3084 3261 2657 
Q 3669 2231 3669 1497 
Q 3669 778 3244 343 
Q 2819 -91 2113 -91 
Q 1303 -91 875 529 
Q 447 1150 447 2328 
Q 447 3434 972 4092 
Q 1497 4750 2381 4750 
Q 2619 4750 2861 4703 
Q 3103 4656 3366 4563 
z
" transform="scale(0.015625)"/>
       </defs>
       <use xlink:href="#DejaVuSans-30"/>
       <use xlink:href="#DejaVuSans-2e" transform="translate(63.623047 0)"/>
       <use xlink:href="#DejaVuSans-36" transform="translate(95.410156 0)"/>
      </g>
     </g>
    </g>
    <g id="xtick_5">
     <g id="line2d_9">
      <path d="M 665.181818 518.276875 
L 665.181818 28.396875 
" clip-path="url(#p62d5020c19)" style="fill: none; stroke-dasharray: 2.96,1.28; stroke-dashoffset: 0; stroke: #b0b0b0; stroke-opacity: 0.7; stroke-width: 0.8"/>
     </g>
     <g id="line2d_10">
      <g>
       <use xlink:href="#m161c42420f" x="665.181818" y="518.276875" style="stroke: #000000; stroke-width: 0.8"/>
      </g>
     </g>
     <g id="text_5">
      <!-- 0.8 -->
      <g transform="translate(655.639943 534.395) scale(0.12 -0.12)">
       <defs>
        <path id="DejaVuSans-38" d="M 2034 2216 
Q 1584 2216 1326 1975 
Q 1069 1734 1069 1313 
Q 1069 891 1326 650 
Q 1584 409 2034 409 
Q 2484 409 2743 651 
Q 3003 894 3003 1313 
Q 3003 1734 2745 1975 
Q 2488 2216 2034 2216 
z
M 1403 2484 
Q 997 2584 770 2862 
Q 544 3141 544 3541 
Q 544 4100 942 4425 
Q 1341 4750 2034 4750 
Q 2731 4750 3128 4425 
Q 3525 4100 3525 3541 
Q 3525 3141 3298 2862 
Q 3072 2584 2669 2484 
Q 3125 2378 3379 2068 
Q 3634 1759 3634 1313 
Q 3634 634 3220 271 
Q 2806 -91 2034 -91 
Q 1263 -91 848 271 
Q 434 634 434 1313 
Q 434 1759 690 2068 
Q 947 2378 1403 2484 
z
M 1172 3481 
Q 1172 3119 1398 2916 
Q 1625 2713 2034 2713 
Q 2441 2713 2670 2916 
Q 2900 3119 2900 3481 
Q 2900 3844 2670 4047 
Q 2441 4250 2034 4250 
Q 1625 4250 1398 4047 
Q 1172 3844 1172 3481 
z
" transform="scale(0.015625)"/>
       </defs>
       <use xlink:href="#DejaVuSans-30"/>
       <use xlink:href="#DejaVuSans-2e" transform="translate(63.623047 0)"/>
       <use xlink:href="#DejaVuSans-38" transform="translate(95.410156 0)"/>
      </g>
     </g>
    </g>
    <g id="xtick_6">
     <g id="line2d_11">
      <path d="M 810.176364 518.276875 
L 810.176364 28.396875 
" clip-path="url(#p62d5020c19)" style="fill: none; stroke-dasharray: 2.96,1.28; stroke-dashoffset: 0; stroke: #b0b0b0; stroke-opacity: 0.7; stroke-width: 0.8"/>
     </g>
     <g id="line2d_12">
      <g>
       <use xlink:href="#m161c42420f" x="810.176364" y="518.276875" style="stroke: #000000; stroke-width: 0.8"/>
      </g>
     </g>
     <g id="text_6">
      <!-- 1.0 -->
      <g transform="translate(800.634489 534.395) scale(0.12 -0.12)">
       <defs>
        <path id="DejaVuSans-31" d="M 794 531 
L 1825 531 
L 1825 4091 
L 703 3866 
L 703 4441 
L 1819 4666 
L 2450 4666 
L 2450 531 
L 3481 531 
L 3481 0 
L 794 0 
L 794 531 
z
" transform="scale(0.015625)"/>
       </defs>
       <use xlink:href="#DejaVuSans-31"/>
       <use xlink:href="#DejaVuSans-2e" transform="translate(63.623047 0)"/>
       <use xlink:href="#DejaVuSans-30" transform="translate(95.410156 0)"/>
      </g>
     </g>
    </g>
    <g id="text_7">
     <!-- Водонасыщенность Sw, д.ед. -->
     <g transform="translate(324.1275 553.048125) scale(0.16 -0.16)">
      <defs>
       <path id="DejaVuSans-412" d="M 1259 2228 
L 1259 519 
L 2272 519 
Q 2781 519 3026 730 
Q 3272 941 3272 1375 
Q 3272 1813 3026 2020 
Q 2781 2228 2272 2228 
L 1259 2228 
z
M 1259 4147 
L 1259 2741 
L 2194 2741 
Q 2656 2741 2882 2914 
Q 3109 3088 3109 3444 
Q 3109 3797 2882 3972 
Q 2656 4147 2194 4147 
L 1259 4147 
z
M 628 4666 
L 2241 4666 
Q 2963 4666 3353 4366 
Q 3744 4066 3744 3513 
Q 3744 3084 3544 2831 
Q 3344 2578 2956 2516 
Q 3422 2416 3680 2098 
Q 3938 1781 3938 1306 
Q 3938 681 3513 340 
Q 3088 0 2303 0 
L 628 0 
L 628 4666 
z
" transform="scale(0.015625)"/>
       <path id="DejaVuSans-43e" d="M 1959 3097 
Q 1497 3097 1228 2736 
Q 959 2375 959 1747 
Q 959 1119 1226 758 
Q 1494 397 1959 397 
Q 2419 397 2687 759 
Q 2956 1122 2956 1747 
Q 2956 2369 2687 2733 
Q 2419 3097 1959 3097 
z
M 1959 3584 
Q 2709 3584 3137 3096 
Q 3566 2609 3566 1747 
Q 3566 888 3137 398 
Q 2709 -91 1959 -91 
Q 1206 -91 779 398 
Q 353 888 353 1747 
Q 353 2609 779 3096 
Q 1206 3584 1959 3584 
z
" transform="scale(0.015625)"/>
       <path id="DejaVuSans-434" d="M 1384 459 
L 3053 459 
L 3053 3041 
L 1844 3041 
L 1844 2603 
Q 1844 1316 1475 628 
L 1384 459 
z
M 550 459 
Q 834 584 959 850 
Q 1266 1509 1266 2838 
L 1266 3500 
L 3631 3500 
L 3631 459 
L 4091 459 
L 4091 -884 
L 3631 -884 
L 3631 0 
L 794 0 
L 794 -884 
L 334 -884 
L 334 459 
L 550 459 
z
" transform="scale(0.015625)"/>
       <path id="DejaVuSans-43d" d="M 581 3500 
L 1159 3500 
L 1159 2072 
L 3025 2072 
L 3025 3500 
L 3603 3500 
L 3603 0 
L 3025 0 
L 3025 1613 
L 1159 1613 
L 1159 0 
L 581 0 
L 581 3500 
z
" transform="scale(0.015625)"/>
       <path id="DejaVuSans-430" d="M 2194 1759 
Q 1497 1759 1228 1600 
Q 959 1441 959 1056 
Q 959 750 1161 570 
Q 1363 391 1709 391 
Q 2188 391 2477 730 
Q 2766 1069 2766 1631 
L 2766 1759 
L 2194 1759 
z
M 3341 1997 
L 3341 0 
L 2766 0 
L 2766 531 
Q 2569 213 2275 61 
Q 1981 -91 1556 -91 
Q 1019 -91 701 211 
Q 384 513 384 1019 
Q 384 1609 779 1909 
Q 1175 2209 1959 2209 
L 2766 2209 
L 2766 2266 
Q 2766 2663 2505 2880 
Q 2244 3097 1772 3097 
Q 1472 3097 1187 3025 
Q 903 2953 641 2809 
L 641 3341 
Q 956 3463 1253 3523 
Q 1550 3584 1831 3584 
Q 2591 3584 2966 3190 
Q 3341 2797 3341 1997 
z
" transform="scale(0.015625)"/>
       <path id="DejaVuSans-441" d="M 3122 3366 
L 3122 2828 
Q 2878 2963 2633 3030 
Q 2388 3097 2138 3097 
Q 1578 3097 1268 2742 
Q 959 2388 959 1747 
Q 959 1106 1268 751 
Q 1578 397 2138 397 
Q 2388 397 2633 464 
Q 2878 531 3122 666 
L 3122 134 
Q 2881 22 2623 -34 
Q 2366 -91 2075 -91 
Q 1284 -91 818 406 
Q 353 903 353 1747 
Q 353 2603 823 3093 
Q 1294 3584 2113 3584 
Q 2378 3584 2631 3529 
Q 2884 3475 3122 3366 
z
" transform="scale(0.015625)"/>
       <path id="DejaVuSans-44b" d="M 3907 3500 
L 4482 3500 
L 4482 0 
L 3907 0 
L 3907 3500 
z
M 4195 3584 
L 4195 3584 
z
M 2781 1038 
Q 2781 1319 2576 1466 
Q 2372 1613 1978 1613 
L 1159 1613 
L 1159 459 
L 1978 459 
Q 2372 459 2576 607 
Q 2781 756 2781 1038 
z
M 581 3500 
L 1159 3500 
L 1159 2072 
L 2003 2072 
Q 2672 2072 3033 1817 
Q 3394 1563 3394 1038 
Q 3394 513 3033 256 
Q 2672 0 2003 0 
L 581 0 
L 581 3500 
z
" transform="scale(0.015625)"/>
       <path id="DejaVuSans-449" d="M 5275 0 
L 581 0 
L 581 3500 
L 1159 3500 
L 1159 459 
L 2638 459 
L 2638 3500 
L 3216 3500 
L 3216 459 
L 4697 459 
L 4697 3500 
L 5275 3500 
L 5275 459 
L 5734 459 
L 5734 -884 
L 5275 -884 
L 5275 0 
z
" transform="scale(0.015625)"/>
       <path id="DejaVuSans-435" d="M 3597 1894 
L 3597 1613 
L 953 1613 
Q 991 1019 1311 708 
Q 1631 397 2203 397 
Q 2534 397 2845 478 
Q 3156 559 3463 722 
L 3463 178 
Q 3153 47 2828 -22 
Q 2503 -91 2169 -91 
Q 1331 -91 842 396 
Q 353 884 353 1716 
Q 353 2575 817 3079 
Q 1281 3584 2069 3584 
Q 2775 3584 3186 3129 
Q 3597 2675 3597 1894 
z
M 3022 2063 
Q 3016 2534 2758 2815 
Q 2500 3097 2075 3097 
Q 1594 3097 1305 2825 
Q 1016 2553 972 2059 
L 3022 2063 
z
" transform="scale(0.015625)"/>
       <path id="DejaVuSans-442" d="M 188 3500 
L 3541 3500 
L 3541 3041 
L 2147 3041 
L 2147 0 
L 1581 0 
L 1581 3041 
L 188 3041 
L 188 3500 
z
" transform="scale(0.015625)"/>
       <path id="DejaVuSans-44c" d="M 2781 1038 
Q 2781 1319 2576 1466 
Q 2372 1613 1978 1613 
L 1159 1613 
L 1159 459 
L 1978 459 
Q 2372 459 2576 607 
Q 2781 756 2781 1038 
z
M 581 3500 
L 1159 3500 
L 1159 2072 
L 2003 2072 
Q 2672 2072 3033 1817 
Q 3394 1563 3394 1038 
Q 3394 513 3033 256 
Q 2672 0 2003 0 
L 581 0 
L 581 3500 
z
" transform="scale(0.015625)"/>
       <path id="DejaVuSans-20" transform="scale(0.015625)"/>
       <path id="DejaVuSans-53" d="M 3425 4513 
L 3425 3897 
Q 3066 4069 2747 4153 
Q 2428 4238 2131 4238 
Q 1616 4238 1336 4038 
Q 1056 3838 1056 3469 
Q 1056 3159 1242 3001 
Q 1428 2844 1947 2747 
L 2328 2669 
Q 3034 2534 3370 2195 
Q 3706 1856 3706 1288 
Q 3706 609 3251 259 
Q 2797 -91 1919 -91 
Q 1588 -91 1214 -16 
Q 841 59 441 206 
L 441 856 
Q 825 641 1194 531 
Q 1563 422 1919 422 
Q 2459 422 2753 634 
Q 3047 847 3047 1241 
Q 3047 1584 2836 1778 
Q 2625 1972 2144 2069 
L 1759 2144 
Q 1053 2284 737 2584 
Q 422 2884 422 3419 
Q 422 4038 858 4394 
Q 1294 4750 2059 4750 
Q 2388 4750 2728 4690 
Q 3069 4631 3425 4513 
z
" transform="scale(0.015625)"/>
       <path id="DejaVuSans-77" d="M 269 3500 
L 844 3500 
L 1563 769 
L 2278 3500 
L 2956 3500 
L 3675 769 
L 4391 3500 
L 4966 3500 
L 4050 0 
L 3372 0 
L 2619 2869 
L 1863 0 
L 1184 0 
L 269 3500 
z
" transform="scale(0.015625)"/>
       <path id="DejaVuSans-2c" d="M 750 794 
L 1409 794 
L 1409 256 
L 897 -744 
L 494 -744 
L 750 256 
L 750 794 
z
" transform="scale(0.015625)"/>
      </defs>
      <use xlink:href="#DejaVuSans-412"/>
      <use xlink:href="#DejaVuSans-43e" transform="translate(68.603516 0)"/>
      <use xlink:href="#DejaVuSans-434" transform="translate(129.785156 0)"/>
      <use xlink:href="#DejaVuSans-43e" transform="translate(198.925781 0)"/>
      <use xlink:href="#DejaVuSans-43d" transform="translate(260.107422 0)"/>
      <use xlink:href="#DejaVuSans-430" transform="translate(325.488281 0)"/>
      <use xlink:href="#DejaVuSans-441" transform="translate(386.767578 0)"/>
      <use xlink:href="#DejaVuSans-44b" transform="translate(441.748047 0)"/>
      <use xlink:href="#DejaVuSans-449" transform="translate(520.703125 0)"/>
      <use xlink:href="#DejaVuSans-435" transform="translate(614.892578 0)"/>
      <use xlink:href="#DejaVuSans-43d" transform="translate(676.416016 0)"/>
      <use xlink:href="#DejaVuSans-43d" transform="translate(741.796875 0)"/>
      <use xlink:href="#DejaVuSans-43e" transform="translate(807.177734 0)"/>
      <use xlink:href="#DejaVuSans-441" transform="translate(868.359375 0)"/>
      <use xlink:href="#DejaVuSans-442" transform="translate(923.339844 0)"/>
      <use xlink:href="#DejaVuSans-44c" transform="translate(981.591797 0)"/>
      <use xlink:href="#DejaVuSans-20" transform="translate(1040.527344 0)"/>
      <use xlink:href="#DejaVuSans-53" transform="translate(1072.314453 0)"/>
      <use xlink:href="#DejaVuSans-77" transform="translate(1135.791016 0)"/>
      <use xlink:href="#DejaVuSans-2c" transform="translate(1217.578125 0)"/>
      <use xlink:href="#DejaVuSans-20" transform="translate(1249.365234 0)"/>
      <use xlink:href="#DejaVuSans-434" transform="translate(1281.152344 0)"/>
      <use xlink:href="#DejaVuSans-2e" transform="translate(1350.292969 0)"/>
      <use xlink:href="#DejaVuSans-435" transform="translate(1382.080078 0)"/>
      <use xlink:href="#DejaVuSans-434" transform="translate(1443.603516 0)"/>
      <use xlink:href="#DejaVuSans-2e" transform="translate(1512.744141 0)"/>
     </g>
    </g>
   </g>
   <g id="matplotlib.axis_2">
    <g id="ytick_1">
     <g id="line2d_13">
      <path d="M 48.955 485.888115 
L 846.425 485.888115 
" clip-path="url(#p62d5020c19)" style="fill: none; stroke-dasharray: 2.96,1.28; stroke-dashoffset: 0; stroke: #b0b0b0; stroke-opacity: 0.7; stroke-width: 0.8"/>
     </g>
     <g id="line2d_14">
      <defs>
       <path id="mdea4068368" d="M 0 0 
L -3.5 0 
" style="stroke: #000000; stroke-width: 0.8"/>
      </defs>
      <g>
       <use xlink:href="#mdea4068368" x="48.955" y="485.888115" style="stroke: #000000; stroke-width: 0.8"/>
      </g>
     </g>
     <g id="text_8">
      <!-- 0 -->
      <g transform="translate(34.32 490.447177) scale(0.12 -0.12)">
       <use xlink:href="#DejaVuSans-30"/>
      </g>
     </g>
    </g>
    <g id="ytick_2">
     <g id="line2d_15">
      <path d="M 48.955 384.673239 
L 846.425 384.673239 
" clip-path="url(#p62d5020c19)" style="fill: none; stroke-dasharray: 2.96,1.28; stroke-dashoffset: 0; stroke: #b0b0b0; stroke-opacity: 0.7; stroke-width: 0.8"/>
     </g>
     <g id="line2d_16">
      <g>
       <use xlink:href="#mdea4068368" x="48.955" y="384.673239" style="stroke: #000000; stroke-width: 0.8"/>
      </g>
     </g>
     <g id="text_9">
      <!-- 10 -->
      <g transform="translate(26.685 389.232301) scale(0.12 -0.12)">
       <use xlink:href="#DejaVuSans-31"/>
       <use xlink:href="#DejaVuSans-30" transform="translate(63.623047 0)"/>
      </g>
     </g>
    </g>
    <g id="ytick_3">
     <g id="line2d_17">
      <path d="M 48.955 283.458363 
L 846.425 283.458363 
" clip-path="url(#p62d5020c19)" style="fill: none; stroke-dasharray: 2.96,1.28; stroke-dashoffset: 0; stroke: #b0b0b0; stroke-opacity: 0.7; stroke-width: 0.8"/>
     </g>
     <g id="line2d_18">
      <g>
       <use xlink:href="#mdea4068368" x="48.955" y="283.458363" style="stroke: #000000; stroke-width: 0.8"/>
      </g>
     </g>
     <g id="text_10">
      <!-- 20 -->
      <g transform="translate(26.685 288.017425) scale(0.12 -0.12)">
       <use xlink:href="#DejaVuSans-32"/>
       <use xlink:href="#DejaVuSans-30" transform="translate(63.623047 0)"/>
      </g>
     </g>
    </g>
    <g id="ytick_4">
     <g id="line2d_19">
      <path d="M 48.955 182.243487 
L 846.425 182.243487 
" clip-path="url(#p62d5020c19)" style="fill: none; stroke-dasharray: 2.96,1.28; stroke-dashoffset: 0; stroke: #b0b0b0; stroke-opacity: 0.7; stroke-width: 0.8"/>
     </g>
     <g id="line2d_20">
      <g>
       <use xlink:href="#mdea4068368" x="48.955" y="182.243487" style="stroke: #000000; stroke-width: 0.8"/>
      </g>
     </g>
     <g id="text_11">
      <!-- 30 -->
      <g transform="translate(26.685 186.802549) scale(0.12 -0.12)">
       <defs>
        <path id="DejaVuSans-33" d="M 2597 2516 
Q 3050 2419 3304 2112 
Q 3559 1806 3559 1356 
Q 3559 666 3084 287 
Q 2609 -91 1734 -91 
Q 1441 -91 1130 -33 
Q 819 25 488 141 
L 488 750 
Q 750 597 1062 519 
Q 1375 441 1716 441 
Q 2309 441 2620 675 
Q 2931 909 2931 1356 
Q 2931 1769 2642 2001 
Q 2353 2234 1838 2234 
L 1294 2234 
L 1294 2753 
L 1863 2753 
Q 2328 2753 2575 2939 
Q 2822 3125 2822 3475 
Q 2822 3834 2567 4026 
Q 2313 4219 1838 4219 
Q 1578 4219 1281 4162 
Q 984 4106 628 3988 
L 628 4550 
Q 988 4650 1302 4700 
Q 1616 4750 1894 4750 
Q 2613 4750 3031 4423 
Q 3450 4097 3450 3541 
Q 3450 3153 3228 2886 
Q 3006 2619 2597 2516 
z
" transform="scale(0.015625)"/>
       </defs>
       <use xlink:href="#DejaVuSans-33"/>
       <use xlink:href="#DejaVuSans-30" transform="translate(63.623047 0)"/>
      </g>
     </g>
    </g>
    <g id="ytick_5">
     <g id="line2d_21">
      <path d="M 48.955 81.028611 
L 846.425 81.028611 
" clip-path="url(#p62d5020c19)" style="fill: none; stroke-dasharray: 2.96,1.28; stroke-dashoffset: 0; stroke: #b0b0b0; stroke-opacity: 0.7; stroke-width: 0.8"/>
     </g>
     <g id="line2d_22">
      <g>
       <use xlink:href="#mdea4068368" x="48.955" y="81.028611" style="stroke: #000000; stroke-width: 0.8"/>
      </g>
     </g>
     <g id="text_12">
      <!-- 40 -->
      <g transform="translate(26.685 85.587673) scale(0.12 -0.12)">
       <use xlink:href="#DejaVuSans-34"/>
       <use xlink:href="#DejaVuSans-30" transform="translate(63.623047 0)"/>
      </g>
     </g>
    </g>
    <g id="text_13">
     <!-- Капиллярное давление Pc, МПа -->
     <g transform="translate(19.3575 407.264375) rotate(-90) scale(0.16 -0.16)">
      <defs>
       <path id="DejaVuSans-41a" d="M 628 4666 
L 1259 4666 
L 1259 2359 
L 3516 4666 
L 4325 4666 
L 2522 2822 
L 4419 0 
L 3731 0 
L 2113 2403 
L 1259 1531 
L 1259 0 
L 628 0 
L 628 4666 
z
" transform="scale(0.015625)"/>
       <path id="DejaVuSans-43f" d="M 3603 3500 
L 3603 0 
L 3025 0 
L 3025 3041 
L 1159 3041 
L 1159 0 
L 581 0 
L 581 3500 
L 3603 3500 
z
" transform="scale(0.015625)"/>
       <path id="DejaVuSans-438" d="M 3578 3500 
L 3578 0 
L 3006 0 
L 3006 2809 
L 1319 0 
L 581 0 
L 581 3500 
L 1153 3500 
L 1153 697 
L 2838 3500 
L 3578 3500 
z
" transform="scale(0.015625)"/>
       <path id="DejaVuSans-43b" d="M 238 0 
L 238 478 
Q 806 566 981 959 
Q 1194 1513 1194 2928 
L 1194 3500 
L 3559 3500 
L 3559 0 
L 2984 0 
L 2984 3041 
L 1769 3041 
L 1769 2694 
Q 1769 1344 1494 738 
Q 1200 91 238 0 
z
" transform="scale(0.015625)"/>
       <path id="DejaVuSans-44f" d="M 1181 2491 
Q 1181 2231 1381 2084 
Q 1581 1938 1953 1938 
L 2728 1938 
L 2728 3041 
L 1953 3041 
Q 1581 3041 1381 2897 
Q 1181 2753 1181 2491 
z
M 363 0 
L 1431 1534 
Q 1069 1616 828 1830 
Q 588 2044 588 2491 
Q 588 2997 923 3248 
Q 1259 3500 1938 3500 
L 3306 3500 
L 3306 0 
L 2728 0 
L 2728 1478 
L 2013 1478 
L 981 0 
L 363 0 
z
" transform="scale(0.015625)"/>
       <path id="DejaVuSans-440" d="M 1159 525 
L 1159 -1331 
L 581 -1331 
L 581 3500 
L 1159 3500 
L 1159 2969 
Q 1341 3281 1617 3432 
Q 1894 3584 2278 3584 
Q 2916 3584 3314 3078 
Q 3713 2572 3713 1747 
Q 3713 922 3314 415 
Q 2916 -91 2278 -91 
Q 1894 -91 1617 61 
Q 1341 213 1159 525 
z
M 3116 1747 
Q 3116 2381 2855 2742 
Q 2594 3103 2138 3103 
Q 1681 3103 1420 2742 
Q 1159 2381 1159 1747 
Q 1159 1113 1420 752 
Q 1681 391 2138 391 
Q 2594 391 2855 752 
Q 3116 1113 3116 1747 
z
" transform="scale(0.015625)"/>
       <path id="DejaVuSans-432" d="M 1156 1613 
L 1156 459 
L 1975 459 
Q 2369 459 2575 607 
Q 2781 756 2781 1038 
Q 2781 1319 2575 1466 
Q 2369 1613 1975 1613 
L 1156 1613 
z
M 1156 3041 
L 1156 2072 
L 1913 2072 
Q 2238 2072 2444 2201 
Q 2650 2331 2650 2563 
Q 2650 2794 2444 2917 
Q 2238 3041 1913 3041 
L 1156 3041 
z
M 581 3500 
L 1950 3500 
Q 2566 3500 2897 3275 
Q 3228 3050 3228 2634 
Q 3228 2313 3059 2123 
Q 2891 1934 2559 1888 
Q 2956 1813 3175 1575 
Q 3394 1338 3394 981 
Q 3394 513 3033 256 
Q 2672 0 2003 0 
L 581 0 
L 581 3500 
z
" transform="scale(0.015625)"/>
       <path id="DejaVuSans-50" d="M 1259 4147 
L 1259 2394 
L 2053 2394 
Q 2494 2394 2734 2622 
Q 2975 2850 2975 3272 
Q 2975 3691 2734 3919 
Q 2494 4147 2053 4147 
L 1259 4147 
z
M 628 4666 
L 2053 4666 
Q 2838 4666 3239 4311 
Q 3641 3956 3641 3272 
Q 3641 2581 3239 2228 
Q 2838 1875 2053 1875 
L 1259 1875 
L 1259 0 
L 628 0 
L 628 4666 
z
" transform="scale(0.015625)"/>
       <path id="DejaVuSans-63" d="M 3122 3366 
L 3122 2828 
Q 2878 2963 2633 3030 
Q 2388 3097 2138 3097 
Q 1578 3097 1268 2742 
Q 959 2388 959 1747 
Q 959 1106 1268 751 
Q 1578 397 2138 397 
Q 2388 397 2633 464 
Q 2878 531 3122 666 
L 3122 134 
Q 2881 22 2623 -34 
Q 2366 -91 2075 -91 
Q 1284 -91 818 406 
Q 353 903 353 1747 
Q 353 2603 823 3093 
Q 1294 3584 2113 3584 
Q 2378 3584 2631 3529 
Q 2884 3475 3122 3366 
z
" transform="scale(0.015625)"/>
       <path id="DejaVuSans-41c" d="M 628 4666 
L 1569 4666 
L 2759 1491 
L 3956 4666 
L 4897 4666 
L 4897 0 
L 4281 0 
L 4281 4097 
L 3078 897 
L 2444 897 
L 1241 4097 
L 1241 0 
L 628 0 
L 628 4666 
z
" transform="scale(0.015625)"/>
       <path id="DejaVuSans-41f" d="M 4184 4666 
L 4184 0 
L 3553 0 
L 3553 4134 
L 1259 4134 
L 1259 0 
L 628 0 
L 628 4666 
L 4184 4666 
z
" transform="scale(0.015625)"/>
      </defs>
      <use xlink:href="#DejaVuSans-41a"/>
      <use xlink:href="#DejaVuSans-430" transform="translate(70.996094 0)"/>
      <use xlink:href="#DejaVuSans-43f" transform="translate(132.275391 0)"/>
      <use xlink:href="#DejaVuSans-438" transform="translate(197.65625 0)"/>
      <use xlink:href="#DejaVuSans-43b" transform="translate(262.646484 0)"/>
      <use xlink:href="#DejaVuSans-43b" transform="translate(326.5625 0)"/>
      <use xlink:href="#DejaVuSans-44f" transform="translate(390.478516 0)"/>
      <use xlink:href="#DejaVuSans-440" transform="translate(450.634766 0)"/>
      <use xlink:href="#DejaVuSans-43d" transform="translate(514.111328 0)"/>
      <use xlink:href="#DejaVuSans-43e" transform="translate(579.492188 0)"/>
      <use xlink:href="#DejaVuSans-435" transform="translate(640.673828 0)"/>
      <use xlink:href="#DejaVuSans-20" transform="translate(702.197266 0)"/>
      <use xlink:href="#DejaVuSans-434" transform="translate(733.984375 0)"/>
      <use xlink:href="#DejaVuSans-430" transform="translate(803.125 0)"/>
      <use xlink:href="#DejaVuSans-432" transform="translate(864.404297 0)"/>
      <use xlink:href="#DejaVuSans-43b" transform="translate(923.339844 0)"/>
      <use xlink:href="#DejaVuSans-435" transform="translate(987.255859 0)"/>
      <use xlink:href="#DejaVuSans-43d" transform="translate(1048.779297 0)"/>
      <use xlink:href="#DejaVuSans-438" transform="translate(1114.160156 0)"/>
      <use xlink:href="#DejaVuSans-435" transform="translate(1179.150391 0)"/>
      <use xlink:href="#DejaVuSans-20" transform="translate(1240.673828 0)"/>
      <use xlink:href="#DejaVuSans-50" transform="translate(1272.460938 0)"/>
      <use xlink:href="#DejaVuSans-63" transform="translate(1332.763672 0)"/>
      <use xlink:href="#DejaVuSans-2c" transform="translate(1387.744141 0)"/>
      <use xlink:href="#DejaVuSans-20" transform="translate(1419.53125 0)"/>
      <use xlink:href="#DejaVuSans-41c" transform="translate(1451.318359 0)"/>
      <use xlink:href="#DejaVuSans-41f" transform="translate(1537.597656 0)"/>
      <use xlink:href="#DejaVuSans-430" transform="translate(1612.792969 0)"/>
     </g>
    </g>
   </g>
   <g id="line2d_23">
    <path d="M 85.203636 50.664148 
L 92.526593 71.111597 
L 99.84955 91.559047 
L 107.172507 112.006497 
L 114.495464 132.453947 
L 121.818421 152.901396 
L 129.141377 173.348846 
L 136.464334 193.796296 
L 143.787291 214.243745 
L 151.110248 234.691195 
L 158.433205 255.138645 
L 165.756162 275.586094 
L 173.079118 296.033544 
L 180.402075 316.480994 
L 187.725032 336.928444 
L 195.047989 357.375893 
L 202.370946 377.823343 
L 209.693903 398.270793 
L 217.01686 418.718242 
L 224.339816 439.165692 
L 231.662773 459.613142 
L 238.98573 294.854769 
L 246.308687 358.357371 
L 253.631644 386.546772 
L 260.954601 403.01815 
L 268.277557 414.015885 
L 275.600514 421.968293 
L 282.923471 428.03301 
L 290.246428 432.837863 
L 297.569385 436.755321 
L 304.892342 440.021513 
L 312.215298 442.793997 
L 319.538255 445.182268 
L 326.861212 447.264991 
L 334.184169 449.100261 
L 341.507126 450.731993 
L 348.830083 452.194055 
L 356.153039 453.51302 
L 363.475996 454.710055 
L 370.798953 455.802248 
L 378.12191 456.803559 
L 385.444867 457.725513 
L 392.767824 458.577717 
L 400.090781 459.368247 
L 407.413737 460.103948 
L 414.736694 460.790661 
L 422.059651 461.433406 
L 429.382608 462.036521 
L 436.705565 462.603774 
L 444.028522 463.138462 
L 451.351478 463.643475 
L 458.674435 464.121363 
L 465.997392 464.574386 
L 473.320349 465.00455 
L 480.643306 465.413647 
L 487.966263 465.803281 
L 495.289219 466.174892 
L 502.612176 466.529777 
L 509.935133 466.869111 
L 517.25809 467.193954 
L 524.581047 467.505273 
L 531.904004 467.803947 
L 539.226961 468.090777 
L 546.549917 468.366498 
L 553.872874 468.631782 
L 561.195831 468.887248 
L 568.518788 469.133465 
L 575.841745 469.370956 
L 583.164702 469.600206 
L 590.487658 469.821664 
L 597.810615 470.035745 
L 605.133572 470.242833 
L 612.456529 470.443289 
L 619.779486 470.637445 
L 627.102443 470.825611 
L 634.425399 471.008079 
L 641.748356 471.18512 
L 649.071313 471.356987 
L 656.39427 471.523918 
L 663.717227 485.785877 
L 671.040184 486.297064 
L 678.36314 486.80825 
L 685.686097 487.319436 
L 693.009054 487.830622 
L 700.332011 488.341809 
L 707.654968 488.852995 
L 714.977925 489.364181 
L 722.300882 489.875367 
L 729.623838 490.386554 
L 736.946795 490.89774 
L 744.269752 491.408926 
L 751.592709 491.920112 
L 758.915666 492.431299 
L 766.238623 492.942485 
L 773.561579 493.453671 
L 780.884536 493.964857 
L 788.207493 494.476044 
L 795.53045 494.98723 
L 802.853407 495.498416 
L 810.176364 496.009602 
" clip-path="url(#p62d5020c19)" style="fill: none; stroke: #0000ff; stroke-width: 3; stroke-linecap: square"/>
    <defs>
     <path id="me2df2a716d" d="M 0 3 
C 0.795609 3 1.55874 2.683901 2.12132 2.12132 
C 2.683901 1.55874 3 0.795609 3 0 
C 3 -0.795609 2.683901 -1.55874 2.12132 -2.12132 
C 1.55874 -2.683901 0.795609 -3 0 -3 
C -0.795609 -3 -1.55874 -2.683901 -2.12132 -2.12132 
C -2.683901 -1.55874 -3 -0.795609 -3 0 
C -3 0.795609 -2.683901 1.55874 -2.12132 2.12132 
C -1.55874 2.683901 -0.795609 3 0 3 
z
" style="stroke: #0000ff"/>
    </defs>
    <g clip-path="url(#p62d5020c19)">
     <use xlink:href="#me2df2a716d" x="85.203636" y="50.664148" style="fill: #0000ff; stroke: #0000ff"/>
     <use xlink:href="#me2df2a716d" x="92.526593" y="71.111597" style="fill: #0000ff; stroke: #0000ff"/>
     <use xlink:href="#me2df2a716d" x="99.84955" y="91.559047" style="fill: #0000ff; stroke: #0000ff"/>
     <use xlink:href="#me2df2a716d" x="107.172507" y="112.006497" style="fill: #0000ff; stroke: #0000ff"/>
     <use xlink:href="#me2df2a716d" x="114.495464" y="132.453947" style="fill: #0000ff; stroke: #0000ff"/>
     <use xlink:href="#me2df2a716d" x="121.818421" y="152.901396" style="fill: #0000ff; stroke: #0000ff"/>
     <use xlink:href="#me2df2a716d" x="129.141377" y="173.348846" style="fill: #0000ff; stroke: #0000ff"/>
     <use xlink:href="#me2df2a716d" x="136.464334" y="193.796296" style="fill: #0000ff; stroke: #0000ff"/>
     <use xlink:href="#me2df2a716d" x="143.787291" y="214.243745" style="fill: #0000ff; stroke: #0000ff"/>
     <use xlink:href="#me2df2a716d" x="151.110248" y="234.691195" style="fill: #0000ff; stroke: #0000ff"/>
     <use xlink:href="#me2df2a716d" x="158.433205" y="255.138645" style="fill: #0000ff; stroke: #0000ff"/>
     <use xlink:href="#me2df2a716d" x="165.756162" y="275.586094" style="fill: #0000ff; stroke: #0000ff"/>
     <use xlink:href="#me2df2a716d" x="173.079118" y="296.033544" style="fill: #0000ff; stroke: #0000ff"/>
     <use xlink:href="#me2df2a716d" x="180.402075" y="316.480994" style="fill: #0000ff; stroke: #0000ff"/>
     <use xlink:href="#me2df2a716d" x="187.725032" y="336.928444" style="fill: #0000ff; stroke: #0000ff"/>
     <use xlink:href="#me2df2a716d" x="195.047989" y="357.375893" style="fill: #0000ff; stroke: #0000ff"/>
     <use xlink:href="#me2df2a716d" x="202.370946" y="377.823343" style="fill: #0000ff; stroke: #0000ff"/>
     <use xlink:href="#me2df2a716d" x="209.693903" y="398.270793" style="fill: #0000ff; stroke: #0000ff"/>
     <use xlink:href="#me2df2a716d" x="217.01686" y="418.718242" style="fill: #0000ff; stroke: #0000ff"/>
     <use xlink:href="#me2df2a716d" x="224.339816" y="439.165692" style="fill: #0000ff; stroke: #0000ff"/>
     <use xlink:href="#me2df2a716d" x="231.662773" y="459.613142" style="fill: #0000ff; stroke: #0000ff"/>
     <use xlink:href="#me2df2a716d" x="238.98573" y="294.854769" style="fill: #0000ff; stroke: #0000ff"/>
     <use xlink:href="#me2df2a716d" x="246.308687" y="358.357371" style="fill: #0000ff; stroke: #0000ff"/>
     <use xlink:href="#me2df2a716d" x="253.631644" y="386.546772" style="fill: #0000ff; stroke: #0000ff"/>
     <use xlink:href="#me2df2a716d" x="260.954601" y="403.01815" style="fill: #0000ff; stroke: #0000ff"/>
     <use xlink:href="#me2df2a716d" x="268.277557" y="414.015885" style="fill: #0000ff; stroke: #0000ff"/>
     <use xlink:href="#me2df2a716d" x="275.600514" y="421.968293" style="fill: #0000ff; stroke: #0000ff"/>
     <use xlink:href="#me2df2a716d" x="282.923471" y="428.03301" style="fill: #0000ff; stroke: #0000ff"/>
     <use xlink:href="#me2df2a716d" x="290.246428" y="432.837863" style="fill: #0000ff; stroke: #0000ff"/>
     <use xlink:href="#me2df2a716d" x="297.569385" y="436.755321" style="fill: #0000ff; stroke: #0000ff"/>
     <use xlink:href="#me2df2a716d" x="304.892342" y="440.021513" style="fill: #0000ff; stroke: #0000ff"/>
     <use xlink:href="#me2df2a716d" x="312.215298" y="442.793997" style="fill: #0000ff; stroke: #0000ff"/>
     <use xlink:href="#me2df2a716d" x="319.538255" y="445.182268" style="fill: #0000ff; stroke: #0000ff"/>
     <use xlink:href="#me2df2a716d" x="326.861212" y="447.264991" style="fill: #0000ff; stroke: #0000ff"/>
     <use xlink:href="#me2df2a716d" x="334.184169" y="449.100261" style="fill: #0000ff; stroke: #0000ff"/>
     <use xlink:href="#me2df2a716d" x="341.507126" y="450.731993" style="fill: #0000ff; stroke: #0000ff"/>
     <use xlink:href="#me2df2a716d" x="348.830083" y="452.194055" style="fill: #0000ff; stroke: #0000ff"/>
     <use xlink:href="#me2df2a716d" x="356.153039" y="453.51302" style="fill: #0000ff; stroke: #0000ff"/>
     <use xlink:href="#me2df2a716d" x="363.475996" y="454.710055" style="fill: #0000ff; stroke: #0000ff"/>
     <use xlink:href="#me2df2a716d" x="370.798953" y="455.802248" style="fill: #0000ff; stroke: #0000ff"/>
     <use xlink:href="#me2df2a716d" x="378.12191" y="456.803559" style="fill: #0000ff; stroke: #0000ff"/>
     <use xlink:href="#me2df2a716d" x="385.444867" y="457.725513" style="fill: #0000ff; stroke: #0000ff"/>
     <use xlink:href="#me2df2a716d" x="392.767824" y="458.577717" style="fill: #0000ff; stroke: #0000ff"/>
     <use xlink:href="#me2df2a716d" x="400.090781" y="459.368247" style="fill: #0000ff; stroke: #0000ff"/>
     <use xlink:href="#me2df2a716d" x="407.413737" y="460.103948" style="fill: #0000ff; stroke: #0000ff"/>
     <use xlink:href="#me2df2a716d" x="414.736694" y="460.790661" style="fill: #0000ff; stroke: #0000ff"/>
     <use xlink:href="#me2df2a716d" x="422.059651" y="461.433406" style="fill: #0000ff; stroke: #0000ff"/>
     <use xlink:href="#me2df2a716d" x="429.382608" y="462.036521" style="fill: #0000ff; stroke: #0000ff"/>
     <use xlink:href="#me2df2a716d" x="436.705565" y="462.603774" style="fill: #0000ff; stroke: #0000ff"/>
     <use xlink:href="#me2df2a716d" x="444.028522" y="463.138462" style="fill: #0000ff; stroke: #0000ff"/>
     <use xlink:href="#me2df2a716d" x="451.351478" y="463.643475" style="fill: #0000ff; stroke: #0000ff"/>
     <use xlink:href="#me2df2a716d" x="458.674435" y="464.121363" style="fill: #0000ff; stroke: #0000ff"/>
     <use xlink:href="#me2df2a716d" x="465.997392" y="464.574386" style="fill: #0000ff; stroke: #0000ff"/>
     <use xlink:href="#me2df2a716d" x="473.320349" y="465.00455" style="fill: #0000ff; stroke: #0000ff"/>
     <use xlink:href="#me2df2a716d" x="480.643306" y="465.413647" style="fill: #0000ff; stroke: #0000ff"/>
     <use xlink:href="#me2df2a716d" x="487.966263" y="465.803281" style="fill: #0000ff; stroke: #0000ff"/>
     <use xlink:href="#me2df2a716d" x="495.289219" y="466.174892" style="fill: #0000ff; stroke: #0000ff"/>
     <use xlink:href="#me2df2a716d" x="502.612176" y="466.529777" style="fill: #0000ff; stroke: #0000ff"/>
     <use xlink:href="#me2df2a716d" x="509.935133" y="466.869111" style="fill: #0000ff; stroke: #0000ff"/>
     <use xlink:href="#me2df2a716d" x="517.25809" y="467.193954" style="fill: #0000ff; stroke: #0000ff"/>
     <use xlink:href="#me2df2a716d" x="524.581047" y="467.505273" style="fill: #0000ff; stroke: #0000ff"/>
     <use xlink:href="#me2df2a716d" x="531.904004" y="467.803947" style="fill: #0000ff; stroke: #0000ff"/>
     <use xlink:href="#me2df2a716d" x="539.226961" y="468.090777" style="fill: #0000ff; stroke: #0000ff"/>
     <use xlink:href="#me2df2a716d" x="546.549917" y="468.366498" style="fill: #0000ff; stroke: #0000ff"/>
     <use xlink:href="#me2df2a716d" x="553.872874" y="468.631782" style="fill: #0000ff; stroke: #0000ff"/>
     <use xlink:href="#me2df2a716d" x="561.195831" y="468.887248" style="fill: #0000ff; stroke: #0000ff"/>
     <use xlink:href="#me2df2a716d" x="568.518788" y="469.133465" style="fill: #0000ff; stroke: #0000ff"/>
     <use xlink:href="#me2df2a716d" x="575.841745" y="469.370956" style="fill: #0000ff; stroke: #0000ff"/>
     <use xlink:href="#me2df2a716d" x="583.164702" y="469.600206" style="fill: #0000ff; stroke: #0000ff"/>
     <use xlink:href="#me2df2a716d" x="590.487658" y="469.821664" style="fill: #0000ff; stroke: #0000ff"/>
     <use xlink:href="#me2df2a716d" x="597.810615" y="470.035745" style="fill: #0000ff; stroke: #0000ff"/>
     <use xlink:href="#me2df2a716d" x="605.133572" y="470.242833" style="fill: #0000ff; stroke: #0000ff"/>
     <use xlink:href="#me2df2a716d" x="612.456529" y="470.443289" style="fill: #0000ff; stroke: #0000ff"/>
     <use xlink:href="#me2df2a716d" x="619.779486" y="470.637445" style="fill: #0000ff; stroke: #0000ff"/>
     <use xlink:href="#me2df2a716d" x="627.102443" y="470.825611" style="fill: #0000ff; stroke: #0000ff"/>
     <use xlink:href="#me2df2a716d" x="634.425399" y="471.008079" style="fill: #0000ff; stroke: #0000ff"/>
     <use xlink:href="#me2df2a716d" x="641.748356" y="471.18512" style="fill: #0000ff; stroke: #0000ff"/>
     <use xlink:href="#me2df2a716d" x="649.071313" y="471.356987" style="fill: #0000ff; stroke: #0000ff"/>
     <use xlink:href="#me2df2a716d" x="656.39427" y="471.523918" style="fill: #0000ff; stroke: #0000ff"/>
     <use xlink:href="#me2df2a716d" x="663.717227" y="485.785877" style="fill: #0000ff; stroke: #0000ff"/>
     <use xlink:href="#me2df2a716d" x="671.040184" y="486.297064" style="fill: #0000ff; stroke: #0000ff"/>
     <use xlink:href="#me2df2a716d" x="678.36314" y="486.80825" style="fill: #0000ff; stroke: #0000ff"/>
     <use xlink:href="#me2df2a716d" x="685.686097" y="487.319436" style="fill: #0000ff; stroke: #0000ff"/>
     <use xlink:href="#me2df2a716d" x="693.009054" y="487.830622" style="fill: #0000ff; stroke: #0000ff"/>
     <use xlink:href="#me2df2a716d" x="700.332011" y="488.341809" style="fill: #0000ff; stroke: #0000ff"/>
     <use xlink:href="#me2df2a716d" x="707.654968" y="488.852995" style="fill: #0000ff; stroke: #0000ff"/>
     <use xlink:href="#me2df2a716d" x="714.977925" y="489.364181" style="fill: #0000ff; stroke: #0000ff"/>
     <use xlink:href="#me2df2a716d" x="722.300882" y="489.875367" style="fill: #0000ff; stroke: #0000ff"/>
     <use xlink:href="#me2df2a716d" x="729.623838" y="490.386554" style="fill: #0000ff; stroke: #0000ff"/>
     <use xlink:href="#me2df2a716d" x="736.946795" y="490.89774" style="fill: #0000ff; stroke: #0000ff"/>
     <use xlink:href="#me2df2a716d" x="744.269752" y="491.408926" style="fill: #0000ff; stroke: #0000ff"/>
     <use xlink:href="#me2df2a716d" x="751.592709" y="491.920112" style="fill: #0000ff; stroke: #0000ff"/>
     <use xlink:href="#me2df2a716d" x="758.915666" y="492.431299" style="fill: #0000ff; stroke: #0000ff"/>
     <use xlink:href="#me2df2a716d" x="766.238623" y="492.942485" style="fill: #0000ff; stroke: #0000ff"/>
     <use xlink:href="#me2df2a716d" x="773.561579" y="493.453671" style="fill: #0000ff; stroke: #0000ff"/>
     <use xlink:href="#me2df2a716d" x="780.884536" y="493.964857" style="fill: #0000ff; stroke: #0000ff"/>
     <use xlink:href="#me2df2a716d" x="788.207493" y="494.476044" style="fill: #0000ff; stroke: #0000ff"/>
     <use xlink:href="#me2df2a716d" x="795.53045" y="494.98723" style="fill: #0000ff; stroke: #0000ff"/>
     <use xlink:href="#me2df2a716d" x="802.853407" y="495.498416" style="fill: #0000ff; stroke: #0000ff"/>
     <use xlink:href="#me2df2a716d" x="810.176364" y="496.009602" style="fill: #0000ff; stroke: #0000ff"/>
    </g>
   </g>
   <g id="line2d_24">
    <path d="M 48.955 485.888115 
L 846.425 485.888115 
" clip-path="url(#p62d5020c19)" style="fill: none; stroke-dasharray: 5.55,2.4; stroke-dashoffset: 0; stroke: #000000; stroke-opacity: 0.7; stroke-width: 1.5"/>
   </g>
   <g id="patch_3">
    <path d="M 48.955 518.276875 
L 48.955 28.396875 
" style="fill: none; stroke: #000000; stroke-width: 0.8; stroke-linejoin: miter; stroke-linecap: square"/>
   </g>
   <g id="patch_4">
    <path d="M 846.425 518.276875 
L 846.425 28.396875 
" style="fill: none; stroke: #000000; stroke-width: 0.8; stroke-linejoin: miter; stroke-linecap: square"/>
   </g>
   <g id="patch_5">
    <path d="M 48.955 518.276875 
L 846.425 518.276875 
" style="fill: none; stroke: #000000; stroke-width: 0.8; stroke-linejoin: miter; stroke-linecap: square"/>
   </g>
   <g id="patch_6">
    <path d="M 48.955 28.396875 
L 846.425 28.396875 
" style="fill: none; stroke: #000000; stroke-width: 0.8; stroke-linejoin: miter; stroke-linecap: square"/>
   </g>
   <g id="text_14">
    <!-- Кривая капиллярного давления -->
    <g transform="translate(278.43375 22.396875) scale(0.2 -0.2)">
     <defs>
      <path id="DejaVuSans-43a" d="M 581 3500 
L 1153 3500 
L 1153 1856 
L 2775 3500 
L 3481 3500 
L 2144 2147 
L 3653 0 
L 3009 0 
L 1769 1766 
L 1153 1141 
L 1153 0 
L 581 0 
L 581 3500 
z
" transform="scale(0.015625)"/>
      <path id="DejaVuSans-433" d="M 581 0 
L 581 3500 
L 3050 3500 
L 3050 3041 
L 1159 3041 
L 1159 0 
L 581 0 
z
" transform="scale(0.015625)"/>
     </defs>
     <use xlink:href="#DejaVuSans-41a"/>
     <use xlink:href="#DejaVuSans-440" transform="translate(70.996094 0)"/>
     <use xlink:href="#DejaVuSans-438" transform="translate(134.472656 0)"/>
     <use xlink:href="#DejaVuSans-432" transform="translate(199.462891 0)"/>
     <use xlink:href="#DejaVuSans-430" transform="translate(258.398438 0)"/>
     <use xlink:href="#DejaVuSans-44f" transform="translate(319.677734 0)"/>
     <use xlink:href="#DejaVuSans-20" transform="translate(379.833984 0)"/>
     <use xlink:href="#DejaVuSans-43a" transform="translate(411.621094 0)"/>
     <use xlink:href="#DejaVuSans-430" transform="translate(472.021484 0)"/>
     <use xlink:href="#DejaVuSans-43f" transform="translate(533.300781 0)"/>
     <use xlink:href="#DejaVuSans-438" transform="translate(598.681641 0)"/>
     <use xlink:href="#DejaVuSans-43b" transform="translate(663.671875 0)"/>
     <use xlink:href="#DejaVuSans-43b" transform="translate(727.587891 0)"/>
     <use xlink:href="#DejaVuSans-44f" transform="translate(791.503906 0)"/>
     <use xlink:href="#DejaVuSans-440" transform="translate(851.660156 0)"/>
     <use xlink:href="#DejaVuSans-43d" transform="translate(915.136719 0)"/>
     <use xlink:href="#DejaVuSans-43e" transform="translate(980.517578 0)"/>
     <use xlink:href="#DejaVuSans-433" transform="translate(1041.699219 0)"/>
     <use xlink:href="#DejaVuSans-43e" transform="translate(1094.238281 0)"/>
     <use xlink:href="#DejaVuSans-20" transform="translate(1155.419922 0)"/>
     <use xlink:href="#DejaVuSans-434" transform="translate(1187.207031 0)"/>
     <use xlink:href="#DejaVuSans-430" transform="translate(1256.347656 0)"/>
     <use xlink:href="#DejaVuSans-432" transform="translate(1317.626953 0)"/>
     <use xlink:href="#DejaVuSans-43b" transform="translate(1376.5625 0)"/>
     <use xlink:href="#DejaVuSans-435" transform="translate(1440.478516 0)"/>
     <use xlink:href="#DejaVuSans-43d" transform="translate(1502.001953 0)"/>
     <use xlink:href="#DejaVuSans-438" transform="translate(1567.382812 0)"/>
     <use xlink:href="#DejaVuSans-44f" transform="translate(1632.373047 0)"/>
    </g>
   </g>
   <g id="legend_1">
    <g id="patch_7">
     <path d="M 644.442187 101.483437 
L 836.625 101.483437 
Q 839.425 101.483437 839.425 98.683437 
L 839.425 38.196875 
Q 839.425 35.396875 836.625 35.396875 
L 644.442187 35.396875 
Q 641.642187 35.396875 641.642187 38.196875 
L 641.642187 98.683437 
Q 641.642187 101.483437 644.442187 101.483437 
z
" style="fill: #ffffff; opacity: 0.8; stroke: #cccccc; stroke-linejoin: miter"/>
    </g>
    <g id="patch_8">
     <path d="M 647.242187 51.873125 
L 675.242187 51.873125 
L 675.242187 42.073125 
L 647.242187 42.073125 
z
" style="fill: #ff0000; fill-opacity: 0.3; stroke: #ff0000; stroke-opacity: 0.3; stroke-linejoin: miter"/>
    </g>
    <g id="text_15">
     <!-- Гидрофобная зона -->
     <g transform="translate(686.442187 51.873125) scale(0.14 -0.14)">
      <defs>
       <path id="DejaVuSans-413" d="M 628 0 
L 628 4666 
L 3531 4666 
L 3531 4134 
L 1259 4134 
L 1259 0 
L 628 0 
z
" transform="scale(0.015625)"/>
       <path id="DejaVuSans-444" d="M 947 1747 
Q 947 1013 1173 702 
Q 1400 391 1784 391 
Q 2091 391 2447 916 
L 2447 2578 
Q 2091 3103 1784 3103 
Q 1400 3103 1173 2792 
Q 947 2481 947 1747 
z
M 2447 -1331 
L 2447 447 
Q 2269 153 2064 31 
Q 1859 -91 1600 -91 
Q 1078 -91 714 392 
Q 350 875 350 1734 
Q 350 2594 714 3089 
Q 1078 3584 1600 3584 
Q 1859 3584 2064 3465 
Q 2269 3347 2447 3053 
L 2447 4666 
L 3025 4666 
L 3025 3053 
Q 3203 3347 3408 3465 
Q 3613 3584 3872 3584 
Q 4394 3584 4758 3089 
Q 5122 2594 5122 1734 
Q 5122 875 4758 392 
Q 4394 -91 3872 -91 
Q 3613 -91 3408 31 
Q 3203 153 3025 447 
L 3025 -1331 
L 2447 -1331 
z
M 4525 1747 
Q 4525 2481 4298 2792 
Q 4072 3103 3688 3103 
Q 3381 3103 3025 2578 
L 3025 916 
Q 3381 391 3688 391 
Q 4072 391 4298 702 
Q 4525 1013 4525 1747 
z
" transform="scale(0.015625)"/>
       <path id="DejaVuSans-431" d="M 1991 3584 
Q 2741 3584 3169 3096 
Q 3597 2609 3597 1747 
Q 3597 888 3169 398 
Q 2741 -91 1991 -91 
Q 1238 -91 822 384 
Q 406 859 384 1747 
L 366 2463 
Q 350 2834 350 2963 
Q 350 3463 531 3831 
Q 816 4409 1308 4659 
Q 1800 4909 2625 4916 
Q 3006 4919 3175 4972 
L 3334 4516 
Q 3181 4453 3041 4450 
L 2259 4397 
Q 1866 4369 1628 4231 
Q 1006 3866 947 3388 
L 925 3213 
Q 1331 3584 1991 3584 
z
M 1991 3097 
Q 1528 3097 1259 2736 
Q 991 2375 991 1747 
Q 991 1119 1258 758 
Q 1525 397 1991 397 
Q 2450 397 2719 759 
Q 2988 1122 2988 1747 
Q 2988 2369 2719 2733 
Q 2450 3097 1991 3097 
z
" transform="scale(0.015625)"/>
       <path id="DejaVuSans-437" d="M 2206 1888 
Q 2594 1813 2809 1584 
Q 3025 1356 3025 1019 
Q 3025 478 2622 193 
Q 2219 -91 1475 -91 
Q 1225 -91 961 -47 
Q 697 -3 416 84 
L 416 619 
Q 638 503 903 445 
Q 1169 388 1459 388 
Q 1931 388 2195 563 
Q 2459 738 2459 1019 
Q 2459 1294 2225 1461 
Q 1991 1628 1563 1628 
L 1100 1628 
L 1100 2103 
L 1584 2103 
Q 1947 2103 2158 2242 
Q 2369 2381 2369 2600 
Q 2369 2800 2151 2944 
Q 1934 3088 1563 3088 
Q 1341 3088 1089 3047 
Q 838 3006 534 2916 
L 534 3438 
Q 841 3513 1106 3550 
Q 1372 3588 1609 3588 
Q 2222 3588 2576 3342 
Q 2931 3097 2931 2656 
Q 2931 2366 2743 2164 
Q 2556 1963 2206 1888 
z
" transform="scale(0.015625)"/>
      </defs>
      <use xlink:href="#DejaVuSans-413"/>
      <use xlink:href="#DejaVuSans-438" transform="translate(60.986328 0)"/>
      <use xlink:href="#DejaVuSans-434" transform="translate(125.976562 0)"/>
      <use xlink:href="#DejaVuSans-440" transform="translate(195.117188 0)"/>
      <use xlink:href="#DejaVuSans-43e" transform="translate(258.59375 0)"/>
      <use xlink:href="#DejaVuSans-444" transform="translate(319.775391 0)"/>
      <use xlink:href="#DejaVuSans-43e" transform="translate(405.273438 0)"/>
      <use xlink:href="#DejaVuSans-431" transform="translate(466.455078 0)"/>
      <use xlink:href="#DejaVuSans-43d" transform="translate(528.125 0)"/>
      <use xlink:href="#DejaVuSans-430" transform="translate(593.505859 0)"/>
      <use xlink:href="#DejaVuSans-44f" transform="translate(654.785156 0)"/>
      <use xlink:href="#DejaVuSans-20" transform="translate(714.941406 0)"/>
      <use xlink:href="#DejaVuSans-437" transform="translate(746.728516 0)"/>
      <use xlink:href="#DejaVuSans-43e" transform="translate(799.902344 0)"/>
      <use xlink:href="#DejaVuSans-43d" transform="translate(861.083984 0)"/>
      <use xlink:href="#DejaVuSans-430" transform="translate(926.464844 0)"/>
     </g>
    </g>
    <g id="patch_9">
     <path d="M 647.242187 72.4225 
L 675.242187 72.4225 
L 675.242187 62.6225 
L 647.242187 62.6225 
z
" style="fill: #800080; fill-opacity: 0.3; stroke: #800080; stroke-opacity: 0.3; stroke-linejoin: miter"/>
    </g>
    <g id="text_16">
     <!-- Переходная зона -->
     <g transform="translate(686.442187 72.4225) scale(0.14 -0.14)">
      <defs>
       <path id="DejaVuSans-445" d="M 3513 3500 
L 2247 1797 
L 3578 0 
L 2900 0 
L 1881 1375 
L 863 0 
L 184 0 
L 1544 1831 
L 300 3500 
L 978 3500 
L 1906 2253 
L 2834 3500 
L 3513 3500 
z
" transform="scale(0.015625)"/>
      </defs>
      <use xlink:href="#DejaVuSans-41f"/>
      <use xlink:href="#DejaVuSans-435" transform="translate(75.195312 0)"/>
      <use xlink:href="#DejaVuSans-440" transform="translate(136.71875 0)"/>
      <use xlink:href="#DejaVuSans-435" transform="translate(200.195312 0)"/>
      <use xlink:href="#DejaVuSans-445" transform="translate(261.71875 0)"/>
      <use xlink:href="#DejaVuSans-43e" transform="translate(320.898438 0)"/>
      <use xlink:href="#DejaVuSans-434" transform="translate(382.080078 0)"/>
      <use xlink:href="#DejaVuSans-43d" transform="translate(451.220703 0)"/>
      <use xlink:href="#DejaVuSans-430" transform="translate(516.601562 0)"/>
      <use xlink:href="#DejaVuSans-44f" transform="translate(577.880859 0)"/>
      <use xlink:href="#DejaVuSans-20" transform="translate(638.037109 0)"/>
      <use xlink:href="#DejaVuSans-437" transform="translate(669.824219 0)"/>
      <use xlink:href="#DejaVuSans-43e" transform="translate(722.998047 0)"/>
      <use xlink:href="#DejaVuSans-43d" transform="translate(784.179688 0)"/>
      <use xlink:href="#DejaVuSans-430" transform="translate(849.560547 0)"/>
     </g>
    </g>
    <g id="patch_10">
     <path d="M 647.242187 92.971875 
L 675.242187 92.971875 
L 675.242187 83.171875 
L 647.242187 83.171875 
z
" style="fill: #008000; fill-opacity: 0.3; stroke: #008000; stroke-opacity: 0.3; stroke-linejoin: miter"/>
    </g>
    <g id="text_17">
     <!-- Гидрофильная зона -->
     <g transform="translate(686.442187 92.971875) scale(0.14 -0.14)">
      <use xlink:href="#DejaVuSans-413"/>
      <use xlink:href="#DejaVuSans-438" transform="translate(60.986328 0)"/>
      <use xlink:href="#DejaVuSans-434" transform="translate(125.976562 0)"/>
      <use xlink:href="#DejaVuSans-440" transform="translate(195.117188 0)"/>
      <use xlink:href="#DejaVuSans-43e" transform="translate(258.59375 0)"/>
      <use xlink:href="#DejaVuSans-444" transform="translate(319.775391 0)"/>
      <use xlink:href="#DejaVuSans-438" transform="translate(405.273438 0)"/>
      <use xlink:href="#DejaVuSans-43b" transform="translate(470.263672 0)"/>
      <use xlink:href="#DejaVuSans-44c" transform="translate(534.179688 0)"/>
      <use xlink:href="#DejaVuSans-43d" transform="translate(593.115234 0)"/>
      <use xlink:href="#DejaVuSans-430" transform="translate(658.496094 0)"/>
      <use xlink:href="#DejaVuSans-44f" transform="translate(719.775391 0)"/>
      <use xlink:href="#DejaVuSans-20" transform="translate(779.931641 0)"/>
      <use xlink:href="#DejaVuSans-437" transform="translate(811.71875 0)"/>
      <use xlink:href="#DejaVuSans-43e" transform="translate(864.892578 0)"/>
      <use xlink:href="#DejaVuSans-43d" transform="translate(926.074219 0)"/>
      <use xlink:href="#DejaVuSans-430" transform="translate(991.455078 0)"/>
     </g>
    </g>
   </g>
  </g>
 </g>
 <defs>
  <clipPath id="p62d5020c19">
   <rect x="48.955" y="28.396875" width="797.47" height="489.88"/>
  </clipPath>
 </defs>
</svg>
