<?xml version="1.0" encoding="utf-8" standalone="no"?>
<!DOCTYPE svg PUBLIC "-//W3C//DTD SVG 1.1//EN"
  "http://www.w3.org/Graphics/SVG/1.1/DTD/svg11.dtd">
<svg xmlns:xlink="http://www.w3.org/1999/xlink" width="853.705625pt" height="564.215937pt" viewBox="0 0 853.705625 564.215937" xmlns="http://www.w3.org/2000/svg" version="1.1">
 <metadata>
  <rdf:RDF xmlns:dc="http://purl.org/dc/elements/1.1/" xmlns:cc="http://creativecommons.org/ns#" xmlns:rdf="http://www.w3.org/1999/02/22-rdf-syntax-ns#">
   <cc:Work>
    <dc:type rdf:resource="http://purl.org/dc/dcmitype/StillImage"/>
    <dc:date>2025-03-16T03:44:00.304915</dc:date>
    <dc:format>image/svg+xml</dc:format>
    <dc:creator>
     <cc:Agent>
      <dc:title>Matplotlib v3.10.1, https://matplotlib.org/</dc:title>
     </cc:Agent>
    </dc:creator>
   </cc:Work>
  </rdf:RDF>
 </metadata>
 <defs>
  <style type="text/css">*{stroke-linejoin: round; stroke-linecap: butt}</style>
 </defs>
 <g id="figure_1">
  <g id="patch_1">
   <path d="M 0 564.215937 
L 853.705625 564.215937 
L 853.705625 0 
L 0 0 
z
" style="fill: #ffffff"/>
  </g>
  <g id="axes_1">
   <g id="patch_2">
    <path d="M 52.76875 518.917187 
L 836.96375 518.917187 
L 836.96375 26.877187 
L 52.76875 26.877187 
z
" style="fill: #ffffff"/>
   </g>
   <g id="matplotlib.axis_1">
    <g id="xtick_1">
     <g id="line2d_1">
      <path d="M 52.76875 518.917187 
L 52.76875 26.877187 
" clip-path="url(#p2db15e4a4d)" style="fill: none; stroke-dasharray: 2.96,1.28; stroke-dashoffset: 0; stroke: #b0b0b0; stroke-opacity: 0.7; stroke-width: 0.8"/>
     </g>
     <g id="line2d_2">
      <defs>
       <path id="m6f19e0d044" d="M 0 0 
L 0 3.5 
" style="stroke: #000000; stroke-width: 0.8"/>
      </defs>
      <g>
       <use xlink:href="#m6f19e0d044" x="52.76875" y="518.917187" style="stroke: #000000; stroke-width: 0.8"/>
      </g>
     </g>
     <g id="text_1">
      <!-- 0.0 -->
      <g transform="translate(43.226875 535.035313) scale(0.12 -0.12)">
       <defs>
        <path id="DejaVuSans-30" d="M 2034 4250 
Q 1547 4250 1301 3770 
Q 1056 3291 1056 2328 
Q 1056 1369 1301 889 
Q 1547 409 2034 409 
Q 2525 409 2770 889 
Q 3016 1369 3016 2328 
Q 3016 3291 2770 3770 
Q 2525 4250 2034 4250 
z
M 2034 4750 
Q 2819 4750 3233 4129 
Q 3647 3509 3647 2328 
Q 3647 1150 3233 529 
Q 2819 -91 2034 -91 
Q 1250 -91 836 529 
Q 422 1150 422 2328 
Q 422 3509 836 4129 
Q 1250 4750 2034 4750 
z
" transform="scale(0.015625)"/>
        <path id="DejaVuSans-2e" d="M 684 794 
L 1344 794 
L 1344 0 
L 684 0 
L 684 794 
z
" transform="scale(0.015625)"/>
       </defs>
       <use xlink:href="#DejaVuSans-30"/>
       <use xlink:href="#DejaVuSans-2e" transform="translate(63.623047 0)"/>
       <use xlink:href="#DejaVuSans-30" transform="translate(95.410156 0)"/>
      </g>
     </g>
    </g>
    <g id="xtick_2">
     <g id="line2d_3">
      <path d="M 209.60775 518.917187 
L 209.60775 26.877187 
" clip-path="url(#p2db15e4a4d)" style="fill: none; stroke-dasharray: 2.96,1.28; stroke-dashoffset: 0; stroke: #b0b0b0; stroke-opacity: 0.7; stroke-width: 0.8"/>
     </g>
     <g id="line2d_4">
      <g>
       <use xlink:href="#m6f19e0d044" x="209.60775" y="518.917187" style="stroke: #000000; stroke-width: 0.8"/>
      </g>
     </g>
     <g id="text_2">
      <!-- 0.2 -->
      <g transform="translate(200.065875 535.035313) scale(0.12 -0.12)">
       <defs>
        <path id="DejaVuSans-32" d="M 1228 531 
L 3431 531 
L 3431 0 
L 469 0 
L 469 531 
Q 828 903 1448 1529 
Q 2069 2156 2228 2338 
Q 2531 2678 2651 2914 
Q 2772 3150 2772 3378 
Q 2772 3750 2511 3984 
Q 2250 4219 1831 4219 
Q 1534 4219 1204 4116 
Q 875 4013 500 3803 
L 500 4441 
Q 881 4594 1212 4672 
Q 1544 4750 1819 4750 
Q 2544 4750 2975 4387 
Q 3406 4025 3406 3419 
Q 3406 3131 3298 2873 
Q 3191 2616 2906 2266 
Q 2828 2175 2409 1742 
Q 1991 1309 1228 531 
z
" transform="scale(0.015625)"/>
       </defs>
       <use xlink:href="#DejaVuSans-30"/>
       <use xlink:href="#DejaVuSans-2e" transform="translate(63.623047 0)"/>
       <use xlink:href="#DejaVuSans-32" transform="translate(95.410156 0)"/>
      </g>
     </g>
    </g>
    <g id="xtick_3">
     <g id="line2d_5">
      <path d="M 366.44675 518.917187 
L 366.44675 26.877187 
" clip-path="url(#p2db15e4a4d)" style="fill: none; stroke-dasharray: 2.96,1.28; stroke-dashoffset: 0; stroke: #b0b0b0; stroke-opacity: 0.7; stroke-width: 0.8"/>
     </g>
     <g id="line2d_6">
      <g>
       <use xlink:href="#m6f19e0d044" x="366.44675" y="518.917187" style="stroke: #000000; stroke-width: 0.8"/>
      </g>
     </g>
     <g id="text_3">
      <!-- 0.4 -->
      <g transform="translate(356.904875 535.035313) scale(0.12 -0.12)">
       <defs>
        <path id="DejaVuSans-34" d="M 2419 4116 
L 825 1625 
L 2419 1625 
L 2419 4116 
z
M 2253 4666 
L 3047 4666 
L 3047 1625 
L 3713 1625 
L 3713 1100 
L 3047 1100 
L 3047 0 
L 2419 0 
L 2419 1100 
L 313 1100 
L 313 1709 
L 2253 4666 
z
" transform="scale(0.015625)"/>
       </defs>
       <use xlink:href="#DejaVuSans-30"/>
       <use xlink:href="#DejaVuSans-2e" transform="translate(63.623047 0)"/>
       <use xlink:href="#DejaVuSans-34" transform="translate(95.410156 0)"/>
      </g>
     </g>
    </g>
    <g id="xtick_4">
     <g id="line2d_7">
      <path d="M 523.28575 518.917187 
L 523.28575 26.877187 
" clip-path="url(#p2db15e4a4d)" style="fill: none; stroke-dasharray: 2.96,1.28; stroke-dashoffset: 0; stroke: #b0b0b0; stroke-opacity: 0.7; stroke-width: 0.8"/>
     </g>
     <g id="line2d_8">
      <g>
       <use xlink:href="#m6f19e0d044" x="523.28575" y="518.917187" style="stroke: #000000; stroke-width: 0.8"/>
      </g>
     </g>
     <g id="text_4">
      <!-- 0.6 -->
      <g transform="translate(513.743875 535.035313) scale(0.12 -0.12)">
       <defs>
        <path id="DejaVuSans-36" d="M 2113 2584 
Q 1688 2584 1439 2293 
Q 1191 2003 1191 1497 
Q 1191 994 1439 701 
Q 1688 409 2113 409 
Q 2538 409 2786 701 
Q 3034 994 3034 1497 
Q 3034 2003 2786 2293 
Q 2538 2584 2113 2584 
z
M 3366 4563 
L 3366 3988 
Q 3128 4100 2886 4159 
Q 2644 4219 2406 4219 
Q 1781 4219 1451 3797 
Q 1122 3375 1075 2522 
Q 1259 2794 1537 2939 
Q 1816 3084 2150 3084 
Q 2853 3084 3261 2657 
Q 3669 2231 3669 1497 
Q 3669 778 3244 343 
Q 2819 -91 2113 -91 
Q 1303 -91 875 529 
Q 447 1150 447 2328 
Q 447 3434 972 4092 
Q 1497 4750 2381 4750 
Q 2619 4750 2861 4703 
Q 3103 4656 3366 4563 
z
" transform="scale(0.015625)"/>
       </defs>
       <use xlink:href="#DejaVuSans-30"/>
       <use xlink:href="#DejaVuSans-2e" transform="translate(63.623047 0)"/>
       <use xlink:href="#DejaVuSans-36" transform="translate(95.410156 0)"/>
      </g>
     </g>
    </g>
    <g id="xtick_5">
     <g id="line2d_9">
      <path d="M 680.12475 518.917187 
L 680.12475 26.877187 
" clip-path="url(#p2db15e4a4d)" style="fill: none; stroke-dasharray: 2.96,1.28; stroke-dashoffset: 0; stroke: #b0b0b0; stroke-opacity: 0.7; stroke-width: 0.8"/>
     </g>
     <g id="line2d_10">
      <g>
       <use xlink:href="#m6f19e0d044" x="680.12475" y="518.917187" style="stroke: #000000; stroke-width: 0.8"/>
      </g>
     </g>
     <g id="text_5">
      <!-- 0.8 -->
      <g transform="translate(670.582875 535.035313) scale(0.12 -0.12)">
       <defs>
        <path id="DejaVuSans-38" d="M 2034 2216 
Q 1584 2216 1326 1975 
Q 1069 1734 1069 1313 
Q 1069 891 1326 650 
Q 1584 409 2034 409 
Q 2484 409 2743 651 
Q 3003 894 3003 1313 
Q 3003 1734 2745 1975 
Q 2488 2216 2034 2216 
z
M 1403 2484 
Q 997 2584 770 2862 
Q 544 3141 544 3541 
Q 544 4100 942 4425 
Q 1341 4750 2034 4750 
Q 2731 4750 3128 4425 
Q 3525 4100 3525 3541 
Q 3525 3141 3298 2862 
Q 3072 2584 2669 2484 
Q 3125 2378 3379 2068 
Q 3634 1759 3634 1313 
Q 3634 634 3220 271 
Q 2806 -91 2034 -91 
Q 1263 -91 848 271 
Q 434 634 434 1313 
Q 434 1759 690 2068 
Q 947 2378 1403 2484 
z
M 1172 3481 
Q 1172 3119 1398 2916 
Q 1625 2713 2034 2713 
Q 2441 2713 2670 2916 
Q 2900 3119 2900 3481 
Q 2900 3844 2670 4047 
Q 2441 4250 2034 4250 
Q 1625 4250 1398 4047 
Q 1172 3844 1172 3481 
z
" transform="scale(0.015625)"/>
       </defs>
       <use xlink:href="#DejaVuSans-30"/>
       <use xlink:href="#DejaVuSans-2e" transform="translate(63.623047 0)"/>
       <use xlink:href="#DejaVuSans-38" transform="translate(95.410156 0)"/>
      </g>
     </g>
    </g>
    <g id="xtick_6">
     <g id="line2d_11">
      <path d="M 836.96375 518.917187 
L 836.96375 26.877187 
" clip-path="url(#p2db15e4a4d)" style="fill: none; stroke-dasharray: 2.96,1.28; stroke-dashoffset: 0; stroke: #b0b0b0; stroke-opacity: 0.7; stroke-width: 0.8"/>
     </g>
     <g id="line2d_12">
      <g>
       <use xlink:href="#m6f19e0d044" x="836.96375" y="518.917187" style="stroke: #000000; stroke-width: 0.8"/>
      </g>
     </g>
     <g id="text_6">
      <!-- 1.0 -->
      <g transform="translate(827.421875 535.035313) scale(0.12 -0.12)">
       <defs>
        <path id="DejaVuSans-31" d="M 794 531 
L 1825 531 
L 1825 4091 
L 703 3866 
L 703 4441 
L 1819 4666 
L 2450 4666 
L 2450 531 
L 3481 531 
L 3481 0 
L 794 0 
L 794 531 
z
" transform="scale(0.015625)"/>
       </defs>
       <use xlink:href="#DejaVuSans-31"/>
       <use xlink:href="#DejaVuSans-2e" transform="translate(63.623047 0)"/>
       <use xlink:href="#DejaVuSans-30" transform="translate(95.410156 0)"/>
      </g>
     </g>
    </g>
    <g id="text_7">
     <!-- Водонасыщенность Sw, д.ед. -->
     <g transform="translate(321.30375 553.688437) scale(0.16 -0.16)">
      <defs>
       <path id="DejaVuSans-412" d="M 1259 2228 
L 1259 519 
L 2272 519 
Q 2781 519 3026 730 
Q 3272 941 3272 1375 
Q 3272 1813 3026 2020 
Q 2781 2228 2272 2228 
L 1259 2228 
z
M 1259 4147 
L 1259 2741 
L 2194 2741 
Q 2656 2741 2882 2914 
Q 3109 3088 3109 3444 
Q 3109 3797 2882 3972 
Q 2656 4147 2194 4147 
L 1259 4147 
z
M 628 4666 
L 2241 4666 
Q 2963 4666 3353 4366 
Q 3744 4066 3744 3513 
Q 3744 3084 3544 2831 
Q 3344 2578 2956 2516 
Q 3422 2416 3680 2098 
Q 3938 1781 3938 1306 
Q 3938 681 3513 340 
Q 3088 0 2303 0 
L 628 0 
L 628 4666 
z
" transform="scale(0.015625)"/>
       <path id="DejaVuSans-43e" d="M 1959 3097 
Q 1497 3097 1228 2736 
Q 959 2375 959 1747 
Q 959 1119 1226 758 
Q 1494 397 1959 397 
Q 2419 397 2687 759 
Q 2956 1122 2956 1747 
Q 2956 2369 2687 2733 
Q 2419 3097 1959 3097 
z
M 1959 3584 
Q 2709 3584 3137 3096 
Q 3566 2609 3566 1747 
Q 3566 888 3137 398 
Q 2709 -91 1959 -91 
Q 1206 -91 779 398 
Q 353 888 353 1747 
Q 353 2609 779 3096 
Q 1206 3584 1959 3584 
z
" transform="scale(0.015625)"/>
       <path id="DejaVuSans-434" d="M 1384 459 
L 3053 459 
L 3053 3041 
L 1844 3041 
L 1844 2603 
Q 1844 1316 1475 628 
L 1384 459 
z
M 550 459 
Q 834 584 959 850 
Q 1266 1509 1266 2838 
L 1266 3500 
L 3631 3500 
L 3631 459 
L 4091 459 
L 4091 -884 
L 3631 -884 
L 3631 0 
L 794 0 
L 794 -884 
L 334 -884 
L 334 459 
L 550 459 
z
" transform="scale(0.015625)"/>
       <path id="DejaVuSans-43d" d="M 581 3500 
L 1159 3500 
L 1159 2072 
L 3025 2072 
L 3025 3500 
L 3603 3500 
L 3603 0 
L 3025 0 
L 3025 1613 
L 1159 1613 
L 1159 0 
L 581 0 
L 581 3500 
z
" transform="scale(0.015625)"/>
       <path id="DejaVuSans-430" d="M 2194 1759 
Q 1497 1759 1228 1600 
Q 959 1441 959 1056 
Q 959 750 1161 570 
Q 1363 391 1709 391 
Q 2188 391 2477 730 
Q 2766 1069 2766 1631 
L 2766 1759 
L 2194 1759 
z
M 3341 1997 
L 3341 0 
L 2766 0 
L 2766 531 
Q 2569 213 2275 61 
Q 1981 -91 1556 -91 
Q 1019 -91 701 211 
Q 384 513 384 1019 
Q 384 1609 779 1909 
Q 1175 2209 1959 2209 
L 2766 2209 
L 2766 2266 
Q 2766 2663 2505 2880 
Q 2244 3097 1772 3097 
Q 1472 3097 1187 3025 
Q 903 2953 641 2809 
L 641 3341 
Q 956 3463 1253 3523 
Q 1550 3584 1831 3584 
Q 2591 3584 2966 3190 
Q 3341 2797 3341 1997 
z
" transform="scale(0.015625)"/>
       <path id="DejaVuSans-441" d="M 3122 3366 
L 3122 2828 
Q 2878 2963 2633 3030 
Q 2388 3097 2138 3097 
Q 1578 3097 1268 2742 
Q 959 2388 959 1747 
Q 959 1106 1268 751 
Q 1578 397 2138 397 
Q 2388 397 2633 464 
Q 2878 531 3122 666 
L 3122 134 
Q 2881 22 2623 -34 
Q 2366 -91 2075 -91 
Q 1284 -91 818 406 
Q 353 903 353 1747 
Q 353 2603 823 3093 
Q 1294 3584 2113 3584 
Q 2378 3584 2631 3529 
Q 2884 3475 3122 3366 
z
" transform="scale(0.015625)"/>
       <path id="DejaVuSans-44b" d="M 3907 3500 
L 4482 3500 
L 4482 0 
L 3907 0 
L 3907 3500 
z
M 4195 3584 
L 4195 3584 
z
M 2781 1038 
Q 2781 1319 2576 1466 
Q 2372 1613 1978 1613 
L 1159 1613 
L 1159 459 
L 1978 459 
Q 2372 459 2576 607 
Q 2781 756 2781 1038 
z
M 581 3500 
L 1159 3500 
L 1159 2072 
L 2003 2072 
Q 2672 2072 3033 1817 
Q 3394 1563 3394 1038 
Q 3394 513 3033 256 
Q 2672 0 2003 0 
L 581 0 
L 581 3500 
z
" transform="scale(0.015625)"/>
       <path id="DejaVuSans-449" d="M 5275 0 
L 581 0 
L 581 3500 
L 1159 3500 
L 1159 459 
L 2638 459 
L 2638 3500 
L 3216 3500 
L 3216 459 
L 4697 459 
L 4697 3500 
L 5275 3500 
L 5275 459 
L 5734 459 
L 5734 -884 
L 5275 -884 
L 5275 0 
z
" transform="scale(0.015625)"/>
       <path id="DejaVuSans-435" d="M 3597 1894 
L 3597 1613 
L 953 1613 
Q 991 1019 1311 708 
Q 1631 397 2203 397 
Q 2534 397 2845 478 
Q 3156 559 3463 722 
L 3463 178 
Q 3153 47 2828 -22 
Q 2503 -91 2169 -91 
Q 1331 -91 842 396 
Q 353 884 353 1716 
Q 353 2575 817 3079 
Q 1281 3584 2069 3584 
Q 2775 3584 3186 3129 
Q 3597 2675 3597 1894 
z
M 3022 2063 
Q 3016 2534 2758 2815 
Q 2500 3097 2075 3097 
Q 1594 3097 1305 2825 
Q 1016 2553 972 2059 
L 3022 2063 
z
" transform="scale(0.015625)"/>
       <path id="DejaVuSans-442" d="M 188 3500 
L 3541 3500 
L 3541 3041 
L 2147 3041 
L 2147 0 
L 1581 0 
L 1581 3041 
L 188 3041 
L 188 3500 
z
" transform="scale(0.015625)"/>
       <path id="DejaVuSans-44c" d="M 2781 1038 
Q 2781 1319 2576 1466 
Q 2372 1613 1978 1613 
L 1159 1613 
L 1159 459 
L 1978 459 
Q 2372 459 2576 607 
Q 2781 756 2781 1038 
z
M 581 3500 
L 1159 3500 
L 1159 2072 
L 2003 2072 
Q 2672 2072 3033 1817 
Q 3394 1563 3394 1038 
Q 3394 513 3033 256 
Q 2672 0 2003 0 
L 581 0 
L 581 3500 
z
" transform="scale(0.015625)"/>
       <path id="DejaVuSans-20" transform="scale(0.015625)"/>
       <path id="DejaVuSans-53" d="M 3425 4513 
L 3425 3897 
Q 3066 4069 2747 4153 
Q 2428 4238 2131 4238 
Q 1616 4238 1336 4038 
Q 1056 3838 1056 3469 
Q 1056 3159 1242 3001 
Q 1428 2844 1947 2747 
L 2328 2669 
Q 3034 2534 3370 2195 
Q 3706 1856 3706 1288 
Q 3706 609 3251 259 
Q 2797 -91 1919 -91 
Q 1588 -91 1214 -16 
Q 841 59 441 206 
L 441 856 
Q 825 641 1194 531 
Q 1563 422 1919 422 
Q 2459 422 2753 634 
Q 3047 847 3047 1241 
Q 3047 1584 2836 1778 
Q 2625 1972 2144 2069 
L 1759 2144 
Q 1053 2284 737 2584 
Q 422 2884 422 3419 
Q 422 4038 858 4394 
Q 1294 4750 2059 4750 
Q 2388 4750 2728 4690 
Q 3069 4631 3425 4513 
z
" transform="scale(0.015625)"/>
       <path id="DejaVuSans-77" d="M 269 3500 
L 844 3500 
L 1563 769 
L 2278 3500 
L 2956 3500 
L 3675 769 
L 4391 3500 
L 4966 3500 
L 4050 0 
L 3372 0 
L 2619 2869 
L 1863 0 
L 1184 0 
L 269 3500 
z
" transform="scale(0.015625)"/>
       <path id="DejaVuSans-2c" d="M 750 794 
L 1409 794 
L 1409 256 
L 897 -744 
L 494 -744 
L 750 256 
L 750 794 
z
" transform="scale(0.015625)"/>
      </defs>
      <use xlink:href="#DejaVuSans-412"/>
      <use xlink:href="#DejaVuSans-43e" transform="translate(68.603516 0)"/>
      <use xlink:href="#DejaVuSans-434" transform="translate(129.785156 0)"/>
      <use xlink:href="#DejaVuSans-43e" transform="translate(198.925781 0)"/>
      <use xlink:href="#DejaVuSans-43d" transform="translate(260.107422 0)"/>
      <use xlink:href="#DejaVuSans-430" transform="translate(325.488281 0)"/>
      <use xlink:href="#DejaVuSans-441" transform="translate(386.767578 0)"/>
      <use xlink:href="#DejaVuSans-44b" transform="translate(441.748047 0)"/>
      <use xlink:href="#DejaVuSans-449" transform="translate(520.703125 0)"/>
      <use xlink:href="#DejaVuSans-435" transform="translate(614.892578 0)"/>
      <use xlink:href="#DejaVuSans-43d" transform="translate(676.416016 0)"/>
      <use xlink:href="#DejaVuSans-43d" transform="translate(741.796875 0)"/>
      <use xlink:href="#DejaVuSans-43e" transform="translate(807.177734 0)"/>
      <use xlink:href="#DejaVuSans-441" transform="translate(868.359375 0)"/>
      <use xlink:href="#DejaVuSans-442" transform="translate(923.339844 0)"/>
      <use xlink:href="#DejaVuSans-44c" transform="translate(981.591797 0)"/>
      <use xlink:href="#DejaVuSans-20" transform="translate(1040.527344 0)"/>
      <use xlink:href="#DejaVuSans-53" transform="translate(1072.314453 0)"/>
      <use xlink:href="#DejaVuSans-77" transform="translate(1135.791016 0)"/>
      <use xlink:href="#DejaVuSans-2c" transform="translate(1217.578125 0)"/>
      <use xlink:href="#DejaVuSans-20" transform="translate(1249.365234 0)"/>
      <use xlink:href="#DejaVuSans-434" transform="translate(1281.152344 0)"/>
      <use xlink:href="#DejaVuSans-2e" transform="translate(1350.292969 0)"/>
      <use xlink:href="#DejaVuSans-435" transform="translate(1382.080078 0)"/>
      <use xlink:href="#DejaVuSans-434" transform="translate(1443.603516 0)"/>
      <use xlink:href="#DejaVuSans-2e" transform="translate(1512.744141 0)"/>
     </g>
    </g>
   </g>
   <g id="matplotlib.axis_2">
    <g id="ytick_1">
     <g id="line2d_13">
      <path d="M 52.76875 518.917187 
L 836.96375 518.917187 
" clip-path="url(#p2db15e4a4d)" style="fill: none; stroke-dasharray: 2.96,1.28; stroke-dashoffset: 0; stroke: #b0b0b0; stroke-opacity: 0.7; stroke-width: 0.8"/>
     </g>
     <g id="line2d_14">
      <defs>
       <path id="m6d68bb2dea" d="M 0 0 
L -3.5 0 
" style="stroke: #000000; stroke-width: 0.8"/>
      </defs>
      <g>
       <use xlink:href="#m6d68bb2dea" x="52.76875" y="518.917187" style="stroke: #000000; stroke-width: 0.8"/>
      </g>
     </g>
     <g id="text_8">
      <!-- 0.0 -->
      <g transform="translate(26.685 523.47625) scale(0.12 -0.12)">
       <use xlink:href="#DejaVuSans-30"/>
       <use xlink:href="#DejaVuSans-2e" transform="translate(63.623047 0)"/>
       <use xlink:href="#DejaVuSans-30" transform="translate(95.410156 0)"/>
      </g>
     </g>
    </g>
    <g id="ytick_2">
     <g id="line2d_15">
      <path d="M 52.76875 420.509187 
L 836.96375 420.509187 
" clip-path="url(#p2db15e4a4d)" style="fill: none; stroke-dasharray: 2.96,1.28; stroke-dashoffset: 0; stroke: #b0b0b0; stroke-opacity: 0.7; stroke-width: 0.8"/>
     </g>
     <g id="line2d_16">
      <g>
       <use xlink:href="#m6d68bb2dea" x="52.76875" y="420.509187" style="stroke: #000000; stroke-width: 0.8"/>
      </g>
     </g>
     <g id="text_9">
      <!-- 0.2 -->
      <g transform="translate(26.685 425.06825) scale(0.12 -0.12)">
       <use xlink:href="#DejaVuSans-30"/>
       <use xlink:href="#DejaVuSans-2e" transform="translate(63.623047 0)"/>
       <use xlink:href="#DejaVuSans-32" transform="translate(95.410156 0)"/>
      </g>
     </g>
    </g>
    <g id="ytick_3">
     <g id="line2d_17">
      <path d="M 52.76875 322.101187 
L 836.96375 322.101187 
" clip-path="url(#p2db15e4a4d)" style="fill: none; stroke-dasharray: 2.96,1.28; stroke-dashoffset: 0; stroke: #b0b0b0; stroke-opacity: 0.7; stroke-width: 0.8"/>
     </g>
     <g id="line2d_18">
      <g>
       <use xlink:href="#m6d68bb2dea" x="52.76875" y="322.101187" style="stroke: #000000; stroke-width: 0.8"/>
      </g>
     </g>
     <g id="text_10">
      <!-- 0.4 -->
      <g transform="translate(26.685 326.66025) scale(0.12 -0.12)">
       <use xlink:href="#DejaVuSans-30"/>
       <use xlink:href="#DejaVuSans-2e" transform="translate(63.623047 0)"/>
       <use xlink:href="#DejaVuSans-34" transform="translate(95.410156 0)"/>
      </g>
     </g>
    </g>
    <g id="ytick_4">
     <g id="line2d_19">
      <path d="M 52.76875 223.693187 
L 836.96375 223.693187 
" clip-path="url(#p2db15e4a4d)" style="fill: none; stroke-dasharray: 2.96,1.28; stroke-dashoffset: 0; stroke: #b0b0b0; stroke-opacity: 0.7; stroke-width: 0.8"/>
     </g>
     <g id="line2d_20">
      <g>
       <use xlink:href="#m6d68bb2dea" x="52.76875" y="223.693187" style="stroke: #000000; stroke-width: 0.8"/>
      </g>
     </g>
     <g id="text_11">
      <!-- 0.6 -->
      <g transform="translate(26.685 228.25225) scale(0.12 -0.12)">
       <use xlink:href="#DejaVuSans-30"/>
       <use xlink:href="#DejaVuSans-2e" transform="translate(63.623047 0)"/>
       <use xlink:href="#DejaVuSans-36" transform="translate(95.410156 0)"/>
      </g>
     </g>
    </g>
    <g id="ytick_5">
     <g id="line2d_21">
      <path d="M 52.76875 125.285187 
L 836.96375 125.285187 
" clip-path="url(#p2db15e4a4d)" style="fill: none; stroke-dasharray: 2.96,1.28; stroke-dashoffset: 0; stroke: #b0b0b0; stroke-opacity: 0.7; stroke-width: 0.8"/>
     </g>
     <g id="line2d_22">
      <g>
       <use xlink:href="#m6d68bb2dea" x="52.76875" y="125.285187" style="stroke: #000000; stroke-width: 0.8"/>
      </g>
     </g>
     <g id="text_12">
      <!-- 0.8 -->
      <g transform="translate(26.685 129.84425) scale(0.12 -0.12)">
       <use xlink:href="#DejaVuSans-30"/>
       <use xlink:href="#DejaVuSans-2e" transform="translate(63.623047 0)"/>
       <use xlink:href="#DejaVuSans-38" transform="translate(95.410156 0)"/>
      </g>
     </g>
    </g>
    <g id="ytick_6">
     <g id="line2d_23">
      <path d="M 52.76875 26.877187 
L 836.96375 26.877187 
" clip-path="url(#p2db15e4a4d)" style="fill: none; stroke-dasharray: 2.96,1.28; stroke-dashoffset: 0; stroke: #b0b0b0; stroke-opacity: 0.7; stroke-width: 0.8"/>
     </g>
     <g id="line2d_24">
      <g>
       <use xlink:href="#m6d68bb2dea" x="52.76875" y="26.877187" style="stroke: #000000; stroke-width: 0.8"/>
      </g>
     </g>
     <g id="text_13">
      <!-- 1.0 -->
      <g transform="translate(26.685 31.43625) scale(0.12 -0.12)">
       <use xlink:href="#DejaVuSans-31"/>
       <use xlink:href="#DejaVuSans-2e" transform="translate(63.623047 0)"/>
       <use xlink:href="#DejaVuSans-30" transform="translate(95.410156 0)"/>
      </g>
     </g>
    </g>
    <g id="text_14">
     <!-- Доля потока воды f(Sw), д.ед. -->
     <g transform="translate(19.3575 399.303437) rotate(-90) scale(0.16 -0.16)">
      <defs>
       <path id="DejaVuSans-414" d="M 1459 531 
L 3522 531 
L 3522 4134 
L 2006 4134 
L 2006 3472 
Q 2006 1913 1656 878 
Q 1584 666 1459 531 
z
M 538 531 
Q 956 728 1075 1103 
Q 1378 2066 1378 3784 
L 1378 4666 
L 4153 4666 
L 4153 531 
L 4684 531 
L 4684 -1003 
L 4153 -1003 
L 4153 0 
L 847 0 
L 847 -1003 
L 316 -1003 
L 316 531 
L 538 531 
z
" transform="scale(0.015625)"/>
       <path id="DejaVuSans-43b" d="M 238 0 
L 238 478 
Q 806 566 981 959 
Q 1194 1513 1194 2928 
L 1194 3500 
L 3559 3500 
L 3559 0 
L 2984 0 
L 2984 3041 
L 1769 3041 
L 1769 2694 
Q 1769 1344 1494 738 
Q 1200 91 238 0 
z
" transform="scale(0.015625)"/>
       <path id="DejaVuSans-44f" d="M 1181 2491 
Q 1181 2231 1381 2084 
Q 1581 1938 1953 1938 
L 2728 1938 
L 2728 3041 
L 1953 3041 
Q 1581 3041 1381 2897 
Q 1181 2753 1181 2491 
z
M 363 0 
L 1431 1534 
Q 1069 1616 828 1830 
Q 588 2044 588 2491 
Q 588 2997 923 3248 
Q 1259 3500 1938 3500 
L 3306 3500 
L 3306 0 
L 2728 0 
L 2728 1478 
L 2013 1478 
L 981 0 
L 363 0 
z
" transform="scale(0.015625)"/>
       <path id="DejaVuSans-43f" d="M 3603 3500 
L 3603 0 
L 3025 0 
L 3025 3041 
L 1159 3041 
L 1159 0 
L 581 0 
L 581 3500 
L 3603 3500 
z
" transform="scale(0.015625)"/>
       <path id="DejaVuSans-43a" d="M 581 3500 
L 1153 3500 
L 1153 1856 
L 2775 3500 
L 3481 3500 
L 2144 2147 
L 3653 0 
L 3009 0 
L 1769 1766 
L 1153 1141 
L 1153 0 
L 581 0 
L 581 3500 
z
" transform="scale(0.015625)"/>
       <path id="DejaVuSans-432" d="M 1156 1613 
L 1156 459 
L 1975 459 
Q 2369 459 2575 607 
Q 2781 756 2781 1038 
Q 2781 1319 2575 1466 
Q 2369 1613 1975 1613 
L 1156 1613 
z
M 1156 3041 
L 1156 2072 
L 1913 2072 
Q 2238 2072 2444 2201 
Q 2650 2331 2650 2563 
Q 2650 2794 2444 2917 
Q 2238 3041 1913 3041 
L 1156 3041 
z
M 581 3500 
L 1950 3500 
Q 2566 3500 2897 3275 
Q 3228 3050 3228 2634 
Q 3228 2313 3059 2123 
Q 2891 1934 2559 1888 
Q 2956 1813 3175 1575 
Q 3394 1338 3394 981 
Q 3394 513 3033 256 
Q 2672 0 2003 0 
L 581 0 
L 581 3500 
z
" transform="scale(0.015625)"/>
       <path id="DejaVuSans-66" d="M 2375 4863 
L 2375 4384 
L 1825 4384 
Q 1516 4384 1395 4259 
Q 1275 4134 1275 3809 
L 1275 3500 
L 2222 3500 
L 2222 3053 
L 1275 3053 
L 1275 0 
L 697 0 
L 697 3053 
L 147 3053 
L 147 3500 
L 697 3500 
L 697 3744 
Q 697 4328 969 4595 
Q 1241 4863 1831 4863 
L 2375 4863 
z
" transform="scale(0.015625)"/>
       <path id="DejaVuSans-28" d="M 1984 4856 
Q 1566 4138 1362 3434 
Q 1159 2731 1159 2009 
Q 1159 1288 1364 580 
Q 1569 -128 1984 -844 
L 1484 -844 
Q 1016 -109 783 600 
Q 550 1309 550 2009 
Q 550 2706 781 3412 
Q 1013 4119 1484 4856 
L 1984 4856 
z
" transform="scale(0.015625)"/>
       <path id="DejaVuSans-29" d="M 513 4856 
L 1013 4856 
Q 1481 4119 1714 3412 
Q 1947 2706 1947 2009 
Q 1947 1309 1714 600 
Q 1481 -109 1013 -844 
L 513 -844 
Q 928 -128 1133 580 
Q 1338 1288 1338 2009 
Q 1338 2731 1133 3434 
Q 928 4138 513 4856 
z
" transform="scale(0.015625)"/>
      </defs>
      <use xlink:href="#DejaVuSans-414"/>
      <use xlink:href="#DejaVuSans-43e" transform="translate(78.125 0)"/>
      <use xlink:href="#DejaVuSans-43b" transform="translate(139.306641 0)"/>
      <use xlink:href="#DejaVuSans-44f" transform="translate(203.222656 0)"/>
      <use xlink:href="#DejaVuSans-20" transform="translate(263.378906 0)"/>
      <use xlink:href="#DejaVuSans-43f" transform="translate(295.166016 0)"/>
      <use xlink:href="#DejaVuSans-43e" transform="translate(360.546875 0)"/>
      <use xlink:href="#DejaVuSans-442" transform="translate(421.728516 0)"/>
      <use xlink:href="#DejaVuSans-43e" transform="translate(479.980469 0)"/>
      <use xlink:href="#DejaVuSans-43a" transform="translate(541.162109 0)"/>
      <use xlink:href="#DejaVuSans-430" transform="translate(601.5625 0)"/>
      <use xlink:href="#DejaVuSans-20" transform="translate(662.841797 0)"/>
      <use xlink:href="#DejaVuSans-432" transform="translate(694.628906 0)"/>
      <use xlink:href="#DejaVuSans-43e" transform="translate(753.564453 0)"/>
      <use xlink:href="#DejaVuSans-434" transform="translate(814.746094 0)"/>
      <use xlink:href="#DejaVuSans-44b" transform="translate(883.886719 0)"/>
      <use xlink:href="#DejaVuSans-20" transform="translate(962.841797 0)"/>
      <use xlink:href="#DejaVuSans-66" transform="translate(994.628906 0)"/>
      <use xlink:href="#DejaVuSans-28" transform="translate(1029.833984 0)"/>
      <use xlink:href="#DejaVuSans-53" transform="translate(1068.847656 0)"/>
      <use xlink:href="#DejaVuSans-77" transform="translate(1132.324219 0)"/>
      <use xlink:href="#DejaVuSans-29" transform="translate(1214.111328 0)"/>
      <use xlink:href="#DejaVuSans-2c" transform="translate(1253.125 0)"/>
      <use xlink:href="#DejaVuSans-20" transform="translate(1284.912109 0)"/>
      <use xlink:href="#DejaVuSans-434" transform="translate(1316.699219 0)"/>
      <use xlink:href="#DejaVuSans-2e" transform="translate(1385.839844 0)"/>
      <use xlink:href="#DejaVuSans-435" transform="translate(1417.626953 0)"/>
      <use xlink:href="#DejaVuSans-434" transform="translate(1479.150391 0)"/>
      <use xlink:href="#DejaVuSans-2e" transform="translate(1548.291016 0)"/>
     </g>
    </g>
   </g>
   <g id="line2d_25">
    <path d="M 52.76875 518.917187 
L 60.689912 518.917187 
L 68.611073 518.917187 
L 76.532235 518.917187 
L 84.453396 518.917187 
L 92.374558 518.917187 
L 100.29572 518.917187 
L 108.216881 518.917187 
L 116.138043 518.917187 
L 124.059205 518.917187 
L 131.980366 518.917187 
L 139.901528 518.917187 
L 147.822689 518.917187 
L 155.743851 518.917187 
L 163.665013 518.917187 
L 171.586174 518.917187 
L 179.507336 518.917187 
L 187.428497 518.917187 
L 195.349659 518.917187 
L 203.270821 518.917187 
L 211.191982 518.917093 
L 219.113144 518.896059 
L 227.034306 518.782434 
L 234.955467 518.487866 
L 242.876629 517.912188 
L 250.79779 516.942724 
L 258.718952 515.454062 
L 266.640114 513.308496 
L 274.561275 510.357382 
L 282.482437 506.443684 
L 290.403598 501.405967 
L 298.32476 495.084044 
L 306.245922 487.326377 
L 314.167083 477.9991 
L 322.088245 466.996317 
L 330.009407 454.250944 
L 337.930568 439.745078 
L 345.85173 423.518581 
L 353.772891 405.674498 
L 361.694053 386.380071 
L 369.615215 365.862553 
L 377.536376 344.399704 
L 385.457538 322.305667 
L 393.378699 299.913681 
L 401.299861 277.55755 
L 409.221023 255.553992 
L 417.142184 234.18766 
L 425.063346 213.700148 
L 432.984508 194.283515 
L 440.905669 176.078249 
L 448.826831 159.175005 
L 456.747992 143.619187 
L 464.669154 129.417334 
L 472.590316 116.54435 
L 480.511477 104.950801 
L 488.432639 94.569725 
L 496.353801 85.322615 
L 504.274962 77.124423 
L 512.196124 69.887548 
L 520.117285 63.524883 
L 528.038447 57.952024 
L 535.959609 53.088788 
L 543.88077 48.860166 
L 551.801932 45.196842 
L 559.723093 42.035385 
L 567.644255 39.31821 
L 575.565417 36.993373 
L 583.486578 35.014263 
L 591.40774 33.339238 
L 599.328902 31.931219 
L 607.250063 30.757289 
L 615.171225 29.788291 
L 623.092386 28.998448 
L 631.013548 28.365007 
L 638.93471 27.867906 
L 646.855871 27.489478 
L 654.777033 27.214172 
L 662.698194 27.028314 
L 670.619356 26.919882 
L 678.540518 26.878315 
L 686.461679 26.877188 
L 694.382841 26.877188 
L 702.304003 26.877188 
L 710.225164 26.877188 
L 718.146326 26.877188 
L 726.067487 26.877188 
L 733.988649 26.877188 
L 741.909811 26.877188 
L 749.830972 26.877188 
L 757.752134 26.877188 
L 765.673295 26.877188 
L 773.594457 26.877188 
L 781.515619 26.877188 
L 789.43678 26.877188 
L 797.357942 26.877188 
L 805.279104 26.877188 
L 813.200265 26.877188 
L 821.121427 26.877188 
L 829.042588 26.877188 
L 836.96375 26.877188 
" clip-path="url(#p2db15e4a4d)" style="fill: none; stroke: #800080; stroke-width: 3; stroke-linecap: square"/>
   </g>
   <g id="line2d_26">
    <defs>
     <path id="m3bd0b898b8" d="M 0 5 
C 1.326016 5 2.597899 4.473168 3.535534 3.535534 
C 4.473168 2.597899 5 1.326016 5 0 
C 5 -1.326016 4.473168 -2.597899 3.535534 -3.535534 
C 2.597899 -4.473168 1.326016 -5 0 -5 
C -1.326016 -5 -2.597899 -4.473168 -3.535534 -3.535534 
C -4.473168 -2.597899 -5 -1.326016 -5 0 
C -5 1.326016 -4.473168 2.597899 -3.535534 3.535534 
C -2.597899 4.473168 -1.326016 5 0 5 
z
" style="stroke: #ff0000"/>
    </defs>
    <g clip-path="url(#p2db15e4a4d)">
     <use xlink:href="#m3bd0b898b8" x="393.378699" y="299.913681" style="fill: #ff0000; stroke: #ff0000"/>
    </g>
   </g>
   <g id="line2d_27">
    <path d="M 299.452867 565.215937 
L 393.378699 299.913681 
" clip-path="url(#p2db15e4a4d)" style="fill: none; stroke-dasharray: 7.4,3.2; stroke-dashoffset: 0; stroke: #ff0000; stroke-width: 2"/>
   </g>
   <g id="patch_3">
    <path d="M 52.76875 518.917187 
L 52.76875 26.877187 
" style="fill: none; stroke: #000000; stroke-width: 0.8; stroke-linejoin: miter; stroke-linecap: square"/>
   </g>
   <g id="patch_4">
    <path d="M 836.96375 518.917187 
L 836.96375 26.877187 
" style="fill: none; stroke: #000000; stroke-width: 0.8; stroke-linejoin: miter; stroke-linecap: square"/>
   </g>
   <g id="patch_5">
    <path d="M 52.76875 518.917187 
L 836.96375 518.917187 
" style="fill: none; stroke: #000000; stroke-width: 0.8; stroke-linejoin: miter; stroke-linecap: square"/>
   </g>
   <g id="patch_6">
    <path d="M 52.76875 26.877187 
L 836.96375 26.877187 
" style="fill: none; stroke: #000000; stroke-width: 0.8; stroke-linejoin: miter; stroke-linecap: square"/>
   </g>
   <g id="text_15">
    <!-- Функция Баклея-Леверетта -->
    <g transform="translate(312.744844 20.877187) scale(0.18 -0.18)">
     <defs>
      <path id="DejaVuSans-424" d="M 2441 3706 
Q 1763 3644 1403 3325 
Q 1044 3006 1044 2391 
Q 1044 1775 1403 1458 
Q 1763 1141 2441 1078 
L 2441 3706 
z
M 3075 1078 
Q 3753 1141 4109 1458 
Q 4466 1775 4466 2391 
Q 4466 3006 4109 3325 
Q 3753 3644 3075 3706 
L 3075 1078 
z
M 2441 556 
Q 1450 628 914 1095 
Q 378 1563 378 2391 
Q 378 3219 914 3689 
Q 1450 4159 2441 4231 
L 2441 4666 
L 3075 4666 
L 3075 4231 
Q 4066 4159 4598 3692 
Q 5131 3225 5131 2391 
Q 5131 1563 4598 1095 
Q 4066 628 3075 556 
L 3075 0 
L 2441 0 
L 2441 556 
z
" transform="scale(0.015625)"/>
      <path id="DejaVuSans-443" d="M 2059 -325 
Q 1816 -950 1584 -1140 
Q 1353 -1331 966 -1331 
L 506 -1331 
L 506 -850 
L 844 -850 
Q 1081 -850 1212 -737 
Q 1344 -625 1503 -206 
L 1606 56 
L 191 3500 
L 800 3500 
L 1894 763 
L 2988 3500 
L 3597 3500 
L 2059 -325 
z
" transform="scale(0.015625)"/>
      <path id="DejaVuSans-446" d="M 3603 0 
L 581 0 
L 581 3500 
L 1159 3500 
L 1159 459 
L 3025 459 
L 3025 3500 
L 3603 3500 
L 3603 459 
L 4063 459 
L 4063 -884 
L 3603 -884 
L 3603 0 
z
" transform="scale(0.015625)"/>
      <path id="DejaVuSans-438" d="M 3578 3500 
L 3578 0 
L 3006 0 
L 3006 2809 
L 1319 0 
L 581 0 
L 581 3500 
L 1153 3500 
L 1153 697 
L 2838 3500 
L 3578 3500 
z
" transform="scale(0.015625)"/>
      <path id="DejaVuSans-411" d="M 3272 1372 
Q 3272 1806 3026 2017 
Q 2781 2228 2272 2228 
L 1259 2228 
L 1259 519 
L 2272 519 
Q 2781 519 3026 730 
Q 3272 941 3272 1372 
z
M 3609 4666 
L 3609 4147 
L 1259 4147 
L 1259 2747 
L 2303 2747 
Q 3088 2747 3513 2406 
Q 3938 2066 3938 1372 
Q 3938 681 3527 340 
Q 3116 0 2303 0 
L 628 0 
L 628 4666 
L 3609 4666 
z
" transform="scale(0.015625)"/>
      <path id="DejaVuSans-2d" d="M 313 2009 
L 1997 2009 
L 1997 1497 
L 313 1497 
L 313 2009 
z
" transform="scale(0.015625)"/>
      <path id="DejaVuSans-41b" d="M 263 0 
L 263 531 
Q 941 678 1134 1191 
Q 1406 1997 1406 3872 
L 1406 4666 
L 4181 4666 
L 4181 0 
L 3550 0 
L 3550 4134 
L 2034 4134 
L 2034 3559 
Q 2034 1791 1716 966 
Q 1409 175 263 0 
z
" transform="scale(0.015625)"/>
      <path id="DejaVuSans-440" d="M 1159 525 
L 1159 -1331 
L 581 -1331 
L 581 3500 
L 1159 3500 
L 1159 2969 
Q 1341 3281 1617 3432 
Q 1894 3584 2278 3584 
Q 2916 3584 3314 3078 
Q 3713 2572 3713 1747 
Q 3713 922 3314 415 
Q 2916 -91 2278 -91 
Q 1894 -91 1617 61 
Q 1341 213 1159 525 
z
M 3116 1747 
Q 3116 2381 2855 2742 
Q 2594 3103 2138 3103 
Q 1681 3103 1420 2742 
Q 1159 2381 1159 1747 
Q 1159 1113 1420 752 
Q 1681 391 2138 391 
Q 2594 391 2855 752 
Q 3116 1113 3116 1747 
z
" transform="scale(0.015625)"/>
     </defs>
     <use xlink:href="#DejaVuSans-424"/>
     <use xlink:href="#DejaVuSans-443" transform="translate(86.083984 0)"/>
     <use xlink:href="#DejaVuSans-43d" transform="translate(145.263672 0)"/>
     <use xlink:href="#DejaVuSans-43a" transform="translate(210.644531 0)"/>
     <use xlink:href="#DejaVuSans-446" transform="translate(271.044922 0)"/>
     <use xlink:href="#DejaVuSans-438" transform="translate(339.111328 0)"/>
     <use xlink:href="#DejaVuSans-44f" transform="translate(404.101562 0)"/>
     <use xlink:href="#DejaVuSans-20" transform="translate(464.257812 0)"/>
     <use xlink:href="#DejaVuSans-411" transform="translate(496.044922 0)"/>
     <use xlink:href="#DejaVuSans-430" transform="translate(564.648438 0)"/>
     <use xlink:href="#DejaVuSans-43a" transform="translate(625.927734 0)"/>
     <use xlink:href="#DejaVuSans-43b" transform="translate(686.328125 0)"/>
     <use xlink:href="#DejaVuSans-435" transform="translate(750.244141 0)"/>
     <use xlink:href="#DejaVuSans-44f" transform="translate(811.767578 0)"/>
     <use xlink:href="#DejaVuSans-2d" transform="translate(871.923828 0)"/>
     <use xlink:href="#DejaVuSans-41b" transform="translate(908.007812 0)"/>
     <use xlink:href="#DejaVuSans-435" transform="translate(983.203125 0)"/>
     <use xlink:href="#DejaVuSans-432" transform="translate(1044.726562 0)"/>
     <use xlink:href="#DejaVuSans-435" transform="translate(1103.662109 0)"/>
     <use xlink:href="#DejaVuSans-440" transform="translate(1165.185547 0)"/>
     <use xlink:href="#DejaVuSans-435" transform="translate(1228.662109 0)"/>
     <use xlink:href="#DejaVuSans-442" transform="translate(1290.185547 0)"/>
     <use xlink:href="#DejaVuSans-442" transform="translate(1348.4375 0)"/>
     <use xlink:href="#DejaVuSans-430" transform="translate(1406.689453 0)"/>
    </g>
   </g>
   <g id="legend_1">
    <g id="patch_7">
     <path d="M 62.56875 79.175937 
L 396.411875 79.175937 
Q 399.211875 79.175937 399.211875 76.375937 
L 399.211875 36.677187 
Q 399.211875 33.877187 396.411875 33.877187 
L 62.56875 33.877187 
Q 59.76875 33.877187 59.76875 36.677187 
L 59.76875 76.375937 
Q 59.76875 79.175937 62.56875 79.175937 
z
" style="fill: #ffffff; opacity: 0.8; stroke: #cccccc; stroke-linejoin: miter"/>
    </g>
    <g id="line2d_28">
     <g>
      <use xlink:href="#m3bd0b898b8" x="79.36875" y="45.215" style="fill: #ff0000; stroke: #ff0000"/>
     </g>
    </g>
    <g id="text_16">
     <!-- Фронтальная насыщенность Sw = 0.43 -->
     <g transform="translate(104.56875 50.115) scale(0.14 -0.14)">
      <defs>
       <path id="DejaVuSans-3d" d="M 678 2906 
L 4684 2906 
L 4684 2381 
L 678 2381 
L 678 2906 
z
M 678 1631 
L 4684 1631 
L 4684 1100 
L 678 1100 
L 678 1631 
z
" transform="scale(0.015625)"/>
       <path id="DejaVuSans-33" d="M 2597 2516 
Q 3050 2419 3304 2112 
Q 3559 1806 3559 1356 
Q 3559 666 3084 287 
Q 2609 -91 1734 -91 
Q 1441 -91 1130 -33 
Q 819 25 488 141 
L 488 750 
Q 750 597 1062 519 
Q 1375 441 1716 441 
Q 2309 441 2620 675 
Q 2931 909 2931 1356 
Q 2931 1769 2642 2001 
Q 2353 2234 1838 2234 
L 1294 2234 
L 1294 2753 
L 1863 2753 
Q 2328 2753 2575 2939 
Q 2822 3125 2822 3475 
Q 2822 3834 2567 4026 
Q 2313 4219 1838 4219 
Q 1578 4219 1281 4162 
Q 984 4106 628 3988 
L 628 4550 
Q 988 4650 1302 4700 
Q 1616 4750 1894 4750 
Q 2613 4750 3031 4423 
Q 3450 4097 3450 3541 
Q 3450 3153 3228 2886 
Q 3006 2619 2597 2516 
z
" transform="scale(0.015625)"/>
      </defs>
      <use xlink:href="#DejaVuSans-424"/>
      <use xlink:href="#DejaVuSans-440" transform="translate(86.083984 0)"/>
      <use xlink:href="#DejaVuSans-43e" transform="translate(149.560547 0)"/>
      <use xlink:href="#DejaVuSans-43d" transform="translate(210.742188 0)"/>
      <use xlink:href="#DejaVuSans-442" transform="translate(276.123047 0)"/>
      <use xlink:href="#DejaVuSans-430" transform="translate(334.375 0)"/>
      <use xlink:href="#DejaVuSans-43b" transform="translate(395.654297 0)"/>
      <use xlink:href="#DejaVuSans-44c" transform="translate(459.570312 0)"/>
      <use xlink:href="#DejaVuSans-43d" transform="translate(518.505859 0)"/>
      <use xlink:href="#DejaVuSans-430" transform="translate(583.886719 0)"/>
      <use xlink:href="#DejaVuSans-44f" transform="translate(645.166016 0)"/>
      <use xlink:href="#DejaVuSans-20" transform="translate(705.322266 0)"/>
      <use xlink:href="#DejaVuSans-43d" transform="translate(737.109375 0)"/>
      <use xlink:href="#DejaVuSans-430" transform="translate(802.490234 0)"/>
      <use xlink:href="#DejaVuSans-441" transform="translate(863.769531 0)"/>
      <use xlink:href="#DejaVuSans-44b" transform="translate(918.75 0)"/>
      <use xlink:href="#DejaVuSans-449" transform="translate(997.705078 0)"/>
      <use xlink:href="#DejaVuSans-435" transform="translate(1091.894531 0)"/>
      <use xlink:href="#DejaVuSans-43d" transform="translate(1153.417969 0)"/>
      <use xlink:href="#DejaVuSans-43d" transform="translate(1218.798828 0)"/>
      <use xlink:href="#DejaVuSans-43e" transform="translate(1284.179688 0)"/>
      <use xlink:href="#DejaVuSans-441" transform="translate(1345.361328 0)"/>
      <use xlink:href="#DejaVuSans-442" transform="translate(1400.341797 0)"/>
      <use xlink:href="#DejaVuSans-44c" transform="translate(1458.59375 0)"/>
      <use xlink:href="#DejaVuSans-20" transform="translate(1517.529297 0)"/>
      <use xlink:href="#DejaVuSans-53" transform="translate(1549.316406 0)"/>
      <use xlink:href="#DejaVuSans-77" transform="translate(1612.792969 0)"/>
      <use xlink:href="#DejaVuSans-20" transform="translate(1694.580078 0)"/>
      <use xlink:href="#DejaVuSans-3d" transform="translate(1726.367188 0)"/>
      <use xlink:href="#DejaVuSans-20" transform="translate(1810.15625 0)"/>
      <use xlink:href="#DejaVuSans-30" transform="translate(1841.943359 0)"/>
      <use xlink:href="#DejaVuSans-2e" transform="translate(1905.566406 0)"/>
      <use xlink:href="#DejaVuSans-34" transform="translate(1937.353516 0)"/>
      <use xlink:href="#DejaVuSans-33" transform="translate(2000.976562 0)"/>
     </g>
    </g>
    <g id="line2d_29">
     <path d="M 65.36875 65.764375 
L 79.36875 65.764375 
L 93.36875 65.764375 
" style="fill: none; stroke-dasharray: 7.4,3.2; stroke-dashoffset: 0; stroke: #ff0000; stroke-width: 2"/>
    </g>
    <g id="text_17">
     <!-- Касательная (скорость фронта) -->
     <g transform="translate(104.56875 70.664375) scale(0.14 -0.14)">
      <defs>
       <path id="DejaVuSans-41a" d="M 628 4666 
L 1259 4666 
L 1259 2359 
L 3516 4666 
L 4325 4666 
L 2522 2822 
L 4419 0 
L 3731 0 
L 2113 2403 
L 1259 1531 
L 1259 0 
L 628 0 
L 628 4666 
z
" transform="scale(0.015625)"/>
       <path id="DejaVuSans-444" d="M 947 1747 
Q 947 1013 1173 702 
Q 1400 391 1784 391 
Q 2091 391 2447 916 
L 2447 2578 
Q 2091 3103 1784 3103 
Q 1400 3103 1173 2792 
Q 947 2481 947 1747 
z
M 2447 -1331 
L 2447 447 
Q 2269 153 2064 31 
Q 1859 -91 1600 -91 
Q 1078 -91 714 392 
Q 350 875 350 1734 
Q 350 2594 714 3089 
Q 1078 3584 1600 3584 
Q 1859 3584 2064 3465 
Q 2269 3347 2447 3053 
L 2447 4666 
L 3025 4666 
L 3025 3053 
Q 3203 3347 3408 3465 
Q 3613 3584 3872 3584 
Q 4394 3584 4758 3089 
Q 5122 2594 5122 1734 
Q 5122 875 4758 392 
Q 4394 -91 3872 -91 
Q 3613 -91 3408 31 
Q 3203 153 3025 447 
L 3025 -1331 
L 2447 -1331 
z
M 4525 1747 
Q 4525 2481 4298 2792 
Q 4072 3103 3688 3103 
Q 3381 3103 3025 2578 
L 3025 916 
Q 3381 391 3688 391 
Q 4072 391 4298 702 
Q 4525 1013 4525 1747 
z
" transform="scale(0.015625)"/>
      </defs>
      <use xlink:href="#DejaVuSans-41a"/>
      <use xlink:href="#DejaVuSans-430" transform="translate(70.996094 0)"/>
      <use xlink:href="#DejaVuSans-441" transform="translate(132.275391 0)"/>
      <use xlink:href="#DejaVuSans-430" transform="translate(187.255859 0)"/>
      <use xlink:href="#DejaVuSans-442" transform="translate(248.535156 0)"/>
      <use xlink:href="#DejaVuSans-435" transform="translate(306.787109 0)"/>
      <use xlink:href="#DejaVuSans-43b" transform="translate(368.310547 0)"/>
      <use xlink:href="#DejaVuSans-44c" transform="translate(432.226562 0)"/>
      <use xlink:href="#DejaVuSans-43d" transform="translate(491.162109 0)"/>
      <use xlink:href="#DejaVuSans-430" transform="translate(556.542969 0)"/>
      <use xlink:href="#DejaVuSans-44f" transform="translate(617.822266 0)"/>
      <use xlink:href="#DejaVuSans-20" transform="translate(677.978516 0)"/>
      <use xlink:href="#DejaVuSans-28" transform="translate(709.765625 0)"/>
      <use xlink:href="#DejaVuSans-441" transform="translate(748.779297 0)"/>
      <use xlink:href="#DejaVuSans-43a" transform="translate(803.759766 0)"/>
      <use xlink:href="#DejaVuSans-43e" transform="translate(864.160156 0)"/>
      <use xlink:href="#DejaVuSans-440" transform="translate(925.341797 0)"/>
      <use xlink:href="#DejaVuSans-43e" transform="translate(988.818359 0)"/>
      <use xlink:href="#DejaVuSans-441" transform="translate(1050 0)"/>
      <use xlink:href="#DejaVuSans-442" transform="translate(1104.980469 0)"/>
      <use xlink:href="#DejaVuSans-44c" transform="translate(1163.232422 0)"/>
      <use xlink:href="#DejaVuSans-20" transform="translate(1222.167969 0)"/>
      <use xlink:href="#DejaVuSans-444" transform="translate(1253.955078 0)"/>
      <use xlink:href="#DejaVuSans-440" transform="translate(1339.453125 0)"/>
      <use xlink:href="#DejaVuSans-43e" transform="translate(1402.929688 0)"/>
      <use xlink:href="#DejaVuSans-43d" transform="translate(1464.111328 0)"/>
      <use xlink:href="#DejaVuSans-442" transform="translate(1529.492188 0)"/>
      <use xlink:href="#DejaVuSans-430" transform="translate(1587.744141 0)"/>
      <use xlink:href="#DejaVuSans-29" transform="translate(1649.023438 0)"/>
     </g>
    </g>
   </g>
  </g>
 </g>
 <defs>
  <clipPath id="p2db15e4a4d">
   <rect x="52.76875" y="26.877187" width="784.195" height="492.04"/>
  </clipPath>
 </defs>
</svg>
