<?xml version="1.0" encoding="utf-8" standalone="no"?>
<!DOCTYPE svg PUBLIC "-//W3C//DTD SVG 1.1//EN"
  "http://www.w3.org/Graphics/SVG/1.1/DTD/svg11.dtd">
<svg xmlns:xlink="http://www.w3.org/1999/xlink" width="848.656302pt" height="564.215937pt" viewBox="0 0 848.656302 564.215937" xmlns="http://www.w3.org/2000/svg" version="1.1">
 <metadata>
  <rdf:RDF xmlns:dc="http://purl.org/dc/elements/1.1/" xmlns:cc="http://creativecommons.org/ns#" xmlns:rdf="http://www.w3.org/1999/02/22-rdf-syntax-ns#">
   <cc:Work>
    <dc:type rdf:resource="http://purl.org/dc/dcmitype/StillImage"/>
    <dc:date>2025-03-16T03:43:58.222977</dc:date>
    <dc:format>image/svg+xml</dc:format>
    <dc:creator>
     <cc:Agent>
      <dc:title>Matplotlib v3.10.1, https://matplotlib.org/</dc:title>
     </cc:Agent>
    </dc:creator>
   </cc:Work>
  </rdf:RDF>
 </metadata>
 <defs>
  <style type="text/css">*{stroke-linejoin: round; stroke-linecap: butt}</style>
 </defs>
 <g id="figure_1">
  <g id="patch_1">
   <path d="M 0 564.215937 
L 848.656302 564.215937 
L 848.656302 0 
L 0 0 
z
" style="fill: #ffffff"/>
  </g>
  <g id="axes_1">
   <g id="patch_2">
    <path d="M 52.76875 518.917187 
L 837.785114 518.917187 
L 837.785114 26.877187 
L 52.76875 26.877187 
z
" style="fill: #ffffff"/>
   </g>
   <g id="matplotlib.axis_1">
    <g id="xtick_1">
     <g id="line2d_1">
      <path d="M 88.451312 518.917187 
L 88.451312 26.877187 
" clip-path="url(#pb97b74f8a9)" style="fill: none; stroke-dasharray: 2.96,1.28; stroke-dashoffset: 0; stroke: #b0b0b0; stroke-opacity: 0.7; stroke-width: 0.8"/>
     </g>
     <g id="line2d_2">
      <defs>
       <path id="m9b2d291ff3" d="M 0 0 
L 0 3.5 
" style="stroke: #000000; stroke-width: 0.8"/>
      </defs>
      <g>
       <use xlink:href="#m9b2d291ff3" x="88.451312" y="518.917187" style="stroke: #000000; stroke-width: 0.8"/>
      </g>
     </g>
     <g id="text_1">
      <!-- 0 -->
      <g transform="translate(84.633812 535.035313) scale(0.12 -0.12)">
       <defs>
        <path id="DejaVuSans-30" d="M 2034 4250 
Q 1547 4250 1301 3770 
Q 1056 3291 1056 2328 
Q 1056 1369 1301 889 
Q 1547 409 2034 409 
Q 2525 409 2770 889 
Q 3016 1369 3016 2328 
Q 3016 3291 2770 3770 
Q 2525 4250 2034 4250 
z
M 2034 4750 
Q 2819 4750 3233 4129 
Q 3647 3509 3647 2328 
Q 3647 1150 3233 529 
Q 2819 -91 2034 -91 
Q 1250 -91 836 529 
Q 422 1150 422 2328 
Q 422 3509 836 4129 
Q 1250 4750 2034 4750 
z
" transform="scale(0.015625)"/>
       </defs>
       <use xlink:href="#DejaVuSans-30"/>
      </g>
     </g>
    </g>
    <g id="xtick_2">
     <g id="line2d_3">
      <path d="M 231.18156 518.917187 
L 231.18156 26.877187 
" clip-path="url(#pb97b74f8a9)" style="fill: none; stroke-dasharray: 2.96,1.28; stroke-dashoffset: 0; stroke: #b0b0b0; stroke-opacity: 0.7; stroke-width: 0.8"/>
     </g>
     <g id="line2d_4">
      <g>
       <use xlink:href="#m9b2d291ff3" x="231.18156" y="518.917187" style="stroke: #000000; stroke-width: 0.8"/>
      </g>
     </g>
     <g id="text_2">
      <!-- 20 -->
      <g transform="translate(223.54656 535.035313) scale(0.12 -0.12)">
       <defs>
        <path id="DejaVuSans-32" d="M 1228 531 
L 3431 531 
L 3431 0 
L 469 0 
L 469 531 
Q 828 903 1448 1529 
Q 2069 2156 2228 2338 
Q 2531 2678 2651 2914 
Q 2772 3150 2772 3378 
Q 2772 3750 2511 3984 
Q 2250 4219 1831 4219 
Q 1534 4219 1204 4116 
Q 875 4013 500 3803 
L 500 4441 
Q 881 4594 1212 4672 
Q 1544 4750 1819 4750 
Q 2544 4750 2975 4387 
Q 3406 4025 3406 3419 
Q 3406 3131 3298 2873 
Q 3191 2616 2906 2266 
Q 2828 2175 2409 1742 
Q 1991 1309 1228 531 
z
" transform="scale(0.015625)"/>
       </defs>
       <use xlink:href="#DejaVuSans-32"/>
       <use xlink:href="#DejaVuSans-30" transform="translate(63.623047 0)"/>
      </g>
     </g>
    </g>
    <g id="xtick_3">
     <g id="line2d_5">
      <path d="M 373.911808 518.917187 
L 373.911808 26.877187 
" clip-path="url(#pb97b74f8a9)" style="fill: none; stroke-dasharray: 2.96,1.28; stroke-dashoffset: 0; stroke: #b0b0b0; stroke-opacity: 0.7; stroke-width: 0.8"/>
     </g>
     <g id="line2d_6">
      <g>
       <use xlink:href="#m9b2d291ff3" x="373.911808" y="518.917187" style="stroke: #000000; stroke-width: 0.8"/>
      </g>
     </g>
     <g id="text_3">
      <!-- 40 -->
      <g transform="translate(366.276808 535.035313) scale(0.12 -0.12)">
       <defs>
        <path id="DejaVuSans-34" d="M 2419 4116 
L 825 1625 
L 2419 1625 
L 2419 4116 
z
M 2253 4666 
L 3047 4666 
L 3047 1625 
L 3713 1625 
L 3713 1100 
L 3047 1100 
L 3047 0 
L 2419 0 
L 2419 1100 
L 313 1100 
L 313 1709 
L 2253 4666 
z
" transform="scale(0.015625)"/>
       </defs>
       <use xlink:href="#DejaVuSans-34"/>
       <use xlink:href="#DejaVuSans-30" transform="translate(63.623047 0)"/>
      </g>
     </g>
    </g>
    <g id="xtick_4">
     <g id="line2d_7">
      <path d="M 516.642056 518.917187 
L 516.642056 26.877187 
" clip-path="url(#pb97b74f8a9)" style="fill: none; stroke-dasharray: 2.96,1.28; stroke-dashoffset: 0; stroke: #b0b0b0; stroke-opacity: 0.7; stroke-width: 0.8"/>
     </g>
     <g id="line2d_8">
      <g>
       <use xlink:href="#m9b2d291ff3" x="516.642056" y="518.917187" style="stroke: #000000; stroke-width: 0.8"/>
      </g>
     </g>
     <g id="text_4">
      <!-- 60 -->
      <g transform="translate(509.007056 535.035313) scale(0.12 -0.12)">
       <defs>
        <path id="DejaVuSans-36" d="M 2113 2584 
Q 1688 2584 1439 2293 
Q 1191 2003 1191 1497 
Q 1191 994 1439 701 
Q 1688 409 2113 409 
Q 2538 409 2786 701 
Q 3034 994 3034 1497 
Q 3034 2003 2786 2293 
Q 2538 2584 2113 2584 
z
M 3366 4563 
L 3366 3988 
Q 3128 4100 2886 4159 
Q 2644 4219 2406 4219 
Q 1781 4219 1451 3797 
Q 1122 3375 1075 2522 
Q 1259 2794 1537 2939 
Q 1816 3084 2150 3084 
Q 2853 3084 3261 2657 
Q 3669 2231 3669 1497 
Q 3669 778 3244 343 
Q 2819 -91 2113 -91 
Q 1303 -91 875 529 
Q 447 1150 447 2328 
Q 447 3434 972 4092 
Q 1497 4750 2381 4750 
Q 2619 4750 2861 4703 
Q 3103 4656 3366 4563 
z
" transform="scale(0.015625)"/>
       </defs>
       <use xlink:href="#DejaVuSans-36"/>
       <use xlink:href="#DejaVuSans-30" transform="translate(63.623047 0)"/>
      </g>
     </g>
    </g>
    <g id="xtick_5">
     <g id="line2d_9">
      <path d="M 659.372304 518.917187 
L 659.372304 26.877187 
" clip-path="url(#pb97b74f8a9)" style="fill: none; stroke-dasharray: 2.96,1.28; stroke-dashoffset: 0; stroke: #b0b0b0; stroke-opacity: 0.7; stroke-width: 0.8"/>
     </g>
     <g id="line2d_10">
      <g>
       <use xlink:href="#m9b2d291ff3" x="659.372304" y="518.917187" style="stroke: #000000; stroke-width: 0.8"/>
      </g>
     </g>
     <g id="text_5">
      <!-- 80 -->
      <g transform="translate(651.737304 535.035313) scale(0.12 -0.12)">
       <defs>
        <path id="DejaVuSans-38" d="M 2034 2216 
Q 1584 2216 1326 1975 
Q 1069 1734 1069 1313 
Q 1069 891 1326 650 
Q 1584 409 2034 409 
Q 2484 409 2743 651 
Q 3003 894 3003 1313 
Q 3003 1734 2745 1975 
Q 2488 2216 2034 2216 
z
M 1403 2484 
Q 997 2584 770 2862 
Q 544 3141 544 3541 
Q 544 4100 942 4425 
Q 1341 4750 2034 4750 
Q 2731 4750 3128 4425 
Q 3525 4100 3525 3541 
Q 3525 3141 3298 2862 
Q 3072 2584 2669 2484 
Q 3125 2378 3379 2068 
Q 3634 1759 3634 1313 
Q 3634 634 3220 271 
Q 2806 -91 2034 -91 
Q 1263 -91 848 271 
Q 434 634 434 1313 
Q 434 1759 690 2068 
Q 947 2378 1403 2484 
z
M 1172 3481 
Q 1172 3119 1398 2916 
Q 1625 2713 2034 2713 
Q 2441 2713 2670 2916 
Q 2900 3119 2900 3481 
Q 2900 3844 2670 4047 
Q 2441 4250 2034 4250 
Q 1625 4250 1398 4047 
Q 1172 3844 1172 3481 
z
" transform="scale(0.015625)"/>
       </defs>
       <use xlink:href="#DejaVuSans-38"/>
       <use xlink:href="#DejaVuSans-30" transform="translate(63.623047 0)"/>
      </g>
     </g>
    </g>
    <g id="xtick_6">
     <g id="line2d_11">
      <path d="M 802.102552 518.917187 
L 802.102552 26.877187 
" clip-path="url(#pb97b74f8a9)" style="fill: none; stroke-dasharray: 2.96,1.28; stroke-dashoffset: 0; stroke: #b0b0b0; stroke-opacity: 0.7; stroke-width: 0.8"/>
     </g>
     <g id="line2d_12">
      <g>
       <use xlink:href="#m9b2d291ff3" x="802.102552" y="518.917187" style="stroke: #000000; stroke-width: 0.8"/>
      </g>
     </g>
     <g id="text_6">
      <!-- 100 -->
      <g transform="translate(790.650052 535.035313) scale(0.12 -0.12)">
       <defs>
        <path id="DejaVuSans-31" d="M 794 531 
L 1825 531 
L 1825 4091 
L 703 3866 
L 703 4441 
L 1819 4666 
L 2450 4666 
L 2450 531 
L 3481 531 
L 3481 0 
L 794 0 
L 794 531 
z
" transform="scale(0.015625)"/>
       </defs>
       <use xlink:href="#DejaVuSans-31"/>
       <use xlink:href="#DejaVuSans-30" transform="translate(63.623047 0)"/>
       <use xlink:href="#DejaVuSans-30" transform="translate(127.246094 0)"/>
      </g>
     </g>
    </g>
    <g id="text_7">
     <!-- Время, дни -->
     <g transform="translate(397.894432 553.688437) scale(0.16 -0.16)">
      <defs>
       <path id="DejaVuSans-412" d="M 1259 2228 
L 1259 519 
L 2272 519 
Q 2781 519 3026 730 
Q 3272 941 3272 1375 
Q 3272 1813 3026 2020 
Q 2781 2228 2272 2228 
L 1259 2228 
z
M 1259 4147 
L 1259 2741 
L 2194 2741 
Q 2656 2741 2882 2914 
Q 3109 3088 3109 3444 
Q 3109 3797 2882 3972 
Q 2656 4147 2194 4147 
L 1259 4147 
z
M 628 4666 
L 2241 4666 
Q 2963 4666 3353 4366 
Q 3744 4066 3744 3513 
Q 3744 3084 3544 2831 
Q 3344 2578 2956 2516 
Q 3422 2416 3680 2098 
Q 3938 1781 3938 1306 
Q 3938 681 3513 340 
Q 3088 0 2303 0 
L 628 0 
L 628 4666 
z
" transform="scale(0.015625)"/>
       <path id="DejaVuSans-440" d="M 1159 525 
L 1159 -1331 
L 581 -1331 
L 581 3500 
L 1159 3500 
L 1159 2969 
Q 1341 3281 1617 3432 
Q 1894 3584 2278 3584 
Q 2916 3584 3314 3078 
Q 3713 2572 3713 1747 
Q 3713 922 3314 415 
Q 2916 -91 2278 -91 
Q 1894 -91 1617 61 
Q 1341 213 1159 525 
z
M 3116 1747 
Q 3116 2381 2855 2742 
Q 2594 3103 2138 3103 
Q 1681 3103 1420 2742 
Q 1159 2381 1159 1747 
Q 1159 1113 1420 752 
Q 1681 391 2138 391 
Q 2594 391 2855 752 
Q 3116 1113 3116 1747 
z
" transform="scale(0.015625)"/>
       <path id="DejaVuSans-435" d="M 3597 1894 
L 3597 1613 
L 953 1613 
Q 991 1019 1311 708 
Q 1631 397 2203 397 
Q 2534 397 2845 478 
Q 3156 559 3463 722 
L 3463 178 
Q 3153 47 2828 -22 
Q 2503 -91 2169 -91 
Q 1331 -91 842 396 
Q 353 884 353 1716 
Q 353 2575 817 3079 
Q 1281 3584 2069 3584 
Q 2775 3584 3186 3129 
Q 3597 2675 3597 1894 
z
M 3022 2063 
Q 3016 2534 2758 2815 
Q 2500 3097 2075 3097 
Q 1594 3097 1305 2825 
Q 1016 2553 972 2059 
L 3022 2063 
z
" transform="scale(0.015625)"/>
       <path id="DejaVuSans-43c" d="M 581 3500 
L 1422 3500 
L 2416 1156 
L 3413 3500 
L 4247 3500 
L 4247 0 
L 3669 0 
L 3669 2950 
L 2703 672 
L 2128 672 
L 1159 2950 
L 1159 0 
L 581 0 
L 581 3500 
z
" transform="scale(0.015625)"/>
       <path id="DejaVuSans-44f" d="M 1181 2491 
Q 1181 2231 1381 2084 
Q 1581 1938 1953 1938 
L 2728 1938 
L 2728 3041 
L 1953 3041 
Q 1581 3041 1381 2897 
Q 1181 2753 1181 2491 
z
M 363 0 
L 1431 1534 
Q 1069 1616 828 1830 
Q 588 2044 588 2491 
Q 588 2997 923 3248 
Q 1259 3500 1938 3500 
L 3306 3500 
L 3306 0 
L 2728 0 
L 2728 1478 
L 2013 1478 
L 981 0 
L 363 0 
z
" transform="scale(0.015625)"/>
       <path id="DejaVuSans-2c" d="M 750 794 
L 1409 794 
L 1409 256 
L 897 -744 
L 494 -744 
L 750 256 
L 750 794 
z
" transform="scale(0.015625)"/>
       <path id="DejaVuSans-20" transform="scale(0.015625)"/>
       <path id="DejaVuSans-434" d="M 1384 459 
L 3053 459 
L 3053 3041 
L 1844 3041 
L 1844 2603 
Q 1844 1316 1475 628 
L 1384 459 
z
M 550 459 
Q 834 584 959 850 
Q 1266 1509 1266 2838 
L 1266 3500 
L 3631 3500 
L 3631 459 
L 4091 459 
L 4091 -884 
L 3631 -884 
L 3631 0 
L 794 0 
L 794 -884 
L 334 -884 
L 334 459 
L 550 459 
z
" transform="scale(0.015625)"/>
       <path id="DejaVuSans-43d" d="M 581 3500 
L 1159 3500 
L 1159 2072 
L 3025 2072 
L 3025 3500 
L 3603 3500 
L 3603 0 
L 3025 0 
L 3025 1613 
L 1159 1613 
L 1159 0 
L 581 0 
L 581 3500 
z
" transform="scale(0.015625)"/>
       <path id="DejaVuSans-438" d="M 3578 3500 
L 3578 0 
L 3006 0 
L 3006 2809 
L 1319 0 
L 581 0 
L 581 3500 
L 1153 3500 
L 1153 697 
L 2838 3500 
L 3578 3500 
z
" transform="scale(0.015625)"/>
      </defs>
      <use xlink:href="#DejaVuSans-412"/>
      <use xlink:href="#DejaVuSans-440" transform="translate(68.603516 0)"/>
      <use xlink:href="#DejaVuSans-435" transform="translate(132.080078 0)"/>
      <use xlink:href="#DejaVuSans-43c" transform="translate(193.603516 0)"/>
      <use xlink:href="#DejaVuSans-44f" transform="translate(269.042969 0)"/>
      <use xlink:href="#DejaVuSans-2c" transform="translate(329.199219 0)"/>
      <use xlink:href="#DejaVuSans-20" transform="translate(360.986328 0)"/>
      <use xlink:href="#DejaVuSans-434" transform="translate(392.773438 0)"/>
      <use xlink:href="#DejaVuSans-43d" transform="translate(461.914062 0)"/>
      <use xlink:href="#DejaVuSans-438" transform="translate(527.294922 0)"/>
     </g>
    </g>
   </g>
   <g id="matplotlib.axis_2">
    <g id="ytick_1">
     <g id="line2d_13">
      <path d="M 52.76875 502.14944 
L 837.785114 502.14944 
" clip-path="url(#pb97b74f8a9)" style="fill: none; stroke-dasharray: 2.96,1.28; stroke-dashoffset: 0; stroke: #b0b0b0; stroke-opacity: 0.7; stroke-width: 0.8"/>
     </g>
     <g id="line2d_14">
      <defs>
       <path id="m0d74ab3cb8" d="M 0 0 
L -3.5 0 
" style="stroke: #000000; stroke-width: 0.8"/>
      </defs>
      <g>
       <use xlink:href="#m0d74ab3cb8" x="52.76875" y="502.14944" style="stroke: #000000; stroke-width: 0.8"/>
      </g>
     </g>
     <g id="text_8">
      <!-- 0.0 -->
      <g transform="translate(26.685 506.708502) scale(0.12 -0.12)">
       <defs>
        <path id="DejaVuSans-2e" d="M 684 794 
L 1344 794 
L 1344 0 
L 684 0 
L 684 794 
z
" transform="scale(0.015625)"/>
       </defs>
       <use xlink:href="#DejaVuSans-30"/>
       <use xlink:href="#DejaVuSans-2e" transform="translate(63.623047 0)"/>
       <use xlink:href="#DejaVuSans-30" transform="translate(95.410156 0)"/>
      </g>
     </g>
    </g>
    <g id="ytick_2">
     <g id="line2d_15">
      <path d="M 52.76875 426.766991 
L 837.785114 426.766991 
" clip-path="url(#pb97b74f8a9)" style="fill: none; stroke-dasharray: 2.96,1.28; stroke-dashoffset: 0; stroke: #b0b0b0; stroke-opacity: 0.7; stroke-width: 0.8"/>
     </g>
     <g id="line2d_16">
      <g>
       <use xlink:href="#m0d74ab3cb8" x="52.76875" y="426.766991" style="stroke: #000000; stroke-width: 0.8"/>
      </g>
     </g>
     <g id="text_9">
      <!-- 0.1 -->
      <g transform="translate(26.685 431.326053) scale(0.12 -0.12)">
       <use xlink:href="#DejaVuSans-30"/>
       <use xlink:href="#DejaVuSans-2e" transform="translate(63.623047 0)"/>
       <use xlink:href="#DejaVuSans-31" transform="translate(95.410156 0)"/>
      </g>
     </g>
    </g>
    <g id="ytick_3">
     <g id="line2d_17">
      <path d="M 52.76875 351.384542 
L 837.785114 351.384542 
" clip-path="url(#pb97b74f8a9)" style="fill: none; stroke-dasharray: 2.96,1.28; stroke-dashoffset: 0; stroke: #b0b0b0; stroke-opacity: 0.7; stroke-width: 0.8"/>
     </g>
     <g id="line2d_18">
      <g>
       <use xlink:href="#m0d74ab3cb8" x="52.76875" y="351.384542" style="stroke: #000000; stroke-width: 0.8"/>
      </g>
     </g>
     <g id="text_10">
      <!-- 0.2 -->
      <g transform="translate(26.685 355.943605) scale(0.12 -0.12)">
       <use xlink:href="#DejaVuSans-30"/>
       <use xlink:href="#DejaVuSans-2e" transform="translate(63.623047 0)"/>
       <use xlink:href="#DejaVuSans-32" transform="translate(95.410156 0)"/>
      </g>
     </g>
    </g>
    <g id="ytick_4">
     <g id="line2d_19">
      <path d="M 52.76875 276.002094 
L 837.785114 276.002094 
" clip-path="url(#pb97b74f8a9)" style="fill: none; stroke-dasharray: 2.96,1.28; stroke-dashoffset: 0; stroke: #b0b0b0; stroke-opacity: 0.7; stroke-width: 0.8"/>
     </g>
     <g id="line2d_20">
      <g>
       <use xlink:href="#m0d74ab3cb8" x="52.76875" y="276.002094" style="stroke: #000000; stroke-width: 0.8"/>
      </g>
     </g>
     <g id="text_11">
      <!-- 0.3 -->
      <g transform="translate(26.685 280.561156) scale(0.12 -0.12)">
       <defs>
        <path id="DejaVuSans-33" d="M 2597 2516 
Q 3050 2419 3304 2112 
Q 3559 1806 3559 1356 
Q 3559 666 3084 287 
Q 2609 -91 1734 -91 
Q 1441 -91 1130 -33 
Q 819 25 488 141 
L 488 750 
Q 750 597 1062 519 
Q 1375 441 1716 441 
Q 2309 441 2620 675 
Q 2931 909 2931 1356 
Q 2931 1769 2642 2001 
Q 2353 2234 1838 2234 
L 1294 2234 
L 1294 2753 
L 1863 2753 
Q 2328 2753 2575 2939 
Q 2822 3125 2822 3475 
Q 2822 3834 2567 4026 
Q 2313 4219 1838 4219 
Q 1578 4219 1281 4162 
Q 984 4106 628 3988 
L 628 4550 
Q 988 4650 1302 4700 
Q 1616 4750 1894 4750 
Q 2613 4750 3031 4423 
Q 3450 4097 3450 3541 
Q 3450 3153 3228 2886 
Q 3006 2619 2597 2516 
z
" transform="scale(0.015625)"/>
       </defs>
       <use xlink:href="#DejaVuSans-30"/>
       <use xlink:href="#DejaVuSans-2e" transform="translate(63.623047 0)"/>
       <use xlink:href="#DejaVuSans-33" transform="translate(95.410156 0)"/>
      </g>
     </g>
    </g>
    <g id="ytick_5">
     <g id="line2d_21">
      <path d="M 52.76875 200.619645 
L 837.785114 200.619645 
" clip-path="url(#pb97b74f8a9)" style="fill: none; stroke-dasharray: 2.96,1.28; stroke-dashoffset: 0; stroke: #b0b0b0; stroke-opacity: 0.7; stroke-width: 0.8"/>
     </g>
     <g id="line2d_22">
      <g>
       <use xlink:href="#m0d74ab3cb8" x="52.76875" y="200.619645" style="stroke: #000000; stroke-width: 0.8"/>
      </g>
     </g>
     <g id="text_12">
      <!-- 0.4 -->
      <g transform="translate(26.685 205.178707) scale(0.12 -0.12)">
       <use xlink:href="#DejaVuSans-30"/>
       <use xlink:href="#DejaVuSans-2e" transform="translate(63.623047 0)"/>
       <use xlink:href="#DejaVuSans-34" transform="translate(95.410156 0)"/>
      </g>
     </g>
    </g>
    <g id="ytick_6">
     <g id="line2d_23">
      <path d="M 52.76875 125.237196 
L 837.785114 125.237196 
" clip-path="url(#pb97b74f8a9)" style="fill: none; stroke-dasharray: 2.96,1.28; stroke-dashoffset: 0; stroke: #b0b0b0; stroke-opacity: 0.7; stroke-width: 0.8"/>
     </g>
     <g id="line2d_24">
      <g>
       <use xlink:href="#m0d74ab3cb8" x="52.76875" y="125.237196" style="stroke: #000000; stroke-width: 0.8"/>
      </g>
     </g>
     <g id="text_13">
      <!-- 0.5 -->
      <g transform="translate(26.685 129.796259) scale(0.12 -0.12)">
       <defs>
        <path id="DejaVuSans-35" d="M 691 4666 
L 3169 4666 
L 3169 4134 
L 1269 4134 
L 1269 2991 
Q 1406 3038 1543 3061 
Q 1681 3084 1819 3084 
Q 2600 3084 3056 2656 
Q 3513 2228 3513 1497 
Q 3513 744 3044 326 
Q 2575 -91 1722 -91 
Q 1428 -91 1123 -41 
Q 819 9 494 109 
L 494 744 
Q 775 591 1075 516 
Q 1375 441 1709 441 
Q 2250 441 2565 725 
Q 2881 1009 2881 1497 
Q 2881 1984 2565 2268 
Q 2250 2553 1709 2553 
Q 1456 2553 1204 2497 
Q 953 2441 691 2322 
L 691 4666 
z
" transform="scale(0.015625)"/>
       </defs>
       <use xlink:href="#DejaVuSans-30"/>
       <use xlink:href="#DejaVuSans-2e" transform="translate(63.623047 0)"/>
       <use xlink:href="#DejaVuSans-35" transform="translate(95.410156 0)"/>
      </g>
     </g>
    </g>
    <g id="ytick_7">
     <g id="line2d_25">
      <path d="M 52.76875 49.854748 
L 837.785114 49.854748 
" clip-path="url(#pb97b74f8a9)" style="fill: none; stroke-dasharray: 2.96,1.28; stroke-dashoffset: 0; stroke: #b0b0b0; stroke-opacity: 0.7; stroke-width: 0.8"/>
     </g>
     <g id="line2d_26">
      <g>
       <use xlink:href="#m0d74ab3cb8" x="52.76875" y="49.854748" style="stroke: #000000; stroke-width: 0.8"/>
      </g>
     </g>
     <g id="text_14">
      <!-- 0.6 -->
      <g transform="translate(26.685 54.41381) scale(0.12 -0.12)">
       <use xlink:href="#DejaVuSans-30"/>
       <use xlink:href="#DejaVuSans-2e" transform="translate(63.623047 0)"/>
       <use xlink:href="#DejaVuSans-36" transform="translate(95.410156 0)"/>
      </g>
     </g>
    </g>
    <g id="text_15">
     <!-- Коэффициент нефтеотдачи, д.ед. -->
     <g transform="translate(19.3575 417.384687) rotate(-90) scale(0.16 -0.16)">
      <defs>
       <path id="DejaVuSans-41a" d="M 628 4666 
L 1259 4666 
L 1259 2359 
L 3516 4666 
L 4325 4666 
L 2522 2822 
L 4419 0 
L 3731 0 
L 2113 2403 
L 1259 1531 
L 1259 0 
L 628 0 
L 628 4666 
z
" transform="scale(0.015625)"/>
       <path id="DejaVuSans-43e" d="M 1959 3097 
Q 1497 3097 1228 2736 
Q 959 2375 959 1747 
Q 959 1119 1226 758 
Q 1494 397 1959 397 
Q 2419 397 2687 759 
Q 2956 1122 2956 1747 
Q 2956 2369 2687 2733 
Q 2419 3097 1959 3097 
z
M 1959 3584 
Q 2709 3584 3137 3096 
Q 3566 2609 3566 1747 
Q 3566 888 3137 398 
Q 2709 -91 1959 -91 
Q 1206 -91 779 398 
Q 353 888 353 1747 
Q 353 2609 779 3096 
Q 1206 3584 1959 3584 
z
" transform="scale(0.015625)"/>
       <path id="DejaVuSans-44d" d="M 353 666 
Q 847 397 1338 397 
Q 1797 397 2125 664 
Q 2453 931 2513 1613 
L 738 1613 
L 738 2072 
L 2494 2072 
Q 2456 2400 2207 2748 
Q 1959 3097 1338 3097 
Q 856 3097 353 2828 
L 353 3366 
Q 844 3584 1363 3584 
Q 2181 3584 2651 3089 
Q 3122 2594 3122 1747 
Q 3122 903 2664 406 
Q 2206 -91 1403 -91 
Q 813 -91 353 134 
L 353 666 
z
" transform="scale(0.015625)"/>
       <path id="DejaVuSans-444" d="M 947 1747 
Q 947 1013 1173 702 
Q 1400 391 1784 391 
Q 2091 391 2447 916 
L 2447 2578 
Q 2091 3103 1784 3103 
Q 1400 3103 1173 2792 
Q 947 2481 947 1747 
z
M 2447 -1331 
L 2447 447 
Q 2269 153 2064 31 
Q 1859 -91 1600 -91 
Q 1078 -91 714 392 
Q 350 875 350 1734 
Q 350 2594 714 3089 
Q 1078 3584 1600 3584 
Q 1859 3584 2064 3465 
Q 2269 3347 2447 3053 
L 2447 4666 
L 3025 4666 
L 3025 3053 
Q 3203 3347 3408 3465 
Q 3613 3584 3872 3584 
Q 4394 3584 4758 3089 
Q 5122 2594 5122 1734 
Q 5122 875 4758 392 
Q 4394 -91 3872 -91 
Q 3613 -91 3408 31 
Q 3203 153 3025 447 
L 3025 -1331 
L 2447 -1331 
z
M 4525 1747 
Q 4525 2481 4298 2792 
Q 4072 3103 3688 3103 
Q 3381 3103 3025 2578 
L 3025 916 
Q 3381 391 3688 391 
Q 4072 391 4298 702 
Q 4525 1013 4525 1747 
z
" transform="scale(0.015625)"/>
       <path id="DejaVuSans-446" d="M 3603 0 
L 581 0 
L 581 3500 
L 1159 3500 
L 1159 459 
L 3025 459 
L 3025 3500 
L 3603 3500 
L 3603 459 
L 4063 459 
L 4063 -884 
L 3603 -884 
L 3603 0 
z
" transform="scale(0.015625)"/>
       <path id="DejaVuSans-442" d="M 188 3500 
L 3541 3500 
L 3541 3041 
L 2147 3041 
L 2147 0 
L 1581 0 
L 1581 3041 
L 188 3041 
L 188 3500 
z
" transform="scale(0.015625)"/>
       <path id="DejaVuSans-430" d="M 2194 1759 
Q 1497 1759 1228 1600 
Q 959 1441 959 1056 
Q 959 750 1161 570 
Q 1363 391 1709 391 
Q 2188 391 2477 730 
Q 2766 1069 2766 1631 
L 2766 1759 
L 2194 1759 
z
M 3341 1997 
L 3341 0 
L 2766 0 
L 2766 531 
Q 2569 213 2275 61 
Q 1981 -91 1556 -91 
Q 1019 -91 701 211 
Q 384 513 384 1019 
Q 384 1609 779 1909 
Q 1175 2209 1959 2209 
L 2766 2209 
L 2766 2266 
Q 2766 2663 2505 2880 
Q 2244 3097 1772 3097 
Q 1472 3097 1187 3025 
Q 903 2953 641 2809 
L 641 3341 
Q 956 3463 1253 3523 
Q 1550 3584 1831 3584 
Q 2591 3584 2966 3190 
Q 3341 2797 3341 1997 
z
" transform="scale(0.015625)"/>
       <path id="DejaVuSans-447" d="M 2625 0 
L 2625 1472 
L 1553 1472 
Q 1075 1472 756 1769 
Q 469 2038 469 2613 
L 469 3500 
L 1044 3500 
L 1044 2666 
Q 1044 2300 1206 2116 
Q 1372 1931 1697 1931 
L 2625 1931 
L 2625 3500 
L 3200 3500 
L 3200 0 
L 2625 0 
z
" transform="scale(0.015625)"/>
      </defs>
      <use xlink:href="#DejaVuSans-41a"/>
      <use xlink:href="#DejaVuSans-43e" transform="translate(70.996094 0)"/>
      <use xlink:href="#DejaVuSans-44d" transform="translate(132.177734 0)"/>
      <use xlink:href="#DejaVuSans-444" transform="translate(187.060547 0)"/>
      <use xlink:href="#DejaVuSans-444" transform="translate(272.558594 0)"/>
      <use xlink:href="#DejaVuSans-438" transform="translate(358.056641 0)"/>
      <use xlink:href="#DejaVuSans-446" transform="translate(423.046875 0)"/>
      <use xlink:href="#DejaVuSans-438" transform="translate(491.113281 0)"/>
      <use xlink:href="#DejaVuSans-435" transform="translate(556.103516 0)"/>
      <use xlink:href="#DejaVuSans-43d" transform="translate(617.626953 0)"/>
      <use xlink:href="#DejaVuSans-442" transform="translate(683.007812 0)"/>
      <use xlink:href="#DejaVuSans-20" transform="translate(741.259766 0)"/>
      <use xlink:href="#DejaVuSans-43d" transform="translate(773.046875 0)"/>
      <use xlink:href="#DejaVuSans-435" transform="translate(838.427734 0)"/>
      <use xlink:href="#DejaVuSans-444" transform="translate(899.951172 0)"/>
      <use xlink:href="#DejaVuSans-442" transform="translate(985.449219 0)"/>
      <use xlink:href="#DejaVuSans-435" transform="translate(1043.701172 0)"/>
      <use xlink:href="#DejaVuSans-43e" transform="translate(1105.224609 0)"/>
      <use xlink:href="#DejaVuSans-442" transform="translate(1166.40625 0)"/>
      <use xlink:href="#DejaVuSans-434" transform="translate(1224.658203 0)"/>
      <use xlink:href="#DejaVuSans-430" transform="translate(1293.798828 0)"/>
      <use xlink:href="#DejaVuSans-447" transform="translate(1355.078125 0)"/>
      <use xlink:href="#DejaVuSans-438" transform="translate(1414.160156 0)"/>
      <use xlink:href="#DejaVuSans-2c" transform="translate(1479.150391 0)"/>
      <use xlink:href="#DejaVuSans-20" transform="translate(1510.9375 0)"/>
      <use xlink:href="#DejaVuSans-434" transform="translate(1542.724609 0)"/>
      <use xlink:href="#DejaVuSans-2e" transform="translate(1611.865234 0)"/>
      <use xlink:href="#DejaVuSans-435" transform="translate(1643.652344 0)"/>
      <use xlink:href="#DejaVuSans-434" transform="translate(1705.175781 0)"/>
      <use xlink:href="#DejaVuSans-2e" transform="translate(1774.316406 0)"/>
     </g>
    </g>
   </g>
   <g id="line2d_27">
    <path d="M 88.451312 496.551733 
L 369.273075 129.298387 
L 370.700377 126.824964 
L 372.484505 123.615598 
L 373.554982 122.295045 
L 374.625459 121.388402 
L 376.052762 120.505958 
L 378.193715 119.501868 
L 381.405146 118.302929 
L 386.043879 116.845289 
L 392.823566 114.9725 
L 402.101032 112.655421 
L 413.876277 109.951337 
L 427.792476 106.986785 
L 443.492804 103.869981 
L 460.977259 100.629261 
L 479.889017 97.353567 
L 500.228077 94.058972 
L 521.99444 90.760618 
L 545.188105 87.472104 
L 570.165899 84.159498 
L 596.570995 80.884589 
L 624.760219 77.615196 
L 654.733571 74.365481 
L 686.491051 71.147264 
L 720.389485 67.937605 
L 756.428872 64.75083 
L 794.609214 61.5988 
L 802.102552 61.004908 
L 802.102552 61.004908 
" clip-path="url(#pb97b74f8a9)" style="fill: none; stroke: #0000ff; stroke-width: 3; stroke-linecap: square"/>
   </g>
   <g id="line2d_28">
    <path d="M 88.451312 496.551733 
L 88.808138 496.08525 
L 89.164963 493.51964 
L 89.521789 493.260836 
L 89.878614 491.756296 
L 90.23544 490.928088 
L 90.592266 489.653756 
L 91.305917 488.221803 
L 91.662743 487.724012 
L 92.376394 486.096503 
L 93.090045 485.101257 
L 93.446871 484.624903 
L 94.160522 483.219955 
L 94.874173 482.277538 
L 95.587824 481.456448 
L 96.301476 480.184218 
L 97.371952 478.929213 
L 97.728778 478.572388 
L 98.442429 477.31814 
L 99.512906 476.039351 
L 100.583383 474.989082 
L 101.297034 473.865264 
L 102.367511 472.692163 
L 103.437988 471.716334 
L 104.151639 470.621672 
L 105.222116 469.457618 
L 106.649419 468.194401 
L 107.36307 467.156671 
L 108.433547 466.029606 
L 109.860849 464.820092 
L 110.5745 463.795819 
L 111.644977 462.666423 
L 113.429105 461.196942 
L 114.142757 460.192301 
L 115.570059 458.786041 
L 116.997362 457.640304 
L 117.711013 456.681658 
L 118.78149 455.572465 
L 120.565618 454.183181 
L 121.279269 453.167975 
L 123.420223 451.123462 
L 123.777048 450.962594 
L 124.133874 450.52564 
L 124.4907 450.344192 
L 125.918002 448.31973 
L 126.274828 448.002142 
L 126.631653 447.336386 
L 126.988479 446.99031 
L 127.345305 446.319304 
L 127.70213 445.935623 
L 128.415781 444.498136 
L 128.772607 444.09762 
L 129.129433 443.449909 
L 129.486258 443.177076 
L 129.843084 442.582911 
L 130.19991 442.337777 
L 130.556735 441.759636 
L 130.913561 441.514789 
L 131.627212 440.225219 
L 131.984038 439.860535 
L 132.340863 439.256153 
L 132.697689 439.004319 
L 133.054514 438.431878 
L 133.41134 438.206546 
L 133.768166 437.637507 
L 134.124991 437.390459 
L 134.838643 436.095045 
L 135.195468 435.734564 
L 135.552294 435.12195 
L 135.909119 434.875576 
L 136.265945 434.298144 
L 136.622771 434.064584 
L 136.979596 433.494373 
L 137.336422 433.246366 
L 138.050073 431.960176 
L 138.406899 431.607159 
L 138.763724 430.996058 
L 139.12055 430.756539 
L 139.477376 430.181328 
L 139.834201 429.951144 
L 140.191027 429.383161 
L 140.547852 429.137475 
L 141.261504 427.857446 
L 141.618329 427.508875 
L 141.975155 426.89724 
L 142.331981 426.661882 
L 142.688806 426.085152 
L 143.045632 425.85425 
L 143.402457 425.285422 
L 143.759283 425.039307 
L 144.472934 423.760867 
L 144.82976 423.414719 
L 145.186586 422.804733 
L 145.543411 422.572835 
L 145.900237 421.994625 
L 146.257062 421.763362 
L 146.613888 421.193532 
L 146.970714 420.947514 
L 147.684365 419.66935 
L 148.04119 419.32435 
L 148.398016 418.715221 
L 148.754842 418.48549 
L 149.111667 417.908925 
L 149.468493 417.677486 
L 149.825319 417.106342 
L 150.182144 416.860406 
L 150.895795 415.582152 
L 151.252621 415.237521 
L 151.609447 414.628866 
L 151.966272 414.400365 
L 152.323098 413.824803 
L 152.679924 413.592564 
L 153.036749 413.022626 
L 153.393575 412.776812 
L 154.107226 411.497977 
L 154.464052 411.153334 
L 154.820877 410.545157 
L 155.177703 410.317314 
L 155.534529 409.742501 
L 155.891354 409.509287 
L 156.24818 408.940531 
L 156.605005 408.694448 
L 157.318657 407.416979 
L 157.675482 407.072036 
L 158.032308 406.464242 
L 158.389133 406.236731 
L 158.745959 405.662599 
L 159.102785 405.428381 
L 159.45961 404.86055 
L 159.816436 404.6139 
L 160.530087 403.337763 
L 160.886913 402.993527 
L 161.243738 402.38602 
L 161.600564 402.158533 
L 161.95739 401.584917 
L 162.314215 401.349509 
L 162.671041 400.782434 
L 163.027867 400.535077 
L 163.741518 399.259729 
L 164.098343 398.917057 
L 164.455169 398.309763 
L 164.811995 398.082434 
L 165.16882 397.509209 
L 165.525646 397.272437 
L 165.882471 396.705982 
L 166.239297 396.457802 
L 166.952948 395.182855 
L 167.309774 394.841457 
L 167.6666 394.23411 
L 168.023425 394.008401 
L 168.380251 393.435626 
L 168.737076 393.19744 
L 169.093902 392.63155 
L 169.450728 392.382481 
L 170.164379 391.107872 
L 170.521205 390.767586 
L 170.87803 390.160052 
L 171.234856 389.935721 
L 171.591681 389.363159 
L 171.948507 389.124849 
L 172.305333 388.559505 
L 172.662158 388.309427 
L 173.732635 386.695644 
L 174.089461 386.087837 
L 174.446286 385.864718 
L 174.803112 385.292223 
L 175.159938 385.054079 
L 175.516763 384.489145 
L 175.873589 384.2387 
L 176.944066 382.625701 
L 177.300891 382.017479 
L 177.657717 381.795423 
L 178.014543 381.222855 
L 178.371368 380.984817 
L 178.728194 380.420117 
L 179.085019 380.169961 
L 180.512322 377.949275 
L 180.869148 377.728194 
L 181.225973 377.155464 
L 181.582799 376.917525 
L 181.939624 376.352947 
L 182.29645 376.10304 
L 183.723752 373.883516 
L 184.080578 373.662894 
L 184.437404 373.089905 
L 184.794229 372.85213 
L 185.151055 372.287633 
L 185.507881 372.03806 
L 186.935183 369.820485 
L 187.292009 369.60009 
L 187.648834 369.026794 
L 188.00566 368.789219 
L 188.362486 368.224739 
L 188.719311 367.975521 
L 190.146614 365.759705 
L 190.503439 365.539452 
L 190.860265 364.966497 
L 191.21709 364.729096 
L 191.573916 364.164512 
L 191.930742 363.915555 
L 193.001219 362.308858 
L 193.358044 361.701083 
L 193.71487 361.480866 
L 194.071695 360.908452 
L 194.428521 360.671178 
L 194.785347 360.106766 
L 195.142172 359.858039 
L 195.855824 358.58689 
L 196.212649 358.251985 
L 196.569475 357.644574 
L 196.9263 357.424296 
L 197.283126 356.852359 
L 197.639952 356.61513 
L 197.996777 356.051351 
L 198.353603 355.802841 
L 199.067254 354.532064 
L 199.42408 354.197355 
L 199.780905 353.59026 
L 200.137731 353.369836 
L 200.494557 352.798329 
L 200.851382 352.561081 
L 201.208208 351.997876 
L 201.565033 351.749512 
L 202.63551 350.145158 
L 202.992336 349.538351 
L 203.349162 349.317703 
L 203.705987 348.746582 
L 204.062813 348.509247 
L 204.419638 347.946572 
L 204.776464 347.698302 
L 206.203767 345.489103 
L 206.560592 345.268187 
L 206.917418 344.697425 
L 207.274243 344.459937 
L 207.631069 343.897752 
L 207.987895 343.64951 
L 209.415197 341.442071 
L 209.772023 341.22145 
L 210.128848 340.651048 
L 210.485674 340.413357 
L 210.8425 339.851623 
L 211.199325 339.603334 
L 212.626628 337.397425 
L 212.983453 337.177134 
L 213.340279 336.607036 
L 213.697105 336.369544 
L 214.05393 335.808247 
L 214.410756 335.559852 
L 215.838058 333.35524 
L 216.194884 333.135235 
L 216.55171 332.565377 
L 216.908535 332.328222 
L 217.265361 331.767314 
L 217.622186 331.5191 
L 219.049489 329.315597 
L 219.406314 329.095842 
L 219.76314 328.526158 
L 220.119966 328.289308 
L 220.476791 327.728728 
L 220.833617 327.480902 
L 222.260919 325.278619 
L 222.617745 325.059087 
L 222.974571 324.489515 
L 223.331396 324.25294 
L 223.688222 323.692625 
L 224.045048 323.445162 
L 225.47235 321.24446 
L 225.829176 321.025147 
L 226.186001 320.455633 
L 226.542827 320.219315 
L 226.899652 319.659205 
L 227.256478 319.412079 
L 228.683781 317.21304 
L 229.040606 316.993926 
L 229.397432 316.424698 
L 229.754257 316.188636 
L 230.111083 315.628678 
L 230.467909 315.381873 
L 231.895211 313.184338 
L 232.252037 312.965376 
L 232.608862 312.396618 
L 232.965688 312.160793 
L 233.322514 311.601225 
L 233.679339 311.354739 
L 235.106642 309.158565 
L 235.463467 308.939705 
L 235.820293 308.371397 
L 236.177119 308.135765 
L 236.533944 307.576738 
L 236.89077 307.33055 
L 238.318072 305.135935 
L 238.674898 304.917126 
L 239.031724 304.34925 
L 239.388549 304.113765 
L 239.745375 303.55526 
L 240.1022 303.309329 
L 241.529503 301.116668 
L 241.886329 300.897877 
L 242.243154 300.330426 
L 242.59998 300.095041 
L 242.956805 299.537046 
L 243.313631 299.291328 
L 244.740933 297.100599 
L 245.097759 296.882191 
L 245.454585 296.31517 
L 245.81141 296.079952 
L 246.168236 295.522468 
L 246.525062 295.276926 
L 247.952364 293.088055 
L 248.30919 292.870028 
L 248.666015 292.303412 
L 249.022841 292.06864 
L 249.379667 291.51167 
L 249.736492 291.266468 
L 251.163795 289.079397 
L 251.52062 288.86175 
L 251.877446 288.295507 
L 252.234271 288.061182 
L 252.591097 287.504699 
L 252.947923 287.260022 
L 254.375225 285.075043 
L 254.732051 284.857787 
L 255.088876 284.291884 
L 255.445702 284.058018 
L 255.802528 283.501993 
L 256.159353 283.257854 
L 257.586656 281.075346 
L 257.943481 280.858498 
L 258.300307 280.293089 
L 258.657133 280.059709 
L 259.013958 279.50412 
L 259.370784 279.260543 
L 260.798086 277.080528 
L 261.154912 276.864077 
L 261.511738 276.299371 
L 261.868563 276.066491 
L 262.225389 275.511655 
L 262.582214 275.268682 
L 264.009517 273.091339 
L 264.366343 272.875278 
L 264.723168 272.311318 
L 265.079994 272.078943 
L 265.436819 271.524949 
L 265.793645 271.282597 
L 267.220948 269.108346 
L 267.577773 268.892746 
L 267.934599 268.329207 
L 268.291424 268.097346 
L 268.64825 267.543769 
L 269.005076 267.30184 
L 270.432378 265.128906 
L 270.789204 264.913543 
L 271.146029 264.350277 
L 271.502855 264.11839 
L 271.859681 263.56521 
L 272.216506 263.322999 
L 273.643809 261.1509 
L 274.000634 260.935605 
L 274.35746 260.372441 
L 274.714286 260.140451 
L 275.071111 259.587598 
L 275.427937 259.345389 
L 276.855239 257.174456 
L 277.212065 256.959081 
L 277.56889 256.395834 
L 277.925716 256.163852 
L 278.282542 255.611058 
L 278.639367 255.368945 
L 280.06667 253.198442 
L 280.423495 252.982785 
L 280.780321 252.419765 
L 281.137147 252.187706 
L 281.493972 251.635114 
L 281.850798 251.393109 
L 283.2781 249.223225 
L 283.634926 249.007221 
L 283.991752 248.444531 
L 284.348577 248.212236 
L 284.705403 247.660059 
L 285.062229 247.417919 
L 286.489531 245.248214 
L 286.846357 245.031901 
L 287.203182 244.469472 
L 287.560008 244.236973 
L 287.916833 243.685238 
L 288.273659 243.442996 
L 289.700962 241.273657 
L 290.057787 241.057306 
L 290.414613 240.494978 
L 290.771438 240.262401 
L 291.128264 239.71086 
L 291.48509 239.468535 
L 292.912392 237.299317 
L 293.269218 237.082968 
L 293.626043 236.520744 
L 293.982869 236.288261 
L 294.339695 235.736917 
L 294.69652 235.494723 
L 296.123823 233.325546 
L 296.480648 233.10901 
L 296.837474 232.546891 
L 297.1943 232.314344 
L 297.551125 231.763024 
L 297.907951 231.520913 
L 299.335253 229.352124 
L 299.692079 229.135437 
L 300.048905 228.573499 
L 300.40573 228.340868 
L 300.762556 227.789469 
L 301.119381 227.547342 
L 302.546684 225.378708 
L 302.90351 225.161899 
L 303.260335 224.600208 
L 303.617161 224.367523 
L 303.973986 223.81621 
L 304.330812 223.574093 
L 305.758114 221.405655 
L 306.11494 221.18874 
L 306.471766 220.62718 
L 306.828591 220.394453 
L 307.185417 219.843095 
L 307.542243 219.600996 
L 308.969545 217.432889 
L 309.326371 217.215918 
L 309.683196 216.654492 
L 310.040022 216.421732 
L 310.396848 215.870338 
L 310.753673 215.628262 
L 312.180976 213.460343 
L 312.537801 213.243314 
L 312.894627 212.682027 
L 313.251452 212.449281 
L 313.608278 211.897867 
L 313.965104 211.655842 
L 315.392406 209.48813 
L 315.749232 209.271026 
L 316.106057 208.709875 
L 316.462883 208.477103 
L 316.819709 207.925677 
L 317.176534 207.683676 
L 318.603837 205.516188 
L 318.960662 205.299024 
L 319.317488 204.738008 
L 319.674314 204.505219 
L 320.031139 203.95379 
L 320.387965 203.711815 
L 321.815267 201.544541 
L 322.172093 201.327329 
L 322.528919 200.766419 
L 322.885744 200.533625 
L 323.24257 199.982171 
L 323.599395 199.74023 
L 325.026698 197.573184 
L 325.383524 197.355933 
L 325.740349 196.795139 
L 326.097175 196.562347 
L 326.454 196.010885 
L 326.810826 195.768985 
L 328.238129 193.602099 
L 328.594954 193.384817 
L 328.95178 192.824083 
L 329.308605 192.591299 
L 329.665431 192.039839 
L 330.022257 191.797984 
L 331.449559 189.631323 
L 331.806385 189.413962 
L 332.16321 188.853225 
L 332.520036 188.62042 
L 332.876862 188.068973 
L 333.233687 187.827171 
L 334.66099 185.660778 
L 335.017815 185.443394 
L 335.374641 184.882667 
L 335.731467 184.649859 
L 336.088292 184.098437 
L 336.445118 183.856627 
L 337.87242 181.690469 
L 338.229246 181.473071 
L 338.586071 180.91236 
L 338.942897 180.679568 
L 339.299723 180.128175 
L 339.656548 179.886412 
L 341.083851 177.720443 
L 341.440676 177.503037 
L 341.797502 176.942303 
L 342.154328 176.709535 
L 342.511153 176.158164 
L 342.867979 175.916451 
L 344.295281 173.750749 
L 344.652107 173.533343 
L 345.008933 172.972592 
L 345.365758 172.739852 
L 345.722584 172.188451 
L 346.07941 171.946791 
L 347.506712 169.78131 
L 347.863538 169.563908 
L 348.220363 169.003171 
L 348.577189 168.770462 
L 348.934014 168.219085 
L 349.29084 167.97748 
L 350.718143 165.812177 
L 351.074968 165.594743 
L 351.431794 165.034025 
L 351.788619 164.801338 
L 352.145445 164.249989 
L 352.502271 164.008442 
L 353.929573 161.843388 
L 354.286399 161.625923 
L 354.643224 161.065227 
L 355.00005 160.832524 
L 355.356876 160.281207 
L 355.713701 160.039682 
L 357.141004 157.874875 
L 357.497829 157.657412 
L 357.854655 157.096744 
L 358.211481 156.864055 
L 358.568306 156.312774 
L 358.925132 156.071263 
L 360.352434 153.906641 
L 360.70926 153.689184 
L 361.066086 153.128534 
L 361.422911 152.895873 
L 361.779737 152.344629 
L 362.136562 152.103166 
L 363.563865 149.938741 
L 363.92069 149.721294 
L 364.277516 149.160635 
L 364.634342 148.928005 
L 364.991167 148.37677 
L 365.347993 148.135357 
L 366.775295 145.971166 
L 367.132121 145.753731 
L 367.488947 145.193079 
L 367.845772 144.960482 
L 368.202598 144.409249 
L 368.559424 144.167885 
L 369.986726 142.003878 
L 370.343552 141.786449 
L 370.700377 141.225824 
L 371.057203 140.993261 
L 371.414029 140.442058 
L 371.770854 140.200746 
L 373.198157 138.036923 
L 373.554982 137.81948 
L 373.911808 137.258883 
L 374.268633 137.026332 
L 374.625459 136.475164 
L 374.982285 136.233896 
L 376.409587 134.070299 
L 376.766413 133.852847 
L 377.123238 133.29228 
L 377.480064 133.059736 
L 377.83689 132.508603 
L 378.193715 132.267359 
L 379.621018 130.103965 
L 379.977843 129.886526 
L 380.334669 129.325992 
L 380.691495 129.093469 
L 381.04832 128.542375 
L 381.405146 128.301156 
L 382.832448 126.13794 
L 383.189274 125.920516 
L 383.5461 125.359998 
L 383.902925 125.127506 
L 384.259751 124.576445 
L 384.616576 124.33527 
L 386.043879 122.172244 
L 386.400705 121.954836 
L 386.75753 121.394329 
L 387.114356 121.161868 
L 387.471181 120.610824 
L 387.828007 120.369695 
L 389.25531 118.206865 
L 389.612135 117.989476 
L 389.968961 117.428988 
L 390.325786 117.196561 
L 390.682612 116.645532 
L 391.039438 116.404447 
L 392.46674 114.23663 
L 392.823566 114.006786 
L 393.180391 113.445187 
L 393.537217 113.187439 
L 393.894043 112.630287 
L 394.250868 112.326401 
L 394.607694 111.587308 
L 394.964519 110.312241 
L 395.321345 109.866822 
L 395.678171 108.560506 
L 396.034996 108.287894 
L 396.391822 106.91801 
L 396.748648 106.769546 
L 397.105473 105.31824 
L 397.462299 105.34119 
L 397.819124 103.812301 
L 398.17595 104.004008 
L 398.532776 102.233239 
L 398.889601 102.566067 
L 399.246427 100.836519 
L 399.603252 101.115745 
L 399.960078 99.635154 
L 400.316904 99.857705 
L 400.673729 98.765809 
L 401.030555 98.952891 
L 401.387381 98.208884 
L 401.744206 98.336341 
L 402.101032 97.821473 
L 402.457857 97.911412 
L 402.814683 97.52268 
L 403.171509 97.585251 
L 403.528334 97.271547 
L 403.88516 97.308254 
L 404.241986 97.042967 
L 404.598811 97.062196 
L 404.955637 96.83072 
L 405.312462 96.83716 
L 405.669288 96.630528 
L 406.026114 96.626995 
L 406.382939 96.439467 
L 406.739765 96.427829 
L 407.09659 96.255518 
L 407.453416 96.237107 
L 407.810242 96.077251 
L 408.167067 96.053068 
L 408.880719 95.874452 
L 409.951195 95.567361 
L 411.021672 95.362986 
L 412.092149 95.08336 
L 413.162626 94.877513 
L 414.589929 94.564193 
L 416.374057 94.16316 
L 418.871836 93.659348 
L 422.083267 92.998064 
L 428.149302 91.814449 
L 436.713117 90.201817 
L 450.986142 87.650698 
L 469.541074 84.539199 
L 490.593786 81.239472 
L 512.003323 78.119384 
L 535.196988 74.969605 
L 559.817956 71.852043 
L 586.223052 68.733985 
L 614.412276 65.630644 
L 644.385628 62.554901 
L 676.499933 59.484485 
L 710.755193 56.434828 
L 747.151406 53.418658 
L 786.045399 50.419755 
L 802.102552 49.242642 
L 802.102552 49.242642 
" clip-path="url(#pb97b74f8a9)" style="fill: none; stroke: #ff0000; stroke-width: 3; stroke-linecap: square"/>
   </g>
   <g id="patch_3">
    <path d="M 52.76875 518.917187 
L 52.76875 26.877187 
" style="fill: none; stroke: #000000; stroke-width: 0.8; stroke-linejoin: miter; stroke-linecap: square"/>
   </g>
   <g id="patch_4">
    <path d="M 837.785114 518.917187 
L 837.785114 26.877187 
" style="fill: none; stroke: #000000; stroke-width: 0.8; stroke-linejoin: miter; stroke-linecap: square"/>
   </g>
   <g id="patch_5">
    <path d="M 52.76875 518.917187 
L 837.785114 518.917187 
" style="fill: none; stroke: #000000; stroke-width: 0.8; stroke-linejoin: miter; stroke-linecap: square"/>
   </g>
   <g id="patch_6">
    <path d="M 52.76875 26.877187 
L 837.785114 26.877187 
" style="fill: none; stroke: #000000; stroke-width: 0.8; stroke-linejoin: miter; stroke-linecap: square"/>
   </g>
   <g id="patch_7">
    <path d="M 160.814835 403.935262 
Q 160.315635 403.935262 160.93447 403.935262 
" style="fill: none; stroke: #000000; stroke-linecap: round"/>
    <path d="M 165.73447 406.335262 
L 160.93447 403.935262 
L 165.73447 401.535262 
" style="fill: none; stroke: #000000; stroke-linecap: round"/>
   </g>
   <g id="text_16">
    <!-- -0.002 -->
    <g transform="translate(164.816436 407.246512) scale(0.12 -0.12)">
     <defs>
      <path id="DejaVuSans-2d" d="M 313 2009 
L 1997 2009 
L 1997 1497 
L 313 1497 
L 313 2009 
z
" transform="scale(0.015625)"/>
     </defs>
     <use xlink:href="#DejaVuSans-2d"/>
     <use xlink:href="#DejaVuSans-30" transform="translate(36.083984 0)"/>
     <use xlink:href="#DejaVuSans-2e" transform="translate(99.707031 0)"/>
     <use xlink:href="#DejaVuSans-30" transform="translate(131.494141 0)"/>
     <use xlink:href="#DejaVuSans-30" transform="translate(195.117188 0)"/>
     <use xlink:href="#DejaVuSans-32" transform="translate(258.740234 0)"/>
    </g>
   </g>
   <g id="patch_8">
    <path d="M 303.545083 221.022556 
Q 303.045883 221.022556 303.664718 221.022556 
" style="fill: none; stroke: #000000; stroke-linecap: round"/>
    <path d="M 308.464718 223.422556 
L 303.664718 221.022556 
L 308.464718 218.622556 
" style="fill: none; stroke: #000000; stroke-linecap: round"/>
   </g>
   <g id="text_17">
    <!-- -0.012 -->
    <g transform="translate(307.546684 224.333806) scale(0.12 -0.12)">
     <use xlink:href="#DejaVuSans-2d"/>
     <use xlink:href="#DejaVuSans-30" transform="translate(36.083984 0)"/>
     <use xlink:href="#DejaVuSans-2e" transform="translate(99.707031 0)"/>
     <use xlink:href="#DejaVuSans-30" transform="translate(131.494141 0)"/>
     <use xlink:href="#DejaVuSans-31" transform="translate(195.117188 0)"/>
     <use xlink:href="#DejaVuSans-32" transform="translate(258.740234 0)"/>
    </g>
   </g>
   <g id="patch_9">
    <path d="M 446.276693 96.090933 
Q 445.776813 96.090933 446.394966 96.090933 
" style="fill: none; stroke: #000000; stroke-linecap: round"/>
    <path d="M 451.194966 98.490933 
L 446.394966 96.090933 
L 451.194966 93.690933 
" style="fill: none; stroke: #000000; stroke-linecap: round"/>
   </g>
   <g id="text_18">
    <!-- 0.020 -->
    <g transform="translate(450.276932 99.402183) scale(0.12 -0.12)">
     <use xlink:href="#DejaVuSans-30"/>
     <use xlink:href="#DejaVuSans-2e" transform="translate(63.623047 0)"/>
     <use xlink:href="#DejaVuSans-30" transform="translate(95.410156 0)"/>
     <use xlink:href="#DejaVuSans-32" transform="translate(159.033203 0)"/>
     <use xlink:href="#DejaVuSans-30" transform="translate(222.65625 0)"/>
    </g>
   </g>
   <g id="patch_10">
    <path d="M 589.006941 75.226947 
Q 588.50706 75.226947 589.125214 75.226947 
" style="fill: none; stroke: #000000; stroke-linecap: round"/>
    <path d="M 593.925214 77.626947 
L 589.125214 75.226947 
L 593.925214 72.826947 
" style="fill: none; stroke: #000000; stroke-linecap: round"/>
   </g>
   <g id="text_19">
    <!-- 0.018 -->
    <g transform="translate(593.00718 78.538197) scale(0.12 -0.12)">
     <use xlink:href="#DejaVuSans-30"/>
     <use xlink:href="#DejaVuSans-2e" transform="translate(63.623047 0)"/>
     <use xlink:href="#DejaVuSans-30" transform="translate(95.410156 0)"/>
     <use xlink:href="#DejaVuSans-31" transform="translate(159.033203 0)"/>
     <use xlink:href="#DejaVuSans-38" transform="translate(222.65625 0)"/>
    </g>
   </g>
   <g id="patch_11">
    <path d="M 803.102313 55.123775 
Q 802.602432 55.123775 803.220586 55.123775 
" style="fill: none; stroke: #000000; stroke-linecap: round"/>
    <path d="M 808.020586 57.523775 
L 803.220586 55.123775 
L 808.020586 52.723775 
" style="fill: none; stroke: #000000; stroke-linecap: round"/>
   </g>
   <g id="text_20">
    <!-- 0.016 -->
    <g transform="translate(807.102552 58.435025) scale(0.12 -0.12)">
     <use xlink:href="#DejaVuSans-30"/>
     <use xlink:href="#DejaVuSans-2e" transform="translate(63.623047 0)"/>
     <use xlink:href="#DejaVuSans-30" transform="translate(95.410156 0)"/>
     <use xlink:href="#DejaVuSans-31" transform="translate(159.033203 0)"/>
     <use xlink:href="#DejaVuSans-36" transform="translate(222.65625 0)"/>
    </g>
   </g>
   <g id="text_21">
    <!-- Динамика коэффициента нефтеотдачи -->
    <g transform="translate(256.861932 20.877187) scale(0.18 -0.18)">
     <defs>
      <path id="DejaVuSans-414" d="M 1459 531 
L 3522 531 
L 3522 4134 
L 2006 4134 
L 2006 3472 
Q 2006 1913 1656 878 
Q 1584 666 1459 531 
z
M 538 531 
Q 956 728 1075 1103 
Q 1378 2066 1378 3784 
L 1378 4666 
L 4153 4666 
L 4153 531 
L 4684 531 
L 4684 -1003 
L 4153 -1003 
L 4153 0 
L 847 0 
L 847 -1003 
L 316 -1003 
L 316 531 
L 538 531 
z
" transform="scale(0.015625)"/>
      <path id="DejaVuSans-43a" d="M 581 3500 
L 1153 3500 
L 1153 1856 
L 2775 3500 
L 3481 3500 
L 2144 2147 
L 3653 0 
L 3009 0 
L 1769 1766 
L 1153 1141 
L 1153 0 
L 581 0 
L 581 3500 
z
" transform="scale(0.015625)"/>
     </defs>
     <use xlink:href="#DejaVuSans-414"/>
     <use xlink:href="#DejaVuSans-438" transform="translate(78.125 0)"/>
     <use xlink:href="#DejaVuSans-43d" transform="translate(143.115234 0)"/>
     <use xlink:href="#DejaVuSans-430" transform="translate(208.496094 0)"/>
     <use xlink:href="#DejaVuSans-43c" transform="translate(269.775391 0)"/>
     <use xlink:href="#DejaVuSans-438" transform="translate(345.214844 0)"/>
     <use xlink:href="#DejaVuSans-43a" transform="translate(410.205078 0)"/>
     <use xlink:href="#DejaVuSans-430" transform="translate(470.605469 0)"/>
     <use xlink:href="#DejaVuSans-20" transform="translate(531.884766 0)"/>
     <use xlink:href="#DejaVuSans-43a" transform="translate(563.671875 0)"/>
     <use xlink:href="#DejaVuSans-43e" transform="translate(624.072266 0)"/>
     <use xlink:href="#DejaVuSans-44d" transform="translate(685.253906 0)"/>
     <use xlink:href="#DejaVuSans-444" transform="translate(740.136719 0)"/>
     <use xlink:href="#DejaVuSans-444" transform="translate(825.634766 0)"/>
     <use xlink:href="#DejaVuSans-438" transform="translate(911.132812 0)"/>
     <use xlink:href="#DejaVuSans-446" transform="translate(976.123047 0)"/>
     <use xlink:href="#DejaVuSans-438" transform="translate(1044.189453 0)"/>
     <use xlink:href="#DejaVuSans-435" transform="translate(1109.179688 0)"/>
     <use xlink:href="#DejaVuSans-43d" transform="translate(1170.703125 0)"/>
     <use xlink:href="#DejaVuSans-442" transform="translate(1236.083984 0)"/>
     <use xlink:href="#DejaVuSans-430" transform="translate(1294.335938 0)"/>
     <use xlink:href="#DejaVuSans-20" transform="translate(1355.615234 0)"/>
     <use xlink:href="#DejaVuSans-43d" transform="translate(1387.402344 0)"/>
     <use xlink:href="#DejaVuSans-435" transform="translate(1452.783203 0)"/>
     <use xlink:href="#DejaVuSans-444" transform="translate(1514.306641 0)"/>
     <use xlink:href="#DejaVuSans-442" transform="translate(1599.804688 0)"/>
     <use xlink:href="#DejaVuSans-435" transform="translate(1658.056641 0)"/>
     <use xlink:href="#DejaVuSans-43e" transform="translate(1719.580078 0)"/>
     <use xlink:href="#DejaVuSans-442" transform="translate(1780.761719 0)"/>
     <use xlink:href="#DejaVuSans-434" transform="translate(1839.013672 0)"/>
     <use xlink:href="#DejaVuSans-430" transform="translate(1908.154297 0)"/>
     <use xlink:href="#DejaVuSans-447" transform="translate(1969.433594 0)"/>
     <use xlink:href="#DejaVuSans-438" transform="translate(2028.515625 0)"/>
    </g>
   </g>
   <g id="legend_1">
    <g id="patch_12">
     <path d="M 62.56875 79.175937 
L 321.492188 79.175937 
Q 324.292188 79.175937 324.292188 76.375937 
L 324.292188 36.677187 
Q 324.292188 33.877187 321.492188 33.877187 
L 62.56875 33.877187 
Q 59.76875 33.877187 59.76875 36.677187 
L 59.76875 76.375937 
Q 59.76875 79.175937 62.56875 79.175937 
z
" style="fill: #ffffff; opacity: 0.8; stroke: #cccccc; stroke-linejoin: miter"/>
    </g>
    <g id="line2d_29">
     <path d="M 65.36875 45.215 
L 79.36875 45.215 
L 93.36875 45.215 
" style="fill: none; stroke: #0000ff; stroke-width: 3; stroke-linecap: square"/>
    </g>
    <g id="text_22">
     <!-- Без капиллярных эффектов -->
     <g transform="translate(104.56875 50.115) scale(0.14 -0.14)">
      <defs>
       <path id="DejaVuSans-411" d="M 3272 1372 
Q 3272 1806 3026 2017 
Q 2781 2228 2272 2228 
L 1259 2228 
L 1259 519 
L 2272 519 
Q 2781 519 3026 730 
Q 3272 941 3272 1372 
z
M 3609 4666 
L 3609 4147 
L 1259 4147 
L 1259 2747 
L 2303 2747 
Q 3088 2747 3513 2406 
Q 3938 2066 3938 1372 
Q 3938 681 3527 340 
Q 3116 0 2303 0 
L 628 0 
L 628 4666 
L 3609 4666 
z
" transform="scale(0.015625)"/>
       <path id="DejaVuSans-437" d="M 2206 1888 
Q 2594 1813 2809 1584 
Q 3025 1356 3025 1019 
Q 3025 478 2622 193 
Q 2219 -91 1475 -91 
Q 1225 -91 961 -47 
Q 697 -3 416 84 
L 416 619 
Q 638 503 903 445 
Q 1169 388 1459 388 
Q 1931 388 2195 563 
Q 2459 738 2459 1019 
Q 2459 1294 2225 1461 
Q 1991 1628 1563 1628 
L 1100 1628 
L 1100 2103 
L 1584 2103 
Q 1947 2103 2158 2242 
Q 2369 2381 2369 2600 
Q 2369 2800 2151 2944 
Q 1934 3088 1563 3088 
Q 1341 3088 1089 3047 
Q 838 3006 534 2916 
L 534 3438 
Q 841 3513 1106 3550 
Q 1372 3588 1609 3588 
Q 2222 3588 2576 3342 
Q 2931 3097 2931 2656 
Q 2931 2366 2743 2164 
Q 2556 1963 2206 1888 
z
" transform="scale(0.015625)"/>
       <path id="DejaVuSans-43f" d="M 3603 3500 
L 3603 0 
L 3025 0 
L 3025 3041 
L 1159 3041 
L 1159 0 
L 581 0 
L 581 3500 
L 3603 3500 
z
" transform="scale(0.015625)"/>
       <path id="DejaVuSans-43b" d="M 238 0 
L 238 478 
Q 806 566 981 959 
Q 1194 1513 1194 2928 
L 1194 3500 
L 3559 3500 
L 3559 0 
L 2984 0 
L 2984 3041 
L 1769 3041 
L 1769 2694 
Q 1769 1344 1494 738 
Q 1200 91 238 0 
z
" transform="scale(0.015625)"/>
       <path id="DejaVuSans-44b" d="M 3907 3500 
L 4482 3500 
L 4482 0 
L 3907 0 
L 3907 3500 
z
M 4195 3584 
L 4195 3584 
z
M 2781 1038 
Q 2781 1319 2576 1466 
Q 2372 1613 1978 1613 
L 1159 1613 
L 1159 459 
L 1978 459 
Q 2372 459 2576 607 
Q 2781 756 2781 1038 
z
M 581 3500 
L 1159 3500 
L 1159 2072 
L 2003 2072 
Q 2672 2072 3033 1817 
Q 3394 1563 3394 1038 
Q 3394 513 3033 256 
Q 2672 0 2003 0 
L 581 0 
L 581 3500 
z
" transform="scale(0.015625)"/>
       <path id="DejaVuSans-445" d="M 3513 3500 
L 2247 1797 
L 3578 0 
L 2900 0 
L 1881 1375 
L 863 0 
L 184 0 
L 1544 1831 
L 300 3500 
L 978 3500 
L 1906 2253 
L 2834 3500 
L 3513 3500 
z
" transform="scale(0.015625)"/>
       <path id="DejaVuSans-432" d="M 1156 1613 
L 1156 459 
L 1975 459 
Q 2369 459 2575 607 
Q 2781 756 2781 1038 
Q 2781 1319 2575 1466 
Q 2369 1613 1975 1613 
L 1156 1613 
z
M 1156 3041 
L 1156 2072 
L 1913 2072 
Q 2238 2072 2444 2201 
Q 2650 2331 2650 2563 
Q 2650 2794 2444 2917 
Q 2238 3041 1913 3041 
L 1156 3041 
z
M 581 3500 
L 1950 3500 
Q 2566 3500 2897 3275 
Q 3228 3050 3228 2634 
Q 3228 2313 3059 2123 
Q 2891 1934 2559 1888 
Q 2956 1813 3175 1575 
Q 3394 1338 3394 981 
Q 3394 513 3033 256 
Q 2672 0 2003 0 
L 581 0 
L 581 3500 
z
" transform="scale(0.015625)"/>
      </defs>
      <use xlink:href="#DejaVuSans-411"/>
      <use xlink:href="#DejaVuSans-435" transform="translate(68.603516 0)"/>
      <use xlink:href="#DejaVuSans-437" transform="translate(130.126953 0)"/>
      <use xlink:href="#DejaVuSans-20" transform="translate(183.300781 0)"/>
      <use xlink:href="#DejaVuSans-43a" transform="translate(215.087891 0)"/>
      <use xlink:href="#DejaVuSans-430" transform="translate(275.488281 0)"/>
      <use xlink:href="#DejaVuSans-43f" transform="translate(336.767578 0)"/>
      <use xlink:href="#DejaVuSans-438" transform="translate(402.148438 0)"/>
      <use xlink:href="#DejaVuSans-43b" transform="translate(467.138672 0)"/>
      <use xlink:href="#DejaVuSans-43b" transform="translate(531.054688 0)"/>
      <use xlink:href="#DejaVuSans-44f" transform="translate(594.970703 0)"/>
      <use xlink:href="#DejaVuSans-440" transform="translate(655.126953 0)"/>
      <use xlink:href="#DejaVuSans-43d" transform="translate(718.603516 0)"/>
      <use xlink:href="#DejaVuSans-44b" transform="translate(783.984375 0)"/>
      <use xlink:href="#DejaVuSans-445" transform="translate(862.939453 0)"/>
      <use xlink:href="#DejaVuSans-20" transform="translate(922.119141 0)"/>
      <use xlink:href="#DejaVuSans-44d" transform="translate(953.90625 0)"/>
      <use xlink:href="#DejaVuSans-444" transform="translate(1008.789062 0)"/>
      <use xlink:href="#DejaVuSans-444" transform="translate(1094.287109 0)"/>
      <use xlink:href="#DejaVuSans-435" transform="translate(1179.785156 0)"/>
      <use xlink:href="#DejaVuSans-43a" transform="translate(1241.308594 0)"/>
      <use xlink:href="#DejaVuSans-442" transform="translate(1301.708984 0)"/>
      <use xlink:href="#DejaVuSans-43e" transform="translate(1359.960938 0)"/>
      <use xlink:href="#DejaVuSans-432" transform="translate(1421.142578 0)"/>
     </g>
    </g>
    <g id="line2d_30">
     <path d="M 65.36875 65.764375 
L 79.36875 65.764375 
L 93.36875 65.764375 
" style="fill: none; stroke: #ff0000; stroke-width: 3; stroke-linecap: square"/>
    </g>
    <g id="text_23">
     <!-- С капиллярными эффектами -->
     <g transform="translate(104.56875 70.664375) scale(0.14 -0.14)">
      <defs>
       <path id="DejaVuSans-421" d="M 4122 4306 
L 4122 3641 
Q 3803 3938 3442 4084 
Q 3081 4231 2675 4231 
Q 1875 4231 1450 3742 
Q 1025 3253 1025 2328 
Q 1025 1406 1450 917 
Q 1875 428 2675 428 
Q 3081 428 3442 575 
Q 3803 722 4122 1019 
L 4122 359 
Q 3791 134 3420 21 
Q 3050 -91 2638 -91 
Q 1578 -91 968 557 
Q 359 1206 359 2328 
Q 359 3453 968 4101 
Q 1578 4750 2638 4750 
Q 3056 4750 3426 4639 
Q 3797 4528 4122 4306 
z
" transform="scale(0.015625)"/>
      </defs>
      <use xlink:href="#DejaVuSans-421"/>
      <use xlink:href="#DejaVuSans-20" transform="translate(69.824219 0)"/>
      <use xlink:href="#DejaVuSans-43a" transform="translate(101.611328 0)"/>
      <use xlink:href="#DejaVuSans-430" transform="translate(162.011719 0)"/>
      <use xlink:href="#DejaVuSans-43f" transform="translate(223.291016 0)"/>
      <use xlink:href="#DejaVuSans-438" transform="translate(288.671875 0)"/>
      <use xlink:href="#DejaVuSans-43b" transform="translate(353.662109 0)"/>
      <use xlink:href="#DejaVuSans-43b" transform="translate(417.578125 0)"/>
      <use xlink:href="#DejaVuSans-44f" transform="translate(481.494141 0)"/>
      <use xlink:href="#DejaVuSans-440" transform="translate(541.650391 0)"/>
      <use xlink:href="#DejaVuSans-43d" transform="translate(605.126953 0)"/>
      <use xlink:href="#DejaVuSans-44b" transform="translate(670.507812 0)"/>
      <use xlink:href="#DejaVuSans-43c" transform="translate(749.462891 0)"/>
      <use xlink:href="#DejaVuSans-438" transform="translate(824.902344 0)"/>
      <use xlink:href="#DejaVuSans-20" transform="translate(889.892578 0)"/>
      <use xlink:href="#DejaVuSans-44d" transform="translate(921.679688 0)"/>
      <use xlink:href="#DejaVuSans-444" transform="translate(976.5625 0)"/>
      <use xlink:href="#DejaVuSans-444" transform="translate(1062.060547 0)"/>
      <use xlink:href="#DejaVuSans-435" transform="translate(1147.558594 0)"/>
      <use xlink:href="#DejaVuSans-43a" transform="translate(1209.082031 0)"/>
      <use xlink:href="#DejaVuSans-442" transform="translate(1269.482422 0)"/>
      <use xlink:href="#DejaVuSans-430" transform="translate(1327.734375 0)"/>
      <use xlink:href="#DejaVuSans-43c" transform="translate(1389.013672 0)"/>
      <use xlink:href="#DejaVuSans-438" transform="translate(1464.453125 0)"/>
     </g>
    </g>
   </g>
  </g>
 </g>
 <defs>
  <clipPath id="pb97b74f8a9">
   <rect x="52.76875" y="26.877187" width="785.016364" height="492.04"/>
  </clipPath>
 </defs>
</svg>
