<?xml version="1.0" encoding="utf-8" standalone="no"?>
<!DOCTYPE svg PUBLIC "-//W3C//DTD SVG 1.1//EN"
  "http://www.w3.org/Graphics/SVG/1.1/DTD/svg11.dtd">
<svg xmlns:xlink="http://www.w3.org/1999/xlink" width="853.705625pt" height="563.575625pt" viewBox="0 0 853.705625 563.575625" xmlns="http://www.w3.org/2000/svg" version="1.1">
 <metadata>
  <rdf:RDF xmlns:dc="http://purl.org/dc/elements/1.1/" xmlns:cc="http://creativecommons.org/ns#" xmlns:rdf="http://www.w3.org/1999/02/22-rdf-syntax-ns#">
   <cc:Work>
    <dc:type rdf:resource="http://purl.org/dc/dcmitype/StillImage"/>
    <dc:date>2025-03-16T03:43:59.937470</dc:date>
    <dc:format>image/svg+xml</dc:format>
    <dc:creator>
     <cc:Agent>
      <dc:title>Matplotlib v3.10.1, https://matplotlib.org/</dc:title>
     </cc:Agent>
    </dc:creator>
   </cc:Work>
  </rdf:RDF>
 </metadata>
 <defs>
  <style type="text/css">*{stroke-linejoin: round; stroke-linecap: butt}</style>
 </defs>
 <g id="figure_1">
  <g id="patch_1">
   <path d="M 0 563.575625 
L 853.705625 563.575625 
L 853.705625 0 
L 0 0 
z
" style="fill: #ffffff"/>
  </g>
  <g id="axes_1">
   <g id="patch_2">
    <path d="M 52.76875 518.276875 
L 836.96375 518.276875 
L 836.96375 28.396875 
L 52.76875 28.396875 
z
" style="fill: #ffffff"/>
   </g>
   <g id="matplotlib.axis_1">
    <g id="xtick_1">
     <g id="line2d_1">
      <path d="M 52.76875 518.276875 
L 52.76875 28.396875 
" clip-path="url(#p3306051ab4)" style="fill: none; stroke-dasharray: 2.96,1.28; stroke-dashoffset: 0; stroke: #b0b0b0; stroke-opacity: 0.7; stroke-width: 0.8"/>
     </g>
     <g id="line2d_2">
      <defs>
       <path id="m32785b748e" d="M 0 0 
L 0 3.5 
" style="stroke: #000000; stroke-width: 0.8"/>
      </defs>
      <g>
       <use xlink:href="#m32785b748e" x="52.76875" y="518.276875" style="stroke: #000000; stroke-width: 0.8"/>
      </g>
     </g>
     <g id="text_1">
      <!-- 0.0 -->
      <g transform="translate(43.226875 534.395) scale(0.12 -0.12)">
       <defs>
        <path id="DejaVuSans-30" d="M 2034 4250 
Q 1547 4250 1301 3770 
Q 1056 3291 1056 2328 
Q 1056 1369 1301 889 
Q 1547 409 2034 409 
Q 2525 409 2770 889 
Q 3016 1369 3016 2328 
Q 3016 3291 2770 3770 
Q 2525 4250 2034 4250 
z
M 2034 4750 
Q 2819 4750 3233 4129 
Q 3647 3509 3647 2328 
Q 3647 1150 3233 529 
Q 2819 -91 2034 -91 
Q 1250 -91 836 529 
Q 422 1150 422 2328 
Q 422 3509 836 4129 
Q 1250 4750 2034 4750 
z
" transform="scale(0.015625)"/>
        <path id="DejaVuSans-2e" d="M 684 794 
L 1344 794 
L 1344 0 
L 684 0 
L 684 794 
z
" transform="scale(0.015625)"/>
       </defs>
       <use xlink:href="#DejaVuSans-30"/>
       <use xlink:href="#DejaVuSans-2e" transform="translate(63.623047 0)"/>
       <use xlink:href="#DejaVuSans-30" transform="translate(95.410156 0)"/>
      </g>
     </g>
    </g>
    <g id="xtick_2">
     <g id="line2d_3">
      <path d="M 209.60775 518.276875 
L 209.60775 28.396875 
" clip-path="url(#p3306051ab4)" style="fill: none; stroke-dasharray: 2.96,1.28; stroke-dashoffset: 0; stroke: #b0b0b0; stroke-opacity: 0.7; stroke-width: 0.8"/>
     </g>
     <g id="line2d_4">
      <g>
       <use xlink:href="#m32785b748e" x="209.60775" y="518.276875" style="stroke: #000000; stroke-width: 0.8"/>
      </g>
     </g>
     <g id="text_2">
      <!-- 0.2 -->
      <g transform="translate(200.065875 534.395) scale(0.12 -0.12)">
       <defs>
        <path id="DejaVuSans-32" d="M 1228 531 
L 3431 531 
L 3431 0 
L 469 0 
L 469 531 
Q 828 903 1448 1529 
Q 2069 2156 2228 2338 
Q 2531 2678 2651 2914 
Q 2772 3150 2772 3378 
Q 2772 3750 2511 3984 
Q 2250 4219 1831 4219 
Q 1534 4219 1204 4116 
Q 875 4013 500 3803 
L 500 4441 
Q 881 4594 1212 4672 
Q 1544 4750 1819 4750 
Q 2544 4750 2975 4387 
Q 3406 4025 3406 3419 
Q 3406 3131 3298 2873 
Q 3191 2616 2906 2266 
Q 2828 2175 2409 1742 
Q 1991 1309 1228 531 
z
" transform="scale(0.015625)"/>
       </defs>
       <use xlink:href="#DejaVuSans-30"/>
       <use xlink:href="#DejaVuSans-2e" transform="translate(63.623047 0)"/>
       <use xlink:href="#DejaVuSans-32" transform="translate(95.410156 0)"/>
      </g>
     </g>
    </g>
    <g id="xtick_3">
     <g id="line2d_5">
      <path d="M 366.44675 518.276875 
L 366.44675 28.396875 
" clip-path="url(#p3306051ab4)" style="fill: none; stroke-dasharray: 2.96,1.28; stroke-dashoffset: 0; stroke: #b0b0b0; stroke-opacity: 0.7; stroke-width: 0.8"/>
     </g>
     <g id="line2d_6">
      <g>
       <use xlink:href="#m32785b748e" x="366.44675" y="518.276875" style="stroke: #000000; stroke-width: 0.8"/>
      </g>
     </g>
     <g id="text_3">
      <!-- 0.4 -->
      <g transform="translate(356.904875 534.395) scale(0.12 -0.12)">
       <defs>
        <path id="DejaVuSans-34" d="M 2419 4116 
L 825 1625 
L 2419 1625 
L 2419 4116 
z
M 2253 4666 
L 3047 4666 
L 3047 1625 
L 3713 1625 
L 3713 1100 
L 3047 1100 
L 3047 0 
L 2419 0 
L 2419 1100 
L 313 1100 
L 313 1709 
L 2253 4666 
z
" transform="scale(0.015625)"/>
       </defs>
       <use xlink:href="#DejaVuSans-30"/>
       <use xlink:href="#DejaVuSans-2e" transform="translate(63.623047 0)"/>
       <use xlink:href="#DejaVuSans-34" transform="translate(95.410156 0)"/>
      </g>
     </g>
    </g>
    <g id="xtick_4">
     <g id="line2d_7">
      <path d="M 523.28575 518.276875 
L 523.28575 28.396875 
" clip-path="url(#p3306051ab4)" style="fill: none; stroke-dasharray: 2.96,1.28; stroke-dashoffset: 0; stroke: #b0b0b0; stroke-opacity: 0.7; stroke-width: 0.8"/>
     </g>
     <g id="line2d_8">
      <g>
       <use xlink:href="#m32785b748e" x="523.28575" y="518.276875" style="stroke: #000000; stroke-width: 0.8"/>
      </g>
     </g>
     <g id="text_4">
      <!-- 0.6 -->
      <g transform="translate(513.743875 534.395) scale(0.12 -0.12)">
       <defs>
        <path id="DejaVuSans-36" d="M 2113 2584 
Q 1688 2584 1439 2293 
Q 1191 2003 1191 1497 
Q 1191 994 1439 701 
Q 1688 409 2113 409 
Q 2538 409 2786 701 
Q 3034 994 3034 1497 
Q 3034 2003 2786 2293 
Q 2538 2584 2113 2584 
z
M 3366 4563 
L 3366 3988 
Q 3128 4100 2886 4159 
Q 2644 4219 2406 4219 
Q 1781 4219 1451 3797 
Q 1122 3375 1075 2522 
Q 1259 2794 1537 2939 
Q 1816 3084 2150 3084 
Q 2853 3084 3261 2657 
Q 3669 2231 3669 1497 
Q 3669 778 3244 343 
Q 2819 -91 2113 -91 
Q 1303 -91 875 529 
Q 447 1150 447 2328 
Q 447 3434 972 4092 
Q 1497 4750 2381 4750 
Q 2619 4750 2861 4703 
Q 3103 4656 3366 4563 
z
" transform="scale(0.015625)"/>
       </defs>
       <use xlink:href="#DejaVuSans-30"/>
       <use xlink:href="#DejaVuSans-2e" transform="translate(63.623047 0)"/>
       <use xlink:href="#DejaVuSans-36" transform="translate(95.410156 0)"/>
      </g>
     </g>
    </g>
    <g id="xtick_5">
     <g id="line2d_9">
      <path d="M 680.12475 518.276875 
L 680.12475 28.396875 
" clip-path="url(#p3306051ab4)" style="fill: none; stroke-dasharray: 2.96,1.28; stroke-dashoffset: 0; stroke: #b0b0b0; stroke-opacity: 0.7; stroke-width: 0.8"/>
     </g>
     <g id="line2d_10">
      <g>
       <use xlink:href="#m32785b748e" x="680.12475" y="518.276875" style="stroke: #000000; stroke-width: 0.8"/>
      </g>
     </g>
     <g id="text_5">
      <!-- 0.8 -->
      <g transform="translate(670.582875 534.395) scale(0.12 -0.12)">
       <defs>
        <path id="DejaVuSans-38" d="M 2034 2216 
Q 1584 2216 1326 1975 
Q 1069 1734 1069 1313 
Q 1069 891 1326 650 
Q 1584 409 2034 409 
Q 2484 409 2743 651 
Q 3003 894 3003 1313 
Q 3003 1734 2745 1975 
Q 2488 2216 2034 2216 
z
M 1403 2484 
Q 997 2584 770 2862 
Q 544 3141 544 3541 
Q 544 4100 942 4425 
Q 1341 4750 2034 4750 
Q 2731 4750 3128 4425 
Q 3525 4100 3525 3541 
Q 3525 3141 3298 2862 
Q 3072 2584 2669 2484 
Q 3125 2378 3379 2068 
Q 3634 1759 3634 1313 
Q 3634 634 3220 271 
Q 2806 -91 2034 -91 
Q 1263 -91 848 271 
Q 434 634 434 1313 
Q 434 1759 690 2068 
Q 947 2378 1403 2484 
z
M 1172 3481 
Q 1172 3119 1398 2916 
Q 1625 2713 2034 2713 
Q 2441 2713 2670 2916 
Q 2900 3119 2900 3481 
Q 2900 3844 2670 4047 
Q 2441 4250 2034 4250 
Q 1625 4250 1398 4047 
Q 1172 3844 1172 3481 
z
" transform="scale(0.015625)"/>
       </defs>
       <use xlink:href="#DejaVuSans-30"/>
       <use xlink:href="#DejaVuSans-2e" transform="translate(63.623047 0)"/>
       <use xlink:href="#DejaVuSans-38" transform="translate(95.410156 0)"/>
      </g>
     </g>
    </g>
    <g id="xtick_6">
     <g id="line2d_11">
      <path d="M 836.96375 518.276875 
L 836.96375 28.396875 
" clip-path="url(#p3306051ab4)" style="fill: none; stroke-dasharray: 2.96,1.28; stroke-dashoffset: 0; stroke: #b0b0b0; stroke-opacity: 0.7; stroke-width: 0.8"/>
     </g>
     <g id="line2d_12">
      <g>
       <use xlink:href="#m32785b748e" x="836.96375" y="518.276875" style="stroke: #000000; stroke-width: 0.8"/>
      </g>
     </g>
     <g id="text_6">
      <!-- 1.0 -->
      <g transform="translate(827.421875 534.395) scale(0.12 -0.12)">
       <defs>
        <path id="DejaVuSans-31" d="M 794 531 
L 1825 531 
L 1825 4091 
L 703 3866 
L 703 4441 
L 1819 4666 
L 2450 4666 
L 2450 531 
L 3481 531 
L 3481 0 
L 794 0 
L 794 531 
z
" transform="scale(0.015625)"/>
       </defs>
       <use xlink:href="#DejaVuSans-31"/>
       <use xlink:href="#DejaVuSans-2e" transform="translate(63.623047 0)"/>
       <use xlink:href="#DejaVuSans-30" transform="translate(95.410156 0)"/>
      </g>
     </g>
    </g>
    <g id="text_7">
     <!-- Водонасыщенность Sw, д.ед. -->
     <g transform="translate(321.30375 553.048125) scale(0.16 -0.16)">
      <defs>
       <path id="DejaVuSans-412" d="M 1259 2228 
L 1259 519 
L 2272 519 
Q 2781 519 3026 730 
Q 3272 941 3272 1375 
Q 3272 1813 3026 2020 
Q 2781 2228 2272 2228 
L 1259 2228 
z
M 1259 4147 
L 1259 2741 
L 2194 2741 
Q 2656 2741 2882 2914 
Q 3109 3088 3109 3444 
Q 3109 3797 2882 3972 
Q 2656 4147 2194 4147 
L 1259 4147 
z
M 628 4666 
L 2241 4666 
Q 2963 4666 3353 4366 
Q 3744 4066 3744 3513 
Q 3744 3084 3544 2831 
Q 3344 2578 2956 2516 
Q 3422 2416 3680 2098 
Q 3938 1781 3938 1306 
Q 3938 681 3513 340 
Q 3088 0 2303 0 
L 628 0 
L 628 4666 
z
" transform="scale(0.015625)"/>
       <path id="DejaVuSans-43e" d="M 1959 3097 
Q 1497 3097 1228 2736 
Q 959 2375 959 1747 
Q 959 1119 1226 758 
Q 1494 397 1959 397 
Q 2419 397 2687 759 
Q 2956 1122 2956 1747 
Q 2956 2369 2687 2733 
Q 2419 3097 1959 3097 
z
M 1959 3584 
Q 2709 3584 3137 3096 
Q 3566 2609 3566 1747 
Q 3566 888 3137 398 
Q 2709 -91 1959 -91 
Q 1206 -91 779 398 
Q 353 888 353 1747 
Q 353 2609 779 3096 
Q 1206 3584 1959 3584 
z
" transform="scale(0.015625)"/>
       <path id="DejaVuSans-434" d="M 1384 459 
L 3053 459 
L 3053 3041 
L 1844 3041 
L 1844 2603 
Q 1844 1316 1475 628 
L 1384 459 
z
M 550 459 
Q 834 584 959 850 
Q 1266 1509 1266 2838 
L 1266 3500 
L 3631 3500 
L 3631 459 
L 4091 459 
L 4091 -884 
L 3631 -884 
L 3631 0 
L 794 0 
L 794 -884 
L 334 -884 
L 334 459 
L 550 459 
z
" transform="scale(0.015625)"/>
       <path id="DejaVuSans-43d" d="M 581 3500 
L 1159 3500 
L 1159 2072 
L 3025 2072 
L 3025 3500 
L 3603 3500 
L 3603 0 
L 3025 0 
L 3025 1613 
L 1159 1613 
L 1159 0 
L 581 0 
L 581 3500 
z
" transform="scale(0.015625)"/>
       <path id="DejaVuSans-430" d="M 2194 1759 
Q 1497 1759 1228 1600 
Q 959 1441 959 1056 
Q 959 750 1161 570 
Q 1363 391 1709 391 
Q 2188 391 2477 730 
Q 2766 1069 2766 1631 
L 2766 1759 
L 2194 1759 
z
M 3341 1997 
L 3341 0 
L 2766 0 
L 2766 531 
Q 2569 213 2275 61 
Q 1981 -91 1556 -91 
Q 1019 -91 701 211 
Q 384 513 384 1019 
Q 384 1609 779 1909 
Q 1175 2209 1959 2209 
L 2766 2209 
L 2766 2266 
Q 2766 2663 2505 2880 
Q 2244 3097 1772 3097 
Q 1472 3097 1187 3025 
Q 903 2953 641 2809 
L 641 3341 
Q 956 3463 1253 3523 
Q 1550 3584 1831 3584 
Q 2591 3584 2966 3190 
Q 3341 2797 3341 1997 
z
" transform="scale(0.015625)"/>
       <path id="DejaVuSans-441" d="M 3122 3366 
L 3122 2828 
Q 2878 2963 2633 3030 
Q 2388 3097 2138 3097 
Q 1578 3097 1268 2742 
Q 959 2388 959 1747 
Q 959 1106 1268 751 
Q 1578 397 2138 397 
Q 2388 397 2633 464 
Q 2878 531 3122 666 
L 3122 134 
Q 2881 22 2623 -34 
Q 2366 -91 2075 -91 
Q 1284 -91 818 406 
Q 353 903 353 1747 
Q 353 2603 823 3093 
Q 1294 3584 2113 3584 
Q 2378 3584 2631 3529 
Q 2884 3475 3122 3366 
z
" transform="scale(0.015625)"/>
       <path id="DejaVuSans-44b" d="M 3907 3500 
L 4482 3500 
L 4482 0 
L 3907 0 
L 3907 3500 
z
M 4195 3584 
L 4195 3584 
z
M 2781 1038 
Q 2781 1319 2576 1466 
Q 2372 1613 1978 1613 
L 1159 1613 
L 1159 459 
L 1978 459 
Q 2372 459 2576 607 
Q 2781 756 2781 1038 
z
M 581 3500 
L 1159 3500 
L 1159 2072 
L 2003 2072 
Q 2672 2072 3033 1817 
Q 3394 1563 3394 1038 
Q 3394 513 3033 256 
Q 2672 0 2003 0 
L 581 0 
L 581 3500 
z
" transform="scale(0.015625)"/>
       <path id="DejaVuSans-449" d="M 5275 0 
L 581 0 
L 581 3500 
L 1159 3500 
L 1159 459 
L 2638 459 
L 2638 3500 
L 3216 3500 
L 3216 459 
L 4697 459 
L 4697 3500 
L 5275 3500 
L 5275 459 
L 5734 459 
L 5734 -884 
L 5275 -884 
L 5275 0 
z
" transform="scale(0.015625)"/>
       <path id="DejaVuSans-435" d="M 3597 1894 
L 3597 1613 
L 953 1613 
Q 991 1019 1311 708 
Q 1631 397 2203 397 
Q 2534 397 2845 478 
Q 3156 559 3463 722 
L 3463 178 
Q 3153 47 2828 -22 
Q 2503 -91 2169 -91 
Q 1331 -91 842 396 
Q 353 884 353 1716 
Q 353 2575 817 3079 
Q 1281 3584 2069 3584 
Q 2775 3584 3186 3129 
Q 3597 2675 3597 1894 
z
M 3022 2063 
Q 3016 2534 2758 2815 
Q 2500 3097 2075 3097 
Q 1594 3097 1305 2825 
Q 1016 2553 972 2059 
L 3022 2063 
z
" transform="scale(0.015625)"/>
       <path id="DejaVuSans-442" d="M 188 3500 
L 3541 3500 
L 3541 3041 
L 2147 3041 
L 2147 0 
L 1581 0 
L 1581 3041 
L 188 3041 
L 188 3500 
z
" transform="scale(0.015625)"/>
       <path id="DejaVuSans-44c" d="M 2781 1038 
Q 2781 1319 2576 1466 
Q 2372 1613 1978 1613 
L 1159 1613 
L 1159 459 
L 1978 459 
Q 2372 459 2576 607 
Q 2781 756 2781 1038 
z
M 581 3500 
L 1159 3500 
L 1159 2072 
L 2003 2072 
Q 2672 2072 3033 1817 
Q 3394 1563 3394 1038 
Q 3394 513 3033 256 
Q 2672 0 2003 0 
L 581 0 
L 581 3500 
z
" transform="scale(0.015625)"/>
       <path id="DejaVuSans-20" transform="scale(0.015625)"/>
       <path id="DejaVuSans-53" d="M 3425 4513 
L 3425 3897 
Q 3066 4069 2747 4153 
Q 2428 4238 2131 4238 
Q 1616 4238 1336 4038 
Q 1056 3838 1056 3469 
Q 1056 3159 1242 3001 
Q 1428 2844 1947 2747 
L 2328 2669 
Q 3034 2534 3370 2195 
Q 3706 1856 3706 1288 
Q 3706 609 3251 259 
Q 2797 -91 1919 -91 
Q 1588 -91 1214 -16 
Q 841 59 441 206 
L 441 856 
Q 825 641 1194 531 
Q 1563 422 1919 422 
Q 2459 422 2753 634 
Q 3047 847 3047 1241 
Q 3047 1584 2836 1778 
Q 2625 1972 2144 2069 
L 1759 2144 
Q 1053 2284 737 2584 
Q 422 2884 422 3419 
Q 422 4038 858 4394 
Q 1294 4750 2059 4750 
Q 2388 4750 2728 4690 
Q 3069 4631 3425 4513 
z
" transform="scale(0.015625)"/>
       <path id="DejaVuSans-77" d="M 269 3500 
L 844 3500 
L 1563 769 
L 2278 3500 
L 2956 3500 
L 3675 769 
L 4391 3500 
L 4966 3500 
L 4050 0 
L 3372 0 
L 2619 2869 
L 1863 0 
L 1184 0 
L 269 3500 
z
" transform="scale(0.015625)"/>
       <path id="DejaVuSans-2c" d="M 750 794 
L 1409 794 
L 1409 256 
L 897 -744 
L 494 -744 
L 750 256 
L 750 794 
z
" transform="scale(0.015625)"/>
      </defs>
      <use xlink:href="#DejaVuSans-412"/>
      <use xlink:href="#DejaVuSans-43e" transform="translate(68.603516 0)"/>
      <use xlink:href="#DejaVuSans-434" transform="translate(129.785156 0)"/>
      <use xlink:href="#DejaVuSans-43e" transform="translate(198.925781 0)"/>
      <use xlink:href="#DejaVuSans-43d" transform="translate(260.107422 0)"/>
      <use xlink:href="#DejaVuSans-430" transform="translate(325.488281 0)"/>
      <use xlink:href="#DejaVuSans-441" transform="translate(386.767578 0)"/>
      <use xlink:href="#DejaVuSans-44b" transform="translate(441.748047 0)"/>
      <use xlink:href="#DejaVuSans-449" transform="translate(520.703125 0)"/>
      <use xlink:href="#DejaVuSans-435" transform="translate(614.892578 0)"/>
      <use xlink:href="#DejaVuSans-43d" transform="translate(676.416016 0)"/>
      <use xlink:href="#DejaVuSans-43d" transform="translate(741.796875 0)"/>
      <use xlink:href="#DejaVuSans-43e" transform="translate(807.177734 0)"/>
      <use xlink:href="#DejaVuSans-441" transform="translate(868.359375 0)"/>
      <use xlink:href="#DejaVuSans-442" transform="translate(923.339844 0)"/>
      <use xlink:href="#DejaVuSans-44c" transform="translate(981.591797 0)"/>
      <use xlink:href="#DejaVuSans-20" transform="translate(1040.527344 0)"/>
      <use xlink:href="#DejaVuSans-53" transform="translate(1072.314453 0)"/>
      <use xlink:href="#DejaVuSans-77" transform="translate(1135.791016 0)"/>
      <use xlink:href="#DejaVuSans-2c" transform="translate(1217.578125 0)"/>
      <use xlink:href="#DejaVuSans-20" transform="translate(1249.365234 0)"/>
      <use xlink:href="#DejaVuSans-434" transform="translate(1281.152344 0)"/>
      <use xlink:href="#DejaVuSans-2e" transform="translate(1350.292969 0)"/>
      <use xlink:href="#DejaVuSans-435" transform="translate(1382.080078 0)"/>
      <use xlink:href="#DejaVuSans-434" transform="translate(1443.603516 0)"/>
      <use xlink:href="#DejaVuSans-2e" transform="translate(1512.744141 0)"/>
     </g>
    </g>
   </g>
   <g id="matplotlib.axis_2">
    <g id="ytick_1">
     <g id="line2d_13">
      <path d="M 52.76875 518.276875 
L 836.96375 518.276875 
" clip-path="url(#p3306051ab4)" style="fill: none; stroke-dasharray: 2.96,1.28; stroke-dashoffset: 0; stroke: #b0b0b0; stroke-opacity: 0.7; stroke-width: 0.8"/>
     </g>
     <g id="line2d_14">
      <defs>
       <path id="mf18266de7c" d="M 0 0 
L -3.5 0 
" style="stroke: #000000; stroke-width: 0.8"/>
      </defs>
      <g>
       <use xlink:href="#mf18266de7c" x="52.76875" y="518.276875" style="stroke: #000000; stroke-width: 0.8"/>
      </g>
     </g>
     <g id="text_8">
      <!-- 0.0 -->
      <g transform="translate(26.685 522.835938) scale(0.12 -0.12)">
       <use xlink:href="#DejaVuSans-30"/>
       <use xlink:href="#DejaVuSans-2e" transform="translate(63.623047 0)"/>
       <use xlink:href="#DejaVuSans-30" transform="translate(95.410156 0)"/>
      </g>
     </g>
    </g>
    <g id="ytick_2">
     <g id="line2d_15">
      <path d="M 52.76875 420.300875 
L 836.96375 420.300875 
" clip-path="url(#p3306051ab4)" style="fill: none; stroke-dasharray: 2.96,1.28; stroke-dashoffset: 0; stroke: #b0b0b0; stroke-opacity: 0.7; stroke-width: 0.8"/>
     </g>
     <g id="line2d_16">
      <g>
       <use xlink:href="#mf18266de7c" x="52.76875" y="420.300875" style="stroke: #000000; stroke-width: 0.8"/>
      </g>
     </g>
     <g id="text_9">
      <!-- 0.2 -->
      <g transform="translate(26.685 424.859937) scale(0.12 -0.12)">
       <use xlink:href="#DejaVuSans-30"/>
       <use xlink:href="#DejaVuSans-2e" transform="translate(63.623047 0)"/>
       <use xlink:href="#DejaVuSans-32" transform="translate(95.410156 0)"/>
      </g>
     </g>
    </g>
    <g id="ytick_3">
     <g id="line2d_17">
      <path d="M 52.76875 322.324875 
L 836.96375 322.324875 
" clip-path="url(#p3306051ab4)" style="fill: none; stroke-dasharray: 2.96,1.28; stroke-dashoffset: 0; stroke: #b0b0b0; stroke-opacity: 0.7; stroke-width: 0.8"/>
     </g>
     <g id="line2d_18">
      <g>
       <use xlink:href="#mf18266de7c" x="52.76875" y="322.324875" style="stroke: #000000; stroke-width: 0.8"/>
      </g>
     </g>
     <g id="text_10">
      <!-- 0.4 -->
      <g transform="translate(26.685 326.883937) scale(0.12 -0.12)">
       <use xlink:href="#DejaVuSans-30"/>
       <use xlink:href="#DejaVuSans-2e" transform="translate(63.623047 0)"/>
       <use xlink:href="#DejaVuSans-34" transform="translate(95.410156 0)"/>
      </g>
     </g>
    </g>
    <g id="ytick_4">
     <g id="line2d_19">
      <path d="M 52.76875 224.348875 
L 836.96375 224.348875 
" clip-path="url(#p3306051ab4)" style="fill: none; stroke-dasharray: 2.96,1.28; stroke-dashoffset: 0; stroke: #b0b0b0; stroke-opacity: 0.7; stroke-width: 0.8"/>
     </g>
     <g id="line2d_20">
      <g>
       <use xlink:href="#mf18266de7c" x="52.76875" y="224.348875" style="stroke: #000000; stroke-width: 0.8"/>
      </g>
     </g>
     <g id="text_11">
      <!-- 0.6 -->
      <g transform="translate(26.685 228.907937) scale(0.12 -0.12)">
       <use xlink:href="#DejaVuSans-30"/>
       <use xlink:href="#DejaVuSans-2e" transform="translate(63.623047 0)"/>
       <use xlink:href="#DejaVuSans-36" transform="translate(95.410156 0)"/>
      </g>
     </g>
    </g>
    <g id="ytick_5">
     <g id="line2d_21">
      <path d="M 52.76875 126.372875 
L 836.96375 126.372875 
" clip-path="url(#p3306051ab4)" style="fill: none; stroke-dasharray: 2.96,1.28; stroke-dashoffset: 0; stroke: #b0b0b0; stroke-opacity: 0.7; stroke-width: 0.8"/>
     </g>
     <g id="line2d_22">
      <g>
       <use xlink:href="#mf18266de7c" x="52.76875" y="126.372875" style="stroke: #000000; stroke-width: 0.8"/>
      </g>
     </g>
     <g id="text_12">
      <!-- 0.8 -->
      <g transform="translate(26.685 130.931937) scale(0.12 -0.12)">
       <use xlink:href="#DejaVuSans-30"/>
       <use xlink:href="#DejaVuSans-2e" transform="translate(63.623047 0)"/>
       <use xlink:href="#DejaVuSans-38" transform="translate(95.410156 0)"/>
      </g>
     </g>
    </g>
    <g id="ytick_6">
     <g id="line2d_23">
      <path d="M 52.76875 28.396875 
L 836.96375 28.396875 
" clip-path="url(#p3306051ab4)" style="fill: none; stroke-dasharray: 2.96,1.28; stroke-dashoffset: 0; stroke: #b0b0b0; stroke-opacity: 0.7; stroke-width: 0.8"/>
     </g>
     <g id="line2d_24">
      <g>
       <use xlink:href="#mf18266de7c" x="52.76875" y="28.396875" style="stroke: #000000; stroke-width: 0.8"/>
      </g>
     </g>
     <g id="text_13">
      <!-- 1.0 -->
      <g transform="translate(26.685 32.955937) scale(0.12 -0.12)">
       <use xlink:href="#DejaVuSans-31"/>
       <use xlink:href="#DejaVuSans-2e" transform="translate(63.623047 0)"/>
       <use xlink:href="#DejaVuSans-30" transform="translate(95.410156 0)"/>
      </g>
     </g>
    </g>
    <g id="text_14">
     <!-- Относительная проницаемость Kr, д.ед. -->
     <g transform="translate(19.3575 443.754375) rotate(-90) scale(0.16 -0.16)">
      <defs>
       <path id="DejaVuSans-41e" d="M 2522 4238 
Q 1834 4238 1429 3725 
Q 1025 3213 1025 2328 
Q 1025 1447 1429 934 
Q 1834 422 2522 422 
Q 3209 422 3611 934 
Q 4013 1447 4013 2328 
Q 4013 3213 3611 3725 
Q 3209 4238 2522 4238 
z
M 2522 4750 
Q 3503 4750 4090 4092 
Q 4678 3434 4678 2328 
Q 4678 1225 4090 567 
Q 3503 -91 2522 -91 
Q 1538 -91 948 565 
Q 359 1222 359 2328 
Q 359 3434 948 4092 
Q 1538 4750 2522 4750 
z
" transform="scale(0.015625)"/>
       <path id="DejaVuSans-438" d="M 3578 3500 
L 3578 0 
L 3006 0 
L 3006 2809 
L 1319 0 
L 581 0 
L 581 3500 
L 1153 3500 
L 1153 697 
L 2838 3500 
L 3578 3500 
z
" transform="scale(0.015625)"/>
       <path id="DejaVuSans-43b" d="M 238 0 
L 238 478 
Q 806 566 981 959 
Q 1194 1513 1194 2928 
L 1194 3500 
L 3559 3500 
L 3559 0 
L 2984 0 
L 2984 3041 
L 1769 3041 
L 1769 2694 
Q 1769 1344 1494 738 
Q 1200 91 238 0 
z
" transform="scale(0.015625)"/>
       <path id="DejaVuSans-44f" d="M 1181 2491 
Q 1181 2231 1381 2084 
Q 1581 1938 1953 1938 
L 2728 1938 
L 2728 3041 
L 1953 3041 
Q 1581 3041 1381 2897 
Q 1181 2753 1181 2491 
z
M 363 0 
L 1431 1534 
Q 1069 1616 828 1830 
Q 588 2044 588 2491 
Q 588 2997 923 3248 
Q 1259 3500 1938 3500 
L 3306 3500 
L 3306 0 
L 2728 0 
L 2728 1478 
L 2013 1478 
L 981 0 
L 363 0 
z
" transform="scale(0.015625)"/>
       <path id="DejaVuSans-43f" d="M 3603 3500 
L 3603 0 
L 3025 0 
L 3025 3041 
L 1159 3041 
L 1159 0 
L 581 0 
L 581 3500 
L 3603 3500 
z
" transform="scale(0.015625)"/>
       <path id="DejaVuSans-440" d="M 1159 525 
L 1159 -1331 
L 581 -1331 
L 581 3500 
L 1159 3500 
L 1159 2969 
Q 1341 3281 1617 3432 
Q 1894 3584 2278 3584 
Q 2916 3584 3314 3078 
Q 3713 2572 3713 1747 
Q 3713 922 3314 415 
Q 2916 -91 2278 -91 
Q 1894 -91 1617 61 
Q 1341 213 1159 525 
z
M 3116 1747 
Q 3116 2381 2855 2742 
Q 2594 3103 2138 3103 
Q 1681 3103 1420 2742 
Q 1159 2381 1159 1747 
Q 1159 1113 1420 752 
Q 1681 391 2138 391 
Q 2594 391 2855 752 
Q 3116 1113 3116 1747 
z
" transform="scale(0.015625)"/>
       <path id="DejaVuSans-446" d="M 3603 0 
L 581 0 
L 581 3500 
L 1159 3500 
L 1159 459 
L 3025 459 
L 3025 3500 
L 3603 3500 
L 3603 459 
L 4063 459 
L 4063 -884 
L 3603 -884 
L 3603 0 
z
" transform="scale(0.015625)"/>
       <path id="DejaVuSans-43c" d="M 581 3500 
L 1422 3500 
L 2416 1156 
L 3413 3500 
L 4247 3500 
L 4247 0 
L 3669 0 
L 3669 2950 
L 2703 672 
L 2128 672 
L 1159 2950 
L 1159 0 
L 581 0 
L 581 3500 
z
" transform="scale(0.015625)"/>
       <path id="DejaVuSans-4b" d="M 628 4666 
L 1259 4666 
L 1259 2694 
L 3353 4666 
L 4166 4666 
L 1850 2491 
L 4331 0 
L 3500 0 
L 1259 2247 
L 1259 0 
L 628 0 
L 628 4666 
z
" transform="scale(0.015625)"/>
       <path id="DejaVuSans-72" d="M 2631 2963 
Q 2534 3019 2420 3045 
Q 2306 3072 2169 3072 
Q 1681 3072 1420 2755 
Q 1159 2438 1159 1844 
L 1159 0 
L 581 0 
L 581 3500 
L 1159 3500 
L 1159 2956 
Q 1341 3275 1631 3429 
Q 1922 3584 2338 3584 
Q 2397 3584 2469 3576 
Q 2541 3569 2628 3553 
L 2631 2963 
z
" transform="scale(0.015625)"/>
      </defs>
      <use xlink:href="#DejaVuSans-41e"/>
      <use xlink:href="#DejaVuSans-442" transform="translate(78.710938 0)"/>
      <use xlink:href="#DejaVuSans-43d" transform="translate(136.962891 0)"/>
      <use xlink:href="#DejaVuSans-43e" transform="translate(202.34375 0)"/>
      <use xlink:href="#DejaVuSans-441" transform="translate(263.525391 0)"/>
      <use xlink:href="#DejaVuSans-438" transform="translate(318.505859 0)"/>
      <use xlink:href="#DejaVuSans-442" transform="translate(383.496094 0)"/>
      <use xlink:href="#DejaVuSans-435" transform="translate(441.748047 0)"/>
      <use xlink:href="#DejaVuSans-43b" transform="translate(503.271484 0)"/>
      <use xlink:href="#DejaVuSans-44c" transform="translate(567.1875 0)"/>
      <use xlink:href="#DejaVuSans-43d" transform="translate(626.123047 0)"/>
      <use xlink:href="#DejaVuSans-430" transform="translate(691.503906 0)"/>
      <use xlink:href="#DejaVuSans-44f" transform="translate(752.783203 0)"/>
      <use xlink:href="#DejaVuSans-20" transform="translate(812.939453 0)"/>
      <use xlink:href="#DejaVuSans-43f" transform="translate(844.726562 0)"/>
      <use xlink:href="#DejaVuSans-440" transform="translate(910.107422 0)"/>
      <use xlink:href="#DejaVuSans-43e" transform="translate(973.583984 0)"/>
      <use xlink:href="#DejaVuSans-43d" transform="translate(1034.765625 0)"/>
      <use xlink:href="#DejaVuSans-438" transform="translate(1100.146484 0)"/>
      <use xlink:href="#DejaVuSans-446" transform="translate(1165.136719 0)"/>
      <use xlink:href="#DejaVuSans-430" transform="translate(1233.203125 0)"/>
      <use xlink:href="#DejaVuSans-435" transform="translate(1294.482422 0)"/>
      <use xlink:href="#DejaVuSans-43c" transform="translate(1356.005859 0)"/>
      <use xlink:href="#DejaVuSans-43e" transform="translate(1431.445312 0)"/>
      <use xlink:href="#DejaVuSans-441" transform="translate(1492.626953 0)"/>
      <use xlink:href="#DejaVuSans-442" transform="translate(1547.607422 0)"/>
      <use xlink:href="#DejaVuSans-44c" transform="translate(1605.859375 0)"/>
      <use xlink:href="#DejaVuSans-20" transform="translate(1664.794922 0)"/>
      <use xlink:href="#DejaVuSans-4b" transform="translate(1696.582031 0)"/>
      <use xlink:href="#DejaVuSans-72" transform="translate(1762.158203 0)"/>
      <use xlink:href="#DejaVuSans-2c" transform="translate(1803.271484 0)"/>
      <use xlink:href="#DejaVuSans-20" transform="translate(1835.058594 0)"/>
      <use xlink:href="#DejaVuSans-434" transform="translate(1866.845703 0)"/>
      <use xlink:href="#DejaVuSans-2e" transform="translate(1935.986328 0)"/>
      <use xlink:href="#DejaVuSans-435" transform="translate(1967.773438 0)"/>
      <use xlink:href="#DejaVuSans-434" transform="translate(2029.296875 0)"/>
      <use xlink:href="#DejaVuSans-2e" transform="translate(2098.4375 0)"/>
     </g>
    </g>
   </g>
   <g id="line2d_25">
    <path d="M 52.76875 518.276875 
L 60.689912 518.276875 
L 68.611073 518.276875 
L 76.532235 518.276875 
L 84.453396 518.276875 
L 92.374558 518.276875 
L 100.29572 518.276875 
L 108.216881 518.276875 
L 116.138043 518.276875 
L 124.059205 518.276875 
L 131.980366 518.276875 
L 139.901528 518.276875 
L 147.822689 518.276875 
L 155.743851 518.276875 
L 163.665013 518.276875 
L 171.586174 518.276875 
L 179.507336 518.276875 
L 187.428497 518.276875 
L 195.349659 518.276875 
L 203.270821 518.276875 
L 211.191982 518.276856 
L 219.113144 518.272836 
L 227.034306 518.251987 
L 234.955467 518.200284 
L 242.876629 518.103703 
L 250.79779 517.94822 
L 258.718952 517.719811 
L 266.640114 517.40445 
L 274.561275 516.988115 
L 282.482437 516.456781 
L 290.403598 515.796423 
L 298.32476 514.993016 
L 306.245922 514.032538 
L 314.167083 512.900963 
L 322.088245 511.584267 
L 330.009407 510.068425 
L 337.930568 508.339414 
L 345.85173 506.38321 
L 353.772891 504.185787 
L 361.694053 501.733121 
L 369.615215 499.011189 
L 377.536376 496.005965 
L 385.457538 492.703426 
L 393.378699 489.089548 
L 401.299861 485.150305 
L 409.221023 480.871674 
L 417.142184 476.23963 
L 425.063346 471.240149 
L 432.984508 465.859207 
L 440.905669 460.082779 
L 448.826831 453.896841 
L 456.747992 447.287369 
L 464.669154 440.240338 
L 472.590316 432.741724 
L 480.511477 424.777503 
L 488.432639 416.333651 
L 496.353801 407.396143 
L 504.274962 397.950954 
L 512.196124 387.984061 
L 520.117285 377.48144 
L 528.038447 366.429065 
L 535.959609 354.812913 
L 543.88077 342.618959 
L 551.801932 329.833179 
L 559.723093 316.441548 
L 567.644255 302.430043 
L 575.565417 287.784639 
L 583.486578 272.491312 
L 591.40774 256.536037 
L 599.328902 239.90479 
L 607.250063 222.583547 
L 615.171225 204.558283 
L 623.092386 185.814974 
L 631.013548 166.339597 
L 638.93471 146.118125 
L 646.855871 125.136536 
L 654.777033 103.380805 
L 662.698194 80.836908 
L 670.619356 57.490819 
L 678.540518 33.328516 
L 686.461679 28.396875 
L 694.382841 28.396875 
L 702.304003 28.396875 
L 710.225164 28.396875 
L 718.146326 28.396875 
L 726.067487 28.396875 
L 733.988649 28.396875 
L 741.909811 28.396875 
L 749.830972 28.396875 
L 757.752134 28.396875 
L 765.673295 28.396875 
L 773.594457 28.396875 
L 781.515619 28.396875 
L 789.43678 28.396875 
L 797.357942 28.396875 
L 805.279104 28.396875 
L 813.200265 28.396875 
L 821.121427 28.396875 
L 829.042588 28.396875 
L 836.96375 28.396875 
" clip-path="url(#p3306051ab4)" style="fill: none; stroke: #0000ff; stroke-width: 3; stroke-linecap: square"/>
    <defs>
     <path id="m2d5fa3c51a" d="M 0 3 
C 0.795609 3 1.55874 2.683901 2.12132 2.12132 
C 2.683901 1.55874 3 0.795609 3 0 
C 3 -0.795609 2.683901 -1.55874 2.12132 -2.12132 
C 1.55874 -2.683901 0.795609 -3 0 -3 
C -0.795609 -3 -1.55874 -2.683901 -2.12132 -2.12132 
C -2.683901 -1.55874 -3 -0.795609 -3 0 
C -3 0.795609 -2.683901 1.55874 -2.12132 2.12132 
C -1.55874 2.683901 -0.795609 3 0 3 
z
" style="stroke: #0000ff"/>
    </defs>
    <g clip-path="url(#p3306051ab4)">
     <use xlink:href="#m2d5fa3c51a" x="52.76875" y="518.276875" style="fill: #0000ff; stroke: #0000ff"/>
     <use xlink:href="#m2d5fa3c51a" x="60.689912" y="518.276875" style="fill: #0000ff; stroke: #0000ff"/>
     <use xlink:href="#m2d5fa3c51a" x="68.611073" y="518.276875" style="fill: #0000ff; stroke: #0000ff"/>
     <use xlink:href="#m2d5fa3c51a" x="76.532235" y="518.276875" style="fill: #0000ff; stroke: #0000ff"/>
     <use xlink:href="#m2d5fa3c51a" x="84.453396" y="518.276875" style="fill: #0000ff; stroke: #0000ff"/>
     <use xlink:href="#m2d5fa3c51a" x="92.374558" y="518.276875" style="fill: #0000ff; stroke: #0000ff"/>
     <use xlink:href="#m2d5fa3c51a" x="100.29572" y="518.276875" style="fill: #0000ff; stroke: #0000ff"/>
     <use xlink:href="#m2d5fa3c51a" x="108.216881" y="518.276875" style="fill: #0000ff; stroke: #0000ff"/>
     <use xlink:href="#m2d5fa3c51a" x="116.138043" y="518.276875" style="fill: #0000ff; stroke: #0000ff"/>
     <use xlink:href="#m2d5fa3c51a" x="124.059205" y="518.276875" style="fill: #0000ff; stroke: #0000ff"/>
     <use xlink:href="#m2d5fa3c51a" x="131.980366" y="518.276875" style="fill: #0000ff; stroke: #0000ff"/>
     <use xlink:href="#m2d5fa3c51a" x="139.901528" y="518.276875" style="fill: #0000ff; stroke: #0000ff"/>
     <use xlink:href="#m2d5fa3c51a" x="147.822689" y="518.276875" style="fill: #0000ff; stroke: #0000ff"/>
     <use xlink:href="#m2d5fa3c51a" x="155.743851" y="518.276875" style="fill: #0000ff; stroke: #0000ff"/>
     <use xlink:href="#m2d5fa3c51a" x="163.665013" y="518.276875" style="fill: #0000ff; stroke: #0000ff"/>
     <use xlink:href="#m2d5fa3c51a" x="171.586174" y="518.276875" style="fill: #0000ff; stroke: #0000ff"/>
     <use xlink:href="#m2d5fa3c51a" x="179.507336" y="518.276875" style="fill: #0000ff; stroke: #0000ff"/>
     <use xlink:href="#m2d5fa3c51a" x="187.428497" y="518.276875" style="fill: #0000ff; stroke: #0000ff"/>
     <use xlink:href="#m2d5fa3c51a" x="195.349659" y="518.276875" style="fill: #0000ff; stroke: #0000ff"/>
     <use xlink:href="#m2d5fa3c51a" x="203.270821" y="518.276875" style="fill: #0000ff; stroke: #0000ff"/>
     <use xlink:href="#m2d5fa3c51a" x="211.191982" y="518.276856" style="fill: #0000ff; stroke: #0000ff"/>
     <use xlink:href="#m2d5fa3c51a" x="219.113144" y="518.272836" style="fill: #0000ff; stroke: #0000ff"/>
     <use xlink:href="#m2d5fa3c51a" x="227.034306" y="518.251987" style="fill: #0000ff; stroke: #0000ff"/>
     <use xlink:href="#m2d5fa3c51a" x="234.955467" y="518.200284" style="fill: #0000ff; stroke: #0000ff"/>
     <use xlink:href="#m2d5fa3c51a" x="242.876629" y="518.103703" style="fill: #0000ff; stroke: #0000ff"/>
     <use xlink:href="#m2d5fa3c51a" x="250.79779" y="517.94822" style="fill: #0000ff; stroke: #0000ff"/>
     <use xlink:href="#m2d5fa3c51a" x="258.718952" y="517.719811" style="fill: #0000ff; stroke: #0000ff"/>
     <use xlink:href="#m2d5fa3c51a" x="266.640114" y="517.40445" style="fill: #0000ff; stroke: #0000ff"/>
     <use xlink:href="#m2d5fa3c51a" x="274.561275" y="516.988115" style="fill: #0000ff; stroke: #0000ff"/>
     <use xlink:href="#m2d5fa3c51a" x="282.482437" y="516.456781" style="fill: #0000ff; stroke: #0000ff"/>
     <use xlink:href="#m2d5fa3c51a" x="290.403598" y="515.796423" style="fill: #0000ff; stroke: #0000ff"/>
     <use xlink:href="#m2d5fa3c51a" x="298.32476" y="514.993016" style="fill: #0000ff; stroke: #0000ff"/>
     <use xlink:href="#m2d5fa3c51a" x="306.245922" y="514.032538" style="fill: #0000ff; stroke: #0000ff"/>
     <use xlink:href="#m2d5fa3c51a" x="314.167083" y="512.900963" style="fill: #0000ff; stroke: #0000ff"/>
     <use xlink:href="#m2d5fa3c51a" x="322.088245" y="511.584267" style="fill: #0000ff; stroke: #0000ff"/>
     <use xlink:href="#m2d5fa3c51a" x="330.009407" y="510.068425" style="fill: #0000ff; stroke: #0000ff"/>
     <use xlink:href="#m2d5fa3c51a" x="337.930568" y="508.339414" style="fill: #0000ff; stroke: #0000ff"/>
     <use xlink:href="#m2d5fa3c51a" x="345.85173" y="506.38321" style="fill: #0000ff; stroke: #0000ff"/>
     <use xlink:href="#m2d5fa3c51a" x="353.772891" y="504.185787" style="fill: #0000ff; stroke: #0000ff"/>
     <use xlink:href="#m2d5fa3c51a" x="361.694053" y="501.733121" style="fill: #0000ff; stroke: #0000ff"/>
     <use xlink:href="#m2d5fa3c51a" x="369.615215" y="499.011189" style="fill: #0000ff; stroke: #0000ff"/>
     <use xlink:href="#m2d5fa3c51a" x="377.536376" y="496.005965" style="fill: #0000ff; stroke: #0000ff"/>
     <use xlink:href="#m2d5fa3c51a" x="385.457538" y="492.703426" style="fill: #0000ff; stroke: #0000ff"/>
     <use xlink:href="#m2d5fa3c51a" x="393.378699" y="489.089548" style="fill: #0000ff; stroke: #0000ff"/>
     <use xlink:href="#m2d5fa3c51a" x="401.299861" y="485.150305" style="fill: #0000ff; stroke: #0000ff"/>
     <use xlink:href="#m2d5fa3c51a" x="409.221023" y="480.871674" style="fill: #0000ff; stroke: #0000ff"/>
     <use xlink:href="#m2d5fa3c51a" x="417.142184" y="476.23963" style="fill: #0000ff; stroke: #0000ff"/>
     <use xlink:href="#m2d5fa3c51a" x="425.063346" y="471.240149" style="fill: #0000ff; stroke: #0000ff"/>
     <use xlink:href="#m2d5fa3c51a" x="432.984508" y="465.859207" style="fill: #0000ff; stroke: #0000ff"/>
     <use xlink:href="#m2d5fa3c51a" x="440.905669" y="460.082779" style="fill: #0000ff; stroke: #0000ff"/>
     <use xlink:href="#m2d5fa3c51a" x="448.826831" y="453.896841" style="fill: #0000ff; stroke: #0000ff"/>
     <use xlink:href="#m2d5fa3c51a" x="456.747992" y="447.287369" style="fill: #0000ff; stroke: #0000ff"/>
     <use xlink:href="#m2d5fa3c51a" x="464.669154" y="440.240338" style="fill: #0000ff; stroke: #0000ff"/>
     <use xlink:href="#m2d5fa3c51a" x="472.590316" y="432.741724" style="fill: #0000ff; stroke: #0000ff"/>
     <use xlink:href="#m2d5fa3c51a" x="480.511477" y="424.777503" style="fill: #0000ff; stroke: #0000ff"/>
     <use xlink:href="#m2d5fa3c51a" x="488.432639" y="416.333651" style="fill: #0000ff; stroke: #0000ff"/>
     <use xlink:href="#m2d5fa3c51a" x="496.353801" y="407.396143" style="fill: #0000ff; stroke: #0000ff"/>
     <use xlink:href="#m2d5fa3c51a" x="504.274962" y="397.950954" style="fill: #0000ff; stroke: #0000ff"/>
     <use xlink:href="#m2d5fa3c51a" x="512.196124" y="387.984061" style="fill: #0000ff; stroke: #0000ff"/>
     <use xlink:href="#m2d5fa3c51a" x="520.117285" y="377.48144" style="fill: #0000ff; stroke: #0000ff"/>
     <use xlink:href="#m2d5fa3c51a" x="528.038447" y="366.429065" style="fill: #0000ff; stroke: #0000ff"/>
     <use xlink:href="#m2d5fa3c51a" x="535.959609" y="354.812913" style="fill: #0000ff; stroke: #0000ff"/>
     <use xlink:href="#m2d5fa3c51a" x="543.88077" y="342.618959" style="fill: #0000ff; stroke: #0000ff"/>
     <use xlink:href="#m2d5fa3c51a" x="551.801932" y="329.833179" style="fill: #0000ff; stroke: #0000ff"/>
     <use xlink:href="#m2d5fa3c51a" x="559.723093" y="316.441548" style="fill: #0000ff; stroke: #0000ff"/>
     <use xlink:href="#m2d5fa3c51a" x="567.644255" y="302.430043" style="fill: #0000ff; stroke: #0000ff"/>
     <use xlink:href="#m2d5fa3c51a" x="575.565417" y="287.784639" style="fill: #0000ff; stroke: #0000ff"/>
     <use xlink:href="#m2d5fa3c51a" x="583.486578" y="272.491312" style="fill: #0000ff; stroke: #0000ff"/>
     <use xlink:href="#m2d5fa3c51a" x="591.40774" y="256.536037" style="fill: #0000ff; stroke: #0000ff"/>
     <use xlink:href="#m2d5fa3c51a" x="599.328902" y="239.90479" style="fill: #0000ff; stroke: #0000ff"/>
     <use xlink:href="#m2d5fa3c51a" x="607.250063" y="222.583547" style="fill: #0000ff; stroke: #0000ff"/>
     <use xlink:href="#m2d5fa3c51a" x="615.171225" y="204.558283" style="fill: #0000ff; stroke: #0000ff"/>
     <use xlink:href="#m2d5fa3c51a" x="623.092386" y="185.814974" style="fill: #0000ff; stroke: #0000ff"/>
     <use xlink:href="#m2d5fa3c51a" x="631.013548" y="166.339597" style="fill: #0000ff; stroke: #0000ff"/>
     <use xlink:href="#m2d5fa3c51a" x="638.93471" y="146.118125" style="fill: #0000ff; stroke: #0000ff"/>
     <use xlink:href="#m2d5fa3c51a" x="646.855871" y="125.136536" style="fill: #0000ff; stroke: #0000ff"/>
     <use xlink:href="#m2d5fa3c51a" x="654.777033" y="103.380805" style="fill: #0000ff; stroke: #0000ff"/>
     <use xlink:href="#m2d5fa3c51a" x="662.698194" y="80.836908" style="fill: #0000ff; stroke: #0000ff"/>
     <use xlink:href="#m2d5fa3c51a" x="670.619356" y="57.490819" style="fill: #0000ff; stroke: #0000ff"/>
     <use xlink:href="#m2d5fa3c51a" x="678.540518" y="33.328516" style="fill: #0000ff; stroke: #0000ff"/>
     <use xlink:href="#m2d5fa3c51a" x="686.461679" y="28.396875" style="fill: #0000ff; stroke: #0000ff"/>
     <use xlink:href="#m2d5fa3c51a" x="694.382841" y="28.396875" style="fill: #0000ff; stroke: #0000ff"/>
     <use xlink:href="#m2d5fa3c51a" x="702.304003" y="28.396875" style="fill: #0000ff; stroke: #0000ff"/>
     <use xlink:href="#m2d5fa3c51a" x="710.225164" y="28.396875" style="fill: #0000ff; stroke: #0000ff"/>
     <use xlink:href="#m2d5fa3c51a" x="718.146326" y="28.396875" style="fill: #0000ff; stroke: #0000ff"/>
     <use xlink:href="#m2d5fa3c51a" x="726.067487" y="28.396875" style="fill: #0000ff; stroke: #0000ff"/>
     <use xlink:href="#m2d5fa3c51a" x="733.988649" y="28.396875" style="fill: #0000ff; stroke: #0000ff"/>
     <use xlink:href="#m2d5fa3c51a" x="741.909811" y="28.396875" style="fill: #0000ff; stroke: #0000ff"/>
     <use xlink:href="#m2d5fa3c51a" x="749.830972" y="28.396875" style="fill: #0000ff; stroke: #0000ff"/>
     <use xlink:href="#m2d5fa3c51a" x="757.752134" y="28.396875" style="fill: #0000ff; stroke: #0000ff"/>
     <use xlink:href="#m2d5fa3c51a" x="765.673295" y="28.396875" style="fill: #0000ff; stroke: #0000ff"/>
     <use xlink:href="#m2d5fa3c51a" x="773.594457" y="28.396875" style="fill: #0000ff; stroke: #0000ff"/>
     <use xlink:href="#m2d5fa3c51a" x="781.515619" y="28.396875" style="fill: #0000ff; stroke: #0000ff"/>
     <use xlink:href="#m2d5fa3c51a" x="789.43678" y="28.396875" style="fill: #0000ff; stroke: #0000ff"/>
     <use xlink:href="#m2d5fa3c51a" x="797.357942" y="28.396875" style="fill: #0000ff; stroke: #0000ff"/>
     <use xlink:href="#m2d5fa3c51a" x="805.279104" y="28.396875" style="fill: #0000ff; stroke: #0000ff"/>
     <use xlink:href="#m2d5fa3c51a" x="813.200265" y="28.396875" style="fill: #0000ff; stroke: #0000ff"/>
     <use xlink:href="#m2d5fa3c51a" x="821.121427" y="28.396875" style="fill: #0000ff; stroke: #0000ff"/>
     <use xlink:href="#m2d5fa3c51a" x="829.042588" y="28.396875" style="fill: #0000ff; stroke: #0000ff"/>
     <use xlink:href="#m2d5fa3c51a" x="836.96375" y="28.396875" style="fill: #0000ff; stroke: #0000ff"/>
    </g>
   </g>
   <g id="line2d_26">
    <path d="M 52.76875 28.396875 
L 60.689912 28.396875 
L 68.611073 28.396875 
L 76.532235 28.396875 
L 84.453396 28.396875 
L 92.374558 28.396875 
L 100.29572 28.396875 
L 108.216881 28.396875 
L 116.138043 28.396875 
L 124.059205 28.396875 
L 131.980366 28.396875 
L 139.901528 28.396875 
L 147.822689 28.396875 
L 155.743851 28.396875 
L 163.665013 28.396875 
L 171.586174 28.396875 
L 179.507336 28.396875 
L 187.428497 28.396875 
L 195.349659 28.396875 
L 203.270821 28.396875 
L 211.191982 31.690177 
L 219.113144 47.990076 
L 227.034306 64.012293 
L 234.955467 79.75683 
L 242.876629 95.223685 
L 250.79779 110.412858 
L 258.718952 125.32435 
L 266.640114 139.958161 
L 274.561275 154.31429 
L 282.482437 168.392738 
L 290.403598 182.193504 
L 298.32476 195.716589 
L 306.245922 208.961992 
L 314.167083 221.929715 
L 322.088245 234.619755 
L 330.009407 247.032114 
L 337.930568 259.166792 
L 345.85173 271.023789 
L 353.772891 282.603104 
L 361.694053 293.904737 
L 369.615215 304.92869 
L 377.536376 315.67496 
L 385.457538 326.14355 
L 393.378699 336.334458 
L 401.299861 346.247684 
L 409.221023 355.883229 
L 417.142184 365.241093 
L 425.063346 374.321275 
L 432.984508 383.123776 
L 440.905669 391.648596 
L 448.826831 399.895734 
L 456.747992 407.86519 
L 464.669154 415.556966 
L 472.590316 422.971059 
L 480.511477 430.107472 
L 488.432639 436.966203 
L 496.353801 443.547252 
L 504.274962 449.850621 
L 512.196124 455.876307 
L 520.117285 461.624313 
L 528.038447 467.094636 
L 535.959609 472.287279 
L 543.88077 477.20224 
L 551.801932 481.83952 
L 559.723093 486.199118 
L 567.644255 490.281035 
L 575.565417 494.08527 
L 583.486578 497.611824 
L 591.40774 500.860697 
L 599.328902 503.831888 
L 607.250063 506.525397 
L 615.171225 508.941226 
L 623.092386 511.079373 
L 631.013548 512.939838 
L 638.93471 514.522622 
L 646.855871 515.827725 
L 654.777033 516.855146 
L 662.698194 517.604886 
L 670.619356 518.076944 
L 678.540518 518.271321 
L 686.461679 518.276875 
L 694.382841 518.276875 
L 702.304003 518.276875 
L 710.225164 518.276875 
L 718.146326 518.276875 
L 726.067487 518.276875 
L 733.988649 518.276875 
L 741.909811 518.276875 
L 749.830972 518.276875 
L 757.752134 518.276875 
L 765.673295 518.276875 
L 773.594457 518.276875 
L 781.515619 518.276875 
L 789.43678 518.276875 
L 797.357942 518.276875 
L 805.279104 518.276875 
L 813.200265 518.276875 
L 821.121427 518.276875 
L 829.042588 518.276875 
L 836.96375 518.276875 
" clip-path="url(#p3306051ab4)" style="fill: none; stroke: #008000; stroke-width: 3; stroke-linecap: square"/>
    <defs>
     <path id="m70f0dc66e5" d="M 0 3 
C 0.795609 3 1.55874 2.683901 2.12132 2.12132 
C 2.683901 1.55874 3 0.795609 3 0 
C 3 -0.795609 2.683901 -1.55874 2.12132 -2.12132 
C 1.55874 -2.683901 0.795609 -3 0 -3 
C -0.795609 -3 -1.55874 -2.683901 -2.12132 -2.12132 
C -2.683901 -1.55874 -3 -0.795609 -3 0 
C -3 0.795609 -2.683901 1.55874 -2.12132 2.12132 
C -1.55874 2.683901 -0.795609 3 0 3 
z
" style="stroke: #008000"/>
    </defs>
    <g clip-path="url(#p3306051ab4)">
     <use xlink:href="#m70f0dc66e5" x="52.76875" y="28.396875" style="fill: #008000; stroke: #008000"/>
     <use xlink:href="#m70f0dc66e5" x="60.689912" y="28.396875" style="fill: #008000; stroke: #008000"/>
     <use xlink:href="#m70f0dc66e5" x="68.611073" y="28.396875" style="fill: #008000; stroke: #008000"/>
     <use xlink:href="#m70f0dc66e5" x="76.532235" y="28.396875" style="fill: #008000; stroke: #008000"/>
     <use xlink:href="#m70f0dc66e5" x="84.453396" y="28.396875" style="fill: #008000; stroke: #008000"/>
     <use xlink:href="#m70f0dc66e5" x="92.374558" y="28.396875" style="fill: #008000; stroke: #008000"/>
     <use xlink:href="#m70f0dc66e5" x="100.29572" y="28.396875" style="fill: #008000; stroke: #008000"/>
     <use xlink:href="#m70f0dc66e5" x="108.216881" y="28.396875" style="fill: #008000; stroke: #008000"/>
     <use xlink:href="#m70f0dc66e5" x="116.138043" y="28.396875" style="fill: #008000; stroke: #008000"/>
     <use xlink:href="#m70f0dc66e5" x="124.059205" y="28.396875" style="fill: #008000; stroke: #008000"/>
     <use xlink:href="#m70f0dc66e5" x="131.980366" y="28.396875" style="fill: #008000; stroke: #008000"/>
     <use xlink:href="#m70f0dc66e5" x="139.901528" y="28.396875" style="fill: #008000; stroke: #008000"/>
     <use xlink:href="#m70f0dc66e5" x="147.822689" y="28.396875" style="fill: #008000; stroke: #008000"/>
     <use xlink:href="#m70f0dc66e5" x="155.743851" y="28.396875" style="fill: #008000; stroke: #008000"/>
     <use xlink:href="#m70f0dc66e5" x="163.665013" y="28.396875" style="fill: #008000; stroke: #008000"/>
     <use xlink:href="#m70f0dc66e5" x="171.586174" y="28.396875" style="fill: #008000; stroke: #008000"/>
     <use xlink:href="#m70f0dc66e5" x="179.507336" y="28.396875" style="fill: #008000; stroke: #008000"/>
     <use xlink:href="#m70f0dc66e5" x="187.428497" y="28.396875" style="fill: #008000; stroke: #008000"/>
     <use xlink:href="#m70f0dc66e5" x="195.349659" y="28.396875" style="fill: #008000; stroke: #008000"/>
     <use xlink:href="#m70f0dc66e5" x="203.270821" y="28.396875" style="fill: #008000; stroke: #008000"/>
     <use xlink:href="#m70f0dc66e5" x="211.191982" y="31.690177" style="fill: #008000; stroke: #008000"/>
     <use xlink:href="#m70f0dc66e5" x="219.113144" y="47.990076" style="fill: #008000; stroke: #008000"/>
     <use xlink:href="#m70f0dc66e5" x="227.034306" y="64.012293" style="fill: #008000; stroke: #008000"/>
     <use xlink:href="#m70f0dc66e5" x="234.955467" y="79.75683" style="fill: #008000; stroke: #008000"/>
     <use xlink:href="#m70f0dc66e5" x="242.876629" y="95.223685" style="fill: #008000; stroke: #008000"/>
     <use xlink:href="#m70f0dc66e5" x="250.79779" y="110.412858" style="fill: #008000; stroke: #008000"/>
     <use xlink:href="#m70f0dc66e5" x="258.718952" y="125.32435" style="fill: #008000; stroke: #008000"/>
     <use xlink:href="#m70f0dc66e5" x="266.640114" y="139.958161" style="fill: #008000; stroke: #008000"/>
     <use xlink:href="#m70f0dc66e5" x="274.561275" y="154.31429" style="fill: #008000; stroke: #008000"/>
     <use xlink:href="#m70f0dc66e5" x="282.482437" y="168.392738" style="fill: #008000; stroke: #008000"/>
     <use xlink:href="#m70f0dc66e5" x="290.403598" y="182.193504" style="fill: #008000; stroke: #008000"/>
     <use xlink:href="#m70f0dc66e5" x="298.32476" y="195.716589" style="fill: #008000; stroke: #008000"/>
     <use xlink:href="#m70f0dc66e5" x="306.245922" y="208.961992" style="fill: #008000; stroke: #008000"/>
     <use xlink:href="#m70f0dc66e5" x="314.167083" y="221.929715" style="fill: #008000; stroke: #008000"/>
     <use xlink:href="#m70f0dc66e5" x="322.088245" y="234.619755" style="fill: #008000; stroke: #008000"/>
     <use xlink:href="#m70f0dc66e5" x="330.009407" y="247.032114" style="fill: #008000; stroke: #008000"/>
     <use xlink:href="#m70f0dc66e5" x="337.930568" y="259.166792" style="fill: #008000; stroke: #008000"/>
     <use xlink:href="#m70f0dc66e5" x="345.85173" y="271.023789" style="fill: #008000; stroke: #008000"/>
     <use xlink:href="#m70f0dc66e5" x="353.772891" y="282.603104" style="fill: #008000; stroke: #008000"/>
     <use xlink:href="#m70f0dc66e5" x="361.694053" y="293.904737" style="fill: #008000; stroke: #008000"/>
     <use xlink:href="#m70f0dc66e5" x="369.615215" y="304.92869" style="fill: #008000; stroke: #008000"/>
     <use xlink:href="#m70f0dc66e5" x="377.536376" y="315.67496" style="fill: #008000; stroke: #008000"/>
     <use xlink:href="#m70f0dc66e5" x="385.457538" y="326.14355" style="fill: #008000; stroke: #008000"/>
     <use xlink:href="#m70f0dc66e5" x="393.378699" y="336.334458" style="fill: #008000; stroke: #008000"/>
     <use xlink:href="#m70f0dc66e5" x="401.299861" y="346.247684" style="fill: #008000; stroke: #008000"/>
     <use xlink:href="#m70f0dc66e5" x="409.221023" y="355.883229" style="fill: #008000; stroke: #008000"/>
     <use xlink:href="#m70f0dc66e5" x="417.142184" y="365.241093" style="fill: #008000; stroke: #008000"/>
     <use xlink:href="#m70f0dc66e5" x="425.063346" y="374.321275" style="fill: #008000; stroke: #008000"/>
     <use xlink:href="#m70f0dc66e5" x="432.984508" y="383.123776" style="fill: #008000; stroke: #008000"/>
     <use xlink:href="#m70f0dc66e5" x="440.905669" y="391.648596" style="fill: #008000; stroke: #008000"/>
     <use xlink:href="#m70f0dc66e5" x="448.826831" y="399.895734" style="fill: #008000; stroke: #008000"/>
     <use xlink:href="#m70f0dc66e5" x="456.747992" y="407.86519" style="fill: #008000; stroke: #008000"/>
     <use xlink:href="#m70f0dc66e5" x="464.669154" y="415.556966" style="fill: #008000; stroke: #008000"/>
     <use xlink:href="#m70f0dc66e5" x="472.590316" y="422.971059" style="fill: #008000; stroke: #008000"/>
     <use xlink:href="#m70f0dc66e5" x="480.511477" y="430.107472" style="fill: #008000; stroke: #008000"/>
     <use xlink:href="#m70f0dc66e5" x="488.432639" y="436.966203" style="fill: #008000; stroke: #008000"/>
     <use xlink:href="#m70f0dc66e5" x="496.353801" y="443.547252" style="fill: #008000; stroke: #008000"/>
     <use xlink:href="#m70f0dc66e5" x="504.274962" y="449.850621" style="fill: #008000; stroke: #008000"/>
     <use xlink:href="#m70f0dc66e5" x="512.196124" y="455.876307" style="fill: #008000; stroke: #008000"/>
     <use xlink:href="#m70f0dc66e5" x="520.117285" y="461.624313" style="fill: #008000; stroke: #008000"/>
     <use xlink:href="#m70f0dc66e5" x="528.038447" y="467.094636" style="fill: #008000; stroke: #008000"/>
     <use xlink:href="#m70f0dc66e5" x="535.959609" y="472.287279" style="fill: #008000; stroke: #008000"/>
     <use xlink:href="#m70f0dc66e5" x="543.88077" y="477.20224" style="fill: #008000; stroke: #008000"/>
     <use xlink:href="#m70f0dc66e5" x="551.801932" y="481.83952" style="fill: #008000; stroke: #008000"/>
     <use xlink:href="#m70f0dc66e5" x="559.723093" y="486.199118" style="fill: #008000; stroke: #008000"/>
     <use xlink:href="#m70f0dc66e5" x="567.644255" y="490.281035" style="fill: #008000; stroke: #008000"/>
     <use xlink:href="#m70f0dc66e5" x="575.565417" y="494.08527" style="fill: #008000; stroke: #008000"/>
     <use xlink:href="#m70f0dc66e5" x="583.486578" y="497.611824" style="fill: #008000; stroke: #008000"/>
     <use xlink:href="#m70f0dc66e5" x="591.40774" y="500.860697" style="fill: #008000; stroke: #008000"/>
     <use xlink:href="#m70f0dc66e5" x="599.328902" y="503.831888" style="fill: #008000; stroke: #008000"/>
     <use xlink:href="#m70f0dc66e5" x="607.250063" y="506.525397" style="fill: #008000; stroke: #008000"/>
     <use xlink:href="#m70f0dc66e5" x="615.171225" y="508.941226" style="fill: #008000; stroke: #008000"/>
     <use xlink:href="#m70f0dc66e5" x="623.092386" y="511.079373" style="fill: #008000; stroke: #008000"/>
     <use xlink:href="#m70f0dc66e5" x="631.013548" y="512.939838" style="fill: #008000; stroke: #008000"/>
     <use xlink:href="#m70f0dc66e5" x="638.93471" y="514.522622" style="fill: #008000; stroke: #008000"/>
     <use xlink:href="#m70f0dc66e5" x="646.855871" y="515.827725" style="fill: #008000; stroke: #008000"/>
     <use xlink:href="#m70f0dc66e5" x="654.777033" y="516.855146" style="fill: #008000; stroke: #008000"/>
     <use xlink:href="#m70f0dc66e5" x="662.698194" y="517.604886" style="fill: #008000; stroke: #008000"/>
     <use xlink:href="#m70f0dc66e5" x="670.619356" y="518.076944" style="fill: #008000; stroke: #008000"/>
     <use xlink:href="#m70f0dc66e5" x="678.540518" y="518.271321" style="fill: #008000; stroke: #008000"/>
     <use xlink:href="#m70f0dc66e5" x="686.461679" y="518.276875" style="fill: #008000; stroke: #008000"/>
     <use xlink:href="#m70f0dc66e5" x="694.382841" y="518.276875" style="fill: #008000; stroke: #008000"/>
     <use xlink:href="#m70f0dc66e5" x="702.304003" y="518.276875" style="fill: #008000; stroke: #008000"/>
     <use xlink:href="#m70f0dc66e5" x="710.225164" y="518.276875" style="fill: #008000; stroke: #008000"/>
     <use xlink:href="#m70f0dc66e5" x="718.146326" y="518.276875" style="fill: #008000; stroke: #008000"/>
     <use xlink:href="#m70f0dc66e5" x="726.067487" y="518.276875" style="fill: #008000; stroke: #008000"/>
     <use xlink:href="#m70f0dc66e5" x="733.988649" y="518.276875" style="fill: #008000; stroke: #008000"/>
     <use xlink:href="#m70f0dc66e5" x="741.909811" y="518.276875" style="fill: #008000; stroke: #008000"/>
     <use xlink:href="#m70f0dc66e5" x="749.830972" y="518.276875" style="fill: #008000; stroke: #008000"/>
     <use xlink:href="#m70f0dc66e5" x="757.752134" y="518.276875" style="fill: #008000; stroke: #008000"/>
     <use xlink:href="#m70f0dc66e5" x="765.673295" y="518.276875" style="fill: #008000; stroke: #008000"/>
     <use xlink:href="#m70f0dc66e5" x="773.594457" y="518.276875" style="fill: #008000; stroke: #008000"/>
     <use xlink:href="#m70f0dc66e5" x="781.515619" y="518.276875" style="fill: #008000; stroke: #008000"/>
     <use xlink:href="#m70f0dc66e5" x="789.43678" y="518.276875" style="fill: #008000; stroke: #008000"/>
     <use xlink:href="#m70f0dc66e5" x="797.357942" y="518.276875" style="fill: #008000; stroke: #008000"/>
     <use xlink:href="#m70f0dc66e5" x="805.279104" y="518.276875" style="fill: #008000; stroke: #008000"/>
     <use xlink:href="#m70f0dc66e5" x="813.200265" y="518.276875" style="fill: #008000; stroke: #008000"/>
     <use xlink:href="#m70f0dc66e5" x="821.121427" y="518.276875" style="fill: #008000; stroke: #008000"/>
     <use xlink:href="#m70f0dc66e5" x="829.042588" y="518.276875" style="fill: #008000; stroke: #008000"/>
     <use xlink:href="#m70f0dc66e5" x="836.96375" y="518.276875" style="fill: #008000; stroke: #008000"/>
    </g>
   </g>
   <g id="line2d_27">
    <path d="M 209.60775 518.276875 
L 209.60775 28.396875 
" clip-path="url(#p3306051ab4)" style="fill: none; stroke-dasharray: 5.55,2.4; stroke-dashoffset: 0; stroke: #0000ff; stroke-opacity: 0.7; stroke-width: 1.5"/>
   </g>
   <g id="line2d_28">
    <path d="M 680.12475 518.276875 
L 680.12475 28.396875 
" clip-path="url(#p3306051ab4)" style="fill: none; stroke-dasharray: 5.55,2.4; stroke-dashoffset: 0; stroke: #008000; stroke-opacity: 0.7; stroke-width: 1.5"/>
   </g>
   <g id="line2d_29">
    <defs>
     <path id="m9593b1b764" d="M 0 5 
C 1.326016 5 2.597899 4.473168 3.535534 3.535534 
C 4.473168 2.597899 5 1.326016 5 0 
C 5 -1.326016 4.473168 -2.597899 3.535534 -3.535534 
C 2.597899 -4.473168 1.326016 -5 0 -5 
C -1.326016 -5 -2.597899 -4.473168 -3.535534 -3.535534 
C -4.473168 -2.597899 -5 -1.326016 -5 0 
C -5 1.326016 -4.473168 2.597899 -3.535534 3.535534 
C -2.597899 4.473168 -1.326016 5 0 5 
z
" style="stroke: #ff0000"/>
    </defs>
    <g clip-path="url(#p3306051ab4)">
     <use xlink:href="#m9593b1b764" x="480.511477" y="424.777503" style="fill: #ff0000; stroke: #ff0000"/>
    </g>
   </g>
   <g id="patch_3">
    <path d="M 52.76875 518.276875 
L 52.76875 28.396875 
" style="fill: none; stroke: #000000; stroke-width: 0.8; stroke-linejoin: miter; stroke-linecap: square"/>
   </g>
   <g id="patch_4">
    <path d="M 836.96375 518.276875 
L 836.96375 28.396875 
" style="fill: none; stroke: #000000; stroke-width: 0.8; stroke-linejoin: miter; stroke-linecap: square"/>
   </g>
   <g id="patch_5">
    <path d="M 52.76875 518.276875 
L 836.96375 518.276875 
" style="fill: none; stroke: #000000; stroke-width: 0.8; stroke-linejoin: miter; stroke-linecap: square"/>
   </g>
   <g id="patch_6">
    <path d="M 52.76875 28.396875 
L 836.96375 28.396875 
" style="fill: none; stroke: #000000; stroke-width: 0.8; stroke-linejoin: miter; stroke-linecap: square"/>
   </g>
   <g id="text_15">
    <!-- Кривые относительной проницаемости -->
    <g transform="translate(235.992812 22.396875) scale(0.2 -0.2)">
     <defs>
      <path id="DejaVuSans-41a" d="M 628 4666 
L 1259 4666 
L 1259 2359 
L 3516 4666 
L 4325 4666 
L 2522 2822 
L 4419 0 
L 3731 0 
L 2113 2403 
L 1259 1531 
L 1259 0 
L 628 0 
L 628 4666 
z
" transform="scale(0.015625)"/>
      <path id="DejaVuSans-432" d="M 1156 1613 
L 1156 459 
L 1975 459 
Q 2369 459 2575 607 
Q 2781 756 2781 1038 
Q 2781 1319 2575 1466 
Q 2369 1613 1975 1613 
L 1156 1613 
z
M 1156 3041 
L 1156 2072 
L 1913 2072 
Q 2238 2072 2444 2201 
Q 2650 2331 2650 2563 
Q 2650 2794 2444 2917 
Q 2238 3041 1913 3041 
L 1156 3041 
z
M 581 3500 
L 1950 3500 
Q 2566 3500 2897 3275 
Q 3228 3050 3228 2634 
Q 3228 2313 3059 2123 
Q 2891 1934 2559 1888 
Q 2956 1813 3175 1575 
Q 3394 1338 3394 981 
Q 3394 513 3033 256 
Q 2672 0 2003 0 
L 581 0 
L 581 3500 
z
" transform="scale(0.015625)"/>
      <path id="DejaVuSans-439" d="M 3578 3500 
L 3578 0 
L 3006 0 
L 3006 2809 
L 1319 0 
L 581 0 
L 581 3500 
L 1153 3500 
L 1153 697 
L 2838 3500 
L 3578 3500 
z
M 1102 4833 
L 1471 4833 
Q 1505 4599 1656 4481 
Q 1808 4364 2080 4364 
Q 2349 4364 2499 4480 
Q 2649 4596 2689 4833 
L 3058 4833 
Q 3027 4386 2780 4161 
Q 2533 3936 2080 3936 
Q 1627 3936 1380 4161 
Q 1133 4386 1102 4833 
z
" transform="scale(0.015625)"/>
     </defs>
     <use xlink:href="#DejaVuSans-41a"/>
     <use xlink:href="#DejaVuSans-440" transform="translate(70.996094 0)"/>
     <use xlink:href="#DejaVuSans-438" transform="translate(134.472656 0)"/>
     <use xlink:href="#DejaVuSans-432" transform="translate(199.462891 0)"/>
     <use xlink:href="#DejaVuSans-44b" transform="translate(258.398438 0)"/>
     <use xlink:href="#DejaVuSans-435" transform="translate(337.353516 0)"/>
     <use xlink:href="#DejaVuSans-20" transform="translate(398.876953 0)"/>
     <use xlink:href="#DejaVuSans-43e" transform="translate(430.664062 0)"/>
     <use xlink:href="#DejaVuSans-442" transform="translate(491.845703 0)"/>
     <use xlink:href="#DejaVuSans-43d" transform="translate(550.097656 0)"/>
     <use xlink:href="#DejaVuSans-43e" transform="translate(615.478516 0)"/>
     <use xlink:href="#DejaVuSans-441" transform="translate(676.660156 0)"/>
     <use xlink:href="#DejaVuSans-438" transform="translate(731.640625 0)"/>
     <use xlink:href="#DejaVuSans-442" transform="translate(796.630859 0)"/>
     <use xlink:href="#DejaVuSans-435" transform="translate(854.882812 0)"/>
     <use xlink:href="#DejaVuSans-43b" transform="translate(916.40625 0)"/>
     <use xlink:href="#DejaVuSans-44c" transform="translate(980.322266 0)"/>
     <use xlink:href="#DejaVuSans-43d" transform="translate(1039.257812 0)"/>
     <use xlink:href="#DejaVuSans-43e" transform="translate(1104.638672 0)"/>
     <use xlink:href="#DejaVuSans-439" transform="translate(1165.820312 0)"/>
     <use xlink:href="#DejaVuSans-20" transform="translate(1230.810547 0)"/>
     <use xlink:href="#DejaVuSans-43f" transform="translate(1262.597656 0)"/>
     <use xlink:href="#DejaVuSans-440" transform="translate(1327.978516 0)"/>
     <use xlink:href="#DejaVuSans-43e" transform="translate(1391.455078 0)"/>
     <use xlink:href="#DejaVuSans-43d" transform="translate(1452.636719 0)"/>
     <use xlink:href="#DejaVuSans-438" transform="translate(1518.017578 0)"/>
     <use xlink:href="#DejaVuSans-446" transform="translate(1583.007812 0)"/>
     <use xlink:href="#DejaVuSans-430" transform="translate(1651.074219 0)"/>
     <use xlink:href="#DejaVuSans-435" transform="translate(1712.353516 0)"/>
     <use xlink:href="#DejaVuSans-43c" transform="translate(1773.876953 0)"/>
     <use xlink:href="#DejaVuSans-43e" transform="translate(1849.316406 0)"/>
     <use xlink:href="#DejaVuSans-441" transform="translate(1910.498047 0)"/>
     <use xlink:href="#DejaVuSans-442" transform="translate(1965.478516 0)"/>
     <use xlink:href="#DejaVuSans-438" transform="translate(2023.730469 0)"/>
    </g>
   </g>
   <g id="legend_1">
    <g id="patch_7">
     <path d="M 320.024531 142.34375 
L 569.707969 142.34375 
Q 572.507969 142.34375 572.507969 139.54375 
L 572.507969 38.196875 
Q 572.507969 35.396875 569.707969 35.396875 
L 320.024531 35.396875 
Q 317.224531 35.396875 317.224531 38.196875 
L 317.224531 139.54375 
Q 317.224531 142.34375 320.024531 142.34375 
z
" style="fill: #ffffff; opacity: 0.8; stroke: #cccccc; stroke-linejoin: miter"/>
    </g>
    <g id="line2d_30">
     <path d="M 322.824531 46.734687 
L 336.824531 46.734687 
L 350.824531 46.734687 
" style="fill: none; stroke: #0000ff; stroke-width: 3; stroke-linecap: square"/>
     <g>
      <use xlink:href="#m2d5fa3c51a" x="336.824531" y="46.734687" style="fill: #0000ff; stroke: #0000ff"/>
     </g>
    </g>
    <g id="text_16">
     <!-- Krw (вода) -->
     <g transform="translate(362.024531 51.634687) scale(0.14 -0.14)">
      <defs>
       <path id="DejaVuSans-28" d="M 1984 4856 
Q 1566 4138 1362 3434 
Q 1159 2731 1159 2009 
Q 1159 1288 1364 580 
Q 1569 -128 1984 -844 
L 1484 -844 
Q 1016 -109 783 600 
Q 550 1309 550 2009 
Q 550 2706 781 3412 
Q 1013 4119 1484 4856 
L 1984 4856 
z
" transform="scale(0.015625)"/>
       <path id="DejaVuSans-29" d="M 513 4856 
L 1013 4856 
Q 1481 4119 1714 3412 
Q 1947 2706 1947 2009 
Q 1947 1309 1714 600 
Q 1481 -109 1013 -844 
L 513 -844 
Q 928 -128 1133 580 
Q 1338 1288 1338 2009 
Q 1338 2731 1133 3434 
Q 928 4138 513 4856 
z
" transform="scale(0.015625)"/>
      </defs>
      <use xlink:href="#DejaVuSans-4b"/>
      <use xlink:href="#DejaVuSans-72" transform="translate(65.576172 0)"/>
      <use xlink:href="#DejaVuSans-77" transform="translate(106.689453 0)"/>
      <use xlink:href="#DejaVuSans-20" transform="translate(188.476562 0)"/>
      <use xlink:href="#DejaVuSans-28" transform="translate(220.263672 0)"/>
      <use xlink:href="#DejaVuSans-432" transform="translate(259.277344 0)"/>
      <use xlink:href="#DejaVuSans-43e" transform="translate(318.212891 0)"/>
      <use xlink:href="#DejaVuSans-434" transform="translate(379.394531 0)"/>
      <use xlink:href="#DejaVuSans-430" transform="translate(448.535156 0)"/>
      <use xlink:href="#DejaVuSans-29" transform="translate(509.814453 0)"/>
     </g>
    </g>
    <g id="line2d_31">
     <path d="M 322.824531 67.284062 
L 336.824531 67.284062 
L 350.824531 67.284062 
" style="fill: none; stroke: #008000; stroke-width: 3; stroke-linecap: square"/>
     <g>
      <use xlink:href="#m70f0dc66e5" x="336.824531" y="67.284062" style="fill: #008000; stroke: #008000"/>
     </g>
    </g>
    <g id="text_17">
     <!-- Kro (нефть) -->
     <g transform="translate(362.024531 72.184062) scale(0.14 -0.14)">
      <defs>
       <path id="DejaVuSans-6f" d="M 1959 3097 
Q 1497 3097 1228 2736 
Q 959 2375 959 1747 
Q 959 1119 1226 758 
Q 1494 397 1959 397 
Q 2419 397 2687 759 
Q 2956 1122 2956 1747 
Q 2956 2369 2687 2733 
Q 2419 3097 1959 3097 
z
M 1959 3584 
Q 2709 3584 3137 3096 
Q 3566 2609 3566 1747 
Q 3566 888 3137 398 
Q 2709 -91 1959 -91 
Q 1206 -91 779 398 
Q 353 888 353 1747 
Q 353 2609 779 3096 
Q 1206 3584 1959 3584 
z
" transform="scale(0.015625)"/>
       <path id="DejaVuSans-444" d="M 947 1747 
Q 947 1013 1173 702 
Q 1400 391 1784 391 
Q 2091 391 2447 916 
L 2447 2578 
Q 2091 3103 1784 3103 
Q 1400 3103 1173 2792 
Q 947 2481 947 1747 
z
M 2447 -1331 
L 2447 447 
Q 2269 153 2064 31 
Q 1859 -91 1600 -91 
Q 1078 -91 714 392 
Q 350 875 350 1734 
Q 350 2594 714 3089 
Q 1078 3584 1600 3584 
Q 1859 3584 2064 3465 
Q 2269 3347 2447 3053 
L 2447 4666 
L 3025 4666 
L 3025 3053 
Q 3203 3347 3408 3465 
Q 3613 3584 3872 3584 
Q 4394 3584 4758 3089 
Q 5122 2594 5122 1734 
Q 5122 875 4758 392 
Q 4394 -91 3872 -91 
Q 3613 -91 3408 31 
Q 3203 153 3025 447 
L 3025 -1331 
L 2447 -1331 
z
M 4525 1747 
Q 4525 2481 4298 2792 
Q 4072 3103 3688 3103 
Q 3381 3103 3025 2578 
L 3025 916 
Q 3381 391 3688 391 
Q 4072 391 4298 702 
Q 4525 1013 4525 1747 
z
" transform="scale(0.015625)"/>
      </defs>
      <use xlink:href="#DejaVuSans-4b"/>
      <use xlink:href="#DejaVuSans-72" transform="translate(65.576172 0)"/>
      <use xlink:href="#DejaVuSans-6f" transform="translate(104.439453 0)"/>
      <use xlink:href="#DejaVuSans-20" transform="translate(165.621094 0)"/>
      <use xlink:href="#DejaVuSans-28" transform="translate(197.408203 0)"/>
      <use xlink:href="#DejaVuSans-43d" transform="translate(236.421875 0)"/>
      <use xlink:href="#DejaVuSans-435" transform="translate(301.802734 0)"/>
      <use xlink:href="#DejaVuSans-444" transform="translate(363.326172 0)"/>
      <use xlink:href="#DejaVuSans-442" transform="translate(448.824219 0)"/>
      <use xlink:href="#DejaVuSans-44c" transform="translate(507.076172 0)"/>
      <use xlink:href="#DejaVuSans-29" transform="translate(566.011719 0)"/>
     </g>
    </g>
    <g id="line2d_32">
     <path d="M 322.824531 87.833437 
L 336.824531 87.833437 
L 350.824531 87.833437 
" style="fill: none; stroke-dasharray: 5.55,2.4; stroke-dashoffset: 0; stroke: #0000ff; stroke-opacity: 0.7; stroke-width: 1.5"/>
    </g>
    <g id="text_18">
     <!-- Swc = 0.20 -->
     <g transform="translate(362.024531 92.733437) scale(0.14 -0.14)">
      <defs>
       <path id="DejaVuSans-63" d="M 3122 3366 
L 3122 2828 
Q 2878 2963 2633 3030 
Q 2388 3097 2138 3097 
Q 1578 3097 1268 2742 
Q 959 2388 959 1747 
Q 959 1106 1268 751 
Q 1578 397 2138 397 
Q 2388 397 2633 464 
Q 2878 531 3122 666 
L 3122 134 
Q 2881 22 2623 -34 
Q 2366 -91 2075 -91 
Q 1284 -91 818 406 
Q 353 903 353 1747 
Q 353 2603 823 3093 
Q 1294 3584 2113 3584 
Q 2378 3584 2631 3529 
Q 2884 3475 3122 3366 
z
" transform="scale(0.015625)"/>
       <path id="DejaVuSans-3d" d="M 678 2906 
L 4684 2906 
L 4684 2381 
L 678 2381 
L 678 2906 
z
M 678 1631 
L 4684 1631 
L 4684 1100 
L 678 1100 
L 678 1631 
z
" transform="scale(0.015625)"/>
      </defs>
      <use xlink:href="#DejaVuSans-53"/>
      <use xlink:href="#DejaVuSans-77" transform="translate(63.476562 0)"/>
      <use xlink:href="#DejaVuSans-63" transform="translate(145.263672 0)"/>
      <use xlink:href="#DejaVuSans-20" transform="translate(200.244141 0)"/>
      <use xlink:href="#DejaVuSans-3d" transform="translate(232.03125 0)"/>
      <use xlink:href="#DejaVuSans-20" transform="translate(315.820312 0)"/>
      <use xlink:href="#DejaVuSans-30" transform="translate(347.607422 0)"/>
      <use xlink:href="#DejaVuSans-2e" transform="translate(411.230469 0)"/>
      <use xlink:href="#DejaVuSans-32" transform="translate(443.017578 0)"/>
      <use xlink:href="#DejaVuSans-30" transform="translate(506.640625 0)"/>
     </g>
    </g>
    <g id="line2d_33">
     <path d="M 322.824531 108.382812 
L 336.824531 108.382812 
L 350.824531 108.382812 
" style="fill: none; stroke-dasharray: 5.55,2.4; stroke-dashoffset: 0; stroke: #008000; stroke-opacity: 0.7; stroke-width: 1.5"/>
    </g>
    <g id="text_19">
     <!-- 1-Sor = 0.80 -->
     <g transform="translate(362.024531 113.282812) scale(0.14 -0.14)">
      <defs>
       <path id="DejaVuSans-2d" d="M 313 2009 
L 1997 2009 
L 1997 1497 
L 313 1497 
L 313 2009 
z
" transform="scale(0.015625)"/>
      </defs>
      <use xlink:href="#DejaVuSans-31"/>
      <use xlink:href="#DejaVuSans-2d" transform="translate(63.623047 0)"/>
      <use xlink:href="#DejaVuSans-53" transform="translate(99.707031 0)"/>
      <use xlink:href="#DejaVuSans-6f" transform="translate(163.183594 0)"/>
      <use xlink:href="#DejaVuSans-72" transform="translate(224.365234 0)"/>
      <use xlink:href="#DejaVuSans-20" transform="translate(265.478516 0)"/>
      <use xlink:href="#DejaVuSans-3d" transform="translate(297.265625 0)"/>
      <use xlink:href="#DejaVuSans-20" transform="translate(381.054688 0)"/>
      <use xlink:href="#DejaVuSans-30" transform="translate(412.841797 0)"/>
      <use xlink:href="#DejaVuSans-2e" transform="translate(476.464844 0)"/>
      <use xlink:href="#DejaVuSans-38" transform="translate(508.251953 0)"/>
      <use xlink:href="#DejaVuSans-30" transform="translate(571.875 0)"/>
     </g>
    </g>
    <g id="line2d_34">
     <g>
      <use xlink:href="#m9593b1b764" x="336.824531" y="128.932187" style="fill: #ff0000; stroke: #ff0000"/>
     </g>
    </g>
    <g id="text_20">
     <!-- Пересечение при Sw = 0.55 -->
     <g transform="translate(362.024531 133.832187) scale(0.14 -0.14)">
      <defs>
       <path id="DejaVuSans-41f" d="M 4184 4666 
L 4184 0 
L 3553 0 
L 3553 4134 
L 1259 4134 
L 1259 0 
L 628 0 
L 628 4666 
L 4184 4666 
z
" transform="scale(0.015625)"/>
       <path id="DejaVuSans-447" d="M 2625 0 
L 2625 1472 
L 1553 1472 
Q 1075 1472 756 1769 
Q 469 2038 469 2613 
L 469 3500 
L 1044 3500 
L 1044 2666 
Q 1044 2300 1206 2116 
Q 1372 1931 1697 1931 
L 2625 1931 
L 2625 3500 
L 3200 3500 
L 3200 0 
L 2625 0 
z
" transform="scale(0.015625)"/>
       <path id="DejaVuSans-35" d="M 691 4666 
L 3169 4666 
L 3169 4134 
L 1269 4134 
L 1269 2991 
Q 1406 3038 1543 3061 
Q 1681 3084 1819 3084 
Q 2600 3084 3056 2656 
Q 3513 2228 3513 1497 
Q 3513 744 3044 326 
Q 2575 -91 1722 -91 
Q 1428 -91 1123 -41 
Q 819 9 494 109 
L 494 744 
Q 775 591 1075 516 
Q 1375 441 1709 441 
Q 2250 441 2565 725 
Q 2881 1009 2881 1497 
Q 2881 1984 2565 2268 
Q 2250 2553 1709 2553 
Q 1456 2553 1204 2497 
Q 953 2441 691 2322 
L 691 4666 
z
" transform="scale(0.015625)"/>
      </defs>
      <use xlink:href="#DejaVuSans-41f"/>
      <use xlink:href="#DejaVuSans-435" transform="translate(75.195312 0)"/>
      <use xlink:href="#DejaVuSans-440" transform="translate(136.71875 0)"/>
      <use xlink:href="#DejaVuSans-435" transform="translate(200.195312 0)"/>
      <use xlink:href="#DejaVuSans-441" transform="translate(261.71875 0)"/>
      <use xlink:href="#DejaVuSans-435" transform="translate(316.699219 0)"/>
      <use xlink:href="#DejaVuSans-447" transform="translate(378.222656 0)"/>
      <use xlink:href="#DejaVuSans-435" transform="translate(437.304688 0)"/>
      <use xlink:href="#DejaVuSans-43d" transform="translate(498.828125 0)"/>
      <use xlink:href="#DejaVuSans-438" transform="translate(564.208984 0)"/>
      <use xlink:href="#DejaVuSans-435" transform="translate(629.199219 0)"/>
      <use xlink:href="#DejaVuSans-20" transform="translate(690.722656 0)"/>
      <use xlink:href="#DejaVuSans-43f" transform="translate(722.509766 0)"/>
      <use xlink:href="#DejaVuSans-440" transform="translate(787.890625 0)"/>
      <use xlink:href="#DejaVuSans-438" transform="translate(851.367188 0)"/>
      <use xlink:href="#DejaVuSans-20" transform="translate(916.357422 0)"/>
      <use xlink:href="#DejaVuSans-53" transform="translate(948.144531 0)"/>
      <use xlink:href="#DejaVuSans-77" transform="translate(1011.621094 0)"/>
      <use xlink:href="#DejaVuSans-20" transform="translate(1093.408203 0)"/>
      <use xlink:href="#DejaVuSans-3d" transform="translate(1125.195312 0)"/>
      <use xlink:href="#DejaVuSans-20" transform="translate(1208.984375 0)"/>
      <use xlink:href="#DejaVuSans-30" transform="translate(1240.771484 0)"/>
      <use xlink:href="#DejaVuSans-2e" transform="translate(1304.394531 0)"/>
      <use xlink:href="#DejaVuSans-35" transform="translate(1336.181641 0)"/>
      <use xlink:href="#DejaVuSans-35" transform="translate(1399.804688 0)"/>
     </g>
    </g>
   </g>
  </g>
 </g>
 <defs>
  <clipPath id="p3306051ab4">
   <rect x="52.76875" y="28.396875" width="784.195" height="489.88"/>
  </clipPath>
 </defs>
</svg>
