<?xml version="1.0" encoding="utf-8" standalone="no"?>
<!DOCTYPE svg PUBLIC "-//W3C//DTD SVG 1.1//EN"
  "http://www.w3.org/Graphics/SVG/1.1/DTD/svg11.dtd">
<svg xmlns:xlink="http://www.w3.org/1999/xlink" width="847.36375pt" height="852.85625pt" viewBox="0 0 847.36375 852.85625" xmlns="http://www.w3.org/2000/svg" version="1.1">
 <metadata>
  <rdf:RDF xmlns:dc="http://purl.org/dc/elements/1.1/" xmlns:cc="http://creativecommons.org/ns#" xmlns:rdf="http://www.w3.org/1999/02/22-rdf-syntax-ns#">
   <cc:Work>
    <dc:type rdf:resource="http://purl.org/dc/dcmitype/StillImage"/>
    <dc:date>2025-03-16T03:43:57.700443</dc:date>
    <dc:format>image/svg+xml</dc:format>
    <dc:creator>
     <cc:Agent>
      <dc:title>Matplotlib v3.10.1, https://matplotlib.org/</dc:title>
     </cc:Agent>
    </dc:creator>
   </cc:Work>
  </rdf:RDF>
 </metadata>
 <defs>
  <style type="text/css">*{stroke-linejoin: round; stroke-linecap: butt}</style>
 </defs>
 <g id="figure_1">
  <g id="patch_1">
   <path d="M 0 852.85625 
L 847.36375 852.85625 
L 847.36375 0 
L 0 0 
z
" style="fill: #ffffff"/>
  </g>
  <g id="axes_1">
   <g id="patch_2">
    <path d="M 68.52375 262.336731 
L 840.16375 262.336731 
L 840.16375 25.3575 
L 68.52375 25.3575 
z
" style="fill: #ffffff"/>
   </g>
   <g id="FillBetweenPolyCollection_1">
    <path d="M 110.613205 70.875528 
L 110.613205 41.11354 
L 117.628114 38.648859 
L 124.643023 38.855327 
L 131.657932 39.946543 
L 138.672841 41.351484 
L 145.68775 42.839501 
L 152.702659 44.307354 
L 159.717568 45.706339 
L 166.732477 47.012721 
L 173.747386 48.214109 
L 180.762295 49.305219 
L 187.777205 50.265534 
L 194.792114 51.161296 
L 201.807023 51.627027 
L 208.821932 53.081782 
L 215.836841 50.787153 
L 222.85175 58.77436 
L 229.866659 45.486839 
L 229.866659 70.875528 
L 229.866659 70.875528 
L 222.85175 70.875528 
L 215.836841 70.875528 
L 208.821932 70.875528 
L 201.807023 70.875528 
L 194.792114 70.875528 
L 187.777205 70.875528 
L 180.762295 70.875528 
L 173.747386 70.875528 
L 166.732477 70.875528 
L 159.717568 70.875528 
L 152.702659 70.875528 
L 145.68775 70.875528 
L 138.672841 70.875528 
L 131.657932 70.875528 
L 124.643023 70.875528 
L 117.628114 70.875528 
L 110.613205 70.875528 
z
" clip-path="url(#p954fdcc279)" style="fill: #008000; fill-opacity: 0.3; stroke: #008000; stroke-opacity: 0.3"/>
    <path d="M 243.896477 70.875528 
L 243.896477 36.129283 
L 243.896477 70.875528 
L 243.896477 70.875528 
z
" clip-path="url(#p954fdcc279)" style="fill: #008000; fill-opacity: 0.3; stroke: #008000; stroke-opacity: 0.3"/>
    <path d="M 257.926295 70.875528 
L 257.926295 39.403165 
L 257.926295 70.875528 
L 257.926295 70.875528 
z
" clip-path="url(#p954fdcc279)" style="fill: #008000; fill-opacity: 0.3; stroke: #008000; stroke-opacity: 0.3"/>
   </g>
   <g id="FillBetweenPolyCollection_2">
    <path d="M 236.881568 70.875528 
L 236.881568 79.800582 
L 236.881568 70.875528 
L 236.881568 70.875528 
z
" clip-path="url(#p954fdcc279)" style="fill: #ff0000; fill-opacity: 0.3; stroke: #ff0000; stroke-opacity: 0.3"/>
    <path d="M 250.911386 70.875528 
L 250.911386 143.141055 
L 250.911386 70.875528 
L 250.911386 70.875528 
z
" clip-path="url(#p954fdcc279)" style="fill: #ff0000; fill-opacity: 0.3; stroke: #ff0000; stroke-opacity: 0.3"/>
    <path d="M 264.941205 70.875528 
L 264.941205 245.214984 
L 271.956114 117.642736 
L 278.971023 251.564948 
L 285.985932 192.075274 
L 293.000841 79.647356 
L 293.000841 70.875528 
L 293.000841 70.875528 
L 285.985932 70.875528 
L 278.971023 70.875528 
L 271.956114 70.875528 
L 264.941205 70.875528 
z
" clip-path="url(#p954fdcc279)" style="fill: #ff0000; fill-opacity: 0.3; stroke: #ff0000; stroke-opacity: 0.3"/>
   </g>
   <g id="matplotlib.axis_1">
    <g id="xtick_1">
     <g id="line2d_1">
      <path d="M 103.598295 262.336731 
L 103.598295 25.3575 
" clip-path="url(#p954fdcc279)" style="fill: none; stroke-dasharray: 2.96,1.28; stroke-dashoffset: 0; stroke: #b0b0b0; stroke-opacity: 0.7; stroke-width: 0.8"/>
     </g>
     <g id="line2d_2">
      <defs>
       <path id="m6aa431b258" d="M 0 0 
L 0 3.5 
" style="stroke: #000000; stroke-width: 0.8"/>
      </defs>
      <g>
       <use xlink:href="#m6aa431b258" x="103.598295" y="262.336731" style="stroke: #000000; stroke-width: 0.8"/>
      </g>
     </g>
    </g>
    <g id="xtick_2">
     <g id="line2d_3">
      <path d="M 243.896477 262.336731 
L 243.896477 25.3575 
" clip-path="url(#p954fdcc279)" style="fill: none; stroke-dasharray: 2.96,1.28; stroke-dashoffset: 0; stroke: #b0b0b0; stroke-opacity: 0.7; stroke-width: 0.8"/>
     </g>
     <g id="line2d_4">
      <g>
       <use xlink:href="#m6aa431b258" x="243.896477" y="262.336731" style="stroke: #000000; stroke-width: 0.8"/>
      </g>
     </g>
    </g>
    <g id="xtick_3">
     <g id="line2d_5">
      <path d="M 384.194659 262.336731 
L 384.194659 25.3575 
" clip-path="url(#p954fdcc279)" style="fill: none; stroke-dasharray: 2.96,1.28; stroke-dashoffset: 0; stroke: #b0b0b0; stroke-opacity: 0.7; stroke-width: 0.8"/>
     </g>
     <g id="line2d_6">
      <g>
       <use xlink:href="#m6aa431b258" x="384.194659" y="262.336731" style="stroke: #000000; stroke-width: 0.8"/>
      </g>
     </g>
    </g>
    <g id="xtick_4">
     <g id="line2d_7">
      <path d="M 524.492841 262.336731 
L 524.492841 25.3575 
" clip-path="url(#p954fdcc279)" style="fill: none; stroke-dasharray: 2.96,1.28; stroke-dashoffset: 0; stroke: #b0b0b0; stroke-opacity: 0.7; stroke-width: 0.8"/>
     </g>
     <g id="line2d_8">
      <g>
       <use xlink:href="#m6aa431b258" x="524.492841" y="262.336731" style="stroke: #000000; stroke-width: 0.8"/>
      </g>
     </g>
    </g>
    <g id="xtick_5">
     <g id="line2d_9">
      <path d="M 664.791023 262.336731 
L 664.791023 25.3575 
" clip-path="url(#p954fdcc279)" style="fill: none; stroke-dasharray: 2.96,1.28; stroke-dashoffset: 0; stroke: #b0b0b0; stroke-opacity: 0.7; stroke-width: 0.8"/>
     </g>
     <g id="line2d_10">
      <g>
       <use xlink:href="#m6aa431b258" x="664.791023" y="262.336731" style="stroke: #000000; stroke-width: 0.8"/>
      </g>
     </g>
    </g>
    <g id="xtick_6">
     <g id="line2d_11">
      <path d="M 805.089205 262.336731 
L 805.089205 25.3575 
" clip-path="url(#p954fdcc279)" style="fill: none; stroke-dasharray: 2.96,1.28; stroke-dashoffset: 0; stroke: #b0b0b0; stroke-opacity: 0.7; stroke-width: 0.8"/>
     </g>
     <g id="line2d_12">
      <g>
       <use xlink:href="#m6aa431b258" x="805.089205" y="262.336731" style="stroke: #000000; stroke-width: 0.8"/>
      </g>
     </g>
    </g>
   </g>
   <g id="matplotlib.axis_2">
    <g id="ytick_1">
     <g id="line2d_13">
      <path d="M 68.52375 258.983345 
L 840.16375 258.983345 
" clip-path="url(#p954fdcc279)" style="fill: none; stroke-dasharray: 2.96,1.28; stroke-dashoffset: 0; stroke: #b0b0b0; stroke-opacity: 0.7; stroke-width: 0.8"/>
     </g>
     <g id="line2d_14">
      <defs>
       <path id="m271a680842" d="M 0 0 
L -3.5 0 
" style="stroke: #000000; stroke-width: 0.8"/>
      </defs>
      <g>
       <use xlink:href="#m271a680842" x="68.52375" y="258.983345" style="stroke: #000000; stroke-width: 0.8"/>
      </g>
     </g>
     <g id="text_1">
      <!-- −0.25 -->
      <g transform="translate(24.749375 263.542407) scale(0.12 -0.12)">
       <defs>
        <path id="DejaVuSans-2212" d="M 678 2272 
L 4684 2272 
L 4684 1741 
L 678 1741 
L 678 2272 
z
" transform="scale(0.015625)"/>
        <path id="DejaVuSans-30" d="M 2034 4250 
Q 1547 4250 1301 3770 
Q 1056 3291 1056 2328 
Q 1056 1369 1301 889 
Q 1547 409 2034 409 
Q 2525 409 2770 889 
Q 3016 1369 3016 2328 
Q 3016 3291 2770 3770 
Q 2525 4250 2034 4250 
z
M 2034 4750 
Q 2819 4750 3233 4129 
Q 3647 3509 3647 2328 
Q 3647 1150 3233 529 
Q 2819 -91 2034 -91 
Q 1250 -91 836 529 
Q 422 1150 422 2328 
Q 422 3509 836 4129 
Q 1250 4750 2034 4750 
z
" transform="scale(0.015625)"/>
        <path id="DejaVuSans-2e" d="M 684 794 
L 1344 794 
L 1344 0 
L 684 0 
L 684 794 
z
" transform="scale(0.015625)"/>
        <path id="DejaVuSans-32" d="M 1228 531 
L 3431 531 
L 3431 0 
L 469 0 
L 469 531 
Q 828 903 1448 1529 
Q 2069 2156 2228 2338 
Q 2531 2678 2651 2914 
Q 2772 3150 2772 3378 
Q 2772 3750 2511 3984 
Q 2250 4219 1831 4219 
Q 1534 4219 1204 4116 
Q 875 4013 500 3803 
L 500 4441 
Q 881 4594 1212 4672 
Q 1544 4750 1819 4750 
Q 2544 4750 2975 4387 
Q 3406 4025 3406 3419 
Q 3406 3131 3298 2873 
Q 3191 2616 2906 2266 
Q 2828 2175 2409 1742 
Q 1991 1309 1228 531 
z
" transform="scale(0.015625)"/>
        <path id="DejaVuSans-35" d="M 691 4666 
L 3169 4666 
L 3169 4134 
L 1269 4134 
L 1269 2991 
Q 1406 3038 1543 3061 
Q 1681 3084 1819 3084 
Q 2600 3084 3056 2656 
Q 3513 2228 3513 1497 
Q 3513 744 3044 326 
Q 2575 -91 1722 -91 
Q 1428 -91 1123 -41 
Q 819 9 494 109 
L 494 744 
Q 775 591 1075 516 
Q 1375 441 1709 441 
Q 2250 441 2565 725 
Q 2881 1009 2881 1497 
Q 2881 1984 2565 2268 
Q 2250 2553 1709 2553 
Q 1456 2553 1204 2497 
Q 953 2441 691 2322 
L 691 4666 
z
" transform="scale(0.015625)"/>
       </defs>
       <use xlink:href="#DejaVuSans-2212"/>
       <use xlink:href="#DejaVuSans-30" transform="translate(83.789062 0)"/>
       <use xlink:href="#DejaVuSans-2e" transform="translate(147.412109 0)"/>
       <use xlink:href="#DejaVuSans-32" transform="translate(179.199219 0)"/>
       <use xlink:href="#DejaVuSans-35" transform="translate(242.822266 0)"/>
      </g>
     </g>
    </g>
    <g id="ytick_2">
     <g id="line2d_15">
      <path d="M 68.52375 221.361781 
L 840.16375 221.361781 
" clip-path="url(#p954fdcc279)" style="fill: none; stroke-dasharray: 2.96,1.28; stroke-dashoffset: 0; stroke: #b0b0b0; stroke-opacity: 0.7; stroke-width: 0.8"/>
     </g>
     <g id="line2d_16">
      <g>
       <use xlink:href="#m271a680842" x="68.52375" y="221.361781" style="stroke: #000000; stroke-width: 0.8"/>
      </g>
     </g>
     <g id="text_2">
      <!-- −0.20 -->
      <g transform="translate(24.749375 225.920844) scale(0.12 -0.12)">
       <use xlink:href="#DejaVuSans-2212"/>
       <use xlink:href="#DejaVuSans-30" transform="translate(83.789062 0)"/>
       <use xlink:href="#DejaVuSans-2e" transform="translate(147.412109 0)"/>
       <use xlink:href="#DejaVuSans-32" transform="translate(179.199219 0)"/>
       <use xlink:href="#DejaVuSans-30" transform="translate(242.822266 0)"/>
      </g>
     </g>
    </g>
    <g id="ytick_3">
     <g id="line2d_17">
      <path d="M 68.52375 183.740218 
L 840.16375 183.740218 
" clip-path="url(#p954fdcc279)" style="fill: none; stroke-dasharray: 2.96,1.28; stroke-dashoffset: 0; stroke: #b0b0b0; stroke-opacity: 0.7; stroke-width: 0.8"/>
     </g>
     <g id="line2d_18">
      <g>
       <use xlink:href="#m271a680842" x="68.52375" y="183.740218" style="stroke: #000000; stroke-width: 0.8"/>
      </g>
     </g>
     <g id="text_3">
      <!-- −0.15 -->
      <g transform="translate(24.749375 188.299281) scale(0.12 -0.12)">
       <defs>
        <path id="DejaVuSans-31" d="M 794 531 
L 1825 531 
L 1825 4091 
L 703 3866 
L 703 4441 
L 1819 4666 
L 2450 4666 
L 2450 531 
L 3481 531 
L 3481 0 
L 794 0 
L 794 531 
z
" transform="scale(0.015625)"/>
       </defs>
       <use xlink:href="#DejaVuSans-2212"/>
       <use xlink:href="#DejaVuSans-30" transform="translate(83.789062 0)"/>
       <use xlink:href="#DejaVuSans-2e" transform="translate(147.412109 0)"/>
       <use xlink:href="#DejaVuSans-31" transform="translate(179.199219 0)"/>
       <use xlink:href="#DejaVuSans-35" transform="translate(242.822266 0)"/>
      </g>
     </g>
    </g>
    <g id="ytick_4">
     <g id="line2d_19">
      <path d="M 68.52375 146.118655 
L 840.16375 146.118655 
" clip-path="url(#p954fdcc279)" style="fill: none; stroke-dasharray: 2.96,1.28; stroke-dashoffset: 0; stroke: #b0b0b0; stroke-opacity: 0.7; stroke-width: 0.8"/>
     </g>
     <g id="line2d_20">
      <g>
       <use xlink:href="#m271a680842" x="68.52375" y="146.118655" style="stroke: #000000; stroke-width: 0.8"/>
      </g>
     </g>
     <g id="text_4">
      <!-- −0.10 -->
      <g transform="translate(24.749375 150.677717) scale(0.12 -0.12)">
       <use xlink:href="#DejaVuSans-2212"/>
       <use xlink:href="#DejaVuSans-30" transform="translate(83.789062 0)"/>
       <use xlink:href="#DejaVuSans-2e" transform="translate(147.412109 0)"/>
       <use xlink:href="#DejaVuSans-31" transform="translate(179.199219 0)"/>
       <use xlink:href="#DejaVuSans-30" transform="translate(242.822266 0)"/>
      </g>
     </g>
    </g>
    <g id="ytick_5">
     <g id="line2d_21">
      <path d="M 68.52375 108.497092 
L 840.16375 108.497092 
" clip-path="url(#p954fdcc279)" style="fill: none; stroke-dasharray: 2.96,1.28; stroke-dashoffset: 0; stroke: #b0b0b0; stroke-opacity: 0.7; stroke-width: 0.8"/>
     </g>
     <g id="line2d_22">
      <g>
       <use xlink:href="#m271a680842" x="68.52375" y="108.497092" style="stroke: #000000; stroke-width: 0.8"/>
      </g>
     </g>
     <g id="text_5">
      <!-- −0.05 -->
      <g transform="translate(24.749375 113.056154) scale(0.12 -0.12)">
       <use xlink:href="#DejaVuSans-2212"/>
       <use xlink:href="#DejaVuSans-30" transform="translate(83.789062 0)"/>
       <use xlink:href="#DejaVuSans-2e" transform="translate(147.412109 0)"/>
       <use xlink:href="#DejaVuSans-30" transform="translate(179.199219 0)"/>
       <use xlink:href="#DejaVuSans-35" transform="translate(242.822266 0)"/>
      </g>
     </g>
    </g>
    <g id="ytick_6">
     <g id="line2d_23">
      <path d="M 68.52375 70.875528 
L 840.16375 70.875528 
" clip-path="url(#p954fdcc279)" style="fill: none; stroke-dasharray: 2.96,1.28; stroke-dashoffset: 0; stroke: #b0b0b0; stroke-opacity: 0.7; stroke-width: 0.8"/>
     </g>
     <g id="line2d_24">
      <g>
       <use xlink:href="#m271a680842" x="68.52375" y="70.875528" style="stroke: #000000; stroke-width: 0.8"/>
      </g>
     </g>
     <g id="text_6">
      <!-- 0.00 -->
      <g transform="translate(34.805 75.434591) scale(0.12 -0.12)">
       <use xlink:href="#DejaVuSans-30"/>
       <use xlink:href="#DejaVuSans-2e" transform="translate(63.623047 0)"/>
       <use xlink:href="#DejaVuSans-30" transform="translate(95.410156 0)"/>
       <use xlink:href="#DejaVuSans-30" transform="translate(159.033203 0)"/>
      </g>
     </g>
    </g>
    <g id="ytick_7">
     <g id="line2d_25">
      <path d="M 68.52375 33.253965 
L 840.16375 33.253965 
" clip-path="url(#p954fdcc279)" style="fill: none; stroke-dasharray: 2.96,1.28; stroke-dashoffset: 0; stroke: #b0b0b0; stroke-opacity: 0.7; stroke-width: 0.8"/>
     </g>
     <g id="line2d_26">
      <g>
       <use xlink:href="#m271a680842" x="68.52375" y="33.253965" style="stroke: #000000; stroke-width: 0.8"/>
      </g>
     </g>
     <g id="text_7">
      <!-- 0.05 -->
      <g transform="translate(34.805 37.813028) scale(0.12 -0.12)">
       <use xlink:href="#DejaVuSans-30"/>
       <use xlink:href="#DejaVuSans-2e" transform="translate(63.623047 0)"/>
       <use xlink:href="#DejaVuSans-30" transform="translate(95.410156 0)"/>
       <use xlink:href="#DejaVuSans-35" transform="translate(159.033203 0)"/>
      </g>
     </g>
    </g>
    <g id="text_8">
     <!-- Разница Sw, д.ед. -->
     <g transform="translate(17.837813 209.53774) rotate(-90) scale(0.14 -0.14)">
      <defs>
       <path id="DejaVuSans-420" d="M 1259 4147 
L 1259 2394 
L 2053 2394 
Q 2494 2394 2734 2622 
Q 2975 2850 2975 3272 
Q 2975 3691 2734 3919 
Q 2494 4147 2053 4147 
L 1259 4147 
z
M 628 4666 
L 2053 4666 
Q 2838 4666 3239 4311 
Q 3641 3956 3641 3272 
Q 3641 2581 3239 2228 
Q 2838 1875 2053 1875 
L 1259 1875 
L 1259 0 
L 628 0 
L 628 4666 
z
" transform="scale(0.015625)"/>
       <path id="DejaVuSans-430" d="M 2194 1759 
Q 1497 1759 1228 1600 
Q 959 1441 959 1056 
Q 959 750 1161 570 
Q 1363 391 1709 391 
Q 2188 391 2477 730 
Q 2766 1069 2766 1631 
L 2766 1759 
L 2194 1759 
z
M 3341 1997 
L 3341 0 
L 2766 0 
L 2766 531 
Q 2569 213 2275 61 
Q 1981 -91 1556 -91 
Q 1019 -91 701 211 
Q 384 513 384 1019 
Q 384 1609 779 1909 
Q 1175 2209 1959 2209 
L 2766 2209 
L 2766 2266 
Q 2766 2663 2505 2880 
Q 2244 3097 1772 3097 
Q 1472 3097 1187 3025 
Q 903 2953 641 2809 
L 641 3341 
Q 956 3463 1253 3523 
Q 1550 3584 1831 3584 
Q 2591 3584 2966 3190 
Q 3341 2797 3341 1997 
z
" transform="scale(0.015625)"/>
       <path id="DejaVuSans-437" d="M 2206 1888 
Q 2594 1813 2809 1584 
Q 3025 1356 3025 1019 
Q 3025 478 2622 193 
Q 2219 -91 1475 -91 
Q 1225 -91 961 -47 
Q 697 -3 416 84 
L 416 619 
Q 638 503 903 445 
Q 1169 388 1459 388 
Q 1931 388 2195 563 
Q 2459 738 2459 1019 
Q 2459 1294 2225 1461 
Q 1991 1628 1563 1628 
L 1100 1628 
L 1100 2103 
L 1584 2103 
Q 1947 2103 2158 2242 
Q 2369 2381 2369 2600 
Q 2369 2800 2151 2944 
Q 1934 3088 1563 3088 
Q 1341 3088 1089 3047 
Q 838 3006 534 2916 
L 534 3438 
Q 841 3513 1106 3550 
Q 1372 3588 1609 3588 
Q 2222 3588 2576 3342 
Q 2931 3097 2931 2656 
Q 2931 2366 2743 2164 
Q 2556 1963 2206 1888 
z
" transform="scale(0.015625)"/>
       <path id="DejaVuSans-43d" d="M 581 3500 
L 1159 3500 
L 1159 2072 
L 3025 2072 
L 3025 3500 
L 3603 3500 
L 3603 0 
L 3025 0 
L 3025 1613 
L 1159 1613 
L 1159 0 
L 581 0 
L 581 3500 
z
" transform="scale(0.015625)"/>
       <path id="DejaVuSans-438" d="M 3578 3500 
L 3578 0 
L 3006 0 
L 3006 2809 
L 1319 0 
L 581 0 
L 581 3500 
L 1153 3500 
L 1153 697 
L 2838 3500 
L 3578 3500 
z
" transform="scale(0.015625)"/>
       <path id="DejaVuSans-446" d="M 3603 0 
L 581 0 
L 581 3500 
L 1159 3500 
L 1159 459 
L 3025 459 
L 3025 3500 
L 3603 3500 
L 3603 459 
L 4063 459 
L 4063 -884 
L 3603 -884 
L 3603 0 
z
" transform="scale(0.015625)"/>
       <path id="DejaVuSans-20" transform="scale(0.015625)"/>
       <path id="DejaVuSans-53" d="M 3425 4513 
L 3425 3897 
Q 3066 4069 2747 4153 
Q 2428 4238 2131 4238 
Q 1616 4238 1336 4038 
Q 1056 3838 1056 3469 
Q 1056 3159 1242 3001 
Q 1428 2844 1947 2747 
L 2328 2669 
Q 3034 2534 3370 2195 
Q 3706 1856 3706 1288 
Q 3706 609 3251 259 
Q 2797 -91 1919 -91 
Q 1588 -91 1214 -16 
Q 841 59 441 206 
L 441 856 
Q 825 641 1194 531 
Q 1563 422 1919 422 
Q 2459 422 2753 634 
Q 3047 847 3047 1241 
Q 3047 1584 2836 1778 
Q 2625 1972 2144 2069 
L 1759 2144 
Q 1053 2284 737 2584 
Q 422 2884 422 3419 
Q 422 4038 858 4394 
Q 1294 4750 2059 4750 
Q 2388 4750 2728 4690 
Q 3069 4631 3425 4513 
z
" transform="scale(0.015625)"/>
       <path id="DejaVuSans-77" d="M 269 3500 
L 844 3500 
L 1563 769 
L 2278 3500 
L 2956 3500 
L 3675 769 
L 4391 3500 
L 4966 3500 
L 4050 0 
L 3372 0 
L 2619 2869 
L 1863 0 
L 1184 0 
L 269 3500 
z
" transform="scale(0.015625)"/>
       <path id="DejaVuSans-2c" d="M 750 794 
L 1409 794 
L 1409 256 
L 897 -744 
L 494 -744 
L 750 256 
L 750 794 
z
" transform="scale(0.015625)"/>
       <path id="DejaVuSans-434" d="M 1384 459 
L 3053 459 
L 3053 3041 
L 1844 3041 
L 1844 2603 
Q 1844 1316 1475 628 
L 1384 459 
z
M 550 459 
Q 834 584 959 850 
Q 1266 1509 1266 2838 
L 1266 3500 
L 3631 3500 
L 3631 459 
L 4091 459 
L 4091 -884 
L 3631 -884 
L 3631 0 
L 794 0 
L 794 -884 
L 334 -884 
L 334 459 
L 550 459 
z
" transform="scale(0.015625)"/>
       <path id="DejaVuSans-435" d="M 3597 1894 
L 3597 1613 
L 953 1613 
Q 991 1019 1311 708 
Q 1631 397 2203 397 
Q 2534 397 2845 478 
Q 3156 559 3463 722 
L 3463 178 
Q 3153 47 2828 -22 
Q 2503 -91 2169 -91 
Q 1331 -91 842 396 
Q 353 884 353 1716 
Q 353 2575 817 3079 
Q 1281 3584 2069 3584 
Q 2775 3584 3186 3129 
Q 3597 2675 3597 1894 
z
M 3022 2063 
Q 3016 2534 2758 2815 
Q 2500 3097 2075 3097 
Q 1594 3097 1305 2825 
Q 1016 2553 972 2059 
L 3022 2063 
z
" transform="scale(0.015625)"/>
      </defs>
      <use xlink:href="#DejaVuSans-420"/>
      <use xlink:href="#DejaVuSans-430" transform="translate(60.302734 0)"/>
      <use xlink:href="#DejaVuSans-437" transform="translate(121.582031 0)"/>
      <use xlink:href="#DejaVuSans-43d" transform="translate(174.755859 0)"/>
      <use xlink:href="#DejaVuSans-438" transform="translate(240.136719 0)"/>
      <use xlink:href="#DejaVuSans-446" transform="translate(305.126953 0)"/>
      <use xlink:href="#DejaVuSans-430" transform="translate(373.193359 0)"/>
      <use xlink:href="#DejaVuSans-20" transform="translate(434.472656 0)"/>
      <use xlink:href="#DejaVuSans-53" transform="translate(466.259766 0)"/>
      <use xlink:href="#DejaVuSans-77" transform="translate(529.736328 0)"/>
      <use xlink:href="#DejaVuSans-2c" transform="translate(611.523438 0)"/>
      <use xlink:href="#DejaVuSans-20" transform="translate(643.310547 0)"/>
      <use xlink:href="#DejaVuSans-434" transform="translate(675.097656 0)"/>
      <use xlink:href="#DejaVuSans-2e" transform="translate(744.238281 0)"/>
      <use xlink:href="#DejaVuSans-435" transform="translate(776.025391 0)"/>
      <use xlink:href="#DejaVuSans-434" transform="translate(837.548828 0)"/>
      <use xlink:href="#DejaVuSans-2e" transform="translate(906.689453 0)"/>
     </g>
    </g>
   </g>
   <g id="line2d_27">
    <path d="M 103.598295 70.875528 
L 110.613205 41.11354 
L 117.628114 38.648859 
L 124.643023 38.855327 
L 131.657932 39.946543 
L 138.672841 41.351484 
L 145.68775 42.839501 
L 152.702659 44.307354 
L 159.717568 45.706339 
L 166.732477 47.012721 
L 173.747386 48.214109 
L 180.762295 49.305219 
L 187.777205 50.265534 
L 194.792114 51.161296 
L 201.807023 51.627027 
L 208.821932 53.081782 
L 215.836841 50.787153 
L 222.85175 58.77436 
L 229.866659 45.486839 
L 236.881568 79.800582 
L 243.896477 36.129283 
L 250.911386 143.141055 
L 257.926295 39.403165 
L 264.941205 245.214984 
L 271.956114 117.642736 
L 278.971023 251.564948 
L 285.985932 192.075274 
L 293.000841 79.647356 
L 300.01575 70.875708 
L 307.030659 70.875528 
L 314.045568 70.875528 
L 321.060477 70.875528 
L 328.075386 70.875528 
L 335.090295 70.875528 
L 342.105205 70.875528 
L 349.120114 70.875528 
L 356.135023 70.875528 
L 363.149932 70.875528 
L 370.164841 70.875528 
L 377.17975 70.875528 
L 384.194659 70.875528 
L 391.209568 70.875528 
L 398.224477 70.875528 
L 405.239386 70.875528 
L 412.254295 70.875528 
L 419.269205 70.875528 
L 426.284114 70.875528 
L 433.299023 70.875528 
L 440.313932 70.875528 
L 447.328841 70.875528 
L 454.34375 70.875528 
L 461.358659 70.875528 
L 468.373568 70.875528 
L 475.388477 70.875528 
L 482.403386 70.875528 
L 489.418295 70.875528 
L 496.433205 70.875528 
L 503.448114 70.875528 
L 510.463023 70.875528 
L 517.477932 70.875528 
L 524.492841 70.875528 
L 531.50775 70.875528 
L 538.522659 70.875528 
L 545.537568 70.875528 
L 552.552477 70.875528 
L 559.567386 70.875528 
L 566.582295 70.875528 
L 573.597205 70.875528 
L 580.612114 70.875528 
L 587.627023 70.875528 
L 594.641932 70.875528 
L 601.656841 70.875528 
L 608.67175 70.875528 
L 615.686659 70.875528 
L 622.701568 70.875528 
L 629.716477 70.875528 
L 636.731386 70.875528 
L 643.746295 70.875528 
L 650.761205 70.875528 
L 657.776114 70.875528 
L 664.791023 70.875528 
L 671.805932 70.875528 
L 678.820841 70.875528 
L 685.83575 70.875528 
L 692.850659 70.875528 
L 699.865568 70.875528 
L 706.880477 70.875528 
L 713.895386 70.875528 
L 720.910295 70.875528 
L 727.925205 70.875528 
L 734.940114 70.875528 
L 741.955023 70.875528 
L 748.969932 70.875528 
L 755.984841 70.875528 
L 762.99975 70.875528 
L 770.014659 70.875528 
L 777.029568 70.875528 
L 784.044477 70.875528 
L 791.059386 70.875528 
L 798.074295 70.875528 
L 805.089205 70.875528 
" clip-path="url(#p954fdcc279)" style="fill: none; stroke: #800080; stroke-width: 3; stroke-linecap: square"/>
   </g>
   <g id="line2d_28">
    <path d="M 68.52375 70.875528 
L 840.16375 70.875528 
" clip-path="url(#p954fdcc279)" style="fill: none; stroke-dasharray: 5.55,2.4; stroke-dashoffset: 0; stroke: #000000; stroke-opacity: 0.7; stroke-width: 1.5"/>
   </g>
   <g id="patch_3">
    <path d="M 68.52375 262.336731 
L 68.52375 25.3575 
" style="fill: none; stroke: #000000; stroke-width: 0.8; stroke-linejoin: miter; stroke-linecap: square"/>
   </g>
   <g id="patch_4">
    <path d="M 840.16375 262.336731 
L 840.16375 25.3575 
" style="fill: none; stroke: #000000; stroke-width: 0.8; stroke-linejoin: miter; stroke-linecap: square"/>
   </g>
   <g id="patch_5">
    <path d="M 68.52375 262.336731 
L 840.16375 262.336731 
" style="fill: none; stroke: #000000; stroke-width: 0.8; stroke-linejoin: miter; stroke-linecap: square"/>
   </g>
   <g id="patch_6">
    <path d="M 68.52375 25.3575 
L 840.16375 25.3575 
" style="fill: none; stroke: #000000; stroke-width: 0.8; stroke-linejoin: miter; stroke-linecap: square"/>
   </g>
   <g id="text_9">
    <!-- Разница в насыщенности (с кап. - без кап.), день 10 -->
    <g transform="translate(233.29875 19.3575) scale(0.16 -0.16)">
     <defs>
      <path id="DejaVuSans-432" d="M 1156 1613 
L 1156 459 
L 1975 459 
Q 2369 459 2575 607 
Q 2781 756 2781 1038 
Q 2781 1319 2575 1466 
Q 2369 1613 1975 1613 
L 1156 1613 
z
M 1156 3041 
L 1156 2072 
L 1913 2072 
Q 2238 2072 2444 2201 
Q 2650 2331 2650 2563 
Q 2650 2794 2444 2917 
Q 2238 3041 1913 3041 
L 1156 3041 
z
M 581 3500 
L 1950 3500 
Q 2566 3500 2897 3275 
Q 3228 3050 3228 2634 
Q 3228 2313 3059 2123 
Q 2891 1934 2559 1888 
Q 2956 1813 3175 1575 
Q 3394 1338 3394 981 
Q 3394 513 3033 256 
Q 2672 0 2003 0 
L 581 0 
L 581 3500 
z
" transform="scale(0.015625)"/>
      <path id="DejaVuSans-441" d="M 3122 3366 
L 3122 2828 
Q 2878 2963 2633 3030 
Q 2388 3097 2138 3097 
Q 1578 3097 1268 2742 
Q 959 2388 959 1747 
Q 959 1106 1268 751 
Q 1578 397 2138 397 
Q 2388 397 2633 464 
Q 2878 531 3122 666 
L 3122 134 
Q 2881 22 2623 -34 
Q 2366 -91 2075 -91 
Q 1284 -91 818 406 
Q 353 903 353 1747 
Q 353 2603 823 3093 
Q 1294 3584 2113 3584 
Q 2378 3584 2631 3529 
Q 2884 3475 3122 3366 
z
" transform="scale(0.015625)"/>
      <path id="DejaVuSans-44b" d="M 3907 3500 
L 4482 3500 
L 4482 0 
L 3907 0 
L 3907 3500 
z
M 4195 3584 
L 4195 3584 
z
M 2781 1038 
Q 2781 1319 2576 1466 
Q 2372 1613 1978 1613 
L 1159 1613 
L 1159 459 
L 1978 459 
Q 2372 459 2576 607 
Q 2781 756 2781 1038 
z
M 581 3500 
L 1159 3500 
L 1159 2072 
L 2003 2072 
Q 2672 2072 3033 1817 
Q 3394 1563 3394 1038 
Q 3394 513 3033 256 
Q 2672 0 2003 0 
L 581 0 
L 581 3500 
z
" transform="scale(0.015625)"/>
      <path id="DejaVuSans-449" d="M 5275 0 
L 581 0 
L 581 3500 
L 1159 3500 
L 1159 459 
L 2638 459 
L 2638 3500 
L 3216 3500 
L 3216 459 
L 4697 459 
L 4697 3500 
L 5275 3500 
L 5275 459 
L 5734 459 
L 5734 -884 
L 5275 -884 
L 5275 0 
z
" transform="scale(0.015625)"/>
      <path id="DejaVuSans-43e" d="M 1959 3097 
Q 1497 3097 1228 2736 
Q 959 2375 959 1747 
Q 959 1119 1226 758 
Q 1494 397 1959 397 
Q 2419 397 2687 759 
Q 2956 1122 2956 1747 
Q 2956 2369 2687 2733 
Q 2419 3097 1959 3097 
z
M 1959 3584 
Q 2709 3584 3137 3096 
Q 3566 2609 3566 1747 
Q 3566 888 3137 398 
Q 2709 -91 1959 -91 
Q 1206 -91 779 398 
Q 353 888 353 1747 
Q 353 2609 779 3096 
Q 1206 3584 1959 3584 
z
" transform="scale(0.015625)"/>
      <path id="DejaVuSans-442" d="M 188 3500 
L 3541 3500 
L 3541 3041 
L 2147 3041 
L 2147 0 
L 1581 0 
L 1581 3041 
L 188 3041 
L 188 3500 
z
" transform="scale(0.015625)"/>
      <path id="DejaVuSans-28" d="M 1984 4856 
Q 1566 4138 1362 3434 
Q 1159 2731 1159 2009 
Q 1159 1288 1364 580 
Q 1569 -128 1984 -844 
L 1484 -844 
Q 1016 -109 783 600 
Q 550 1309 550 2009 
Q 550 2706 781 3412 
Q 1013 4119 1484 4856 
L 1984 4856 
z
" transform="scale(0.015625)"/>
      <path id="DejaVuSans-43a" d="M 581 3500 
L 1153 3500 
L 1153 1856 
L 2775 3500 
L 3481 3500 
L 2144 2147 
L 3653 0 
L 3009 0 
L 1769 1766 
L 1153 1141 
L 1153 0 
L 581 0 
L 581 3500 
z
" transform="scale(0.015625)"/>
      <path id="DejaVuSans-43f" d="M 3603 3500 
L 3603 0 
L 3025 0 
L 3025 3041 
L 1159 3041 
L 1159 0 
L 581 0 
L 581 3500 
L 3603 3500 
z
" transform="scale(0.015625)"/>
      <path id="DejaVuSans-2d" d="M 313 2009 
L 1997 2009 
L 1997 1497 
L 313 1497 
L 313 2009 
z
" transform="scale(0.015625)"/>
      <path id="DejaVuSans-431" d="M 1991 3584 
Q 2741 3584 3169 3096 
Q 3597 2609 3597 1747 
Q 3597 888 3169 398 
Q 2741 -91 1991 -91 
Q 1238 -91 822 384 
Q 406 859 384 1747 
L 366 2463 
Q 350 2834 350 2963 
Q 350 3463 531 3831 
Q 816 4409 1308 4659 
Q 1800 4909 2625 4916 
Q 3006 4919 3175 4972 
L 3334 4516 
Q 3181 4453 3041 4450 
L 2259 4397 
Q 1866 4369 1628 4231 
Q 1006 3866 947 3388 
L 925 3213 
Q 1331 3584 1991 3584 
z
M 1991 3097 
Q 1528 3097 1259 2736 
Q 991 2375 991 1747 
Q 991 1119 1258 758 
Q 1525 397 1991 397 
Q 2450 397 2719 759 
Q 2988 1122 2988 1747 
Q 2988 2369 2719 2733 
Q 2450 3097 1991 3097 
z
" transform="scale(0.015625)"/>
      <path id="DejaVuSans-29" d="M 513 4856 
L 1013 4856 
Q 1481 4119 1714 3412 
Q 1947 2706 1947 2009 
Q 1947 1309 1714 600 
Q 1481 -109 1013 -844 
L 513 -844 
Q 928 -128 1133 580 
Q 1338 1288 1338 2009 
Q 1338 2731 1133 3434 
Q 928 4138 513 4856 
z
" transform="scale(0.015625)"/>
      <path id="DejaVuSans-44c" d="M 2781 1038 
Q 2781 1319 2576 1466 
Q 2372 1613 1978 1613 
L 1159 1613 
L 1159 459 
L 1978 459 
Q 2372 459 2576 607 
Q 2781 756 2781 1038 
z
M 581 3500 
L 1159 3500 
L 1159 2072 
L 2003 2072 
Q 2672 2072 3033 1817 
Q 3394 1563 3394 1038 
Q 3394 513 3033 256 
Q 2672 0 2003 0 
L 581 0 
L 581 3500 
z
" transform="scale(0.015625)"/>
     </defs>
     <use xlink:href="#DejaVuSans-420"/>
     <use xlink:href="#DejaVuSans-430" transform="translate(60.302734 0)"/>
     <use xlink:href="#DejaVuSans-437" transform="translate(121.582031 0)"/>
     <use xlink:href="#DejaVuSans-43d" transform="translate(174.755859 0)"/>
     <use xlink:href="#DejaVuSans-438" transform="translate(240.136719 0)"/>
     <use xlink:href="#DejaVuSans-446" transform="translate(305.126953 0)"/>
     <use xlink:href="#DejaVuSans-430" transform="translate(373.193359 0)"/>
     <use xlink:href="#DejaVuSans-20" transform="translate(434.472656 0)"/>
     <use xlink:href="#DejaVuSans-432" transform="translate(466.259766 0)"/>
     <use xlink:href="#DejaVuSans-20" transform="translate(525.195312 0)"/>
     <use xlink:href="#DejaVuSans-43d" transform="translate(556.982422 0)"/>
     <use xlink:href="#DejaVuSans-430" transform="translate(622.363281 0)"/>
     <use xlink:href="#DejaVuSans-441" transform="translate(683.642578 0)"/>
     <use xlink:href="#DejaVuSans-44b" transform="translate(738.623047 0)"/>
     <use xlink:href="#DejaVuSans-449" transform="translate(817.578125 0)"/>
     <use xlink:href="#DejaVuSans-435" transform="translate(911.767578 0)"/>
     <use xlink:href="#DejaVuSans-43d" transform="translate(973.291016 0)"/>
     <use xlink:href="#DejaVuSans-43d" transform="translate(1038.671875 0)"/>
     <use xlink:href="#DejaVuSans-43e" transform="translate(1104.052734 0)"/>
     <use xlink:href="#DejaVuSans-441" transform="translate(1165.234375 0)"/>
     <use xlink:href="#DejaVuSans-442" transform="translate(1220.214844 0)"/>
     <use xlink:href="#DejaVuSans-438" transform="translate(1278.466797 0)"/>
     <use xlink:href="#DejaVuSans-20" transform="translate(1343.457031 0)"/>
     <use xlink:href="#DejaVuSans-28" transform="translate(1375.244141 0)"/>
     <use xlink:href="#DejaVuSans-441" transform="translate(1414.257812 0)"/>
     <use xlink:href="#DejaVuSans-20" transform="translate(1469.238281 0)"/>
     <use xlink:href="#DejaVuSans-43a" transform="translate(1501.025391 0)"/>
     <use xlink:href="#DejaVuSans-430" transform="translate(1561.425781 0)"/>
     <use xlink:href="#DejaVuSans-43f" transform="translate(1622.705078 0)"/>
     <use xlink:href="#DejaVuSans-2e" transform="translate(1688.085938 0)"/>
     <use xlink:href="#DejaVuSans-20" transform="translate(1719.873047 0)"/>
     <use xlink:href="#DejaVuSans-2d" transform="translate(1751.660156 0)"/>
     <use xlink:href="#DejaVuSans-20" transform="translate(1787.744141 0)"/>
     <use xlink:href="#DejaVuSans-431" transform="translate(1819.53125 0)"/>
     <use xlink:href="#DejaVuSans-435" transform="translate(1881.201172 0)"/>
     <use xlink:href="#DejaVuSans-437" transform="translate(1942.724609 0)"/>
     <use xlink:href="#DejaVuSans-20" transform="translate(1995.898438 0)"/>
     <use xlink:href="#DejaVuSans-43a" transform="translate(2027.685547 0)"/>
     <use xlink:href="#DejaVuSans-430" transform="translate(2088.085938 0)"/>
     <use xlink:href="#DejaVuSans-43f" transform="translate(2149.365234 0)"/>
     <use xlink:href="#DejaVuSans-2e" transform="translate(2214.746094 0)"/>
     <use xlink:href="#DejaVuSans-29" transform="translate(2246.533203 0)"/>
     <use xlink:href="#DejaVuSans-2c" transform="translate(2285.546875 0)"/>
     <use xlink:href="#DejaVuSans-20" transform="translate(2317.333984 0)"/>
     <use xlink:href="#DejaVuSans-434" transform="translate(2349.121094 0)"/>
     <use xlink:href="#DejaVuSans-435" transform="translate(2418.261719 0)"/>
     <use xlink:href="#DejaVuSans-43d" transform="translate(2479.785156 0)"/>
     <use xlink:href="#DejaVuSans-44c" transform="translate(2545.166016 0)"/>
     <use xlink:href="#DejaVuSans-20" transform="translate(2604.101562 0)"/>
     <use xlink:href="#DejaVuSans-31" transform="translate(2635.888672 0)"/>
     <use xlink:href="#DejaVuSans-30" transform="translate(2699.511719 0)"/>
    </g>
   </g>
   <g id="legend_1">
    <g id="patch_7">
     <path d="M 580.196875 70.185 
L 831.76375 70.185 
Q 834.16375 70.185 834.16375 67.785 
L 834.16375 33.7575 
Q 834.16375 31.3575 831.76375 31.3575 
L 580.196875 31.3575 
Q 577.796875 31.3575 577.796875 33.7575 
L 577.796875 67.785 
Q 577.796875 70.185 580.196875 70.185 
z
" style="fill: #ffffff; opacity: 0.8; stroke: #cccccc; stroke-linejoin: miter"/>
    </g>
    <g id="patch_8">
     <path d="M 582.596875 45.275625 
L 606.596875 45.275625 
L 606.596875 36.875625 
L 582.596875 36.875625 
z
" style="fill: #008000; fill-opacity: 0.3; stroke: #008000; stroke-opacity: 0.3; stroke-linejoin: miter"/>
    </g>
    <g id="text_10">
     <!-- Зона повышенной насыщенности -->
     <g transform="translate(616.196875 45.275625) scale(0.12 -0.12)">
      <defs>
       <path id="DejaVuSans-417" d="M 1828 4750 
Q 2597 4750 3084 4423 
Q 3572 4097 3572 3541 
Q 3572 3153 3350 2886 
Q 3128 2619 2719 2516 
Q 3172 2419 3426 2112 
Q 3681 1806 3681 1356 
Q 3681 638 3126 273 
Q 2572 -91 1828 -91 
Q 1447 -91 1003 12 
Q 559 116 422 203 
L 422 853 
Q 900 575 1164 508 
Q 1428 441 1816 441 
Q 2403 441 2728 666 
Q 3053 891 3053 1356 
Q 3053 1769 2764 2001 
Q 2475 2234 1866 2234 
L 1228 2234 
L 1228 2753 
L 1891 2753 
Q 2450 2753 2697 2939 
Q 2944 3125 2944 3475 
Q 2944 3834 2689 4026 
Q 2434 4219 1816 4219 
Q 1397 4219 1253 4181 
Q 1109 4144 469 3903 
L 469 4519 
Q 822 4644 1190 4697 
Q 1559 4750 1828 4750 
z
" transform="scale(0.015625)"/>
       <path id="DejaVuSans-448" d="M 3216 459 
L 4697 459 
L 4697 3500 
L 5275 3500 
L 5275 0 
L 581 0 
L 581 3500 
L 1159 3500 
L 1159 459 
L 2638 459 
L 2638 3500 
L 3216 3500 
L 3216 459 
z
" transform="scale(0.015625)"/>
       <path id="DejaVuSans-439" d="M 3578 3500 
L 3578 0 
L 3006 0 
L 3006 2809 
L 1319 0 
L 581 0 
L 581 3500 
L 1153 3500 
L 1153 697 
L 2838 3500 
L 3578 3500 
z
M 1102 4833 
L 1471 4833 
Q 1505 4599 1656 4481 
Q 1808 4364 2080 4364 
Q 2349 4364 2499 4480 
Q 2649 4596 2689 4833 
L 3058 4833 
Q 3027 4386 2780 4161 
Q 2533 3936 2080 3936 
Q 1627 3936 1380 4161 
Q 1133 4386 1102 4833 
z
" transform="scale(0.015625)"/>
      </defs>
      <use xlink:href="#DejaVuSans-417"/>
      <use xlink:href="#DejaVuSans-43e" transform="translate(64.111328 0)"/>
      <use xlink:href="#DejaVuSans-43d" transform="translate(125.292969 0)"/>
      <use xlink:href="#DejaVuSans-430" transform="translate(190.673828 0)"/>
      <use xlink:href="#DejaVuSans-20" transform="translate(251.953125 0)"/>
      <use xlink:href="#DejaVuSans-43f" transform="translate(283.740234 0)"/>
      <use xlink:href="#DejaVuSans-43e" transform="translate(349.121094 0)"/>
      <use xlink:href="#DejaVuSans-432" transform="translate(410.302734 0)"/>
      <use xlink:href="#DejaVuSans-44b" transform="translate(469.238281 0)"/>
      <use xlink:href="#DejaVuSans-448" transform="translate(548.193359 0)"/>
      <use xlink:href="#DejaVuSans-435" transform="translate(639.697266 0)"/>
      <use xlink:href="#DejaVuSans-43d" transform="translate(701.220703 0)"/>
      <use xlink:href="#DejaVuSans-43d" transform="translate(766.601562 0)"/>
      <use xlink:href="#DejaVuSans-43e" transform="translate(831.982422 0)"/>
      <use xlink:href="#DejaVuSans-439" transform="translate(893.164062 0)"/>
      <use xlink:href="#DejaVuSans-20" transform="translate(958.154297 0)"/>
      <use xlink:href="#DejaVuSans-43d" transform="translate(989.941406 0)"/>
      <use xlink:href="#DejaVuSans-430" transform="translate(1055.322266 0)"/>
      <use xlink:href="#DejaVuSans-441" transform="translate(1116.601562 0)"/>
      <use xlink:href="#DejaVuSans-44b" transform="translate(1171.582031 0)"/>
      <use xlink:href="#DejaVuSans-449" transform="translate(1250.537109 0)"/>
      <use xlink:href="#DejaVuSans-435" transform="translate(1344.726562 0)"/>
      <use xlink:href="#DejaVuSans-43d" transform="translate(1406.25 0)"/>
      <use xlink:href="#DejaVuSans-43d" transform="translate(1471.630859 0)"/>
      <use xlink:href="#DejaVuSans-43e" transform="translate(1537.011719 0)"/>
      <use xlink:href="#DejaVuSans-441" transform="translate(1598.193359 0)"/>
      <use xlink:href="#DejaVuSans-442" transform="translate(1653.173828 0)"/>
      <use xlink:href="#DejaVuSans-438" transform="translate(1711.425781 0)"/>
     </g>
    </g>
    <g id="patch_9">
     <path d="M 582.596875 62.889375 
L 606.596875 62.889375 
L 606.596875 54.489375 
L 582.596875 54.489375 
z
" style="fill: #ff0000; fill-opacity: 0.3; stroke: #ff0000; stroke-opacity: 0.3; stroke-linejoin: miter"/>
    </g>
    <g id="text_11">
     <!-- Зона пониженной насыщенности -->
     <g transform="translate(616.196875 62.889375) scale(0.12 -0.12)">
      <defs>
       <path id="DejaVuSans-436" d="M 2597 3500 
L 3169 3500 
L 3169 1856 
L 4697 3500 
L 5366 3500 
L 4109 2153 
L 5547 0 
L 4931 0 
L 3753 1769 
L 3169 1141 
L 3169 0 
L 2597 0 
L 2597 1141 
L 2013 1769 
L 834 0 
L 219 0 
L 1656 2153 
L 400 3500 
L 1069 3500 
L 2597 1856 
L 2597 3500 
z
" transform="scale(0.015625)"/>
      </defs>
      <use xlink:href="#DejaVuSans-417"/>
      <use xlink:href="#DejaVuSans-43e" transform="translate(64.111328 0)"/>
      <use xlink:href="#DejaVuSans-43d" transform="translate(125.292969 0)"/>
      <use xlink:href="#DejaVuSans-430" transform="translate(190.673828 0)"/>
      <use xlink:href="#DejaVuSans-20" transform="translate(251.953125 0)"/>
      <use xlink:href="#DejaVuSans-43f" transform="translate(283.740234 0)"/>
      <use xlink:href="#DejaVuSans-43e" transform="translate(349.121094 0)"/>
      <use xlink:href="#DejaVuSans-43d" transform="translate(410.302734 0)"/>
      <use xlink:href="#DejaVuSans-438" transform="translate(475.683594 0)"/>
      <use xlink:href="#DejaVuSans-436" transform="translate(540.673828 0)"/>
      <use xlink:href="#DejaVuSans-435" transform="translate(630.761719 0)"/>
      <use xlink:href="#DejaVuSans-43d" transform="translate(692.285156 0)"/>
      <use xlink:href="#DejaVuSans-43d" transform="translate(757.666016 0)"/>
      <use xlink:href="#DejaVuSans-43e" transform="translate(823.046875 0)"/>
      <use xlink:href="#DejaVuSans-439" transform="translate(884.228516 0)"/>
      <use xlink:href="#DejaVuSans-20" transform="translate(949.21875 0)"/>
      <use xlink:href="#DejaVuSans-43d" transform="translate(981.005859 0)"/>
      <use xlink:href="#DejaVuSans-430" transform="translate(1046.386719 0)"/>
      <use xlink:href="#DejaVuSans-441" transform="translate(1107.666016 0)"/>
      <use xlink:href="#DejaVuSans-44b" transform="translate(1162.646484 0)"/>
      <use xlink:href="#DejaVuSans-449" transform="translate(1241.601562 0)"/>
      <use xlink:href="#DejaVuSans-435" transform="translate(1335.791016 0)"/>
      <use xlink:href="#DejaVuSans-43d" transform="translate(1397.314453 0)"/>
      <use xlink:href="#DejaVuSans-43d" transform="translate(1462.695312 0)"/>
      <use xlink:href="#DejaVuSans-43e" transform="translate(1528.076172 0)"/>
      <use xlink:href="#DejaVuSans-441" transform="translate(1589.257812 0)"/>
      <use xlink:href="#DejaVuSans-442" transform="translate(1644.238281 0)"/>
      <use xlink:href="#DejaVuSans-438" transform="translate(1702.490234 0)"/>
     </g>
    </g>
   </g>
  </g>
  <g id="axes_2">
   <g id="patch_10">
    <path d="M 68.52375 534.947115 
L 840.16375 534.947115 
L 840.16375 297.967885 
L 68.52375 297.967885 
z
" style="fill: #ffffff"/>
   </g>
   <g id="FillBetweenPolyCollection_3">
    <defs>
     <path id="m030b606182" d="M 110.613205 -328.680918 
L 110.613205 -463.47663 
L 117.628114 -495.481741 
L 124.643023 -514.068988 
L 131.657932 -525.918843 
L 138.672841 -533.651994 
L 145.68775 -538.644407 
L 152.702659 -541.723076 
L 159.717568 -543.424968 
L 166.732477 -544.116582 
L 173.747386 -544.056983 
L 180.762295 -543.43412 
L 187.777205 -542.387121 
L 194.792114 -541.020629 
L 201.807023 -539.414378 
L 208.821932 -537.629765 
L 215.836841 -535.714478 
L 222.85175 -533.705812 
L 229.866659 -531.633102 
L 236.881568 -529.519511 
L 243.896477 -527.383384 
L 250.911386 -525.23927 
L 257.926295 -523.098706 
L 264.941205 -520.970826 
L 271.956114 -518.862836 
L 278.971023 -516.780383 
L 285.985932 -514.727855 
L 293.000841 -512.708616 
L 300.01575 -510.72519 
L 307.030659 -508.779419 
L 314.045568 -506.872586 
L 321.060477 -505.005511 
L 328.075386 -503.178643 
L 335.090295 -501.392118 
L 342.105205 -499.645825 
L 349.120114 -497.939448 
L 356.135023 -496.272509 
L 363.149932 -494.644397 
L 370.164841 -493.054405 
L 377.17975 -491.501744 
L 384.194659 -489.985575 
L 391.209568 -488.505018 
L 398.224477 -487.059175 
L 405.239386 -485.64714 
L 412.254295 -484.268014 
L 419.269205 -482.920912 
L 426.284114 -481.60498 
L 433.299023 -480.319396 
L 440.313932 -479.063386 
L 447.328841 -477.836224 
L 454.34375 -476.637246 
L 461.358659 -475.465849 
L 468.373568 -474.321504 
L 475.388477 -473.203757 
L 482.403386 -472.112238 
L 489.418295 -471.046661 
L 496.433205 -470.006835 
L 503.448114 -468.992665 
L 510.463023 -468.004155 
L 517.477932 -467.041416 
L 524.492841 -466.104665 
L 531.50775 -465.194227 
L 538.522659 -464.310535 
L 545.537568 -463.454125 
L 552.552477 -462.625632 
L 559.567386 -461.825775 
L 566.582295 -461.055346 
L 573.597205 -460.315183 
L 580.612114 -459.60615 
L 587.627023 -458.929095 
L 594.641932 -458.284847 
L 601.656841 -457.674074 
L 608.67175 -457.097559 
L 615.686659 -456.555334 
L 622.701568 -456.048808 
L 629.716477 -455.575518 
L 636.731386 -455.141528 
L 643.746295 -454.73363 
L 650.761205 -454.379563 
L 657.776114 -454.024477 
L 664.791023 -453.773995 
L 671.805932 -453.441315 
L 678.820841 -453.350315 
L 685.83575 -452.99216 
L 692.850659 -453.143439 
L 699.865568 -452.739493 
L 706.880477 -453.22112 
L 713.895386 -452.805169 
L 720.910295 -453.74173 
L 727.925205 -453.40733 
L 734.940114 -454.971181 
L 741.955023 -454.921255 
L 748.969932 -457.337488 
L 755.984841 -457.948433 
L 762.99975 -461.504313 
L 770.014659 -463.397244 
L 777.029568 -468.467648 
L 784.044477 -472.571961 
L 791.059386 -479.678429 
L 798.074295 -487.26838 
L 805.089205 -487.26838 
L 805.089205 -328.680918 
L 805.089205 -328.680918 
L 798.074295 -328.680918 
L 791.059386 -328.680918 
L 784.044477 -328.680918 
L 777.029568 -328.680918 
L 770.014659 -328.680918 
L 762.99975 -328.680918 
L 755.984841 -328.680918 
L 748.969932 -328.680918 
L 741.955023 -328.680918 
L 734.940114 -328.680918 
L 727.925205 -328.680918 
L 720.910295 -328.680918 
L 713.895386 -328.680918 
L 706.880477 -328.680918 
L 699.865568 -328.680918 
L 692.850659 -328.680918 
L 685.83575 -328.680918 
L 678.820841 -328.680918 
L 671.805932 -328.680918 
L 664.791023 -328.680918 
L 657.776114 -328.680918 
L 650.761205 -328.680918 
L 643.746295 -328.680918 
L 636.731386 -328.680918 
L 629.716477 -328.680918 
L 622.701568 -328.680918 
L 615.686659 -328.680918 
L 608.67175 -328.680918 
L 601.656841 -328.680918 
L 594.641932 -328.680918 
L 587.627023 -328.680918 
L 580.612114 -328.680918 
L 573.597205 -328.680918 
L 566.582295 -328.680918 
L 559.567386 -328.680918 
L 552.552477 -328.680918 
L 545.537568 -328.680918 
L 538.522659 -328.680918 
L 531.50775 -328.680918 
L 524.492841 -328.680918 
L 517.477932 -328.680918 
L 510.463023 -328.680918 
L 503.448114 -328.680918 
L 496.433205 -328.680918 
L 489.418295 -328.680918 
L 482.403386 -328.680918 
L 475.388477 -328.680918 
L 468.373568 -328.680918 
L 461.358659 -328.680918 
L 454.34375 -328.680918 
L 447.328841 -328.680918 
L 440.313932 -328.680918 
L 433.299023 -328.680918 
L 426.284114 -328.680918 
L 419.269205 -328.680918 
L 412.254295 -328.680918 
L 405.239386 -328.680918 
L 398.224477 -328.680918 
L 391.209568 -328.680918 
L 384.194659 -328.680918 
L 377.17975 -328.680918 
L 370.164841 -328.680918 
L 363.149932 -328.680918 
L 356.135023 -328.680918 
L 349.120114 -328.680918 
L 342.105205 -328.680918 
L 335.090295 -328.680918 
L 328.075386 -328.680918 
L 321.060477 -328.680918 
L 314.045568 -328.680918 
L 307.030659 -328.680918 
L 300.01575 -328.680918 
L 293.000841 -328.680918 
L 285.985932 -328.680918 
L 278.971023 -328.680918 
L 271.956114 -328.680918 
L 264.941205 -328.680918 
L 257.926295 -328.680918 
L 250.911386 -328.680918 
L 243.896477 -328.680918 
L 236.881568 -328.680918 
L 229.866659 -328.680918 
L 222.85175 -328.680918 
L 215.836841 -328.680918 
L 208.821932 -328.680918 
L 201.807023 -328.680918 
L 194.792114 -328.680918 
L 187.777205 -328.680918 
L 180.762295 -328.680918 
L 173.747386 -328.680918 
L 166.732477 -328.680918 
L 159.717568 -328.680918 
L 152.702659 -328.680918 
L 145.68775 -328.680918 
L 138.672841 -328.680918 
L 131.657932 -328.680918 
L 124.643023 -328.680918 
L 117.628114 -328.680918 
L 110.613205 -328.680918 
z
" style="stroke: #008000; stroke-opacity: 0.3"/>
    </defs>
    <g clip-path="url(#p883f9daafc)">
     <use xlink:href="#m030b606182" x="0" y="852.85625" style="fill: #008000; fill-opacity: 0.3; stroke: #008000; stroke-opacity: 0.3"/>
    </g>
   </g>
   <g id="matplotlib.axis_3">
    <g id="xtick_7">
     <g id="line2d_29">
      <path d="M 103.598295 534.947115 
L 103.598295 297.967885 
" clip-path="url(#p883f9daafc)" style="fill: none; stroke-dasharray: 2.96,1.28; stroke-dashoffset: 0; stroke: #b0b0b0; stroke-opacity: 0.7; stroke-width: 0.8"/>
     </g>
     <g id="line2d_30">
      <g>
       <use xlink:href="#m6aa431b258" x="103.598295" y="534.947115" style="stroke: #000000; stroke-width: 0.8"/>
      </g>
     </g>
    </g>
    <g id="xtick_8">
     <g id="line2d_31">
      <path d="M 243.896477 534.947115 
L 243.896477 297.967885 
" clip-path="url(#p883f9daafc)" style="fill: none; stroke-dasharray: 2.96,1.28; stroke-dashoffset: 0; stroke: #b0b0b0; stroke-opacity: 0.7; stroke-width: 0.8"/>
     </g>
     <g id="line2d_32">
      <g>
       <use xlink:href="#m6aa431b258" x="243.896477" y="534.947115" style="stroke: #000000; stroke-width: 0.8"/>
      </g>
     </g>
    </g>
    <g id="xtick_9">
     <g id="line2d_33">
      <path d="M 384.194659 534.947115 
L 384.194659 297.967885 
" clip-path="url(#p883f9daafc)" style="fill: none; stroke-dasharray: 2.96,1.28; stroke-dashoffset: 0; stroke: #b0b0b0; stroke-opacity: 0.7; stroke-width: 0.8"/>
     </g>
     <g id="line2d_34">
      <g>
       <use xlink:href="#m6aa431b258" x="384.194659" y="534.947115" style="stroke: #000000; stroke-width: 0.8"/>
      </g>
     </g>
    </g>
    <g id="xtick_10">
     <g id="line2d_35">
      <path d="M 524.492841 534.947115 
L 524.492841 297.967885 
" clip-path="url(#p883f9daafc)" style="fill: none; stroke-dasharray: 2.96,1.28; stroke-dashoffset: 0; stroke: #b0b0b0; stroke-opacity: 0.7; stroke-width: 0.8"/>
     </g>
     <g id="line2d_36">
      <g>
       <use xlink:href="#m6aa431b258" x="524.492841" y="534.947115" style="stroke: #000000; stroke-width: 0.8"/>
      </g>
     </g>
    </g>
    <g id="xtick_11">
     <g id="line2d_37">
      <path d="M 664.791023 534.947115 
L 664.791023 297.967885 
" clip-path="url(#p883f9daafc)" style="fill: none; stroke-dasharray: 2.96,1.28; stroke-dashoffset: 0; stroke: #b0b0b0; stroke-opacity: 0.7; stroke-width: 0.8"/>
     </g>
     <g id="line2d_38">
      <g>
       <use xlink:href="#m6aa431b258" x="664.791023" y="534.947115" style="stroke: #000000; stroke-width: 0.8"/>
      </g>
     </g>
    </g>
    <g id="xtick_12">
     <g id="line2d_39">
      <path d="M 805.089205 534.947115 
L 805.089205 297.967885 
" clip-path="url(#p883f9daafc)" style="fill: none; stroke-dasharray: 2.96,1.28; stroke-dashoffset: 0; stroke: #b0b0b0; stroke-opacity: 0.7; stroke-width: 0.8"/>
     </g>
     <g id="line2d_40">
      <g>
       <use xlink:href="#m6aa431b258" x="805.089205" y="534.947115" style="stroke: #000000; stroke-width: 0.8"/>
      </g>
     </g>
    </g>
   </g>
   <g id="matplotlib.axis_4">
    <g id="ytick_8">
     <g id="line2d_41">
      <path d="M 68.52375 524.175332 
L 840.16375 524.175332 
" clip-path="url(#p883f9daafc)" style="fill: none; stroke-dasharray: 2.96,1.28; stroke-dashoffset: 0; stroke: #b0b0b0; stroke-opacity: 0.7; stroke-width: 0.8"/>
     </g>
     <g id="line2d_42">
      <g>
       <use xlink:href="#m271a680842" x="68.52375" y="524.175332" style="stroke: #000000; stroke-width: 0.8"/>
      </g>
     </g>
     <g id="text_12">
      <!-- 0.000 -->
      <g transform="translate(27.17 528.734395) scale(0.12 -0.12)">
       <use xlink:href="#DejaVuSans-30"/>
       <use xlink:href="#DejaVuSans-2e" transform="translate(63.623047 0)"/>
       <use xlink:href="#DejaVuSans-30" transform="translate(95.410156 0)"/>
       <use xlink:href="#DejaVuSans-30" transform="translate(159.033203 0)"/>
       <use xlink:href="#DejaVuSans-30" transform="translate(222.65625 0)"/>
      </g>
     </g>
    </g>
    <g id="ytick_9">
     <g id="line2d_43">
      <path d="M 68.52375 474.646954 
L 840.16375 474.646954 
" clip-path="url(#p883f9daafc)" style="fill: none; stroke-dasharray: 2.96,1.28; stroke-dashoffset: 0; stroke: #b0b0b0; stroke-opacity: 0.7; stroke-width: 0.8"/>
     </g>
     <g id="line2d_44">
      <g>
       <use xlink:href="#m271a680842" x="68.52375" y="474.646954" style="stroke: #000000; stroke-width: 0.8"/>
      </g>
     </g>
     <g id="text_13">
      <!-- 0.005 -->
      <g transform="translate(27.17 479.206016) scale(0.12 -0.12)">
       <use xlink:href="#DejaVuSans-30"/>
       <use xlink:href="#DejaVuSans-2e" transform="translate(63.623047 0)"/>
       <use xlink:href="#DejaVuSans-30" transform="translate(95.410156 0)"/>
       <use xlink:href="#DejaVuSans-30" transform="translate(159.033203 0)"/>
       <use xlink:href="#DejaVuSans-35" transform="translate(222.65625 0)"/>
      </g>
     </g>
    </g>
    <g id="ytick_10">
     <g id="line2d_45">
      <path d="M 68.52375 425.118575 
L 840.16375 425.118575 
" clip-path="url(#p883f9daafc)" style="fill: none; stroke-dasharray: 2.96,1.28; stroke-dashoffset: 0; stroke: #b0b0b0; stroke-opacity: 0.7; stroke-width: 0.8"/>
     </g>
     <g id="line2d_46">
      <g>
       <use xlink:href="#m271a680842" x="68.52375" y="425.118575" style="stroke: #000000; stroke-width: 0.8"/>
      </g>
     </g>
     <g id="text_14">
      <!-- 0.010 -->
      <g transform="translate(27.17 429.677637) scale(0.12 -0.12)">
       <use xlink:href="#DejaVuSans-30"/>
       <use xlink:href="#DejaVuSans-2e" transform="translate(63.623047 0)"/>
       <use xlink:href="#DejaVuSans-30" transform="translate(95.410156 0)"/>
       <use xlink:href="#DejaVuSans-31" transform="translate(159.033203 0)"/>
       <use xlink:href="#DejaVuSans-30" transform="translate(222.65625 0)"/>
      </g>
     </g>
    </g>
    <g id="ytick_11">
     <g id="line2d_47">
      <path d="M 68.52375 375.590196 
L 840.16375 375.590196 
" clip-path="url(#p883f9daafc)" style="fill: none; stroke-dasharray: 2.96,1.28; stroke-dashoffset: 0; stroke: #b0b0b0; stroke-opacity: 0.7; stroke-width: 0.8"/>
     </g>
     <g id="line2d_48">
      <g>
       <use xlink:href="#m271a680842" x="68.52375" y="375.590196" style="stroke: #000000; stroke-width: 0.8"/>
      </g>
     </g>
     <g id="text_15">
      <!-- 0.015 -->
      <g transform="translate(27.17 380.149259) scale(0.12 -0.12)">
       <use xlink:href="#DejaVuSans-30"/>
       <use xlink:href="#DejaVuSans-2e" transform="translate(63.623047 0)"/>
       <use xlink:href="#DejaVuSans-30" transform="translate(95.410156 0)"/>
       <use xlink:href="#DejaVuSans-31" transform="translate(159.033203 0)"/>
       <use xlink:href="#DejaVuSans-35" transform="translate(222.65625 0)"/>
      </g>
     </g>
    </g>
    <g id="ytick_12">
     <g id="line2d_49">
      <path d="M 68.52375 326.061817 
L 840.16375 326.061817 
" clip-path="url(#p883f9daafc)" style="fill: none; stroke-dasharray: 2.96,1.28; stroke-dashoffset: 0; stroke: #b0b0b0; stroke-opacity: 0.7; stroke-width: 0.8"/>
     </g>
     <g id="line2d_50">
      <g>
       <use xlink:href="#m271a680842" x="68.52375" y="326.061817" style="stroke: #000000; stroke-width: 0.8"/>
      </g>
     </g>
     <g id="text_16">
      <!-- 0.020 -->
      <g transform="translate(27.17 330.62088) scale(0.12 -0.12)">
       <use xlink:href="#DejaVuSans-30"/>
       <use xlink:href="#DejaVuSans-2e" transform="translate(63.623047 0)"/>
       <use xlink:href="#DejaVuSans-30" transform="translate(95.410156 0)"/>
       <use xlink:href="#DejaVuSans-32" transform="translate(159.033203 0)"/>
       <use xlink:href="#DejaVuSans-30" transform="translate(222.65625 0)"/>
      </g>
     </g>
    </g>
    <g id="text_17">
     <!-- Разница Sw, д.ед. -->
     <g transform="translate(20.258438 482.148125) rotate(-90) scale(0.14 -0.14)">
      <use xlink:href="#DejaVuSans-420"/>
      <use xlink:href="#DejaVuSans-430" transform="translate(60.302734 0)"/>
      <use xlink:href="#DejaVuSans-437" transform="translate(121.582031 0)"/>
      <use xlink:href="#DejaVuSans-43d" transform="translate(174.755859 0)"/>
      <use xlink:href="#DejaVuSans-438" transform="translate(240.136719 0)"/>
      <use xlink:href="#DejaVuSans-446" transform="translate(305.126953 0)"/>
      <use xlink:href="#DejaVuSans-430" transform="translate(373.193359 0)"/>
      <use xlink:href="#DejaVuSans-20" transform="translate(434.472656 0)"/>
      <use xlink:href="#DejaVuSans-53" transform="translate(466.259766 0)"/>
      <use xlink:href="#DejaVuSans-77" transform="translate(529.736328 0)"/>
      <use xlink:href="#DejaVuSans-2c" transform="translate(611.523438 0)"/>
      <use xlink:href="#DejaVuSans-20" transform="translate(643.310547 0)"/>
      <use xlink:href="#DejaVuSans-434" transform="translate(675.097656 0)"/>
      <use xlink:href="#DejaVuSans-2e" transform="translate(744.238281 0)"/>
      <use xlink:href="#DejaVuSans-435" transform="translate(776.025391 0)"/>
      <use xlink:href="#DejaVuSans-434" transform="translate(837.548828 0)"/>
      <use xlink:href="#DejaVuSans-2e" transform="translate(906.689453 0)"/>
     </g>
    </g>
   </g>
   <g id="line2d_51">
    <path d="M 103.598295 524.175332 
L 110.613205 389.37962 
L 117.628114 357.374509 
L 124.643023 338.787262 
L 131.657932 326.937407 
L 138.672841 319.204256 
L 145.68775 314.211843 
L 152.702659 311.133174 
L 159.717568 309.431282 
L 166.732477 308.739668 
L 173.747386 308.799267 
L 180.762295 309.42213 
L 187.777205 310.469129 
L 194.792114 311.835621 
L 201.807023 313.441872 
L 208.821932 315.226485 
L 215.836841 317.141772 
L 222.85175 319.150438 
L 229.866659 321.223148 
L 236.881568 323.336739 
L 243.896477 325.472866 
L 250.911386 327.61698 
L 257.926295 329.757544 
L 264.941205 331.885424 
L 271.956114 333.993414 
L 278.971023 336.075867 
L 285.985932 338.128395 
L 293.000841 340.147634 
L 300.01575 342.13106 
L 307.030659 344.076831 
L 314.045568 345.983664 
L 321.060477 347.850739 
L 328.075386 349.677607 
L 335.090295 351.464132 
L 342.105205 353.210425 
L 349.120114 354.916802 
L 356.135023 356.583741 
L 363.149932 358.211853 
L 370.164841 359.801845 
L 377.17975 361.354506 
L 384.194659 362.870675 
L 391.209568 364.351232 
L 398.224477 365.797075 
L 405.239386 367.20911 
L 412.254295 368.588236 
L 419.269205 369.935338 
L 426.284114 371.25127 
L 433.299023 372.536854 
L 440.313932 373.792864 
L 447.328841 375.020026 
L 454.34375 376.219004 
L 461.358659 377.390401 
L 468.373568 378.534746 
L 475.388477 379.652493 
L 482.403386 380.744012 
L 489.418295 381.809589 
L 496.433205 382.849415 
L 503.448114 383.863585 
L 510.463023 384.852095 
L 517.477932 385.814834 
L 524.492841 386.751585 
L 531.50775 387.662023 
L 538.522659 388.545715 
L 545.537568 389.402125 
L 552.552477 390.230618 
L 559.567386 391.030475 
L 566.582295 391.800904 
L 573.597205 392.541067 
L 580.612114 393.2501 
L 587.627023 393.927155 
L 594.641932 394.571403 
L 601.656841 395.182176 
L 608.67175 395.758691 
L 615.686659 396.300916 
L 622.701568 396.807442 
L 629.716477 397.280732 
L 636.731386 397.714722 
L 643.746295 398.12262 
L 650.761205 398.476687 
L 657.776114 398.831773 
L 664.791023 399.082255 
L 671.805932 399.414935 
L 678.820841 399.505935 
L 685.83575 399.86409 
L 692.850659 399.712811 
L 699.865568 400.116757 
L 706.880477 399.63513 
L 713.895386 400.051081 
L 720.910295 399.11452 
L 727.925205 399.44892 
L 734.940114 397.885069 
L 741.955023 397.934995 
L 748.969932 395.518762 
L 755.984841 394.907817 
L 762.99975 391.351937 
L 770.014659 389.459006 
L 777.029568 384.388602 
L 784.044477 380.284289 
L 791.059386 373.177821 
L 798.074295 365.58787 
L 805.089205 365.58787 
" clip-path="url(#p883f9daafc)" style="fill: none; stroke: #800080; stroke-width: 3; stroke-linecap: square"/>
   </g>
   <g id="line2d_52">
    <path d="M 68.52375 524.175332 
L 840.16375 524.175332 
" clip-path="url(#p883f9daafc)" style="fill: none; stroke-dasharray: 5.55,2.4; stroke-dashoffset: 0; stroke: #000000; stroke-opacity: 0.7; stroke-width: 1.5"/>
   </g>
   <g id="patch_11">
    <path d="M 68.52375 534.947115 
L 68.52375 297.967885 
" style="fill: none; stroke: #000000; stroke-width: 0.8; stroke-linejoin: miter; stroke-linecap: square"/>
   </g>
   <g id="patch_12">
    <path d="M 840.16375 534.947115 
L 840.16375 297.967885 
" style="fill: none; stroke: #000000; stroke-width: 0.8; stroke-linejoin: miter; stroke-linecap: square"/>
   </g>
   <g id="patch_13">
    <path d="M 68.52375 534.947115 
L 840.16375 534.947115 
" style="fill: none; stroke: #000000; stroke-width: 0.8; stroke-linejoin: miter; stroke-linecap: square"/>
   </g>
   <g id="patch_14">
    <path d="M 68.52375 297.967885 
L 840.16375 297.967885 
" style="fill: none; stroke: #000000; stroke-width: 0.8; stroke-linejoin: miter; stroke-linecap: square"/>
   </g>
   <g id="text_18">
    <!-- Разница в насыщенности (с кап. - без кап.), день 50 -->
    <g transform="translate(233.29875 291.967885) scale(0.16 -0.16)">
     <use xlink:href="#DejaVuSans-420"/>
     <use xlink:href="#DejaVuSans-430" transform="translate(60.302734 0)"/>
     <use xlink:href="#DejaVuSans-437" transform="translate(121.582031 0)"/>
     <use xlink:href="#DejaVuSans-43d" transform="translate(174.755859 0)"/>
     <use xlink:href="#DejaVuSans-438" transform="translate(240.136719 0)"/>
     <use xlink:href="#DejaVuSans-446" transform="translate(305.126953 0)"/>
     <use xlink:href="#DejaVuSans-430" transform="translate(373.193359 0)"/>
     <use xlink:href="#DejaVuSans-20" transform="translate(434.472656 0)"/>
     <use xlink:href="#DejaVuSans-432" transform="translate(466.259766 0)"/>
     <use xlink:href="#DejaVuSans-20" transform="translate(525.195312 0)"/>
     <use xlink:href="#DejaVuSans-43d" transform="translate(556.982422 0)"/>
     <use xlink:href="#DejaVuSans-430" transform="translate(622.363281 0)"/>
     <use xlink:href="#DejaVuSans-441" transform="translate(683.642578 0)"/>
     <use xlink:href="#DejaVuSans-44b" transform="translate(738.623047 0)"/>
     <use xlink:href="#DejaVuSans-449" transform="translate(817.578125 0)"/>
     <use xlink:href="#DejaVuSans-435" transform="translate(911.767578 0)"/>
     <use xlink:href="#DejaVuSans-43d" transform="translate(973.291016 0)"/>
     <use xlink:href="#DejaVuSans-43d" transform="translate(1038.671875 0)"/>
     <use xlink:href="#DejaVuSans-43e" transform="translate(1104.052734 0)"/>
     <use xlink:href="#DejaVuSans-441" transform="translate(1165.234375 0)"/>
     <use xlink:href="#DejaVuSans-442" transform="translate(1220.214844 0)"/>
     <use xlink:href="#DejaVuSans-438" transform="translate(1278.466797 0)"/>
     <use xlink:href="#DejaVuSans-20" transform="translate(1343.457031 0)"/>
     <use xlink:href="#DejaVuSans-28" transform="translate(1375.244141 0)"/>
     <use xlink:href="#DejaVuSans-441" transform="translate(1414.257812 0)"/>
     <use xlink:href="#DejaVuSans-20" transform="translate(1469.238281 0)"/>
     <use xlink:href="#DejaVuSans-43a" transform="translate(1501.025391 0)"/>
     <use xlink:href="#DejaVuSans-430" transform="translate(1561.425781 0)"/>
     <use xlink:href="#DejaVuSans-43f" transform="translate(1622.705078 0)"/>
     <use xlink:href="#DejaVuSans-2e" transform="translate(1688.085938 0)"/>
     <use xlink:href="#DejaVuSans-20" transform="translate(1719.873047 0)"/>
     <use xlink:href="#DejaVuSans-2d" transform="translate(1751.660156 0)"/>
     <use xlink:href="#DejaVuSans-20" transform="translate(1787.744141 0)"/>
     <use xlink:href="#DejaVuSans-431" transform="translate(1819.53125 0)"/>
     <use xlink:href="#DejaVuSans-435" transform="translate(1881.201172 0)"/>
     <use xlink:href="#DejaVuSans-437" transform="translate(1942.724609 0)"/>
     <use xlink:href="#DejaVuSans-20" transform="translate(1995.898438 0)"/>
     <use xlink:href="#DejaVuSans-43a" transform="translate(2027.685547 0)"/>
     <use xlink:href="#DejaVuSans-430" transform="translate(2088.085938 0)"/>
     <use xlink:href="#DejaVuSans-43f" transform="translate(2149.365234 0)"/>
     <use xlink:href="#DejaVuSans-2e" transform="translate(2214.746094 0)"/>
     <use xlink:href="#DejaVuSans-29" transform="translate(2246.533203 0)"/>
     <use xlink:href="#DejaVuSans-2c" transform="translate(2285.546875 0)"/>
     <use xlink:href="#DejaVuSans-20" transform="translate(2317.333984 0)"/>
     <use xlink:href="#DejaVuSans-434" transform="translate(2349.121094 0)"/>
     <use xlink:href="#DejaVuSans-435" transform="translate(2418.261719 0)"/>
     <use xlink:href="#DejaVuSans-43d" transform="translate(2479.785156 0)"/>
     <use xlink:href="#DejaVuSans-44c" transform="translate(2545.166016 0)"/>
     <use xlink:href="#DejaVuSans-20" transform="translate(2604.101562 0)"/>
     <use xlink:href="#DejaVuSans-35" transform="translate(2635.888672 0)"/>
     <use xlink:href="#DejaVuSans-30" transform="translate(2699.511719 0)"/>
    </g>
   </g>
   <g id="legend_2">
    <g id="patch_15">
     <path d="M 580.196875 325.181635 
L 831.76375 325.181635 
Q 834.16375 325.181635 834.16375 322.781635 
L 834.16375 306.367885 
Q 834.16375 303.967885 831.76375 303.967885 
L 580.196875 303.967885 
Q 577.796875 303.967885 577.796875 306.367885 
L 577.796875 322.781635 
Q 577.796875 325.181635 580.196875 325.181635 
z
" style="fill: #ffffff; opacity: 0.8; stroke: #cccccc; stroke-linejoin: miter"/>
    </g>
    <g id="patch_16">
     <path d="M 582.596875 317.88601 
L 606.596875 317.88601 
L 606.596875 309.48601 
L 582.596875 309.48601 
z
" style="fill: #008000; fill-opacity: 0.3; stroke: #008000; stroke-opacity: 0.3; stroke-linejoin: miter"/>
    </g>
    <g id="text_19">
     <!-- Зона повышенной насыщенности -->
     <g transform="translate(616.196875 317.88601) scale(0.12 -0.12)">
      <use xlink:href="#DejaVuSans-417"/>
      <use xlink:href="#DejaVuSans-43e" transform="translate(64.111328 0)"/>
      <use xlink:href="#DejaVuSans-43d" transform="translate(125.292969 0)"/>
      <use xlink:href="#DejaVuSans-430" transform="translate(190.673828 0)"/>
      <use xlink:href="#DejaVuSans-20" transform="translate(251.953125 0)"/>
      <use xlink:href="#DejaVuSans-43f" transform="translate(283.740234 0)"/>
      <use xlink:href="#DejaVuSans-43e" transform="translate(349.121094 0)"/>
      <use xlink:href="#DejaVuSans-432" transform="translate(410.302734 0)"/>
      <use xlink:href="#DejaVuSans-44b" transform="translate(469.238281 0)"/>
      <use xlink:href="#DejaVuSans-448" transform="translate(548.193359 0)"/>
      <use xlink:href="#DejaVuSans-435" transform="translate(639.697266 0)"/>
      <use xlink:href="#DejaVuSans-43d" transform="translate(701.220703 0)"/>
      <use xlink:href="#DejaVuSans-43d" transform="translate(766.601562 0)"/>
      <use xlink:href="#DejaVuSans-43e" transform="translate(831.982422 0)"/>
      <use xlink:href="#DejaVuSans-439" transform="translate(893.164062 0)"/>
      <use xlink:href="#DejaVuSans-20" transform="translate(958.154297 0)"/>
      <use xlink:href="#DejaVuSans-43d" transform="translate(989.941406 0)"/>
      <use xlink:href="#DejaVuSans-430" transform="translate(1055.322266 0)"/>
      <use xlink:href="#DejaVuSans-441" transform="translate(1116.601562 0)"/>
      <use xlink:href="#DejaVuSans-44b" transform="translate(1171.582031 0)"/>
      <use xlink:href="#DejaVuSans-449" transform="translate(1250.537109 0)"/>
      <use xlink:href="#DejaVuSans-435" transform="translate(1344.726562 0)"/>
      <use xlink:href="#DejaVuSans-43d" transform="translate(1406.25 0)"/>
      <use xlink:href="#DejaVuSans-43d" transform="translate(1471.630859 0)"/>
      <use xlink:href="#DejaVuSans-43e" transform="translate(1537.011719 0)"/>
      <use xlink:href="#DejaVuSans-441" transform="translate(1598.193359 0)"/>
      <use xlink:href="#DejaVuSans-442" transform="translate(1653.173828 0)"/>
      <use xlink:href="#DejaVuSans-438" transform="translate(1711.425781 0)"/>
     </g>
    </g>
   </g>
  </g>
  <g id="axes_3">
   <g id="patch_17">
    <path d="M 68.52375 807.5575 
L 840.16375 807.5575 
L 840.16375 570.578269 
L 68.52375 570.578269 
z
" style="fill: #ffffff"/>
   </g>
   <g id="FillBetweenPolyCollection_4">
    <defs>
     <path id="mbb2d4424bd" d="M 110.613205 -56.070533 
L 110.613205 -170.222458 
L 117.628114 -197.777681 
L 124.643023 -215.867426 
L 131.657932 -229.080859 
L 138.672841 -239.149925 
L 145.68775 -246.981431 
L 152.702659 -253.13183 
L 159.717568 -257.97552 
L 166.732477 -261.779757 
L 173.747386 -264.743267 
L 180.762295 -267.018264 
L 187.777205 -268.723988 
L 194.792114 -269.955493 
L 201.807023 -270.789628 
L 208.821932 -271.289236 
L 215.836841 -271.506198 
L 222.85175 -271.483688 
L 229.866659 -271.257881 
L 236.881568 -270.859264 
L 243.896477 -270.313664 
L 250.911386 -269.643054 
L 257.926295 -268.866201 
L 264.941205 -267.999193 
L 271.956114 -267.055857 
L 278.971023 -266.048114 
L 285.985932 -264.986264 
L 293.000841 -263.879223 
L 300.01575 -262.734726 
L 307.030659 -261.559494 
L 314.045568 -260.359372 
L 321.060477 -259.13945 
L 328.075386 -257.904165 
L 335.090295 -256.65739 
L 342.105205 -255.402501 
L 349.120114 -254.142448 
L 356.135023 -252.879804 
L 363.149932 -251.616815 
L 370.164841 -250.355442 
L 377.17975 -249.097393 
L 384.194659 -247.844157 
L 391.209568 -246.597027 
L 398.224477 -245.357129 
L 405.239386 -244.125438 
L 412.254295 -242.902801 
L 419.269205 -241.689947 
L 426.284114 -240.487505 
L 433.299023 -239.29602 
L 440.313932 -238.115957 
L 447.328841 -236.947719 
L 454.34375 -235.79165 
L 461.358659 -234.64805 
L 468.373568 -233.517179 
L 475.388477 -232.399268 
L 482.403386 -231.294524 
L 489.418295 -230.20314 
L 496.433205 -229.1253 
L 503.448114 -228.061192 
L 510.463023 -227.011011 
L 517.477932 -225.974971 
L 524.492841 -224.953315 
L 531.50775 -223.946324 
L 538.522659 -222.954333 
L 545.537568 -221.97774 
L 552.552477 -221.017029 
L 559.567386 -220.072781 
L 566.582295 -219.145704 
L 573.597205 -218.23665 
L 580.612114 -217.346652 
L 587.627023 -216.476956 
L 594.641932 -215.629062 
L 601.656841 -214.804773 
L 608.67175 -214.006253 
L 615.686659 -213.236096 
L 622.701568 -212.497404 
L 629.716477 -211.793885 
L 636.731386 -211.129963 
L 643.746295 -210.510914 
L 650.761205 -209.943023 
L 657.776114 -209.433772 
L 664.791023 -208.992061 
L 671.805932 -208.628474 
L 678.820841 -208.355587 
L 685.83575 -208.188344 
L 692.850659 -208.144493 
L 699.865568 -208.245109 
L 706.880477 -208.515212 
L 713.895386 -208.984503 
L 720.910295 -209.688238 
L 727.925205 -210.668266 
L 734.940114 -211.974263 
L 741.955023 -213.665207 
L 748.969932 -215.811125 
L 755.984841 -218.495191 
L 762.99975 -221.816222 
L 770.014659 -225.891671 
L 777.029568 -230.861215 
L 784.044477 -236.891074 
L 791.059386 -244.179214 
L 798.074295 -252.961645 
L 805.089205 -252.961645 
L 805.089205 -56.070533 
L 805.089205 -56.070533 
L 798.074295 -56.070533 
L 791.059386 -56.070533 
L 784.044477 -56.070533 
L 777.029568 -56.070533 
L 770.014659 -56.070533 
L 762.99975 -56.070533 
L 755.984841 -56.070533 
L 748.969932 -56.070533 
L 741.955023 -56.070533 
L 734.940114 -56.070533 
L 727.925205 -56.070533 
L 720.910295 -56.070533 
L 713.895386 -56.070533 
L 706.880477 -56.070533 
L 699.865568 -56.070533 
L 692.850659 -56.070533 
L 685.83575 -56.070533 
L 678.820841 -56.070533 
L 671.805932 -56.070533 
L 664.791023 -56.070533 
L 657.776114 -56.070533 
L 650.761205 -56.070533 
L 643.746295 -56.070533 
L 636.731386 -56.070533 
L 629.716477 -56.070533 
L 622.701568 -56.070533 
L 615.686659 -56.070533 
L 608.67175 -56.070533 
L 601.656841 -56.070533 
L 594.641932 -56.070533 
L 587.627023 -56.070533 
L 580.612114 -56.070533 
L 573.597205 -56.070533 
L 566.582295 -56.070533 
L 559.567386 -56.070533 
L 552.552477 -56.070533 
L 545.537568 -56.070533 
L 538.522659 -56.070533 
L 531.50775 -56.070533 
L 524.492841 -56.070533 
L 517.477932 -56.070533 
L 510.463023 -56.070533 
L 503.448114 -56.070533 
L 496.433205 -56.070533 
L 489.418295 -56.070533 
L 482.403386 -56.070533 
L 475.388477 -56.070533 
L 468.373568 -56.070533 
L 461.358659 -56.070533 
L 454.34375 -56.070533 
L 447.328841 -56.070533 
L 440.313932 -56.070533 
L 433.299023 -56.070533 
L 426.284114 -56.070533 
L 419.269205 -56.070533 
L 412.254295 -56.070533 
L 405.239386 -56.070533 
L 398.224477 -56.070533 
L 391.209568 -56.070533 
L 384.194659 -56.070533 
L 377.17975 -56.070533 
L 370.164841 -56.070533 
L 363.149932 -56.070533 
L 356.135023 -56.070533 
L 349.120114 -56.070533 
L 342.105205 -56.070533 
L 335.090295 -56.070533 
L 328.075386 -56.070533 
L 321.060477 -56.070533 
L 314.045568 -56.070533 
L 307.030659 -56.070533 
L 300.01575 -56.070533 
L 293.000841 -56.070533 
L 285.985932 -56.070533 
L 278.971023 -56.070533 
L 271.956114 -56.070533 
L 264.941205 -56.070533 
L 257.926295 -56.070533 
L 250.911386 -56.070533 
L 243.896477 -56.070533 
L 236.881568 -56.070533 
L 229.866659 -56.070533 
L 222.85175 -56.070533 
L 215.836841 -56.070533 
L 208.821932 -56.070533 
L 201.807023 -56.070533 
L 194.792114 -56.070533 
L 187.777205 -56.070533 
L 180.762295 -56.070533 
L 173.747386 -56.070533 
L 166.732477 -56.070533 
L 159.717568 -56.070533 
L 152.702659 -56.070533 
L 145.68775 -56.070533 
L 138.672841 -56.070533 
L 131.657932 -56.070533 
L 124.643023 -56.070533 
L 117.628114 -56.070533 
L 110.613205 -56.070533 
z
" style="stroke: #008000; stroke-opacity: 0.3"/>
    </defs>
    <g clip-path="url(#pa3b05f8ee2)">
     <use xlink:href="#mbb2d4424bd" x="0" y="852.85625" style="fill: #008000; fill-opacity: 0.3; stroke: #008000; stroke-opacity: 0.3"/>
    </g>
   </g>
   <g id="matplotlib.axis_5">
    <g id="xtick_13">
     <g id="line2d_53">
      <path d="M 103.598295 807.5575 
L 103.598295 570.578269 
" clip-path="url(#pa3b05f8ee2)" style="fill: none; stroke-dasharray: 2.96,1.28; stroke-dashoffset: 0; stroke: #b0b0b0; stroke-opacity: 0.7; stroke-width: 0.8"/>
     </g>
     <g id="line2d_54">
      <g>
       <use xlink:href="#m6aa431b258" x="103.598295" y="807.5575" style="stroke: #000000; stroke-width: 0.8"/>
      </g>
     </g>
     <g id="text_20">
      <!-- 0 -->
      <g transform="translate(99.780795 823.675625) scale(0.12 -0.12)">
       <use xlink:href="#DejaVuSans-30"/>
      </g>
     </g>
    </g>
    <g id="xtick_14">
     <g id="line2d_55">
      <path d="M 243.896477 807.5575 
L 243.896477 570.578269 
" clip-path="url(#pa3b05f8ee2)" style="fill: none; stroke-dasharray: 2.96,1.28; stroke-dashoffset: 0; stroke: #b0b0b0; stroke-opacity: 0.7; stroke-width: 0.8"/>
     </g>
     <g id="line2d_56">
      <g>
       <use xlink:href="#m6aa431b258" x="243.896477" y="807.5575" style="stroke: #000000; stroke-width: 0.8"/>
      </g>
     </g>
     <g id="text_21">
      <!-- 20 -->
      <g transform="translate(236.261477 823.675625) scale(0.12 -0.12)">
       <use xlink:href="#DejaVuSans-32"/>
       <use xlink:href="#DejaVuSans-30" transform="translate(63.623047 0)"/>
      </g>
     </g>
    </g>
    <g id="xtick_15">
     <g id="line2d_57">
      <path d="M 384.194659 807.5575 
L 384.194659 570.578269 
" clip-path="url(#pa3b05f8ee2)" style="fill: none; stroke-dasharray: 2.96,1.28; stroke-dashoffset: 0; stroke: #b0b0b0; stroke-opacity: 0.7; stroke-width: 0.8"/>
     </g>
     <g id="line2d_58">
      <g>
       <use xlink:href="#m6aa431b258" x="384.194659" y="807.5575" style="stroke: #000000; stroke-width: 0.8"/>
      </g>
     </g>
     <g id="text_22">
      <!-- 40 -->
      <g transform="translate(376.559659 823.675625) scale(0.12 -0.12)">
       <defs>
        <path id="DejaVuSans-34" d="M 2419 4116 
L 825 1625 
L 2419 1625 
L 2419 4116 
z
M 2253 4666 
L 3047 4666 
L 3047 1625 
L 3713 1625 
L 3713 1100 
L 3047 1100 
L 3047 0 
L 2419 0 
L 2419 1100 
L 313 1100 
L 313 1709 
L 2253 4666 
z
" transform="scale(0.015625)"/>
       </defs>
       <use xlink:href="#DejaVuSans-34"/>
       <use xlink:href="#DejaVuSans-30" transform="translate(63.623047 0)"/>
      </g>
     </g>
    </g>
    <g id="xtick_16">
     <g id="line2d_59">
      <path d="M 524.492841 807.5575 
L 524.492841 570.578269 
" clip-path="url(#pa3b05f8ee2)" style="fill: none; stroke-dasharray: 2.96,1.28; stroke-dashoffset: 0; stroke: #b0b0b0; stroke-opacity: 0.7; stroke-width: 0.8"/>
     </g>
     <g id="line2d_60">
      <g>
       <use xlink:href="#m6aa431b258" x="524.492841" y="807.5575" style="stroke: #000000; stroke-width: 0.8"/>
      </g>
     </g>
     <g id="text_23">
      <!-- 60 -->
      <g transform="translate(516.857841 823.675625) scale(0.12 -0.12)">
       <defs>
        <path id="DejaVuSans-36" d="M 2113 2584 
Q 1688 2584 1439 2293 
Q 1191 2003 1191 1497 
Q 1191 994 1439 701 
Q 1688 409 2113 409 
Q 2538 409 2786 701 
Q 3034 994 3034 1497 
Q 3034 2003 2786 2293 
Q 2538 2584 2113 2584 
z
M 3366 4563 
L 3366 3988 
Q 3128 4100 2886 4159 
Q 2644 4219 2406 4219 
Q 1781 4219 1451 3797 
Q 1122 3375 1075 2522 
Q 1259 2794 1537 2939 
Q 1816 3084 2150 3084 
Q 2853 3084 3261 2657 
Q 3669 2231 3669 1497 
Q 3669 778 3244 343 
Q 2819 -91 2113 -91 
Q 1303 -91 875 529 
Q 447 1150 447 2328 
Q 447 3434 972 4092 
Q 1497 4750 2381 4750 
Q 2619 4750 2861 4703 
Q 3103 4656 3366 4563 
z
" transform="scale(0.015625)"/>
       </defs>
       <use xlink:href="#DejaVuSans-36"/>
       <use xlink:href="#DejaVuSans-30" transform="translate(63.623047 0)"/>
      </g>
     </g>
    </g>
    <g id="xtick_17">
     <g id="line2d_61">
      <path d="M 664.791023 807.5575 
L 664.791023 570.578269 
" clip-path="url(#pa3b05f8ee2)" style="fill: none; stroke-dasharray: 2.96,1.28; stroke-dashoffset: 0; stroke: #b0b0b0; stroke-opacity: 0.7; stroke-width: 0.8"/>
     </g>
     <g id="line2d_62">
      <g>
       <use xlink:href="#m6aa431b258" x="664.791023" y="807.5575" style="stroke: #000000; stroke-width: 0.8"/>
      </g>
     </g>
     <g id="text_24">
      <!-- 80 -->
      <g transform="translate(657.156023 823.675625) scale(0.12 -0.12)">
       <defs>
        <path id="DejaVuSans-38" d="M 2034 2216 
Q 1584 2216 1326 1975 
Q 1069 1734 1069 1313 
Q 1069 891 1326 650 
Q 1584 409 2034 409 
Q 2484 409 2743 651 
Q 3003 894 3003 1313 
Q 3003 1734 2745 1975 
Q 2488 2216 2034 2216 
z
M 1403 2484 
Q 997 2584 770 2862 
Q 544 3141 544 3541 
Q 544 4100 942 4425 
Q 1341 4750 2034 4750 
Q 2731 4750 3128 4425 
Q 3525 4100 3525 3541 
Q 3525 3141 3298 2862 
Q 3072 2584 2669 2484 
Q 3125 2378 3379 2068 
Q 3634 1759 3634 1313 
Q 3634 634 3220 271 
Q 2806 -91 2034 -91 
Q 1263 -91 848 271 
Q 434 634 434 1313 
Q 434 1759 690 2068 
Q 947 2378 1403 2484 
z
M 1172 3481 
Q 1172 3119 1398 2916 
Q 1625 2713 2034 2713 
Q 2441 2713 2670 2916 
Q 2900 3119 2900 3481 
Q 2900 3844 2670 4047 
Q 2441 4250 2034 4250 
Q 1625 4250 1398 4047 
Q 1172 3844 1172 3481 
z
" transform="scale(0.015625)"/>
       </defs>
       <use xlink:href="#DejaVuSans-38"/>
       <use xlink:href="#DejaVuSans-30" transform="translate(63.623047 0)"/>
      </g>
     </g>
    </g>
    <g id="xtick_18">
     <g id="line2d_63">
      <path d="M 805.089205 807.5575 
L 805.089205 570.578269 
" clip-path="url(#pa3b05f8ee2)" style="fill: none; stroke-dasharray: 2.96,1.28; stroke-dashoffset: 0; stroke: #b0b0b0; stroke-opacity: 0.7; stroke-width: 0.8"/>
     </g>
     <g id="line2d_64">
      <g>
       <use xlink:href="#m6aa431b258" x="805.089205" y="807.5575" style="stroke: #000000; stroke-width: 0.8"/>
      </g>
     </g>
     <g id="text_25">
      <!-- 100 -->
      <g transform="translate(793.636705 823.675625) scale(0.12 -0.12)">
       <use xlink:href="#DejaVuSans-31"/>
       <use xlink:href="#DejaVuSans-30" transform="translate(63.623047 0)"/>
       <use xlink:href="#DejaVuSans-30" transform="translate(127.246094 0)"/>
      </g>
     </g>
    </g>
    <g id="text_26">
     <!-- Расстояние, м -->
     <g transform="translate(394.98125 842.32875) scale(0.16 -0.16)">
      <defs>
       <path id="DejaVuSans-44f" d="M 1181 2491 
Q 1181 2231 1381 2084 
Q 1581 1938 1953 1938 
L 2728 1938 
L 2728 3041 
L 1953 3041 
Q 1581 3041 1381 2897 
Q 1181 2753 1181 2491 
z
M 363 0 
L 1431 1534 
Q 1069 1616 828 1830 
Q 588 2044 588 2491 
Q 588 2997 923 3248 
Q 1259 3500 1938 3500 
L 3306 3500 
L 3306 0 
L 2728 0 
L 2728 1478 
L 2013 1478 
L 981 0 
L 363 0 
z
" transform="scale(0.015625)"/>
       <path id="DejaVuSans-43c" d="M 581 3500 
L 1422 3500 
L 2416 1156 
L 3413 3500 
L 4247 3500 
L 4247 0 
L 3669 0 
L 3669 2950 
L 2703 672 
L 2128 672 
L 1159 2950 
L 1159 0 
L 581 0 
L 581 3500 
z
" transform="scale(0.015625)"/>
      </defs>
      <use xlink:href="#DejaVuSans-420"/>
      <use xlink:href="#DejaVuSans-430" transform="translate(60.302734 0)"/>
      <use xlink:href="#DejaVuSans-441" transform="translate(121.582031 0)"/>
      <use xlink:href="#DejaVuSans-441" transform="translate(176.5625 0)"/>
      <use xlink:href="#DejaVuSans-442" transform="translate(231.542969 0)"/>
      <use xlink:href="#DejaVuSans-43e" transform="translate(289.794922 0)"/>
      <use xlink:href="#DejaVuSans-44f" transform="translate(350.976562 0)"/>
      <use xlink:href="#DejaVuSans-43d" transform="translate(411.132812 0)"/>
      <use xlink:href="#DejaVuSans-438" transform="translate(476.513672 0)"/>
      <use xlink:href="#DejaVuSans-435" transform="translate(541.503906 0)"/>
      <use xlink:href="#DejaVuSans-2c" transform="translate(603.027344 0)"/>
      <use xlink:href="#DejaVuSans-20" transform="translate(634.814453 0)"/>
      <use xlink:href="#DejaVuSans-43c" transform="translate(666.601562 0)"/>
     </g>
    </g>
   </g>
   <g id="matplotlib.axis_6">
    <g id="ytick_13">
     <g id="line2d_65">
      <path d="M 68.52375 796.785717 
L 840.16375 796.785717 
" clip-path="url(#pa3b05f8ee2)" style="fill: none; stroke-dasharray: 2.96,1.28; stroke-dashoffset: 0; stroke: #b0b0b0; stroke-opacity: 0.7; stroke-width: 0.8"/>
     </g>
     <g id="line2d_66">
      <g>
       <use xlink:href="#m271a680842" x="68.52375" y="796.785717" style="stroke: #000000; stroke-width: 0.8"/>
      </g>
     </g>
     <g id="text_27">
      <!-- 0.000 -->
      <g transform="translate(27.17 801.344779) scale(0.12 -0.12)">
       <use xlink:href="#DejaVuSans-30"/>
       <use xlink:href="#DejaVuSans-2e" transform="translate(63.623047 0)"/>
       <use xlink:href="#DejaVuSans-30" transform="translate(95.410156 0)"/>
       <use xlink:href="#DejaVuSans-30" transform="translate(159.033203 0)"/>
       <use xlink:href="#DejaVuSans-30" transform="translate(222.65625 0)"/>
      </g>
     </g>
    </g>
    <g id="ytick_14">
     <g id="line2d_67">
      <path d="M 68.52375 768.155977 
L 840.16375 768.155977 
" clip-path="url(#pa3b05f8ee2)" style="fill: none; stroke-dasharray: 2.96,1.28; stroke-dashoffset: 0; stroke: #b0b0b0; stroke-opacity: 0.7; stroke-width: 0.8"/>
     </g>
     <g id="line2d_68">
      <g>
       <use xlink:href="#m271a680842" x="68.52375" y="768.155977" style="stroke: #000000; stroke-width: 0.8"/>
      </g>
     </g>
     <g id="text_28">
      <!-- 0.002 -->
      <g transform="translate(27.17 772.715039) scale(0.12 -0.12)">
       <use xlink:href="#DejaVuSans-30"/>
       <use xlink:href="#DejaVuSans-2e" transform="translate(63.623047 0)"/>
       <use xlink:href="#DejaVuSans-30" transform="translate(95.410156 0)"/>
       <use xlink:href="#DejaVuSans-30" transform="translate(159.033203 0)"/>
       <use xlink:href="#DejaVuSans-32" transform="translate(222.65625 0)"/>
      </g>
     </g>
    </g>
    <g id="ytick_15">
     <g id="line2d_69">
      <path d="M 68.52375 739.526236 
L 840.16375 739.526236 
" clip-path="url(#pa3b05f8ee2)" style="fill: none; stroke-dasharray: 2.96,1.28; stroke-dashoffset: 0; stroke: #b0b0b0; stroke-opacity: 0.7; stroke-width: 0.8"/>
     </g>
     <g id="line2d_70">
      <g>
       <use xlink:href="#m271a680842" x="68.52375" y="739.526236" style="stroke: #000000; stroke-width: 0.8"/>
      </g>
     </g>
     <g id="text_29">
      <!-- 0.004 -->
      <g transform="translate(27.17 744.085299) scale(0.12 -0.12)">
       <use xlink:href="#DejaVuSans-30"/>
       <use xlink:href="#DejaVuSans-2e" transform="translate(63.623047 0)"/>
       <use xlink:href="#DejaVuSans-30" transform="translate(95.410156 0)"/>
       <use xlink:href="#DejaVuSans-30" transform="translate(159.033203 0)"/>
       <use xlink:href="#DejaVuSans-34" transform="translate(222.65625 0)"/>
      </g>
     </g>
    </g>
    <g id="ytick_16">
     <g id="line2d_71">
      <path d="M 68.52375 710.896496 
L 840.16375 710.896496 
" clip-path="url(#pa3b05f8ee2)" style="fill: none; stroke-dasharray: 2.96,1.28; stroke-dashoffset: 0; stroke: #b0b0b0; stroke-opacity: 0.7; stroke-width: 0.8"/>
     </g>
     <g id="line2d_72">
      <g>
       <use xlink:href="#m271a680842" x="68.52375" y="710.896496" style="stroke: #000000; stroke-width: 0.8"/>
      </g>
     </g>
     <g id="text_30">
      <!-- 0.006 -->
      <g transform="translate(27.17 715.455559) scale(0.12 -0.12)">
       <use xlink:href="#DejaVuSans-30"/>
       <use xlink:href="#DejaVuSans-2e" transform="translate(63.623047 0)"/>
       <use xlink:href="#DejaVuSans-30" transform="translate(95.410156 0)"/>
       <use xlink:href="#DejaVuSans-30" transform="translate(159.033203 0)"/>
       <use xlink:href="#DejaVuSans-36" transform="translate(222.65625 0)"/>
      </g>
     </g>
    </g>
    <g id="ytick_17">
     <g id="line2d_73">
      <path d="M 68.52375 682.266756 
L 840.16375 682.266756 
" clip-path="url(#pa3b05f8ee2)" style="fill: none; stroke-dasharray: 2.96,1.28; stroke-dashoffset: 0; stroke: #b0b0b0; stroke-opacity: 0.7; stroke-width: 0.8"/>
     </g>
     <g id="line2d_74">
      <g>
       <use xlink:href="#m271a680842" x="68.52375" y="682.266756" style="stroke: #000000; stroke-width: 0.8"/>
      </g>
     </g>
     <g id="text_31">
      <!-- 0.008 -->
      <g transform="translate(27.17 686.825818) scale(0.12 -0.12)">
       <use xlink:href="#DejaVuSans-30"/>
       <use xlink:href="#DejaVuSans-2e" transform="translate(63.623047 0)"/>
       <use xlink:href="#DejaVuSans-30" transform="translate(95.410156 0)"/>
       <use xlink:href="#DejaVuSans-30" transform="translate(159.033203 0)"/>
       <use xlink:href="#DejaVuSans-38" transform="translate(222.65625 0)"/>
      </g>
     </g>
    </g>
    <g id="ytick_18">
     <g id="line2d_75">
      <path d="M 68.52375 653.637016 
L 840.16375 653.637016 
" clip-path="url(#pa3b05f8ee2)" style="fill: none; stroke-dasharray: 2.96,1.28; stroke-dashoffset: 0; stroke: #b0b0b0; stroke-opacity: 0.7; stroke-width: 0.8"/>
     </g>
     <g id="line2d_76">
      <g>
       <use xlink:href="#m271a680842" x="68.52375" y="653.637016" style="stroke: #000000; stroke-width: 0.8"/>
      </g>
     </g>
     <g id="text_32">
      <!-- 0.010 -->
      <g transform="translate(27.17 658.196078) scale(0.12 -0.12)">
       <use xlink:href="#DejaVuSans-30"/>
       <use xlink:href="#DejaVuSans-2e" transform="translate(63.623047 0)"/>
       <use xlink:href="#DejaVuSans-30" transform="translate(95.410156 0)"/>
       <use xlink:href="#DejaVuSans-31" transform="translate(159.033203 0)"/>
       <use xlink:href="#DejaVuSans-30" transform="translate(222.65625 0)"/>
      </g>
     </g>
    </g>
    <g id="ytick_19">
     <g id="line2d_77">
      <path d="M 68.52375 625.007276 
L 840.16375 625.007276 
" clip-path="url(#pa3b05f8ee2)" style="fill: none; stroke-dasharray: 2.96,1.28; stroke-dashoffset: 0; stroke: #b0b0b0; stroke-opacity: 0.7; stroke-width: 0.8"/>
     </g>
     <g id="line2d_78">
      <g>
       <use xlink:href="#m271a680842" x="68.52375" y="625.007276" style="stroke: #000000; stroke-width: 0.8"/>
      </g>
     </g>
     <g id="text_33">
      <!-- 0.012 -->
      <g transform="translate(27.17 629.566338) scale(0.12 -0.12)">
       <use xlink:href="#DejaVuSans-30"/>
       <use xlink:href="#DejaVuSans-2e" transform="translate(63.623047 0)"/>
       <use xlink:href="#DejaVuSans-30" transform="translate(95.410156 0)"/>
       <use xlink:href="#DejaVuSans-31" transform="translate(159.033203 0)"/>
       <use xlink:href="#DejaVuSans-32" transform="translate(222.65625 0)"/>
      </g>
     </g>
    </g>
    <g id="ytick_20">
     <g id="line2d_79">
      <path d="M 68.52375 596.377535 
L 840.16375 596.377535 
" clip-path="url(#pa3b05f8ee2)" style="fill: none; stroke-dasharray: 2.96,1.28; stroke-dashoffset: 0; stroke: #b0b0b0; stroke-opacity: 0.7; stroke-width: 0.8"/>
     </g>
     <g id="line2d_80">
      <g>
       <use xlink:href="#m271a680842" x="68.52375" y="596.377535" style="stroke: #000000; stroke-width: 0.8"/>
      </g>
     </g>
     <g id="text_34">
      <!-- 0.014 -->
      <g transform="translate(27.17 600.936598) scale(0.12 -0.12)">
       <use xlink:href="#DejaVuSans-30"/>
       <use xlink:href="#DejaVuSans-2e" transform="translate(63.623047 0)"/>
       <use xlink:href="#DejaVuSans-30" transform="translate(95.410156 0)"/>
       <use xlink:href="#DejaVuSans-31" transform="translate(159.033203 0)"/>
       <use xlink:href="#DejaVuSans-34" transform="translate(222.65625 0)"/>
      </g>
     </g>
    </g>
    <g id="text_35">
     <!-- Разница Sw, д.ед. -->
     <g transform="translate(20.258438 754.75851) rotate(-90) scale(0.14 -0.14)">
      <use xlink:href="#DejaVuSans-420"/>
      <use xlink:href="#DejaVuSans-430" transform="translate(60.302734 0)"/>
      <use xlink:href="#DejaVuSans-437" transform="translate(121.582031 0)"/>
      <use xlink:href="#DejaVuSans-43d" transform="translate(174.755859 0)"/>
      <use xlink:href="#DejaVuSans-438" transform="translate(240.136719 0)"/>
      <use xlink:href="#DejaVuSans-446" transform="translate(305.126953 0)"/>
      <use xlink:href="#DejaVuSans-430" transform="translate(373.193359 0)"/>
      <use xlink:href="#DejaVuSans-20" transform="translate(434.472656 0)"/>
      <use xlink:href="#DejaVuSans-53" transform="translate(466.259766 0)"/>
      <use xlink:href="#DejaVuSans-77" transform="translate(529.736328 0)"/>
      <use xlink:href="#DejaVuSans-2c" transform="translate(611.523438 0)"/>
      <use xlink:href="#DejaVuSans-20" transform="translate(643.310547 0)"/>
      <use xlink:href="#DejaVuSans-434" transform="translate(675.097656 0)"/>
      <use xlink:href="#DejaVuSans-2e" transform="translate(744.238281 0)"/>
      <use xlink:href="#DejaVuSans-435" transform="translate(776.025391 0)"/>
      <use xlink:href="#DejaVuSans-434" transform="translate(837.548828 0)"/>
      <use xlink:href="#DejaVuSans-2e" transform="translate(906.689453 0)"/>
     </g>
    </g>
   </g>
   <g id="line2d_81">
    <path d="M 103.598295 796.785717 
L 110.613205 682.633792 
L 117.628114 655.078569 
L 124.643023 636.988824 
L 131.657932 623.775391 
L 138.672841 613.706325 
L 145.68775 605.874819 
L 152.702659 599.72442 
L 159.717568 594.88073 
L 166.732477 591.076493 
L 173.747386 588.112983 
L 180.762295 585.837986 
L 187.777205 584.132262 
L 194.792114 582.900757 
L 201.807023 582.066622 
L 208.821932 581.567014 
L 215.836841 581.350052 
L 222.85175 581.372562 
L 229.866659 581.598369 
L 236.881568 581.996986 
L 243.896477 582.542586 
L 250.911386 583.213196 
L 257.926295 583.990049 
L 264.941205 584.857057 
L 271.956114 585.800393 
L 278.971023 586.808136 
L 285.985932 587.869986 
L 293.000841 588.977027 
L 300.01575 590.121524 
L 307.030659 591.296756 
L 314.045568 592.496878 
L 321.060477 593.7168 
L 328.075386 594.952085 
L 335.090295 596.19886 
L 342.105205 597.453749 
L 349.120114 598.713802 
L 356.135023 599.976446 
L 363.149932 601.239435 
L 370.164841 602.500808 
L 377.17975 603.758857 
L 384.194659 605.012093 
L 391.209568 606.259223 
L 398.224477 607.499121 
L 405.239386 608.730812 
L 412.254295 609.953449 
L 419.269205 611.166303 
L 426.284114 612.368745 
L 433.299023 613.56023 
L 440.313932 614.740293 
L 447.328841 615.908531 
L 454.34375 617.0646 
L 461.358659 618.2082 
L 468.373568 619.339071 
L 475.388477 620.456982 
L 482.403386 621.561726 
L 489.418295 622.65311 
L 496.433205 623.73095 
L 503.448114 624.795058 
L 510.463023 625.845239 
L 517.477932 626.881279 
L 524.492841 627.902935 
L 531.50775 628.909926 
L 538.522659 629.901917 
L 545.537568 630.87851 
L 552.552477 631.839221 
L 559.567386 632.783469 
L 566.582295 633.710546 
L 573.597205 634.6196 
L 580.612114 635.509598 
L 587.627023 636.379294 
L 594.641932 637.227188 
L 601.656841 638.051477 
L 608.67175 638.849997 
L 615.686659 639.620154 
L 622.701568 640.358846 
L 629.716477 641.062365 
L 636.731386 641.726287 
L 643.746295 642.345336 
L 650.761205 642.913227 
L 657.776114 643.422478 
L 664.791023 643.864189 
L 671.805932 644.227776 
L 678.820841 644.500663 
L 685.83575 644.667906 
L 692.850659 644.711757 
L 699.865568 644.611141 
L 706.880477 644.341038 
L 713.895386 643.871747 
L 720.910295 643.168012 
L 727.925205 642.187984 
L 734.940114 640.881987 
L 741.955023 639.191043 
L 748.969932 637.045125 
L 755.984841 634.361059 
L 762.99975 631.040028 
L 770.014659 626.964579 
L 777.029568 621.995035 
L 784.044477 615.965176 
L 791.059386 608.677036 
L 798.074295 599.894605 
L 805.089205 599.894605 
" clip-path="url(#pa3b05f8ee2)" style="fill: none; stroke: #800080; stroke-width: 3; stroke-linecap: square"/>
   </g>
   <g id="line2d_82">
    <path d="M 68.52375 796.785717 
L 840.16375 796.785717 
" clip-path="url(#pa3b05f8ee2)" style="fill: none; stroke-dasharray: 5.55,2.4; stroke-dashoffset: 0; stroke: #000000; stroke-opacity: 0.7; stroke-width: 1.5"/>
   </g>
   <g id="patch_18">
    <path d="M 68.52375 807.5575 
L 68.52375 570.578269 
" style="fill: none; stroke: #000000; stroke-width: 0.8; stroke-linejoin: miter; stroke-linecap: square"/>
   </g>
   <g id="patch_19">
    <path d="M 840.16375 807.5575 
L 840.16375 570.578269 
" style="fill: none; stroke: #000000; stroke-width: 0.8; stroke-linejoin: miter; stroke-linecap: square"/>
   </g>
   <g id="patch_20">
    <path d="M 68.52375 807.5575 
L 840.16375 807.5575 
" style="fill: none; stroke: #000000; stroke-width: 0.8; stroke-linejoin: miter; stroke-linecap: square"/>
   </g>
   <g id="patch_21">
    <path d="M 68.52375 570.578269 
L 840.16375 570.578269 
" style="fill: none; stroke: #000000; stroke-width: 0.8; stroke-linejoin: miter; stroke-linecap: square"/>
   </g>
   <g id="text_36">
    <!-- Разница в насыщенности (с кап. - без кап.), день 100 -->
    <g transform="translate(228.20875 564.578269) scale(0.16 -0.16)">
     <use xlink:href="#DejaVuSans-420"/>
     <use xlink:href="#DejaVuSans-430" transform="translate(60.302734 0)"/>
     <use xlink:href="#DejaVuSans-437" transform="translate(121.582031 0)"/>
     <use xlink:href="#DejaVuSans-43d" transform="translate(174.755859 0)"/>
     <use xlink:href="#DejaVuSans-438" transform="translate(240.136719 0)"/>
     <use xlink:href="#DejaVuSans-446" transform="translate(305.126953 0)"/>
     <use xlink:href="#DejaVuSans-430" transform="translate(373.193359 0)"/>
     <use xlink:href="#DejaVuSans-20" transform="translate(434.472656 0)"/>
     <use xlink:href="#DejaVuSans-432" transform="translate(466.259766 0)"/>
     <use xlink:href="#DejaVuSans-20" transform="translate(525.195312 0)"/>
     <use xlink:href="#DejaVuSans-43d" transform="translate(556.982422 0)"/>
     <use xlink:href="#DejaVuSans-430" transform="translate(622.363281 0)"/>
     <use xlink:href="#DejaVuSans-441" transform="translate(683.642578 0)"/>
     <use xlink:href="#DejaVuSans-44b" transform="translate(738.623047 0)"/>
     <use xlink:href="#DejaVuSans-449" transform="translate(817.578125 0)"/>
     <use xlink:href="#DejaVuSans-435" transform="translate(911.767578 0)"/>
     <use xlink:href="#DejaVuSans-43d" transform="translate(973.291016 0)"/>
     <use xlink:href="#DejaVuSans-43d" transform="translate(1038.671875 0)"/>
     <use xlink:href="#DejaVuSans-43e" transform="translate(1104.052734 0)"/>
     <use xlink:href="#DejaVuSans-441" transform="translate(1165.234375 0)"/>
     <use xlink:href="#DejaVuSans-442" transform="translate(1220.214844 0)"/>
     <use xlink:href="#DejaVuSans-438" transform="translate(1278.466797 0)"/>
     <use xlink:href="#DejaVuSans-20" transform="translate(1343.457031 0)"/>
     <use xlink:href="#DejaVuSans-28" transform="translate(1375.244141 0)"/>
     <use xlink:href="#DejaVuSans-441" transform="translate(1414.257812 0)"/>
     <use xlink:href="#DejaVuSans-20" transform="translate(1469.238281 0)"/>
     <use xlink:href="#DejaVuSans-43a" transform="translate(1501.025391 0)"/>
     <use xlink:href="#DejaVuSans-430" transform="translate(1561.425781 0)"/>
     <use xlink:href="#DejaVuSans-43f" transform="translate(1622.705078 0)"/>
     <use xlink:href="#DejaVuSans-2e" transform="translate(1688.085938 0)"/>
     <use xlink:href="#DejaVuSans-20" transform="translate(1719.873047 0)"/>
     <use xlink:href="#DejaVuSans-2d" transform="translate(1751.660156 0)"/>
     <use xlink:href="#DejaVuSans-20" transform="translate(1787.744141 0)"/>
     <use xlink:href="#DejaVuSans-431" transform="translate(1819.53125 0)"/>
     <use xlink:href="#DejaVuSans-435" transform="translate(1881.201172 0)"/>
     <use xlink:href="#DejaVuSans-437" transform="translate(1942.724609 0)"/>
     <use xlink:href="#DejaVuSans-20" transform="translate(1995.898438 0)"/>
     <use xlink:href="#DejaVuSans-43a" transform="translate(2027.685547 0)"/>
     <use xlink:href="#DejaVuSans-430" transform="translate(2088.085938 0)"/>
     <use xlink:href="#DejaVuSans-43f" transform="translate(2149.365234 0)"/>
     <use xlink:href="#DejaVuSans-2e" transform="translate(2214.746094 0)"/>
     <use xlink:href="#DejaVuSans-29" transform="translate(2246.533203 0)"/>
     <use xlink:href="#DejaVuSans-2c" transform="translate(2285.546875 0)"/>
     <use xlink:href="#DejaVuSans-20" transform="translate(2317.333984 0)"/>
     <use xlink:href="#DejaVuSans-434" transform="translate(2349.121094 0)"/>
     <use xlink:href="#DejaVuSans-435" transform="translate(2418.261719 0)"/>
     <use xlink:href="#DejaVuSans-43d" transform="translate(2479.785156 0)"/>
     <use xlink:href="#DejaVuSans-44c" transform="translate(2545.166016 0)"/>
     <use xlink:href="#DejaVuSans-20" transform="translate(2604.101562 0)"/>
     <use xlink:href="#DejaVuSans-31" transform="translate(2635.888672 0)"/>
     <use xlink:href="#DejaVuSans-30" transform="translate(2699.511719 0)"/>
     <use xlink:href="#DejaVuSans-30" transform="translate(2763.134766 0)"/>
    </g>
   </g>
   <g id="legend_3">
    <g id="patch_22">
     <path d="M 580.196875 597.792019 
L 831.76375 597.792019 
Q 834.16375 597.792019 834.16375 595.392019 
L 834.16375 578.978269 
Q 834.16375 576.578269 831.76375 576.578269 
L 580.196875 576.578269 
Q 577.796875 576.578269 577.796875 578.978269 
L 577.796875 595.392019 
Q 577.796875 597.792019 580.196875 597.792019 
z
" style="fill: #ffffff; opacity: 0.8; stroke: #cccccc; stroke-linejoin: miter"/>
    </g>
    <g id="patch_23">
     <path d="M 582.596875 590.496394 
L 606.596875 590.496394 
L 606.596875 582.096394 
L 582.596875 582.096394 
z
" style="fill: #008000; fill-opacity: 0.3; stroke: #008000; stroke-opacity: 0.3; stroke-linejoin: miter"/>
    </g>
    <g id="text_37">
     <!-- Зона повышенной насыщенности -->
     <g transform="translate(616.196875 590.496394) scale(0.12 -0.12)">
      <use xlink:href="#DejaVuSans-417"/>
      <use xlink:href="#DejaVuSans-43e" transform="translate(64.111328 0)"/>
      <use xlink:href="#DejaVuSans-43d" transform="translate(125.292969 0)"/>
      <use xlink:href="#DejaVuSans-430" transform="translate(190.673828 0)"/>
      <use xlink:href="#DejaVuSans-20" transform="translate(251.953125 0)"/>
      <use xlink:href="#DejaVuSans-43f" transform="translate(283.740234 0)"/>
      <use xlink:href="#DejaVuSans-43e" transform="translate(349.121094 0)"/>
      <use xlink:href="#DejaVuSans-432" transform="translate(410.302734 0)"/>
      <use xlink:href="#DejaVuSans-44b" transform="translate(469.238281 0)"/>
      <use xlink:href="#DejaVuSans-448" transform="translate(548.193359 0)"/>
      <use xlink:href="#DejaVuSans-435" transform="translate(639.697266 0)"/>
      <use xlink:href="#DejaVuSans-43d" transform="translate(701.220703 0)"/>
      <use xlink:href="#DejaVuSans-43d" transform="translate(766.601562 0)"/>
      <use xlink:href="#DejaVuSans-43e" transform="translate(831.982422 0)"/>
      <use xlink:href="#DejaVuSans-439" transform="translate(893.164062 0)"/>
      <use xlink:href="#DejaVuSans-20" transform="translate(958.154297 0)"/>
      <use xlink:href="#DejaVuSans-43d" transform="translate(989.941406 0)"/>
      <use xlink:href="#DejaVuSans-430" transform="translate(1055.322266 0)"/>
      <use xlink:href="#DejaVuSans-441" transform="translate(1116.601562 0)"/>
      <use xlink:href="#DejaVuSans-44b" transform="translate(1171.582031 0)"/>
      <use xlink:href="#DejaVuSans-449" transform="translate(1250.537109 0)"/>
      <use xlink:href="#DejaVuSans-435" transform="translate(1344.726562 0)"/>
      <use xlink:href="#DejaVuSans-43d" transform="translate(1406.25 0)"/>
      <use xlink:href="#DejaVuSans-43d" transform="translate(1471.630859 0)"/>
      <use xlink:href="#DejaVuSans-43e" transform="translate(1537.011719 0)"/>
      <use xlink:href="#DejaVuSans-441" transform="translate(1598.193359 0)"/>
      <use xlink:href="#DejaVuSans-442" transform="translate(1653.173828 0)"/>
      <use xlink:href="#DejaVuSans-438" transform="translate(1711.425781 0)"/>
     </g>
    </g>
   </g>
  </g>
 </g>
 <defs>
  <clipPath id="p954fdcc279">
   <rect x="68.52375" y="25.3575" width="771.64" height="236.979231"/>
  </clipPath>
  <clipPath id="p883f9daafc">
   <rect x="68.52375" y="297.967885" width="771.64" height="236.979231"/>
  </clipPath>
  <clipPath id="pa3b05f8ee2">
   <rect x="68.52375" y="570.578269" width="771.64" height="236.979231"/>
  </clipPath>
 </defs>
</svg>
