<?xml version="1.0" encoding="utf-8" standalone="no"?>
<!DOCTYPE svg PUBLIC "-//W3C//DTD SVG 1.1//EN"
  "http://www.w3.org/Graphics/SVG/1.1/DTD/svg11.dtd">
<svg xmlns:xlink="http://www.w3.org/1999/xlink" width="853.65875pt" height="995.70125pt" viewBox="0 0 853.65875 995.70125" xmlns="http://www.w3.org/2000/svg" version="1.1">
 <metadata>
  <rdf:RDF xmlns:dc="http://purl.org/dc/elements/1.1/" xmlns:cc="http://creativecommons.org/ns#" xmlns:rdf="http://www.w3.org/1999/02/22-rdf-syntax-ns#">
   <cc:Work>
    <dc:type rdf:resource="http://purl.org/dc/dcmitype/StillImage"/>
    <dc:date>2025-03-16T03:43:56.802429</dc:date>
    <dc:format>image/svg+xml</dc:format>
    <dc:creator>
     <cc:Agent>
      <dc:title>Matplotlib v3.10.1, https://matplotlib.org/</dc:title>
     </cc:Agent>
    </dc:creator>
   </cc:Work>
  </rdf:RDF>
 </metadata>
 <defs>
  <style type="text/css">*{stroke-linejoin: round; stroke-linecap: butt}</style>
 </defs>
 <g id="figure_1">
  <g id="patch_1">
   <path d="M 0 995.70125 
L 853.65875 995.70125 
L 853.65875 -0 
L 0 -0 
z
" style="fill: #ffffff"/>
  </g>
  <g id="axes_1">
   <g id="patch_2">
    <path d="M 52.76875 468.513125 
L 846.45875 468.513125 
L 846.45875 27.18375 
L 52.76875 27.18375 
z
" style="fill: #ffffff"/>
   </g>
   <g id="matplotlib.axis_1">
    <g id="xtick_1">
     <g id="line2d_1">
      <path d="M 88.845568 468.513125 
L 88.845568 27.18375 
" clip-path="url(#p10e4f03752)" style="fill: none; stroke-dasharray: 2.96,1.28; stroke-dashoffset: 0; stroke: #b0b0b0; stroke-opacity: 0.7; stroke-width: 0.8"/>
     </g>
     <g id="line2d_2">
      <defs>
       <path id="m66341958f5" d="M 0 0 
L 0 3.5 
" style="stroke: #000000; stroke-width: 0.8"/>
      </defs>
      <g>
       <use xlink:href="#m66341958f5" x="88.845568" y="468.513125" style="stroke: #000000; stroke-width: 0.8"/>
      </g>
     </g>
    </g>
    <g id="xtick_2">
     <g id="line2d_3">
      <path d="M 233.152841 468.513125 
L 233.152841 27.18375 
" clip-path="url(#p10e4f03752)" style="fill: none; stroke-dasharray: 2.96,1.28; stroke-dashoffset: 0; stroke: #b0b0b0; stroke-opacity: 0.7; stroke-width: 0.8"/>
     </g>
     <g id="line2d_4">
      <g>
       <use xlink:href="#m66341958f5" x="233.152841" y="468.513125" style="stroke: #000000; stroke-width: 0.8"/>
      </g>
     </g>
    </g>
    <g id="xtick_3">
     <g id="line2d_5">
      <path d="M 377.460114 468.513125 
L 377.460114 27.18375 
" clip-path="url(#p10e4f03752)" style="fill: none; stroke-dasharray: 2.96,1.28; stroke-dashoffset: 0; stroke: #b0b0b0; stroke-opacity: 0.7; stroke-width: 0.8"/>
     </g>
     <g id="line2d_6">
      <g>
       <use xlink:href="#m66341958f5" x="377.460114" y="468.513125" style="stroke: #000000; stroke-width: 0.8"/>
      </g>
     </g>
    </g>
    <g id="xtick_4">
     <g id="line2d_7">
      <path d="M 521.767386 468.513125 
L 521.767386 27.18375 
" clip-path="url(#p10e4f03752)" style="fill: none; stroke-dasharray: 2.96,1.28; stroke-dashoffset: 0; stroke: #b0b0b0; stroke-opacity: 0.7; stroke-width: 0.8"/>
     </g>
     <g id="line2d_8">
      <g>
       <use xlink:href="#m66341958f5" x="521.767386" y="468.513125" style="stroke: #000000; stroke-width: 0.8"/>
      </g>
     </g>
    </g>
    <g id="xtick_5">
     <g id="line2d_9">
      <path d="M 666.074659 468.513125 
L 666.074659 27.18375 
" clip-path="url(#p10e4f03752)" style="fill: none; stroke-dasharray: 2.96,1.28; stroke-dashoffset: 0; stroke: #b0b0b0; stroke-opacity: 0.7; stroke-width: 0.8"/>
     </g>
     <g id="line2d_10">
      <g>
       <use xlink:href="#m66341958f5" x="666.074659" y="468.513125" style="stroke: #000000; stroke-width: 0.8"/>
      </g>
     </g>
    </g>
    <g id="xtick_6">
     <g id="line2d_11">
      <path d="M 810.381932 468.513125 
L 810.381932 27.18375 
" clip-path="url(#p10e4f03752)" style="fill: none; stroke-dasharray: 2.96,1.28; stroke-dashoffset: 0; stroke: #b0b0b0; stroke-opacity: 0.7; stroke-width: 0.8"/>
     </g>
     <g id="line2d_12">
      <g>
       <use xlink:href="#m66341958f5" x="810.381932" y="468.513125" style="stroke: #000000; stroke-width: 0.8"/>
      </g>
     </g>
    </g>
   </g>
   <g id="matplotlib.axis_2">
    <g id="ytick_1">
     <g id="line2d_13">
      <path d="M 52.76875 468.513125 
L 846.45875 468.513125 
" clip-path="url(#p10e4f03752)" style="fill: none; stroke-dasharray: 2.96,1.28; stroke-dashoffset: 0; stroke: #b0b0b0; stroke-opacity: 0.7; stroke-width: 0.8"/>
     </g>
     <g id="line2d_14">
      <defs>
       <path id="mdf8af7c4e8" d="M 0 0 
L -3.5 0 
" style="stroke: #000000; stroke-width: 0.8"/>
      </defs>
      <g>
       <use xlink:href="#mdf8af7c4e8" x="52.76875" y="468.513125" style="stroke: #000000; stroke-width: 0.8"/>
      </g>
     </g>
     <g id="text_1">
      <!-- 0.0 -->
      <g transform="translate(26.685 473.072187) scale(0.12 -0.12)">
       <defs>
        <path id="DejaVuSans-30" d="M 2034 4250 
Q 1547 4250 1301 3770 
Q 1056 3291 1056 2328 
Q 1056 1369 1301 889 
Q 1547 409 2034 409 
Q 2525 409 2770 889 
Q 3016 1369 3016 2328 
Q 3016 3291 2770 3770 
Q 2525 4250 2034 4250 
z
M 2034 4750 
Q 2819 4750 3233 4129 
Q 3647 3509 3647 2328 
Q 3647 1150 3233 529 
Q 2819 -91 2034 -91 
Q 1250 -91 836 529 
Q 422 1150 422 2328 
Q 422 3509 836 4129 
Q 1250 4750 2034 4750 
z
" transform="scale(0.015625)"/>
        <path id="DejaVuSans-2e" d="M 684 794 
L 1344 794 
L 1344 0 
L 684 0 
L 684 794 
z
" transform="scale(0.015625)"/>
       </defs>
       <use xlink:href="#DejaVuSans-30"/>
       <use xlink:href="#DejaVuSans-2e" transform="translate(63.623047 0)"/>
       <use xlink:href="#DejaVuSans-30" transform="translate(95.410156 0)"/>
      </g>
     </g>
    </g>
    <g id="ytick_2">
     <g id="line2d_15">
      <path d="M 52.76875 380.24725 
L 846.45875 380.24725 
" clip-path="url(#p10e4f03752)" style="fill: none; stroke-dasharray: 2.96,1.28; stroke-dashoffset: 0; stroke: #b0b0b0; stroke-opacity: 0.7; stroke-width: 0.8"/>
     </g>
     <g id="line2d_16">
      <g>
       <use xlink:href="#mdf8af7c4e8" x="52.76875" y="380.24725" style="stroke: #000000; stroke-width: 0.8"/>
      </g>
     </g>
     <g id="text_2">
      <!-- 0.2 -->
      <g transform="translate(26.685 384.806312) scale(0.12 -0.12)">
       <defs>
        <path id="DejaVuSans-32" d="M 1228 531 
L 3431 531 
L 3431 0 
L 469 0 
L 469 531 
Q 828 903 1448 1529 
Q 2069 2156 2228 2338 
Q 2531 2678 2651 2914 
Q 2772 3150 2772 3378 
Q 2772 3750 2511 3984 
Q 2250 4219 1831 4219 
Q 1534 4219 1204 4116 
Q 875 4013 500 3803 
L 500 4441 
Q 881 4594 1212 4672 
Q 1544 4750 1819 4750 
Q 2544 4750 2975 4387 
Q 3406 4025 3406 3419 
Q 3406 3131 3298 2873 
Q 3191 2616 2906 2266 
Q 2828 2175 2409 1742 
Q 1991 1309 1228 531 
z
" transform="scale(0.015625)"/>
       </defs>
       <use xlink:href="#DejaVuSans-30"/>
       <use xlink:href="#DejaVuSans-2e" transform="translate(63.623047 0)"/>
       <use xlink:href="#DejaVuSans-32" transform="translate(95.410156 0)"/>
      </g>
     </g>
    </g>
    <g id="ytick_3">
     <g id="line2d_17">
      <path d="M 52.76875 291.981375 
L 846.45875 291.981375 
" clip-path="url(#p10e4f03752)" style="fill: none; stroke-dasharray: 2.96,1.28; stroke-dashoffset: 0; stroke: #b0b0b0; stroke-opacity: 0.7; stroke-width: 0.8"/>
     </g>
     <g id="line2d_18">
      <g>
       <use xlink:href="#mdf8af7c4e8" x="52.76875" y="291.981375" style="stroke: #000000; stroke-width: 0.8"/>
      </g>
     </g>
     <g id="text_3">
      <!-- 0.4 -->
      <g transform="translate(26.685 296.540437) scale(0.12 -0.12)">
       <defs>
        <path id="DejaVuSans-34" d="M 2419 4116 
L 825 1625 
L 2419 1625 
L 2419 4116 
z
M 2253 4666 
L 3047 4666 
L 3047 1625 
L 3713 1625 
L 3713 1100 
L 3047 1100 
L 3047 0 
L 2419 0 
L 2419 1100 
L 313 1100 
L 313 1709 
L 2253 4666 
z
" transform="scale(0.015625)"/>
       </defs>
       <use xlink:href="#DejaVuSans-30"/>
       <use xlink:href="#DejaVuSans-2e" transform="translate(63.623047 0)"/>
       <use xlink:href="#DejaVuSans-34" transform="translate(95.410156 0)"/>
      </g>
     </g>
    </g>
    <g id="ytick_4">
     <g id="line2d_19">
      <path d="M 52.76875 203.7155 
L 846.45875 203.7155 
" clip-path="url(#p10e4f03752)" style="fill: none; stroke-dasharray: 2.96,1.28; stroke-dashoffset: 0; stroke: #b0b0b0; stroke-opacity: 0.7; stroke-width: 0.8"/>
     </g>
     <g id="line2d_20">
      <g>
       <use xlink:href="#mdf8af7c4e8" x="52.76875" y="203.7155" style="stroke: #000000; stroke-width: 0.8"/>
      </g>
     </g>
     <g id="text_4">
      <!-- 0.6 -->
      <g transform="translate(26.685 208.274562) scale(0.12 -0.12)">
       <defs>
        <path id="DejaVuSans-36" d="M 2113 2584 
Q 1688 2584 1439 2293 
Q 1191 2003 1191 1497 
Q 1191 994 1439 701 
Q 1688 409 2113 409 
Q 2538 409 2786 701 
Q 3034 994 3034 1497 
Q 3034 2003 2786 2293 
Q 2538 2584 2113 2584 
z
M 3366 4563 
L 3366 3988 
Q 3128 4100 2886 4159 
Q 2644 4219 2406 4219 
Q 1781 4219 1451 3797 
Q 1122 3375 1075 2522 
Q 1259 2794 1537 2939 
Q 1816 3084 2150 3084 
Q 2853 3084 3261 2657 
Q 3669 2231 3669 1497 
Q 3669 778 3244 343 
Q 2819 -91 2113 -91 
Q 1303 -91 875 529 
Q 447 1150 447 2328 
Q 447 3434 972 4092 
Q 1497 4750 2381 4750 
Q 2619 4750 2861 4703 
Q 3103 4656 3366 4563 
z
" transform="scale(0.015625)"/>
       </defs>
       <use xlink:href="#DejaVuSans-30"/>
       <use xlink:href="#DejaVuSans-2e" transform="translate(63.623047 0)"/>
       <use xlink:href="#DejaVuSans-36" transform="translate(95.410156 0)"/>
      </g>
     </g>
    </g>
    <g id="ytick_5">
     <g id="line2d_21">
      <path d="M 52.76875 115.449625 
L 846.45875 115.449625 
" clip-path="url(#p10e4f03752)" style="fill: none; stroke-dasharray: 2.96,1.28; stroke-dashoffset: 0; stroke: #b0b0b0; stroke-opacity: 0.7; stroke-width: 0.8"/>
     </g>
     <g id="line2d_22">
      <g>
       <use xlink:href="#mdf8af7c4e8" x="52.76875" y="115.449625" style="stroke: #000000; stroke-width: 0.8"/>
      </g>
     </g>
     <g id="text_5">
      <!-- 0.8 -->
      <g transform="translate(26.685 120.008687) scale(0.12 -0.12)">
       <defs>
        <path id="DejaVuSans-38" d="M 2034 2216 
Q 1584 2216 1326 1975 
Q 1069 1734 1069 1313 
Q 1069 891 1326 650 
Q 1584 409 2034 409 
Q 2484 409 2743 651 
Q 3003 894 3003 1313 
Q 3003 1734 2745 1975 
Q 2488 2216 2034 2216 
z
M 1403 2484 
Q 997 2584 770 2862 
Q 544 3141 544 3541 
Q 544 4100 942 4425 
Q 1341 4750 2034 4750 
Q 2731 4750 3128 4425 
Q 3525 4100 3525 3541 
Q 3525 3141 3298 2862 
Q 3072 2584 2669 2484 
Q 3125 2378 3379 2068 
Q 3634 1759 3634 1313 
Q 3634 634 3220 271 
Q 2806 -91 2034 -91 
Q 1263 -91 848 271 
Q 434 634 434 1313 
Q 434 1759 690 2068 
Q 947 2378 1403 2484 
z
M 1172 3481 
Q 1172 3119 1398 2916 
Q 1625 2713 2034 2713 
Q 2441 2713 2670 2916 
Q 2900 3119 2900 3481 
Q 2900 3844 2670 4047 
Q 2441 4250 2034 4250 
Q 1625 4250 1398 4047 
Q 1172 3844 1172 3481 
z
" transform="scale(0.015625)"/>
       </defs>
       <use xlink:href="#DejaVuSans-30"/>
       <use xlink:href="#DejaVuSans-2e" transform="translate(63.623047 0)"/>
       <use xlink:href="#DejaVuSans-38" transform="translate(95.410156 0)"/>
      </g>
     </g>
    </g>
    <g id="ytick_6">
     <g id="line2d_23">
      <path d="M 52.76875 27.18375 
L 846.45875 27.18375 
" clip-path="url(#p10e4f03752)" style="fill: none; stroke-dasharray: 2.96,1.28; stroke-dashoffset: 0; stroke: #b0b0b0; stroke-opacity: 0.7; stroke-width: 0.8"/>
     </g>
     <g id="line2d_24">
      <g>
       <use xlink:href="#mdf8af7c4e8" x="52.76875" y="27.18375" style="stroke: #000000; stroke-width: 0.8"/>
      </g>
     </g>
     <g id="text_6">
      <!-- 1.0 -->
      <g transform="translate(26.685 31.742812) scale(0.12 -0.12)">
       <defs>
        <path id="DejaVuSans-31" d="M 794 531 
L 1825 531 
L 1825 4091 
L 703 3866 
L 703 4441 
L 1819 4666 
L 2450 4666 
L 2450 531 
L 3481 531 
L 3481 0 
L 794 0 
L 794 531 
z
" transform="scale(0.015625)"/>
       </defs>
       <use xlink:href="#DejaVuSans-31"/>
       <use xlink:href="#DejaVuSans-2e" transform="translate(63.623047 0)"/>
       <use xlink:href="#DejaVuSans-30" transform="translate(95.410156 0)"/>
      </g>
     </g>
    </g>
    <g id="text_7">
     <!-- Водонасыщенность Sw, д.ед. -->
     <g transform="translate(19.3575 371.410937) rotate(-90) scale(0.16 -0.16)">
      <defs>
       <path id="DejaVuSans-412" d="M 1259 2228 
L 1259 519 
L 2272 519 
Q 2781 519 3026 730 
Q 3272 941 3272 1375 
Q 3272 1813 3026 2020 
Q 2781 2228 2272 2228 
L 1259 2228 
z
M 1259 4147 
L 1259 2741 
L 2194 2741 
Q 2656 2741 2882 2914 
Q 3109 3088 3109 3444 
Q 3109 3797 2882 3972 
Q 2656 4147 2194 4147 
L 1259 4147 
z
M 628 4666 
L 2241 4666 
Q 2963 4666 3353 4366 
Q 3744 4066 3744 3513 
Q 3744 3084 3544 2831 
Q 3344 2578 2956 2516 
Q 3422 2416 3680 2098 
Q 3938 1781 3938 1306 
Q 3938 681 3513 340 
Q 3088 0 2303 0 
L 628 0 
L 628 4666 
z
" transform="scale(0.015625)"/>
       <path id="DejaVuSans-43e" d="M 1959 3097 
Q 1497 3097 1228 2736 
Q 959 2375 959 1747 
Q 959 1119 1226 758 
Q 1494 397 1959 397 
Q 2419 397 2687 759 
Q 2956 1122 2956 1747 
Q 2956 2369 2687 2733 
Q 2419 3097 1959 3097 
z
M 1959 3584 
Q 2709 3584 3137 3096 
Q 3566 2609 3566 1747 
Q 3566 888 3137 398 
Q 2709 -91 1959 -91 
Q 1206 -91 779 398 
Q 353 888 353 1747 
Q 353 2609 779 3096 
Q 1206 3584 1959 3584 
z
" transform="scale(0.015625)"/>
       <path id="DejaVuSans-434" d="M 1384 459 
L 3053 459 
L 3053 3041 
L 1844 3041 
L 1844 2603 
Q 1844 1316 1475 628 
L 1384 459 
z
M 550 459 
Q 834 584 959 850 
Q 1266 1509 1266 2838 
L 1266 3500 
L 3631 3500 
L 3631 459 
L 4091 459 
L 4091 -884 
L 3631 -884 
L 3631 0 
L 794 0 
L 794 -884 
L 334 -884 
L 334 459 
L 550 459 
z
" transform="scale(0.015625)"/>
       <path id="DejaVuSans-43d" d="M 581 3500 
L 1159 3500 
L 1159 2072 
L 3025 2072 
L 3025 3500 
L 3603 3500 
L 3603 0 
L 3025 0 
L 3025 1613 
L 1159 1613 
L 1159 0 
L 581 0 
L 581 3500 
z
" transform="scale(0.015625)"/>
       <path id="DejaVuSans-430" d="M 2194 1759 
Q 1497 1759 1228 1600 
Q 959 1441 959 1056 
Q 959 750 1161 570 
Q 1363 391 1709 391 
Q 2188 391 2477 730 
Q 2766 1069 2766 1631 
L 2766 1759 
L 2194 1759 
z
M 3341 1997 
L 3341 0 
L 2766 0 
L 2766 531 
Q 2569 213 2275 61 
Q 1981 -91 1556 -91 
Q 1019 -91 701 211 
Q 384 513 384 1019 
Q 384 1609 779 1909 
Q 1175 2209 1959 2209 
L 2766 2209 
L 2766 2266 
Q 2766 2663 2505 2880 
Q 2244 3097 1772 3097 
Q 1472 3097 1187 3025 
Q 903 2953 641 2809 
L 641 3341 
Q 956 3463 1253 3523 
Q 1550 3584 1831 3584 
Q 2591 3584 2966 3190 
Q 3341 2797 3341 1997 
z
" transform="scale(0.015625)"/>
       <path id="DejaVuSans-441" d="M 3122 3366 
L 3122 2828 
Q 2878 2963 2633 3030 
Q 2388 3097 2138 3097 
Q 1578 3097 1268 2742 
Q 959 2388 959 1747 
Q 959 1106 1268 751 
Q 1578 397 2138 397 
Q 2388 397 2633 464 
Q 2878 531 3122 666 
L 3122 134 
Q 2881 22 2623 -34 
Q 2366 -91 2075 -91 
Q 1284 -91 818 406 
Q 353 903 353 1747 
Q 353 2603 823 3093 
Q 1294 3584 2113 3584 
Q 2378 3584 2631 3529 
Q 2884 3475 3122 3366 
z
" transform="scale(0.015625)"/>
       <path id="DejaVuSans-44b" d="M 3907 3500 
L 4482 3500 
L 4482 0 
L 3907 0 
L 3907 3500 
z
M 4195 3584 
L 4195 3584 
z
M 2781 1038 
Q 2781 1319 2576 1466 
Q 2372 1613 1978 1613 
L 1159 1613 
L 1159 459 
L 1978 459 
Q 2372 459 2576 607 
Q 2781 756 2781 1038 
z
M 581 3500 
L 1159 3500 
L 1159 2072 
L 2003 2072 
Q 2672 2072 3033 1817 
Q 3394 1563 3394 1038 
Q 3394 513 3033 256 
Q 2672 0 2003 0 
L 581 0 
L 581 3500 
z
" transform="scale(0.015625)"/>
       <path id="DejaVuSans-449" d="M 5275 0 
L 581 0 
L 581 3500 
L 1159 3500 
L 1159 459 
L 2638 459 
L 2638 3500 
L 3216 3500 
L 3216 459 
L 4697 459 
L 4697 3500 
L 5275 3500 
L 5275 459 
L 5734 459 
L 5734 -884 
L 5275 -884 
L 5275 0 
z
" transform="scale(0.015625)"/>
       <path id="DejaVuSans-435" d="M 3597 1894 
L 3597 1613 
L 953 1613 
Q 991 1019 1311 708 
Q 1631 397 2203 397 
Q 2534 397 2845 478 
Q 3156 559 3463 722 
L 3463 178 
Q 3153 47 2828 -22 
Q 2503 -91 2169 -91 
Q 1331 -91 842 396 
Q 353 884 353 1716 
Q 353 2575 817 3079 
Q 1281 3584 2069 3584 
Q 2775 3584 3186 3129 
Q 3597 2675 3597 1894 
z
M 3022 2063 
Q 3016 2534 2758 2815 
Q 2500 3097 2075 3097 
Q 1594 3097 1305 2825 
Q 1016 2553 972 2059 
L 3022 2063 
z
" transform="scale(0.015625)"/>
       <path id="DejaVuSans-442" d="M 188 3500 
L 3541 3500 
L 3541 3041 
L 2147 3041 
L 2147 0 
L 1581 0 
L 1581 3041 
L 188 3041 
L 188 3500 
z
" transform="scale(0.015625)"/>
       <path id="DejaVuSans-44c" d="M 2781 1038 
Q 2781 1319 2576 1466 
Q 2372 1613 1978 1613 
L 1159 1613 
L 1159 459 
L 1978 459 
Q 2372 459 2576 607 
Q 2781 756 2781 1038 
z
M 581 3500 
L 1159 3500 
L 1159 2072 
L 2003 2072 
Q 2672 2072 3033 1817 
Q 3394 1563 3394 1038 
Q 3394 513 3033 256 
Q 2672 0 2003 0 
L 581 0 
L 581 3500 
z
" transform="scale(0.015625)"/>
       <path id="DejaVuSans-20" transform="scale(0.015625)"/>
       <path id="DejaVuSans-53" d="M 3425 4513 
L 3425 3897 
Q 3066 4069 2747 4153 
Q 2428 4238 2131 4238 
Q 1616 4238 1336 4038 
Q 1056 3838 1056 3469 
Q 1056 3159 1242 3001 
Q 1428 2844 1947 2747 
L 2328 2669 
Q 3034 2534 3370 2195 
Q 3706 1856 3706 1288 
Q 3706 609 3251 259 
Q 2797 -91 1919 -91 
Q 1588 -91 1214 -16 
Q 841 59 441 206 
L 441 856 
Q 825 641 1194 531 
Q 1563 422 1919 422 
Q 2459 422 2753 634 
Q 3047 847 3047 1241 
Q 3047 1584 2836 1778 
Q 2625 1972 2144 2069 
L 1759 2144 
Q 1053 2284 737 2584 
Q 422 2884 422 3419 
Q 422 4038 858 4394 
Q 1294 4750 2059 4750 
Q 2388 4750 2728 4690 
Q 3069 4631 3425 4513 
z
" transform="scale(0.015625)"/>
       <path id="DejaVuSans-77" d="M 269 3500 
L 844 3500 
L 1563 769 
L 2278 3500 
L 2956 3500 
L 3675 769 
L 4391 3500 
L 4966 3500 
L 4050 0 
L 3372 0 
L 2619 2869 
L 1863 0 
L 1184 0 
L 269 3500 
z
" transform="scale(0.015625)"/>
       <path id="DejaVuSans-2c" d="M 750 794 
L 1409 794 
L 1409 256 
L 897 -744 
L 494 -744 
L 750 256 
L 750 794 
z
" transform="scale(0.015625)"/>
      </defs>
      <use xlink:href="#DejaVuSans-412"/>
      <use xlink:href="#DejaVuSans-43e" transform="translate(68.603516 0)"/>
      <use xlink:href="#DejaVuSans-434" transform="translate(129.785156 0)"/>
      <use xlink:href="#DejaVuSans-43e" transform="translate(198.925781 0)"/>
      <use xlink:href="#DejaVuSans-43d" transform="translate(260.107422 0)"/>
      <use xlink:href="#DejaVuSans-430" transform="translate(325.488281 0)"/>
      <use xlink:href="#DejaVuSans-441" transform="translate(386.767578 0)"/>
      <use xlink:href="#DejaVuSans-44b" transform="translate(441.748047 0)"/>
      <use xlink:href="#DejaVuSans-449" transform="translate(520.703125 0)"/>
      <use xlink:href="#DejaVuSans-435" transform="translate(614.892578 0)"/>
      <use xlink:href="#DejaVuSans-43d" transform="translate(676.416016 0)"/>
      <use xlink:href="#DejaVuSans-43d" transform="translate(741.796875 0)"/>
      <use xlink:href="#DejaVuSans-43e" transform="translate(807.177734 0)"/>
      <use xlink:href="#DejaVuSans-441" transform="translate(868.359375 0)"/>
      <use xlink:href="#DejaVuSans-442" transform="translate(923.339844 0)"/>
      <use xlink:href="#DejaVuSans-44c" transform="translate(981.591797 0)"/>
      <use xlink:href="#DejaVuSans-20" transform="translate(1040.527344 0)"/>
      <use xlink:href="#DejaVuSans-53" transform="translate(1072.314453 0)"/>
      <use xlink:href="#DejaVuSans-77" transform="translate(1135.791016 0)"/>
      <use xlink:href="#DejaVuSans-2c" transform="translate(1217.578125 0)"/>
      <use xlink:href="#DejaVuSans-20" transform="translate(1249.365234 0)"/>
      <use xlink:href="#DejaVuSans-434" transform="translate(1281.152344 0)"/>
      <use xlink:href="#DejaVuSans-2e" transform="translate(1350.292969 0)"/>
      <use xlink:href="#DejaVuSans-435" transform="translate(1382.080078 0)"/>
      <use xlink:href="#DejaVuSans-434" transform="translate(1443.603516 0)"/>
      <use xlink:href="#DejaVuSans-2e" transform="translate(1512.744141 0)"/>
     </g>
    </g>
   </g>
   <g id="line2d_25">
    <path d="M 88.845568 115.449625 
L 96.060932 146.764673 
L 103.276295 158.978569 
L 110.491659 167.802115 
L 117.707023 174.821814 
L 124.922386 180.692555 
L 132.13775 185.762399 
L 139.353114 190.241994 
L 146.568477 194.269852 
L 153.783841 197.942682 
L 160.999205 201.331297 
L 168.214568 204.489728 
L 175.429932 207.460863 
L 182.645295 210.280192 
L 189.860659 212.97853 
L 197.076023 215.584262 
L 204.291386 218.125507 
L 211.50675 220.632688 
L 218.722114 223.142159 
L 225.937477 225.702186 
L 233.152841 228.384065 
L 240.368205 231.305191 
L 247.583568 234.683159 
L 254.798932 238.984161 
L 262.014295 245.432354 
L 269.229659 258.512016 
L 276.445023 303.975007 
L 283.660386 375.102089 
L 290.87575 380.247145 
L 298.091114 380.24725 
L 305.306477 380.24725 
L 312.521841 380.24725 
L 319.737205 380.24725 
L 326.952568 380.24725 
L 334.167932 380.24725 
L 341.383295 380.24725 
L 348.598659 380.24725 
L 355.814023 380.24725 
L 363.029386 380.24725 
L 370.24475 380.24725 
L 377.460114 380.24725 
L 384.675477 380.24725 
L 391.890841 380.24725 
L 399.106205 380.24725 
L 406.321568 380.24725 
L 413.536932 380.24725 
L 420.752295 380.24725 
L 427.967659 380.24725 
L 435.183023 380.24725 
L 442.398386 380.24725 
L 449.61375 380.24725 
L 456.829114 380.24725 
L 464.044477 380.24725 
L 471.259841 380.24725 
L 478.475205 380.24725 
L 485.690568 380.24725 
L 492.905932 380.24725 
L 500.121295 380.24725 
L 507.336659 380.24725 
L 514.552023 380.24725 
L 521.767386 380.24725 
L 528.98275 380.24725 
L 536.198114 380.24725 
L 543.413477 380.24725 
L 550.628841 380.24725 
L 557.844205 380.24725 
L 565.059568 380.24725 
L 572.274932 380.24725 
L 579.490295 380.24725 
L 586.705659 380.24725 
L 593.921023 380.24725 
L 601.136386 380.24725 
L 608.35175 380.24725 
L 615.567114 380.24725 
L 622.782477 380.24725 
L 629.997841 380.24725 
L 637.213205 380.24725 
L 644.428568 380.24725 
L 651.643932 380.24725 
L 658.859295 380.24725 
L 666.074659 380.24725 
L 673.290023 380.24725 
L 680.505386 380.24725 
L 687.72075 380.24725 
L 694.936114 380.24725 
L 702.151477 380.24725 
L 709.366841 380.24725 
L 716.582205 380.24725 
L 723.797568 380.24725 
L 731.012932 380.24725 
L 738.228295 380.24725 
L 745.443659 380.24725 
L 752.659023 380.24725 
L 759.874386 380.24725 
L 767.08975 380.24725 
L 774.305114 380.24725 
L 781.520477 380.24725 
L 788.735841 380.24725 
L 795.951205 380.24725 
L 803.166568 380.24725 
L 810.381932 380.24725 
" clip-path="url(#p10e4f03752)" style="fill: none; stroke: #0000ff; stroke-width: 3; stroke-linecap: square"/>
   </g>
   <g id="line2d_26">
    <path d="M 88.845568 115.449625 
L 96.060932 126.129872 
L 103.276295 131.553449 
L 110.491659 135.980825 
L 117.707023 139.805688 
L 124.922386 143.199697 
L 132.13775 146.261862 
L 139.353114 149.057297 
L 146.568477 151.632192 
L 153.783841 154.02096 
L 160.999205 156.250155 
L 168.214568 158.340804 
L 175.429932 160.309905 
L 182.645295 162.17143 
L 189.860659 163.937024 
L 197.076023 165.616506 
L 204.291386 167.218242 
L 211.50675 168.749423 
L 218.722114 170.21628 
L 225.937477 171.624246 
L 233.152841 172.978094 
L 240.368205 174.282037 
L 247.583568 175.539816 
L 254.798932 176.754766 
L 262.014295 177.929876 
L 269.229659 179.067832 
L 276.445023 180.171062 
L 283.660386 181.241763 
L 290.87575 182.281933 
L 298.091114 183.293394 
L 305.306477 184.277812 
L 312.521841 185.236712 
L 319.737205 186.171499 
L 326.952568 187.083464 
L 334.167932 187.973803 
L 341.383295 188.843619 
L 348.598659 189.693936 
L 355.814023 190.525707 
L 363.029386 191.339817 
L 370.24475 192.137092 
L 377.460114 192.918304 
L 384.675477 193.684174 
L 391.890841 194.435377 
L 399.106205 195.17255 
L 406.321568 195.896288 
L 413.536932 196.607153 
L 420.752295 197.305674 
L 427.967659 197.992349 
L 435.183023 198.66765 
L 442.398386 199.332024 
L 449.61375 199.985893 
L 456.829114 200.629658 
L 464.044477 201.2637 
L 471.259841 201.88838 
L 478.475205 202.504044 
L 485.690568 203.111018 
L 492.905932 203.709616 
L 500.121295 204.300138 
L 507.336659 204.882868 
L 514.552023 205.458082 
L 521.767386 206.02604 
L 528.98275 206.586995 
L 536.198114 207.141189 
L 543.413477 207.688855 
L 550.628841 208.230217 
L 557.844205 208.765491 
L 565.059568 209.294887 
L 572.274932 209.818606 
L 579.490295 210.336846 
L 586.705659 210.849797 
L 593.921023 211.357643 
L 601.136386 211.860567 
L 608.35175 212.358744 
L 615.567114 212.852347 
L 622.782477 213.341545 
L 629.997841 213.826507 
L 637.213205 214.307396 
L 644.428568 214.784376 
L 651.643932 215.257608 
L 658.859295 215.727254 
L 666.074659 216.193476 
L 673.290023 216.656436 
L 680.505386 217.116298 
L 687.72075 217.573228 
L 694.936114 218.027394 
L 702.151477 218.478971 
L 709.366841 218.928136 
L 716.582205 219.375076 
L 723.797568 219.819982 
L 731.012932 220.263057 
L 738.228295 220.704516 
L 745.443659 221.144586 
L 752.659023 221.583511 
L 759.874386 222.021555 
L 767.08975 222.459004 
L 774.305114 222.896172 
L 781.520477 223.333406 
L 788.735841 223.771093 
L 795.951205 224.209666 
L 803.166568 224.649617 
L 810.381932 224.649617 
" clip-path="url(#p10e4f03752)" style="fill: none; stroke-dasharray: 11.1,4.8; stroke-dashoffset: 0; stroke: #008000; stroke-width: 3"/>
   </g>
   <g id="line2d_27">
    <path d="M 88.845568 115.449625 
L 96.060932 121.597383 
L 103.276295 124.95959 
L 110.491659 127.829707 
L 117.707023 130.39838 
L 124.922386 132.745053 
L 132.13775 134.914968 
L 139.353114 136.938079 
L 146.568477 138.836005 
L 153.783841 140.625226 
L 160.999205 142.318771 
L 168.214568 143.927226 
L 175.429932 145.459365 
L 182.645295 146.922574 
L 189.860659 148.323153 
L 197.076023 149.666531 
L 204.291386 150.957428 
L 211.50675 152.199983 
L 218.722114 153.397845 
L 225.937477 154.554256 
L 233.152841 155.672104 
L 240.368205 156.753983 
L 247.583568 157.802225 
L 254.798932 158.818941 
L 262.014295 159.806044 
L 269.229659 160.765276 
L 276.445023 161.698229 
L 283.660386 162.60636 
L 290.87575 163.491007 
L 298.091114 164.353402 
L 305.306477 165.194681 
L 312.521841 166.015895 
L 319.737205 166.818019 
L 326.952568 167.601957 
L 334.167932 168.36855 
L 341.383295 169.118584 
L 348.598659 169.852789 
L 355.814023 170.571851 
L 363.029386 171.276411 
L 370.24475 171.967069 
L 377.460114 172.644392 
L 384.675477 173.308908 
L 391.890841 173.961119 
L 399.106205 174.601496 
L 406.321568 175.230483 
L 413.536932 175.848501 
L 420.752295 176.455948 
L 427.967659 177.053199 
L 435.183023 177.640612 
L 442.398386 178.218524 
L 449.61375 178.787259 
L 456.829114 179.347121 
L 464.044477 179.8984 
L 471.259841 180.441374 
L 478.475205 180.976306 
L 485.690568 181.503448 
L 492.905932 182.02304 
L 500.121295 182.53531 
L 507.336659 183.040478 
L 514.552023 183.538754 
L 521.767386 184.030337 
L 528.98275 184.515421 
L 536.198114 184.994188 
L 543.413477 185.466815 
L 550.628841 185.933471 
L 557.844205 186.394319 
L 565.059568 186.849515 
L 572.274932 187.299208 
L 579.490295 187.743544 
L 586.705659 188.18266 
L 593.921023 188.61669 
L 601.136386 189.045762 
L 608.35175 189.470001 
L 615.567114 189.889526 
L 622.782477 190.304452 
L 629.997841 190.71489 
L 637.213205 191.120947 
L 644.428568 191.522727 
L 651.643932 191.92033 
L 658.859295 192.313852 
L 666.074659 192.703387 
L 673.290023 193.089025 
L 680.505386 193.470854 
L 687.72075 193.848959 
L 694.936114 194.22342 
L 702.151477 194.594319 
L 709.366841 194.961731 
L 716.582205 195.325731 
L 723.797568 195.686392 
L 731.012932 196.043783 
L 738.228295 196.397974 
L 745.443659 196.749029 
L 752.659023 197.097013 
L 759.874386 197.441988 
L 767.08975 197.784015 
L 774.305114 198.123153 
L 781.520477 198.459458 
L 788.735841 198.792987 
L 795.951205 199.123793 
L 803.166568 199.45193 
L 810.381932 199.45193 
" clip-path="url(#p10e4f03752)" style="fill: none; stroke-dasharray: 19.2,4.8,3,4.8; stroke-dashoffset: 0; stroke: #ff0000; stroke-width: 3"/>
   </g>
   <g id="patch_3">
    <path d="M 52.76875 468.513125 
L 52.76875 27.18375 
" style="fill: none; stroke: #000000; stroke-width: 0.8; stroke-linejoin: miter; stroke-linecap: square"/>
   </g>
   <g id="patch_4">
    <path d="M 846.45875 468.513125 
L 846.45875 27.18375 
" style="fill: none; stroke: #000000; stroke-width: 0.8; stroke-linejoin: miter; stroke-linecap: square"/>
   </g>
   <g id="patch_5">
    <path d="M 52.76875 468.513125 
L 846.45875 468.513125 
" style="fill: none; stroke: #000000; stroke-width: 0.8; stroke-linejoin: miter; stroke-linecap: square"/>
   </g>
   <g id="patch_6">
    <path d="M 52.76875 27.18375 
L 846.45875 27.18375 
" style="fill: none; stroke: #000000; stroke-width: 0.8; stroke-linejoin: miter; stroke-linecap: square"/>
   </g>
   <g id="text_8">
    <!-- Профиль насыщенности без учета капиллярных эффектов -->
    <g transform="translate(168.134531 21.18375) scale(0.18 -0.18)">
     <defs>
      <path id="DejaVuSans-41f" d="M 4184 4666 
L 4184 0 
L 3553 0 
L 3553 4134 
L 1259 4134 
L 1259 0 
L 628 0 
L 628 4666 
L 4184 4666 
z
" transform="scale(0.015625)"/>
      <path id="DejaVuSans-440" d="M 1159 525 
L 1159 -1331 
L 581 -1331 
L 581 3500 
L 1159 3500 
L 1159 2969 
Q 1341 3281 1617 3432 
Q 1894 3584 2278 3584 
Q 2916 3584 3314 3078 
Q 3713 2572 3713 1747 
Q 3713 922 3314 415 
Q 2916 -91 2278 -91 
Q 1894 -91 1617 61 
Q 1341 213 1159 525 
z
M 3116 1747 
Q 3116 2381 2855 2742 
Q 2594 3103 2138 3103 
Q 1681 3103 1420 2742 
Q 1159 2381 1159 1747 
Q 1159 1113 1420 752 
Q 1681 391 2138 391 
Q 2594 391 2855 752 
Q 3116 1113 3116 1747 
z
" transform="scale(0.015625)"/>
      <path id="DejaVuSans-444" d="M 947 1747 
Q 947 1013 1173 702 
Q 1400 391 1784 391 
Q 2091 391 2447 916 
L 2447 2578 
Q 2091 3103 1784 3103 
Q 1400 3103 1173 2792 
Q 947 2481 947 1747 
z
M 2447 -1331 
L 2447 447 
Q 2269 153 2064 31 
Q 1859 -91 1600 -91 
Q 1078 -91 714 392 
Q 350 875 350 1734 
Q 350 2594 714 3089 
Q 1078 3584 1600 3584 
Q 1859 3584 2064 3465 
Q 2269 3347 2447 3053 
L 2447 4666 
L 3025 4666 
L 3025 3053 
Q 3203 3347 3408 3465 
Q 3613 3584 3872 3584 
Q 4394 3584 4758 3089 
Q 5122 2594 5122 1734 
Q 5122 875 4758 392 
Q 4394 -91 3872 -91 
Q 3613 -91 3408 31 
Q 3203 153 3025 447 
L 3025 -1331 
L 2447 -1331 
z
M 4525 1747 
Q 4525 2481 4298 2792 
Q 4072 3103 3688 3103 
Q 3381 3103 3025 2578 
L 3025 916 
Q 3381 391 3688 391 
Q 4072 391 4298 702 
Q 4525 1013 4525 1747 
z
" transform="scale(0.015625)"/>
      <path id="DejaVuSans-438" d="M 3578 3500 
L 3578 0 
L 3006 0 
L 3006 2809 
L 1319 0 
L 581 0 
L 581 3500 
L 1153 3500 
L 1153 697 
L 2838 3500 
L 3578 3500 
z
" transform="scale(0.015625)"/>
      <path id="DejaVuSans-43b" d="M 238 0 
L 238 478 
Q 806 566 981 959 
Q 1194 1513 1194 2928 
L 1194 3500 
L 3559 3500 
L 3559 0 
L 2984 0 
L 2984 3041 
L 1769 3041 
L 1769 2694 
Q 1769 1344 1494 738 
Q 1200 91 238 0 
z
" transform="scale(0.015625)"/>
      <path id="DejaVuSans-431" d="M 1991 3584 
Q 2741 3584 3169 3096 
Q 3597 2609 3597 1747 
Q 3597 888 3169 398 
Q 2741 -91 1991 -91 
Q 1238 -91 822 384 
Q 406 859 384 1747 
L 366 2463 
Q 350 2834 350 2963 
Q 350 3463 531 3831 
Q 816 4409 1308 4659 
Q 1800 4909 2625 4916 
Q 3006 4919 3175 4972 
L 3334 4516 
Q 3181 4453 3041 4450 
L 2259 4397 
Q 1866 4369 1628 4231 
Q 1006 3866 947 3388 
L 925 3213 
Q 1331 3584 1991 3584 
z
M 1991 3097 
Q 1528 3097 1259 2736 
Q 991 2375 991 1747 
Q 991 1119 1258 758 
Q 1525 397 1991 397 
Q 2450 397 2719 759 
Q 2988 1122 2988 1747 
Q 2988 2369 2719 2733 
Q 2450 3097 1991 3097 
z
" transform="scale(0.015625)"/>
      <path id="DejaVuSans-437" d="M 2206 1888 
Q 2594 1813 2809 1584 
Q 3025 1356 3025 1019 
Q 3025 478 2622 193 
Q 2219 -91 1475 -91 
Q 1225 -91 961 -47 
Q 697 -3 416 84 
L 416 619 
Q 638 503 903 445 
Q 1169 388 1459 388 
Q 1931 388 2195 563 
Q 2459 738 2459 1019 
Q 2459 1294 2225 1461 
Q 1991 1628 1563 1628 
L 1100 1628 
L 1100 2103 
L 1584 2103 
Q 1947 2103 2158 2242 
Q 2369 2381 2369 2600 
Q 2369 2800 2151 2944 
Q 1934 3088 1563 3088 
Q 1341 3088 1089 3047 
Q 838 3006 534 2916 
L 534 3438 
Q 841 3513 1106 3550 
Q 1372 3588 1609 3588 
Q 2222 3588 2576 3342 
Q 2931 3097 2931 2656 
Q 2931 2366 2743 2164 
Q 2556 1963 2206 1888 
z
" transform="scale(0.015625)"/>
      <path id="DejaVuSans-443" d="M 2059 -325 
Q 1816 -950 1584 -1140 
Q 1353 -1331 966 -1331 
L 506 -1331 
L 506 -850 
L 844 -850 
Q 1081 -850 1212 -737 
Q 1344 -625 1503 -206 
L 1606 56 
L 191 3500 
L 800 3500 
L 1894 763 
L 2988 3500 
L 3597 3500 
L 2059 -325 
z
" transform="scale(0.015625)"/>
      <path id="DejaVuSans-447" d="M 2625 0 
L 2625 1472 
L 1553 1472 
Q 1075 1472 756 1769 
Q 469 2038 469 2613 
L 469 3500 
L 1044 3500 
L 1044 2666 
Q 1044 2300 1206 2116 
Q 1372 1931 1697 1931 
L 2625 1931 
L 2625 3500 
L 3200 3500 
L 3200 0 
L 2625 0 
z
" transform="scale(0.015625)"/>
      <path id="DejaVuSans-43a" d="M 581 3500 
L 1153 3500 
L 1153 1856 
L 2775 3500 
L 3481 3500 
L 2144 2147 
L 3653 0 
L 3009 0 
L 1769 1766 
L 1153 1141 
L 1153 0 
L 581 0 
L 581 3500 
z
" transform="scale(0.015625)"/>
      <path id="DejaVuSans-43f" d="M 3603 3500 
L 3603 0 
L 3025 0 
L 3025 3041 
L 1159 3041 
L 1159 0 
L 581 0 
L 581 3500 
L 3603 3500 
z
" transform="scale(0.015625)"/>
      <path id="DejaVuSans-44f" d="M 1181 2491 
Q 1181 2231 1381 2084 
Q 1581 1938 1953 1938 
L 2728 1938 
L 2728 3041 
L 1953 3041 
Q 1581 3041 1381 2897 
Q 1181 2753 1181 2491 
z
M 363 0 
L 1431 1534 
Q 1069 1616 828 1830 
Q 588 2044 588 2491 
Q 588 2997 923 3248 
Q 1259 3500 1938 3500 
L 3306 3500 
L 3306 0 
L 2728 0 
L 2728 1478 
L 2013 1478 
L 981 0 
L 363 0 
z
" transform="scale(0.015625)"/>
      <path id="DejaVuSans-445" d="M 3513 3500 
L 2247 1797 
L 3578 0 
L 2900 0 
L 1881 1375 
L 863 0 
L 184 0 
L 1544 1831 
L 300 3500 
L 978 3500 
L 1906 2253 
L 2834 3500 
L 3513 3500 
z
" transform="scale(0.015625)"/>
      <path id="DejaVuSans-44d" d="M 353 666 
Q 847 397 1338 397 
Q 1797 397 2125 664 
Q 2453 931 2513 1613 
L 738 1613 
L 738 2072 
L 2494 2072 
Q 2456 2400 2207 2748 
Q 1959 3097 1338 3097 
Q 856 3097 353 2828 
L 353 3366 
Q 844 3584 1363 3584 
Q 2181 3584 2651 3089 
Q 3122 2594 3122 1747 
Q 3122 903 2664 406 
Q 2206 -91 1403 -91 
Q 813 -91 353 134 
L 353 666 
z
" transform="scale(0.015625)"/>
      <path id="DejaVuSans-432" d="M 1156 1613 
L 1156 459 
L 1975 459 
Q 2369 459 2575 607 
Q 2781 756 2781 1038 
Q 2781 1319 2575 1466 
Q 2369 1613 1975 1613 
L 1156 1613 
z
M 1156 3041 
L 1156 2072 
L 1913 2072 
Q 2238 2072 2444 2201 
Q 2650 2331 2650 2563 
Q 2650 2794 2444 2917 
Q 2238 3041 1913 3041 
L 1156 3041 
z
M 581 3500 
L 1950 3500 
Q 2566 3500 2897 3275 
Q 3228 3050 3228 2634 
Q 3228 2313 3059 2123 
Q 2891 1934 2559 1888 
Q 2956 1813 3175 1575 
Q 3394 1338 3394 981 
Q 3394 513 3033 256 
Q 2672 0 2003 0 
L 581 0 
L 581 3500 
z
" transform="scale(0.015625)"/>
     </defs>
     <use xlink:href="#DejaVuSans-41f"/>
     <use xlink:href="#DejaVuSans-440" transform="translate(75.195312 0)"/>
     <use xlink:href="#DejaVuSans-43e" transform="translate(138.671875 0)"/>
     <use xlink:href="#DejaVuSans-444" transform="translate(199.853516 0)"/>
     <use xlink:href="#DejaVuSans-438" transform="translate(285.351562 0)"/>
     <use xlink:href="#DejaVuSans-43b" transform="translate(350.341797 0)"/>
     <use xlink:href="#DejaVuSans-44c" transform="translate(414.257812 0)"/>
     <use xlink:href="#DejaVuSans-20" transform="translate(473.193359 0)"/>
     <use xlink:href="#DejaVuSans-43d" transform="translate(504.980469 0)"/>
     <use xlink:href="#DejaVuSans-430" transform="translate(570.361328 0)"/>
     <use xlink:href="#DejaVuSans-441" transform="translate(631.640625 0)"/>
     <use xlink:href="#DejaVuSans-44b" transform="translate(686.621094 0)"/>
     <use xlink:href="#DejaVuSans-449" transform="translate(765.576172 0)"/>
     <use xlink:href="#DejaVuSans-435" transform="translate(859.765625 0)"/>
     <use xlink:href="#DejaVuSans-43d" transform="translate(921.289062 0)"/>
     <use xlink:href="#DejaVuSans-43d" transform="translate(986.669922 0)"/>
     <use xlink:href="#DejaVuSans-43e" transform="translate(1052.050781 0)"/>
     <use xlink:href="#DejaVuSans-441" transform="translate(1113.232422 0)"/>
     <use xlink:href="#DejaVuSans-442" transform="translate(1168.212891 0)"/>
     <use xlink:href="#DejaVuSans-438" transform="translate(1226.464844 0)"/>
     <use xlink:href="#DejaVuSans-20" transform="translate(1291.455078 0)"/>
     <use xlink:href="#DejaVuSans-431" transform="translate(1323.242188 0)"/>
     <use xlink:href="#DejaVuSans-435" transform="translate(1384.912109 0)"/>
     <use xlink:href="#DejaVuSans-437" transform="translate(1446.435547 0)"/>
     <use xlink:href="#DejaVuSans-20" transform="translate(1499.609375 0)"/>
     <use xlink:href="#DejaVuSans-443" transform="translate(1531.396484 0)"/>
     <use xlink:href="#DejaVuSans-447" transform="translate(1590.576172 0)"/>
     <use xlink:href="#DejaVuSans-435" transform="translate(1649.658203 0)"/>
     <use xlink:href="#DejaVuSans-442" transform="translate(1711.181641 0)"/>
     <use xlink:href="#DejaVuSans-430" transform="translate(1769.433594 0)"/>
     <use xlink:href="#DejaVuSans-20" transform="translate(1830.712891 0)"/>
     <use xlink:href="#DejaVuSans-43a" transform="translate(1862.5 0)"/>
     <use xlink:href="#DejaVuSans-430" transform="translate(1922.900391 0)"/>
     <use xlink:href="#DejaVuSans-43f" transform="translate(1984.179688 0)"/>
     <use xlink:href="#DejaVuSans-438" transform="translate(2049.560547 0)"/>
     <use xlink:href="#DejaVuSans-43b" transform="translate(2114.550781 0)"/>
     <use xlink:href="#DejaVuSans-43b" transform="translate(2178.466797 0)"/>
     <use xlink:href="#DejaVuSans-44f" transform="translate(2242.382812 0)"/>
     <use xlink:href="#DejaVuSans-440" transform="translate(2302.539062 0)"/>
     <use xlink:href="#DejaVuSans-43d" transform="translate(2366.015625 0)"/>
     <use xlink:href="#DejaVuSans-44b" transform="translate(2431.396484 0)"/>
     <use xlink:href="#DejaVuSans-445" transform="translate(2510.351562 0)"/>
     <use xlink:href="#DejaVuSans-20" transform="translate(2569.53125 0)"/>
     <use xlink:href="#DejaVuSans-44d" transform="translate(2601.318359 0)"/>
     <use xlink:href="#DejaVuSans-444" transform="translate(2656.201172 0)"/>
     <use xlink:href="#DejaVuSans-444" transform="translate(2741.699219 0)"/>
     <use xlink:href="#DejaVuSans-435" transform="translate(2827.197266 0)"/>
     <use xlink:href="#DejaVuSans-43a" transform="translate(2888.720703 0)"/>
     <use xlink:href="#DejaVuSans-442" transform="translate(2949.121094 0)"/>
     <use xlink:href="#DejaVuSans-43e" transform="translate(3007.373047 0)"/>
     <use xlink:href="#DejaVuSans-432" transform="translate(3068.554688 0)"/>
    </g>
   </g>
   <g id="legend_1">
    <g id="patch_7">
     <path d="M 723.73125 100.031875 
L 836.65875 100.031875 
Q 839.45875 100.031875 839.45875 97.231875 
L 839.45875 36.98375 
Q 839.45875 34.18375 836.65875 34.18375 
L 723.73125 34.18375 
Q 720.93125 34.18375 720.93125 36.98375 
L 720.93125 97.231875 
Q 720.93125 100.031875 723.73125 100.031875 
z
" style="fill: #ffffff; opacity: 0.8; stroke: #cccccc; stroke-linejoin: miter"/>
    </g>
    <g id="line2d_28">
     <path d="M 726.53125 45.521562 
L 740.53125 45.521562 
L 754.53125 45.521562 
" style="fill: none; stroke: #0000ff; stroke-width: 3; stroke-linecap: square"/>
    </g>
    <g id="text_9">
     <!-- День 10 -->
     <g transform="translate(765.73125 50.421562) scale(0.14 -0.14)">
      <defs>
       <path id="DejaVuSans-414" d="M 1459 531 
L 3522 531 
L 3522 4134 
L 2006 4134 
L 2006 3472 
Q 2006 1913 1656 878 
Q 1584 666 1459 531 
z
M 538 531 
Q 956 728 1075 1103 
Q 1378 2066 1378 3784 
L 1378 4666 
L 4153 4666 
L 4153 531 
L 4684 531 
L 4684 -1003 
L 4153 -1003 
L 4153 0 
L 847 0 
L 847 -1003 
L 316 -1003 
L 316 531 
L 538 531 
z
" transform="scale(0.015625)"/>
      </defs>
      <use xlink:href="#DejaVuSans-414"/>
      <use xlink:href="#DejaVuSans-435" transform="translate(78.125 0)"/>
      <use xlink:href="#DejaVuSans-43d" transform="translate(139.648438 0)"/>
      <use xlink:href="#DejaVuSans-44c" transform="translate(205.029297 0)"/>
      <use xlink:href="#DejaVuSans-20" transform="translate(263.964844 0)"/>
      <use xlink:href="#DejaVuSans-31" transform="translate(295.751953 0)"/>
      <use xlink:href="#DejaVuSans-30" transform="translate(359.375 0)"/>
     </g>
    </g>
    <g id="line2d_29">
     <path d="M 726.53125 66.070937 
L 740.53125 66.070937 
L 754.53125 66.070937 
" style="fill: none; stroke-dasharray: 11.1,4.8; stroke-dashoffset: 0; stroke: #008000; stroke-width: 3"/>
    </g>
    <g id="text_10">
     <!-- День 50 -->
     <g transform="translate(765.73125 70.970937) scale(0.14 -0.14)">
      <defs>
       <path id="DejaVuSans-35" d="M 691 4666 
L 3169 4666 
L 3169 4134 
L 1269 4134 
L 1269 2991 
Q 1406 3038 1543 3061 
Q 1681 3084 1819 3084 
Q 2600 3084 3056 2656 
Q 3513 2228 3513 1497 
Q 3513 744 3044 326 
Q 2575 -91 1722 -91 
Q 1428 -91 1123 -41 
Q 819 9 494 109 
L 494 744 
Q 775 591 1075 516 
Q 1375 441 1709 441 
Q 2250 441 2565 725 
Q 2881 1009 2881 1497 
Q 2881 1984 2565 2268 
Q 2250 2553 1709 2553 
Q 1456 2553 1204 2497 
Q 953 2441 691 2322 
L 691 4666 
z
" transform="scale(0.015625)"/>
      </defs>
      <use xlink:href="#DejaVuSans-414"/>
      <use xlink:href="#DejaVuSans-435" transform="translate(78.125 0)"/>
      <use xlink:href="#DejaVuSans-43d" transform="translate(139.648438 0)"/>
      <use xlink:href="#DejaVuSans-44c" transform="translate(205.029297 0)"/>
      <use xlink:href="#DejaVuSans-20" transform="translate(263.964844 0)"/>
      <use xlink:href="#DejaVuSans-35" transform="translate(295.751953 0)"/>
      <use xlink:href="#DejaVuSans-30" transform="translate(359.375 0)"/>
     </g>
    </g>
    <g id="line2d_30">
     <path d="M 726.53125 86.620312 
L 740.53125 86.620312 
L 754.53125 86.620312 
" style="fill: none; stroke-dasharray: 19.2,4.8,3,4.8; stroke-dashoffset: 0; stroke: #ff0000; stroke-width: 3"/>
    </g>
    <g id="text_11">
     <!-- День 100 -->
     <g transform="translate(765.73125 91.520312) scale(0.14 -0.14)">
      <use xlink:href="#DejaVuSans-414"/>
      <use xlink:href="#DejaVuSans-435" transform="translate(78.125 0)"/>
      <use xlink:href="#DejaVuSans-43d" transform="translate(139.648438 0)"/>
      <use xlink:href="#DejaVuSans-44c" transform="translate(205.029297 0)"/>
      <use xlink:href="#DejaVuSans-20" transform="translate(263.964844 0)"/>
      <use xlink:href="#DejaVuSans-31" transform="translate(295.751953 0)"/>
      <use xlink:href="#DejaVuSans-30" transform="translate(359.375 0)"/>
      <use xlink:href="#DejaVuSans-30" transform="translate(422.998047 0)"/>
     </g>
    </g>
   </g>
  </g>
  <g id="axes_2">
   <g id="patch_8">
    <path d="M 52.76875 950.4025 
L 846.45875 950.4025 
L 846.45875 509.073125 
L 52.76875 509.073125 
z
" style="fill: #ffffff"/>
   </g>
   <g id="matplotlib.axis_3">
    <g id="xtick_7">
     <g id="line2d_31">
      <path d="M 88.845568 950.4025 
L 88.845568 509.073125 
" clip-path="url(#pb0d0b0b61d)" style="fill: none; stroke-dasharray: 2.96,1.28; stroke-dashoffset: 0; stroke: #b0b0b0; stroke-opacity: 0.7; stroke-width: 0.8"/>
     </g>
     <g id="line2d_32">
      <g>
       <use xlink:href="#m66341958f5" x="88.845568" y="950.4025" style="stroke: #000000; stroke-width: 0.8"/>
      </g>
     </g>
     <g id="text_12">
      <!-- 0 -->
      <g transform="translate(85.028068 966.520625) scale(0.12 -0.12)">
       <use xlink:href="#DejaVuSans-30"/>
      </g>
     </g>
    </g>
    <g id="xtick_8">
     <g id="line2d_33">
      <path d="M 233.152841 950.4025 
L 233.152841 509.073125 
" clip-path="url(#pb0d0b0b61d)" style="fill: none; stroke-dasharray: 2.96,1.28; stroke-dashoffset: 0; stroke: #b0b0b0; stroke-opacity: 0.7; stroke-width: 0.8"/>
     </g>
     <g id="line2d_34">
      <g>
       <use xlink:href="#m66341958f5" x="233.152841" y="950.4025" style="stroke: #000000; stroke-width: 0.8"/>
      </g>
     </g>
     <g id="text_13">
      <!-- 20 -->
      <g transform="translate(225.517841 966.520625) scale(0.12 -0.12)">
       <use xlink:href="#DejaVuSans-32"/>
       <use xlink:href="#DejaVuSans-30" transform="translate(63.623047 0)"/>
      </g>
     </g>
    </g>
    <g id="xtick_9">
     <g id="line2d_35">
      <path d="M 377.460114 950.4025 
L 377.460114 509.073125 
" clip-path="url(#pb0d0b0b61d)" style="fill: none; stroke-dasharray: 2.96,1.28; stroke-dashoffset: 0; stroke: #b0b0b0; stroke-opacity: 0.7; stroke-width: 0.8"/>
     </g>
     <g id="line2d_36">
      <g>
       <use xlink:href="#m66341958f5" x="377.460114" y="950.4025" style="stroke: #000000; stroke-width: 0.8"/>
      </g>
     </g>
     <g id="text_14">
      <!-- 40 -->
      <g transform="translate(369.825114 966.520625) scale(0.12 -0.12)">
       <use xlink:href="#DejaVuSans-34"/>
       <use xlink:href="#DejaVuSans-30" transform="translate(63.623047 0)"/>
      </g>
     </g>
    </g>
    <g id="xtick_10">
     <g id="line2d_37">
      <path d="M 521.767386 950.4025 
L 521.767386 509.073125 
" clip-path="url(#pb0d0b0b61d)" style="fill: none; stroke-dasharray: 2.96,1.28; stroke-dashoffset: 0; stroke: #b0b0b0; stroke-opacity: 0.7; stroke-width: 0.8"/>
     </g>
     <g id="line2d_38">
      <g>
       <use xlink:href="#m66341958f5" x="521.767386" y="950.4025" style="stroke: #000000; stroke-width: 0.8"/>
      </g>
     </g>
     <g id="text_15">
      <!-- 60 -->
      <g transform="translate(514.132386 966.520625) scale(0.12 -0.12)">
       <use xlink:href="#DejaVuSans-36"/>
       <use xlink:href="#DejaVuSans-30" transform="translate(63.623047 0)"/>
      </g>
     </g>
    </g>
    <g id="xtick_11">
     <g id="line2d_39">
      <path d="M 666.074659 950.4025 
L 666.074659 509.073125 
" clip-path="url(#pb0d0b0b61d)" style="fill: none; stroke-dasharray: 2.96,1.28; stroke-dashoffset: 0; stroke: #b0b0b0; stroke-opacity: 0.7; stroke-width: 0.8"/>
     </g>
     <g id="line2d_40">
      <g>
       <use xlink:href="#m66341958f5" x="666.074659" y="950.4025" style="stroke: #000000; stroke-width: 0.8"/>
      </g>
     </g>
     <g id="text_16">
      <!-- 80 -->
      <g transform="translate(658.439659 966.520625) scale(0.12 -0.12)">
       <use xlink:href="#DejaVuSans-38"/>
       <use xlink:href="#DejaVuSans-30" transform="translate(63.623047 0)"/>
      </g>
     </g>
    </g>
    <g id="xtick_12">
     <g id="line2d_41">
      <path d="M 810.381932 950.4025 
L 810.381932 509.073125 
" clip-path="url(#pb0d0b0b61d)" style="fill: none; stroke-dasharray: 2.96,1.28; stroke-dashoffset: 0; stroke: #b0b0b0; stroke-opacity: 0.7; stroke-width: 0.8"/>
     </g>
     <g id="line2d_42">
      <g>
       <use xlink:href="#m66341958f5" x="810.381932" y="950.4025" style="stroke: #000000; stroke-width: 0.8"/>
      </g>
     </g>
     <g id="text_17">
      <!-- 100 -->
      <g transform="translate(798.929432 966.520625) scale(0.12 -0.12)">
       <use xlink:href="#DejaVuSans-31"/>
       <use xlink:href="#DejaVuSans-30" transform="translate(63.623047 0)"/>
       <use xlink:href="#DejaVuSans-30" transform="translate(127.246094 0)"/>
      </g>
     </g>
    </g>
    <g id="text_18">
     <!-- Расстояние, м -->
     <g transform="translate(390.25125 985.17375) scale(0.16 -0.16)">
      <defs>
       <path id="DejaVuSans-420" d="M 1259 4147 
L 1259 2394 
L 2053 2394 
Q 2494 2394 2734 2622 
Q 2975 2850 2975 3272 
Q 2975 3691 2734 3919 
Q 2494 4147 2053 4147 
L 1259 4147 
z
M 628 4666 
L 2053 4666 
Q 2838 4666 3239 4311 
Q 3641 3956 3641 3272 
Q 3641 2581 3239 2228 
Q 2838 1875 2053 1875 
L 1259 1875 
L 1259 0 
L 628 0 
L 628 4666 
z
" transform="scale(0.015625)"/>
       <path id="DejaVuSans-43c" d="M 581 3500 
L 1422 3500 
L 2416 1156 
L 3413 3500 
L 4247 3500 
L 4247 0 
L 3669 0 
L 3669 2950 
L 2703 672 
L 2128 672 
L 1159 2950 
L 1159 0 
L 581 0 
L 581 3500 
z
" transform="scale(0.015625)"/>
      </defs>
      <use xlink:href="#DejaVuSans-420"/>
      <use xlink:href="#DejaVuSans-430" transform="translate(60.302734 0)"/>
      <use xlink:href="#DejaVuSans-441" transform="translate(121.582031 0)"/>
      <use xlink:href="#DejaVuSans-441" transform="translate(176.5625 0)"/>
      <use xlink:href="#DejaVuSans-442" transform="translate(231.542969 0)"/>
      <use xlink:href="#DejaVuSans-43e" transform="translate(289.794922 0)"/>
      <use xlink:href="#DejaVuSans-44f" transform="translate(350.976562 0)"/>
      <use xlink:href="#DejaVuSans-43d" transform="translate(411.132812 0)"/>
      <use xlink:href="#DejaVuSans-438" transform="translate(476.513672 0)"/>
      <use xlink:href="#DejaVuSans-435" transform="translate(541.503906 0)"/>
      <use xlink:href="#DejaVuSans-2c" transform="translate(603.027344 0)"/>
      <use xlink:href="#DejaVuSans-20" transform="translate(634.814453 0)"/>
      <use xlink:href="#DejaVuSans-43c" transform="translate(666.601562 0)"/>
     </g>
    </g>
   </g>
   <g id="matplotlib.axis_4">
    <g id="ytick_7">
     <g id="line2d_43">
      <path d="M 52.76875 950.4025 
L 846.45875 950.4025 
" clip-path="url(#pb0d0b0b61d)" style="fill: none; stroke-dasharray: 2.96,1.28; stroke-dashoffset: 0; stroke: #b0b0b0; stroke-opacity: 0.7; stroke-width: 0.8"/>
     </g>
     <g id="line2d_44">
      <g>
       <use xlink:href="#mdf8af7c4e8" x="52.76875" y="950.4025" style="stroke: #000000; stroke-width: 0.8"/>
      </g>
     </g>
     <g id="text_19">
      <!-- 0.0 -->
      <g transform="translate(26.685 954.961562) scale(0.12 -0.12)">
       <use xlink:href="#DejaVuSans-30"/>
       <use xlink:href="#DejaVuSans-2e" transform="translate(63.623047 0)"/>
       <use xlink:href="#DejaVuSans-30" transform="translate(95.410156 0)"/>
      </g>
     </g>
    </g>
    <g id="ytick_8">
     <g id="line2d_45">
      <path d="M 52.76875 862.136625 
L 846.45875 862.136625 
" clip-path="url(#pb0d0b0b61d)" style="fill: none; stroke-dasharray: 2.96,1.28; stroke-dashoffset: 0; stroke: #b0b0b0; stroke-opacity: 0.7; stroke-width: 0.8"/>
     </g>
     <g id="line2d_46">
      <g>
       <use xlink:href="#mdf8af7c4e8" x="52.76875" y="862.136625" style="stroke: #000000; stroke-width: 0.8"/>
      </g>
     </g>
     <g id="text_20">
      <!-- 0.2 -->
      <g transform="translate(26.685 866.695687) scale(0.12 -0.12)">
       <use xlink:href="#DejaVuSans-30"/>
       <use xlink:href="#DejaVuSans-2e" transform="translate(63.623047 0)"/>
       <use xlink:href="#DejaVuSans-32" transform="translate(95.410156 0)"/>
      </g>
     </g>
    </g>
    <g id="ytick_9">
     <g id="line2d_47">
      <path d="M 52.76875 773.87075 
L 846.45875 773.87075 
" clip-path="url(#pb0d0b0b61d)" style="fill: none; stroke-dasharray: 2.96,1.28; stroke-dashoffset: 0; stroke: #b0b0b0; stroke-opacity: 0.7; stroke-width: 0.8"/>
     </g>
     <g id="line2d_48">
      <g>
       <use xlink:href="#mdf8af7c4e8" x="52.76875" y="773.87075" style="stroke: #000000; stroke-width: 0.8"/>
      </g>
     </g>
     <g id="text_21">
      <!-- 0.4 -->
      <g transform="translate(26.685 778.429812) scale(0.12 -0.12)">
       <use xlink:href="#DejaVuSans-30"/>
       <use xlink:href="#DejaVuSans-2e" transform="translate(63.623047 0)"/>
       <use xlink:href="#DejaVuSans-34" transform="translate(95.410156 0)"/>
      </g>
     </g>
    </g>
    <g id="ytick_10">
     <g id="line2d_49">
      <path d="M 52.76875 685.604875 
L 846.45875 685.604875 
" clip-path="url(#pb0d0b0b61d)" style="fill: none; stroke-dasharray: 2.96,1.28; stroke-dashoffset: 0; stroke: #b0b0b0; stroke-opacity: 0.7; stroke-width: 0.8"/>
     </g>
     <g id="line2d_50">
      <g>
       <use xlink:href="#mdf8af7c4e8" x="52.76875" y="685.604875" style="stroke: #000000; stroke-width: 0.8"/>
      </g>
     </g>
     <g id="text_22">
      <!-- 0.6 -->
      <g transform="translate(26.685 690.163937) scale(0.12 -0.12)">
       <use xlink:href="#DejaVuSans-30"/>
       <use xlink:href="#DejaVuSans-2e" transform="translate(63.623047 0)"/>
       <use xlink:href="#DejaVuSans-36" transform="translate(95.410156 0)"/>
      </g>
     </g>
    </g>
    <g id="ytick_11">
     <g id="line2d_51">
      <path d="M 52.76875 597.339 
L 846.45875 597.339 
" clip-path="url(#pb0d0b0b61d)" style="fill: none; stroke-dasharray: 2.96,1.28; stroke-dashoffset: 0; stroke: #b0b0b0; stroke-opacity: 0.7; stroke-width: 0.8"/>
     </g>
     <g id="line2d_52">
      <g>
       <use xlink:href="#mdf8af7c4e8" x="52.76875" y="597.339" style="stroke: #000000; stroke-width: 0.8"/>
      </g>
     </g>
     <g id="text_23">
      <!-- 0.8 -->
      <g transform="translate(26.685 601.898062) scale(0.12 -0.12)">
       <use xlink:href="#DejaVuSans-30"/>
       <use xlink:href="#DejaVuSans-2e" transform="translate(63.623047 0)"/>
       <use xlink:href="#DejaVuSans-38" transform="translate(95.410156 0)"/>
      </g>
     </g>
    </g>
    <g id="ytick_12">
     <g id="line2d_53">
      <path d="M 52.76875 509.073125 
L 846.45875 509.073125 
" clip-path="url(#pb0d0b0b61d)" style="fill: none; stroke-dasharray: 2.96,1.28; stroke-dashoffset: 0; stroke: #b0b0b0; stroke-opacity: 0.7; stroke-width: 0.8"/>
     </g>
     <g id="line2d_54">
      <g>
       <use xlink:href="#mdf8af7c4e8" x="52.76875" y="509.073125" style="stroke: #000000; stroke-width: 0.8"/>
      </g>
     </g>
     <g id="text_24">
      <!-- 1.0 -->
      <g transform="translate(26.685 513.632187) scale(0.12 -0.12)">
       <use xlink:href="#DejaVuSans-31"/>
       <use xlink:href="#DejaVuSans-2e" transform="translate(63.623047 0)"/>
       <use xlink:href="#DejaVuSans-30" transform="translate(95.410156 0)"/>
      </g>
     </g>
    </g>
    <g id="text_25">
     <!-- Водонасыщенность Sw, д.ед. -->
     <g transform="translate(19.3575 853.300312) rotate(-90) scale(0.16 -0.16)">
      <use xlink:href="#DejaVuSans-412"/>
      <use xlink:href="#DejaVuSans-43e" transform="translate(68.603516 0)"/>
      <use xlink:href="#DejaVuSans-434" transform="translate(129.785156 0)"/>
      <use xlink:href="#DejaVuSans-43e" transform="translate(198.925781 0)"/>
      <use xlink:href="#DejaVuSans-43d" transform="translate(260.107422 0)"/>
      <use xlink:href="#DejaVuSans-430" transform="translate(325.488281 0)"/>
      <use xlink:href="#DejaVuSans-441" transform="translate(386.767578 0)"/>
      <use xlink:href="#DejaVuSans-44b" transform="translate(441.748047 0)"/>
      <use xlink:href="#DejaVuSans-449" transform="translate(520.703125 0)"/>
      <use xlink:href="#DejaVuSans-435" transform="translate(614.892578 0)"/>
      <use xlink:href="#DejaVuSans-43d" transform="translate(676.416016 0)"/>
      <use xlink:href="#DejaVuSans-43d" transform="translate(741.796875 0)"/>
      <use xlink:href="#DejaVuSans-43e" transform="translate(807.177734 0)"/>
      <use xlink:href="#DejaVuSans-441" transform="translate(868.359375 0)"/>
      <use xlink:href="#DejaVuSans-442" transform="translate(923.339844 0)"/>
      <use xlink:href="#DejaVuSans-44c" transform="translate(981.591797 0)"/>
      <use xlink:href="#DejaVuSans-20" transform="translate(1040.527344 0)"/>
      <use xlink:href="#DejaVuSans-53" transform="translate(1072.314453 0)"/>
      <use xlink:href="#DejaVuSans-77" transform="translate(1135.791016 0)"/>
      <use xlink:href="#DejaVuSans-2c" transform="translate(1217.578125 0)"/>
      <use xlink:href="#DejaVuSans-20" transform="translate(1249.365234 0)"/>
      <use xlink:href="#DejaVuSans-434" transform="translate(1281.152344 0)"/>
      <use xlink:href="#DejaVuSans-2e" transform="translate(1350.292969 0)"/>
      <use xlink:href="#DejaVuSans-435" transform="translate(1382.080078 0)"/>
      <use xlink:href="#DejaVuSans-434" transform="translate(1443.603516 0)"/>
      <use xlink:href="#DejaVuSans-2e" transform="translate(1512.744141 0)"/>
     </g>
    </g>
   </g>
   <g id="line2d_55">
    <path d="M 88.845568 597.339 
L 96.060932 611.197517 
L 103.276295 621.965785 
L 110.491659 630.910431 
L 117.707023 638.57017 
L 124.922386 645.264962 
L 132.13775 651.207585 
L 139.353114 656.54813 
L 146.568477 661.396546 
L 153.783841 665.835619 
L 160.999205 669.928893 
L 168.214568 673.727301 
L 175.429932 677.261698 
L 182.645295 680.606424 
L 189.860659 683.577932 
L 197.076023 687.036932 
L 204.291386 688.23229 
L 211.50675 695.424271 
L 218.722114 690.140108 
L 225.937477 712.826442 
L 233.152841 689.893454 
L 240.368205 755.581029 
L 247.583568 698.112803 
L 254.798932 823.130215 
L 262.014295 754.752464 
L 269.229659 846.382565 
L 276.445023 856.952614 
L 283.660386 862.136472 
L 290.87575 862.136625 
L 298.091114 862.136625 
L 305.306477 862.136625 
L 312.521841 862.136625 
L 319.737205 862.136625 
L 326.952568 862.136625 
L 334.167932 862.136625 
L 341.383295 862.136625 
L 348.598659 862.136625 
L 355.814023 862.136625 
L 363.029386 862.136625 
L 370.24475 862.136625 
L 377.460114 862.136625 
L 384.675477 862.136625 
L 391.890841 862.136625 
L 399.106205 862.136625 
L 406.321568 862.136625 
L 413.536932 862.136625 
L 420.752295 862.136625 
L 427.967659 862.136625 
L 435.183023 862.136625 
L 442.398386 862.136625 
L 449.61375 862.136625 
L 456.829114 862.136625 
L 464.044477 862.136625 
L 471.259841 862.136625 
L 478.475205 862.136625 
L 485.690568 862.136625 
L 492.905932 862.136625 
L 500.121295 862.136625 
L 507.336659 862.136625 
L 514.552023 862.136625 
L 521.767386 862.136625 
L 528.98275 862.136625 
L 536.198114 862.136625 
L 543.413477 862.136625 
L 550.628841 862.136625 
L 557.844205 862.136625 
L 565.059568 862.136625 
L 572.274932 862.136625 
L 579.490295 862.136625 
L 586.705659 862.136625 
L 593.921023 862.136625 
L 601.136386 862.136625 
L 608.35175 862.136625 
L 615.567114 862.136625 
L 622.782477 862.136625 
L 629.997841 862.136625 
L 637.213205 862.136625 
L 644.428568 862.136625 
L 651.643932 862.136625 
L 658.859295 862.136625 
L 666.074659 862.136625 
L 673.290023 862.136625 
L 680.505386 862.136625 
L 687.72075 862.136625 
L 694.936114 862.136625 
L 702.151477 862.136625 
L 709.366841 862.136625 
L 716.582205 862.136625 
L 723.797568 862.136625 
L 731.012932 862.136625 
L 738.228295 862.136625 
L 745.443659 862.136625 
L 752.659023 862.136625 
L 759.874386 862.136625 
L 767.08975 862.136625 
L 774.305114 862.136625 
L 781.520477 862.136625 
L 788.735841 862.136625 
L 795.951205 862.136625 
L 803.166568 862.136625 
L 810.381932 862.136625 
" clip-path="url(#pb0d0b0b61d)" style="fill: none; stroke: #0000ff; stroke-width: 3; stroke-linecap: square"/>
   </g>
   <g id="line2d_56">
    <path d="M 88.845568 597.339 
L 96.060932 602.013669 
L 103.276295 606.011316 
L 110.491659 609.610572 
L 117.707023 612.907486 
L 124.922386 615.956958 
L 132.13775 618.796695 
L 139.353114 621.454966 
L 146.568477 623.954036 
L 153.783841 626.311991 
L 160.999205 628.543841 
L 168.214568 630.662241 
L 175.429932 632.677989 
L 182.645295 634.600396 
L 189.860659 636.437553 
L 197.076023 638.196545 
L 204.291386 639.883613 
L 211.50675 641.504287 
L 218.722114 643.063489 
L 225.937477 644.565622 
L 233.152841 646.014642 
L 240.368205 647.414112 
L 247.583568 648.76726 
L 254.798932 650.077014 
L 262.014295 651.346041 
L 269.229659 652.576778 
L 276.445023 653.771454 
L 283.660386 654.932118 
L 290.87575 656.060657 
L 298.091114 657.158808 
L 305.306477 658.228181 
L 312.521841 659.270265 
L 319.737205 660.286445 
L 326.952568 661.278006 
L 334.167932 662.246147 
L 341.383295 663.191988 
L 348.598659 664.116573 
L 355.814023 665.020881 
L 363.029386 665.90583 
L 370.24475 666.772282 
L 377.460114 667.621043 
L 384.675477 668.452876 
L 391.890841 669.268497 
L 399.106205 670.068581 
L 406.321568 670.853763 
L 413.536932 671.624646 
L 420.752295 672.381795 
L 427.967659 673.125747 
L 435.183023 673.857007 
L 442.398386 674.576055 
L 449.61375 675.283343 
L 456.829114 675.979297 
L 464.044477 676.664323 
L 471.259841 677.338803 
L 478.475205 678.003097 
L 485.690568 678.657546 
L 492.905932 679.302472 
L 500.121295 679.938178 
L 507.336659 680.56495 
L 514.552023 681.183056 
L 521.767386 681.79275 
L 528.98275 682.394268 
L 536.198114 682.987833 
L 543.413477 683.573655 
L 550.628841 684.151929 
L 557.844205 684.722839 
L 565.059568 685.28656 
L 572.274932 685.843256 
L 579.490295 686.393086 
L 586.705659 686.936201 
L 593.921023 687.472751 
L 601.136386 688.002886 
L 608.35175 688.526749 
L 615.567114 689.044509 
L 622.782477 689.556275 
L 629.997841 690.062324 
L 637.213205 690.562548 
L 644.428568 691.057701 
L 651.643932 691.546708 
L 658.859295 692.032175 
L 666.074659 692.509557 
L 673.290023 692.987339 
L 680.505386 693.451255 
L 687.72075 693.924141 
L 694.936114 694.371568 
L 702.151477 694.841141 
L 709.366841 695.268849 
L 716.582205 695.73432 
L 723.797568 696.1375 
L 731.012932 696.595474 
L 738.228295 696.967258 
L 745.443659 697.409553 
L 752.659023 697.740827 
L 759.874386 698.151651 
L 767.08975 698.430674 
L 774.305114 698.783506 
L 781.520477 698.994837 
L 788.735841 699.249664 
L 795.951205 699.371622 
L 803.166568 699.473416 
L 810.381932 699.473416 
" clip-path="url(#pb0d0b0b61d)" style="fill: none; stroke-dasharray: 11.1,4.8; stroke-dashoffset: 0; stroke: #008000; stroke-width: 3"/>
   </g>
   <g id="line2d_57">
    <path d="M 88.845568 597.339 
L 96.060932 599.967439 
L 103.276295 602.480114 
L 110.491659 604.792522 
L 117.707023 606.953823 
L 124.922386 608.990066 
L 132.13775 610.918534 
L 139.353114 612.752027 
L 146.568477 614.500622 
L 153.783841 616.172557 
L 160.999205 617.774737 
L 168.214568 619.313054 
L 175.429932 620.792606 
L 182.645295 622.217847 
L 189.860659 623.59271 
L 197.076023 624.920684 
L 204.291386 626.204892 
L 211.50675 627.448141 
L 218.722114 628.652965 
L 225.937477 629.821665 
L 233.152841 630.956335 
L 240.368205 632.058888 
L 247.583568 633.131081 
L 254.798932 634.174527 
L 262.014295 635.190713 
L 269.229659 636.181014 
L 276.445023 637.146704 
L 283.660386 638.088966 
L 290.87575 639.008897 
L 298.091114 639.907525 
L 305.306477 640.785803 
L 312.521841 641.644628 
L 319.737205 642.484836 
L 326.952568 643.307212 
L 334.167932 644.112494 
L 341.383295 644.901375 
L 348.598659 645.674508 
L 355.814023 646.432508 
L 363.029386 647.175956 
L 370.24475 647.9054 
L 377.460114 648.62136 
L 384.675477 649.324326 
L 391.890841 650.014763 
L 399.106205 650.693113 
L 406.321568 651.359794 
L 413.536932 652.015205 
L 420.752295 652.659722 
L 427.967659 653.293707 
L 435.183023 653.917502 
L 442.398386 654.531431 
L 449.61375 655.135808 
L 456.829114 655.730927 
L 464.044477 656.317071 
L 471.259841 656.89451 
L 478.475205 657.463502 
L 485.690568 658.024292 
L 492.905932 658.577113 
L 500.121295 659.12219 
L 507.336659 659.659735 
L 514.552023 660.189952 
L 521.767386 660.713034 
L 528.98275 661.229162 
L 536.198114 661.738512 
L 543.413477 662.241248 
L 550.628841 662.737523 
L 557.844205 663.227482 
L 565.059568 663.71126 
L 572.274932 664.18898 
L 579.490295 664.660754 
L 586.705659 665.126683 
L 593.921023 665.586854 
L 601.136386 666.041339 
L 608.35175 666.490197 
L 615.567114 666.933466 
L 622.782477 667.371165 
L 629.997841 667.803293 
L 637.213205 668.229819 
L 644.428568 668.650684 
L 651.643932 669.065795 
L 658.859295 669.475017 
L 666.074659 669.878171 
L 673.290023 670.275018 
L 680.505386 670.66526 
L 687.72075 671.048521 
L 694.936114 671.424335 
L 702.151477 671.792131 
L 709.366841 672.151216 
L 716.582205 672.500748 
L 723.797568 672.839712 
L 731.012932 673.16689 
L 738.228295 673.480816 
L 745.443659 673.779739 
L 752.659023 674.061564 
L 759.874386 674.323789 
L 767.08975 674.563428 
L 774.305114 674.776919 
L 781.520477 674.960013 
L 788.735841 675.10764 
L 795.951205 675.213752 
L 803.166568 675.271125 
L 810.381932 675.271125 
" clip-path="url(#pb0d0b0b61d)" style="fill: none; stroke-dasharray: 19.2,4.8,3,4.8; stroke-dashoffset: 0; stroke: #ff0000; stroke-width: 3"/>
   </g>
   <g id="patch_9">
    <path d="M 52.76875 950.4025 
L 52.76875 509.073125 
" style="fill: none; stroke: #000000; stroke-width: 0.8; stroke-linejoin: miter; stroke-linecap: square"/>
   </g>
   <g id="patch_10">
    <path d="M 846.45875 950.4025 
L 846.45875 509.073125 
" style="fill: none; stroke: #000000; stroke-width: 0.8; stroke-linejoin: miter; stroke-linecap: square"/>
   </g>
   <g id="patch_11">
    <path d="M 52.76875 950.4025 
L 846.45875 950.4025 
" style="fill: none; stroke: #000000; stroke-width: 0.8; stroke-linejoin: miter; stroke-linecap: square"/>
   </g>
   <g id="patch_12">
    <path d="M 52.76875 509.073125 
L 846.45875 509.073125 
" style="fill: none; stroke: #000000; stroke-width: 0.8; stroke-linejoin: miter; stroke-linecap: square"/>
   </g>
   <g id="text_26">
    <!-- Профиль насыщенности с учетом капиллярных эффектов -->
    <g transform="translate(172.27875 503.073125) scale(0.18 -0.18)">
     <use xlink:href="#DejaVuSans-41f"/>
     <use xlink:href="#DejaVuSans-440" transform="translate(75.195312 0)"/>
     <use xlink:href="#DejaVuSans-43e" transform="translate(138.671875 0)"/>
     <use xlink:href="#DejaVuSans-444" transform="translate(199.853516 0)"/>
     <use xlink:href="#DejaVuSans-438" transform="translate(285.351562 0)"/>
     <use xlink:href="#DejaVuSans-43b" transform="translate(350.341797 0)"/>
     <use xlink:href="#DejaVuSans-44c" transform="translate(414.257812 0)"/>
     <use xlink:href="#DejaVuSans-20" transform="translate(473.193359 0)"/>
     <use xlink:href="#DejaVuSans-43d" transform="translate(504.980469 0)"/>
     <use xlink:href="#DejaVuSans-430" transform="translate(570.361328 0)"/>
     <use xlink:href="#DejaVuSans-441" transform="translate(631.640625 0)"/>
     <use xlink:href="#DejaVuSans-44b" transform="translate(686.621094 0)"/>
     <use xlink:href="#DejaVuSans-449" transform="translate(765.576172 0)"/>
     <use xlink:href="#DejaVuSans-435" transform="translate(859.765625 0)"/>
     <use xlink:href="#DejaVuSans-43d" transform="translate(921.289062 0)"/>
     <use xlink:href="#DejaVuSans-43d" transform="translate(986.669922 0)"/>
     <use xlink:href="#DejaVuSans-43e" transform="translate(1052.050781 0)"/>
     <use xlink:href="#DejaVuSans-441" transform="translate(1113.232422 0)"/>
     <use xlink:href="#DejaVuSans-442" transform="translate(1168.212891 0)"/>
     <use xlink:href="#DejaVuSans-438" transform="translate(1226.464844 0)"/>
     <use xlink:href="#DejaVuSans-20" transform="translate(1291.455078 0)"/>
     <use xlink:href="#DejaVuSans-441" transform="translate(1323.242188 0)"/>
     <use xlink:href="#DejaVuSans-20" transform="translate(1378.222656 0)"/>
     <use xlink:href="#DejaVuSans-443" transform="translate(1410.009766 0)"/>
     <use xlink:href="#DejaVuSans-447" transform="translate(1469.189453 0)"/>
     <use xlink:href="#DejaVuSans-435" transform="translate(1528.271484 0)"/>
     <use xlink:href="#DejaVuSans-442" transform="translate(1589.794922 0)"/>
     <use xlink:href="#DejaVuSans-43e" transform="translate(1648.046875 0)"/>
     <use xlink:href="#DejaVuSans-43c" transform="translate(1709.228516 0)"/>
     <use xlink:href="#DejaVuSans-20" transform="translate(1784.667969 0)"/>
     <use xlink:href="#DejaVuSans-43a" transform="translate(1816.455078 0)"/>
     <use xlink:href="#DejaVuSans-430" transform="translate(1876.855469 0)"/>
     <use xlink:href="#DejaVuSans-43f" transform="translate(1938.134766 0)"/>
     <use xlink:href="#DejaVuSans-438" transform="translate(2003.515625 0)"/>
     <use xlink:href="#DejaVuSans-43b" transform="translate(2068.505859 0)"/>
     <use xlink:href="#DejaVuSans-43b" transform="translate(2132.421875 0)"/>
     <use xlink:href="#DejaVuSans-44f" transform="translate(2196.337891 0)"/>
     <use xlink:href="#DejaVuSans-440" transform="translate(2256.494141 0)"/>
     <use xlink:href="#DejaVuSans-43d" transform="translate(2319.970703 0)"/>
     <use xlink:href="#DejaVuSans-44b" transform="translate(2385.351562 0)"/>
     <use xlink:href="#DejaVuSans-445" transform="translate(2464.306641 0)"/>
     <use xlink:href="#DejaVuSans-20" transform="translate(2523.486328 0)"/>
     <use xlink:href="#DejaVuSans-44d" transform="translate(2555.273438 0)"/>
     <use xlink:href="#DejaVuSans-444" transform="translate(2610.15625 0)"/>
     <use xlink:href="#DejaVuSans-444" transform="translate(2695.654297 0)"/>
     <use xlink:href="#DejaVuSans-435" transform="translate(2781.152344 0)"/>
     <use xlink:href="#DejaVuSans-43a" transform="translate(2842.675781 0)"/>
     <use xlink:href="#DejaVuSans-442" transform="translate(2903.076172 0)"/>
     <use xlink:href="#DejaVuSans-43e" transform="translate(2961.328125 0)"/>
     <use xlink:href="#DejaVuSans-432" transform="translate(3022.509766 0)"/>
    </g>
   </g>
   <g id="legend_2">
    <g id="patch_13">
     <path d="M 723.73125 581.92125 
L 836.65875 581.92125 
Q 839.45875 581.92125 839.45875 579.12125 
L 839.45875 518.873125 
Q 839.45875 516.073125 836.65875 516.073125 
L 723.73125 516.073125 
Q 720.93125 516.073125 720.93125 518.873125 
L 720.93125 579.12125 
Q 720.93125 581.92125 723.73125 581.92125 
z
" style="fill: #ffffff; opacity: 0.8; stroke: #cccccc; stroke-linejoin: miter"/>
    </g>
    <g id="line2d_58">
     <path d="M 726.53125 527.410937 
L 740.53125 527.410937 
L 754.53125 527.410937 
" style="fill: none; stroke: #0000ff; stroke-width: 3; stroke-linecap: square"/>
    </g>
    <g id="text_27">
     <!-- День 10 -->
     <g transform="translate(765.73125 532.310937) scale(0.14 -0.14)">
      <use xlink:href="#DejaVuSans-414"/>
      <use xlink:href="#DejaVuSans-435" transform="translate(78.125 0)"/>
      <use xlink:href="#DejaVuSans-43d" transform="translate(139.648438 0)"/>
      <use xlink:href="#DejaVuSans-44c" transform="translate(205.029297 0)"/>
      <use xlink:href="#DejaVuSans-20" transform="translate(263.964844 0)"/>
      <use xlink:href="#DejaVuSans-31" transform="translate(295.751953 0)"/>
      <use xlink:href="#DejaVuSans-30" transform="translate(359.375 0)"/>
     </g>
    </g>
    <g id="line2d_59">
     <path d="M 726.53125 547.960312 
L 740.53125 547.960312 
L 754.53125 547.960312 
" style="fill: none; stroke-dasharray: 11.1,4.8; stroke-dashoffset: 0; stroke: #008000; stroke-width: 3"/>
    </g>
    <g id="text_28">
     <!-- День 50 -->
     <g transform="translate(765.73125 552.860312) scale(0.14 -0.14)">
      <use xlink:href="#DejaVuSans-414"/>
      <use xlink:href="#DejaVuSans-435" transform="translate(78.125 0)"/>
      <use xlink:href="#DejaVuSans-43d" transform="translate(139.648438 0)"/>
      <use xlink:href="#DejaVuSans-44c" transform="translate(205.029297 0)"/>
      <use xlink:href="#DejaVuSans-20" transform="translate(263.964844 0)"/>
      <use xlink:href="#DejaVuSans-35" transform="translate(295.751953 0)"/>
      <use xlink:href="#DejaVuSans-30" transform="translate(359.375 0)"/>
     </g>
    </g>
    <g id="line2d_60">
     <path d="M 726.53125 568.509687 
L 740.53125 568.509687 
L 754.53125 568.509687 
" style="fill: none; stroke-dasharray: 19.2,4.8,3,4.8; stroke-dashoffset: 0; stroke: #ff0000; stroke-width: 3"/>
    </g>
    <g id="text_29">
     <!-- День 100 -->
     <g transform="translate(765.73125 573.409687) scale(0.14 -0.14)">
      <use xlink:href="#DejaVuSans-414"/>
      <use xlink:href="#DejaVuSans-435" transform="translate(78.125 0)"/>
      <use xlink:href="#DejaVuSans-43d" transform="translate(139.648438 0)"/>
      <use xlink:href="#DejaVuSans-44c" transform="translate(205.029297 0)"/>
      <use xlink:href="#DejaVuSans-20" transform="translate(263.964844 0)"/>
      <use xlink:href="#DejaVuSans-31" transform="translate(295.751953 0)"/>
      <use xlink:href="#DejaVuSans-30" transform="translate(359.375 0)"/>
      <use xlink:href="#DejaVuSans-30" transform="translate(422.998047 0)"/>
     </g>
    </g>
   </g>
  </g>
 </g>
 <defs>
  <clipPath id="p10e4f03752">
   <rect x="52.76875" y="27.18375" width="793.69" height="441.329375"/>
  </clipPath>
  <clipPath id="pb0d0b0b61d">
   <rect x="52.76875" y="509.073125" width="793.69" height="441.329375"/>
  </clipPath>
 </defs>
</svg>
